# Blender v2.83.2 OBJ File: 'TrainAnimation.blend'
# www.blender.org
mtllib TrainAnimation_000019.mtl
o Cube.001
v -2.391855 0.496685 12.710951
v -2.405037 0.498490 12.670386
v -2.390457 0.583607 12.714363
v -2.389925 0.598678 12.674424
v -2.403639 0.585411 12.673799
v -2.403020 0.508597 12.412076
v -2.387908 0.608786 12.416115
v -2.401622 0.595519 12.415488
v -2.305053 0.496854 12.671103
v -2.318867 0.495491 12.711473
v -2.316936 0.597484 12.674948
v -2.317469 0.582412 12.714886
v -2.303655 0.583775 12.674515
v -2.303036 0.506961 12.412793
v -2.314919 0.607591 12.416637
v -2.301638 0.593883 12.416204
vt 0.544416 0.648533
vt 0.544416 0.820938
vt 0.455584 0.820938
vt 0.455584 0.648533
vt 0.982074 0.510401
vt 0.982074 0.956148
vt 0.008083 0.956148
vt 0.008083 0.510401
vt 0.658750 0.533750
vt 0.841250 0.533750
vt 0.841250 0.716250
vt 0.658750 0.716250
vt 0.983600 0.513044
vt 0.983600 0.937818
vt 0.006557 0.937818
vt 0.006557 0.513044
vt 0.619549 0.838289
vt 0.653299 0.838289
vt 0.619549 0.872039
vt 0.653828 0.819603
vt 0.653828 0.853353
vt 0.620078 0.819603
vt 0.509668 0.661960
vt 0.509668 0.807212
vt 0.492793 0.807212
vt 0.492793 0.661960
vt 0.901201 0.874855
vt 0.901201 0.812645
vt 0.912705 0.812645
vt 0.912705 0.874855
vt 0.633279 0.788506
vt 0.658761 0.820869
vt 0.640159 0.820869
vt 0.633279 0.820869
vt 0.614676 0.820869
vt 0.614676 0.788506
vt 0.656250 0.738569
vt 0.656250 0.886431
vt 0.601562 0.886431
vt 0.601562 0.738569
vt 0.481895 0.853812
vt 0.481895 0.621580
vt 0.515645 0.621580
vt 0.515645 0.853812
vt 0.094494 0.814251
vt 0.909703 0.814251
vt 0.909703 0.848001
vt 0.094493 0.848001
vn -0.0078 -0.0391 0.9992
vn 0.9998 -0.0164 0.0072
vn 0.0161 0.9991 0.0392
vn -0.9998 0.0164 -0.0072
vn -0.6788 0.6899 0.2513
vn 0.6974 0.6674 0.2612
vn -0.9510 0.0032 0.3092
vn -0.6956 0.7180 0.0227
vn 0.0078 0.0391 -0.9992
vn 0.7184 0.6949 0.0328
vn 0.9461 -0.0279 0.3228
vn 0.0128 0.9355 0.3532
usemtl Material.002
s off
f 10/1/1 12/2/1 3/3/1 1/4/1
f 14/5/2 16/6/2 13/7/2 9/8/2
f 15/9/3 7/10/3 4/11/3 11/12/3
f 2/13/4 5/14/4 8/15/4 6/16/4
f 3/17/5 4/18/5 5/19/5
f 11/20/6 12/21/6 13/22/6
f 1/23/7 3/24/7 5/25/7 2/26/7
f 4/27/8 7/28/8 8/29/8 5/30/8
f 8/31/9 7/32/9 15/33/9 16/34/9 14/35/9 6/36/9
f 15/37/10 11/38/10 13/39/10 16/40/10
f 12/41/11 10/42/11 9/43/11 13/44/11
f 11/45/12 4/46/12 3/47/12 12/48/12
o Cube.008_Cube.007
v -2.402788 0.510218 12.383418
v -2.400447 0.521948 12.083656
v -2.302804 0.508582 12.384134
v -2.300463 0.520312 12.084373
v -2.388683 0.609924 12.387429
v -2.401382 0.597640 12.386849
v -2.399042 0.609369 12.087089
v -2.386343 0.621654 12.087668
v -2.301398 0.596004 12.387567
v -2.313695 0.608697 12.387967
v -2.311355 0.620427 12.088205
v -2.299057 0.607733 12.087805
vt 0.960410 0.001563
vt 0.960410 0.467716
vt 0.030991 0.467716
vt 0.030991 0.001563
vt 0.976119 0.515625
vt 0.976119 0.953125
vt 0.016069 0.953125
vt 0.016069 0.515625
vt 0.765053 0.871765
vt 0.765053 0.768860
vt 0.777916 0.768860
vt 0.777916 0.871765
vt 0.644762 0.745169
vt 0.644762 0.872018
vt 0.613050 0.872018
vt 0.613050 0.745169
vt 0.979831 0.511719
vt 0.979831 0.949219
vt 0.012357 0.949219
vt 0.012357 0.511719
vt 0.667358 0.827018
vt 0.639722 0.827018
vt 0.630509 0.827018
vt 0.598267 0.827018
vt 0.598267 0.790169
vt 0.630509 0.790169
vt 0.658968 0.795706
vt 0.642336 0.795706
vt 0.642336 0.852732
vt 0.658968 0.852732
vt 0.663720 0.852732
vt 0.677977 0.852732
vn 0.0161 0.9991 0.0392
vn 0.9998 -0.0164 0.0072
vn -0.6956 0.7180 0.0227
vn 0.7184 0.6949 0.0328
vn -0.9998 0.0164 -0.0072
vn 0.0078 0.0391 -0.9992
vn -0.0078 -0.0391 0.9992
usemtl Material.002
s off
f 27/49/13 24/50/13 21/51/13 26/52/13
f 20/53/14 28/54/14 25/55/14 19/56/14
f 21/57/15 24/58/15 23/59/15 22/60/15
f 27/61/16 26/62/16 25/63/16 28/64/16
f 17/65/17 22/66/17 23/67/17 18/68/17
f 24/69/18 27/70/18 28/71/18 20/72/18 18/73/18 23/74/18
f 22/75/19 17/76/19 19/77/19 25/78/19 26/79/19 21/80/19
o Cube.009_Cube.010
v -2.404809 0.528886 12.060240
v -2.436598 0.540735 11.762164
v -2.306345 0.515356 12.049201
v -2.338134 0.527205 11.751125
v -2.378621 0.626196 12.061316
v -2.392664 0.615512 12.062388
v -2.424453 0.627361 11.764313
v -2.410411 0.638045 11.763240
v -2.294201 0.601982 12.051350
v -2.304774 0.616049 12.053036
v -2.336563 0.627898 11.754960
v -2.325990 0.613831 11.753274
vt 0.795081 0.948129
vt 0.826013 0.948129
vt 0.826013 0.989371
vt 0.795081 0.989371
vt 0.979920 0.515625
vt 0.979920 0.953125
vt 0.016174 0.953125
vt 0.016174 0.515625
vt 0.890716 0.874276
vt 0.890716 0.750724
vt 0.906159 0.750724
vt 0.906159 0.874276
vt 0.633235 0.775655
vt 0.633235 0.825908
vt 0.620672 0.825908
vt 0.620672 0.775655
vt 0.984513 0.500000
vt 0.984513 0.937500
vt 0.007674 0.937500
vt 0.007674 0.500000
vt 0.659262 0.830513
vt 0.638102 0.830513
vt 0.631049 0.830513
vt 0.606363 0.830513
vt 0.606363 0.802300
vt 0.631049 0.802300
vt 0.633987 0.754748
vt 0.595741 0.754748
vt 0.595741 0.885877
vt 0.633987 0.885877
vt 0.644914 0.885877
vt 0.677696 0.885877
vn 0.1388 0.9900 0.0246
vn 0.9846 -0.1353 -0.1104
vn -0.5981 0.7957 0.0954
vn 0.7944 0.6044 -0.0607
vn -0.9846 0.1353 0.1104
vn -0.1060 0.0395 -0.9936
vn 0.1060 -0.0395 0.9936
usemtl Material.002
s off
f 39/81/20 36/82/20 33/83/20 38/84/20
f 32/85/21 40/86/21 37/87/21 31/88/21
f 33/89/22 36/90/22 35/91/22 34/92/22
f 39/93/23 38/94/23 37/95/23 40/96/23
f 29/97/24 34/98/24 35/99/24 30/100/24
f 36/101/25 39/102/25 40/103/25 32/104/25 30/105/25 35/106/25
f 34/107/26 29/108/26 31/109/26 37/110/26 38/111/26 33/112/26
o Cube.011
v -2.436631 0.534860 11.748978
v -2.542510 0.513911 11.469065
v -2.343067 0.532546 11.713758
v -2.448946 0.511597 11.433846
v -2.425236 0.634300 11.737225
v -2.436893 0.622123 11.742546
v -2.542773 0.601174 11.462634
v -2.531115 0.613351 11.457313
v -2.343329 0.619809 11.707327
v -2.355062 0.632564 11.710811
v -2.460941 0.611616 11.430899
v -2.449208 0.598860 11.427415
vt 0.016522 0.443981
vt 0.016522 -0.007317
vt 0.990504 -0.007317
vt 0.990504 0.443981
vt 0.973976 0.503906
vt 0.973976 0.941406
vt 0.026024 0.941406
vt 0.026024 0.503906
vt 0.749896 0.887555
vt 0.749896 0.792133
vt 0.761823 0.792133
vt 0.761823 0.887555
vt 0.638520 0.781858
vt 0.638520 0.890017
vt 0.611480 0.890017
vt 0.611480 0.781858
vt 0.978028 0.507812
vt 0.978028 0.945312
vt 0.018066 0.945312
vt 0.018066 0.507812
vt 0.678337 0.855269
vt 0.643480 0.855269
vt 0.631861 0.855269
vt 0.591194 0.855269
vt 0.591194 0.808793
vt 0.631861 0.808793
vt 0.626242 0.885282
vt 0.643633 0.885282
vt 0.643633 0.825655
vt 0.626242 0.825655
vt 0.621273 0.825655
vt 0.606367 0.825655
vn -0.0030 0.9973 -0.0735
vn 0.9356 -0.0231 -0.3522
vn -0.6637 0.7216 0.1971
vn 0.6595 0.6888 -0.3010
vn -0.9356 0.0231 0.3522
vn -0.3529 -0.0698 -0.9330
vn 0.3529 0.0698 0.9330
usemtl Material.002
s off
f 51/113/27 48/114/27 45/115/27 50/116/27
f 44/117/28 52/118/28 49/119/28 43/120/28
f 45/121/29 48/122/29 47/123/29 46/124/29
f 51/125/30 50/126/30 49/127/30 52/128/30
f 41/129/31 46/130/31 47/131/31 42/132/31
f 48/133/32 51/134/32 52/135/32 44/136/32 42/137/32 47/138/32
f 46/139/33 41/140/33 43/141/33 49/142/33 50/143/33 45/144/33
o Cube.012
v -2.361227 0.530660 12.096660
v -2.359839 0.540560 12.096905
v -2.366525 0.532635 12.046981
v -2.365137 0.542535 12.047226
v -2.341534 0.527954 12.094452
v -2.340147 0.537854 12.094697
v -2.346833 0.529929 12.044773
v -2.345445 0.539829 12.045018
vt 0.490107 0.757301
vt 0.509893 0.757301
vt 0.509893 0.777088
vt 0.490107 0.777088
vt 0.509893 0.796875
vt 0.490107 0.796875
vt 0.509893 0.816662
vt 0.490107 0.816662
vt 0.509893 0.836449
vt 0.490107 0.836449
vt 0.470320 0.796875
vt 0.470320 0.816662
vt 0.529680 0.796875
vt 0.529680 0.816662
vn -0.9846 0.1353 0.1104
vn -0.1061 0.0395 -0.9936
vn 0.9846 -0.1353 -0.1104
vn 0.1061 -0.0395 0.9936
vn -0.1388 -0.9900 -0.0246
vn 0.1388 0.9900 0.0246
usemtl Material.002
s off
f 53/145/34 54/146/34 56/147/34 55/148/34
f 55/148/35 56/147/35 60/149/35 59/150/35
f 59/150/36 60/149/36 58/151/36 57/152/36
f 57/152/37 58/151/37 54/153/37 53/154/37
f 55/155/38 59/150/38 57/152/38 53/156/38
f 60/149/39 56/157/39 54/158/39 58/151/39
o Cube.013
v -2.386353 0.545439 11.772105
v -2.386384 0.555412 11.771371
v -2.404000 0.541948 11.725453
v -2.404030 0.551921 11.724718
v -2.367641 0.544976 11.765062
v -2.367671 0.554949 11.764327
v -2.385287 0.541485 11.718410
v -2.385317 0.551458 11.717675
vt 0.482748 0.759117
vt 0.509440 0.759117
vt 0.509440 0.785808
vt 0.482748 0.785808
vt 0.509440 0.812500
vt 0.482748 0.812500
vt 0.509440 0.839192
vt 0.482748 0.839192
vt 0.509440 0.865883
vt 0.482748 0.865883
vt 0.456056 0.812500
vt 0.456056 0.839192
vt 0.536131 0.812500
vt 0.536131 0.839192
vn -0.9356 0.0231 0.3522
vn -0.3529 -0.0698 -0.9330
vn 0.9356 -0.0231 -0.3522
vn 0.3529 0.0698 0.9330
vn 0.0030 -0.9973 0.0735
vn -0.0030 0.9973 -0.0735
usemtl Material.002
s off
f 61/159/40 62/160/40 64/161/40 63/162/40
f 63/162/41 64/161/41 68/163/41 67/164/41
f 67/164/42 68/163/42 66/165/42 65/166/42
f 65/166/43 66/165/43 62/167/43 61/168/43
f 63/169/44 67/164/44 65/166/44 61/170/44
f 68/163/45 64/171/45 62/172/45 66/165/45
o Cube
v -2.364305 0.516761 12.422801
v -2.364145 0.526752 12.423193
v -2.363915 0.518716 12.372841
v -2.363755 0.528707 12.373233
v -2.344309 0.516434 12.422944
v -2.344148 0.526425 12.423336
v -2.343919 0.518389 12.372984
v -2.343758 0.528380 12.373376
vt 0.487708 0.755521
vt 0.512292 0.755521
vt 0.512292 0.780104
vt 0.487708 0.780104
vt 0.512292 0.804688
vt 0.487708 0.804688
vt 0.512292 0.829271
vt 0.487708 0.829271
vt 0.512292 0.853854
vt 0.487708 0.853854
vt 0.463125 0.804688
vt 0.463125 0.829271
vt 0.536875 0.804688
vt 0.536875 0.829271
vn -0.9998 0.0164 -0.0072
vn 0.0078 0.0391 -0.9992
vn 0.9998 -0.0164 0.0072
vn -0.0077 -0.0391 0.9992
vn -0.0161 -0.9991 -0.0392
vn 0.0161 0.9991 0.0392
usemtl Material.002
s off
f 69/173/46 70/174/46 72/175/46 71/176/46
f 71/176/47 72/175/47 76/177/47 75/178/47
f 75/178/48 76/177/48 74/179/48 73/180/48
f 73/180/49 74/179/49 70/181/49 69/182/49
f 71/183/50 75/178/50 73/180/50 69/184/50
f 76/177/51 72/185/51 70/186/51 74/179/51
