# Blender v2.83.2 OBJ File: 'TrainAnimation.blend'
# www.blender.org
mtllib TrainAnimation_000005.mtl
o Cube.001
v -2.386753 0.547684 12.057235
v -2.401071 0.547145 12.017020
v -2.382463 0.634536 12.054542
v -2.382634 0.646800 12.013650
v -2.396781 0.633996 12.014327
v -2.406418 0.539397 11.758677
v -2.387981 0.639052 11.755306
v -2.402127 0.626249 11.755983
v -2.301214 0.542153 12.015103
v -2.313857 0.544040 12.055836
v -2.309739 0.643155 12.012251
v -2.309567 0.630892 12.053143
v -2.296924 0.629004 12.012410
v -2.306561 0.534405 11.756760
v -2.315085 0.635408 11.753907
v -2.302270 0.621257 11.754066
vt 0.544416 0.648533
vt 0.544416 0.820938
vt 0.455584 0.820938
vt 0.455584 0.648533
vt 0.982074 0.510401
vt 0.982074 0.956148
vt 0.008083 0.956148
vt 0.008083 0.510401
vt 0.658750 0.533750
vt 0.841250 0.533750
vt 0.841250 0.716250
vt 0.658750 0.716250
vt 0.983600 0.513044
vt 0.983600 0.937818
vt 0.006557 0.937818
vt 0.006557 0.513044
vt 0.619549 0.838289
vt 0.653299 0.838289
vt 0.619549 0.872039
vt 0.653828 0.819603
vt 0.653828 0.853353
vt 0.620078 0.819603
vt 0.509668 0.661960
vt 0.509668 0.807212
vt 0.492793 0.807212
vt 0.492793 0.661960
vt 0.901201 0.874855
vt 0.901201 0.812645
vt 0.912705 0.812645
vt 0.912705 0.874855
vt 0.633279 0.788506
vt 0.658761 0.820869
vt 0.640159 0.820869
vt 0.633279 0.820869
vt 0.614676 0.820869
vt 0.614676 0.788506
vt 0.656250 0.738569
vt 0.656250 0.886431
vt 0.601562 0.886431
vt 0.601562 0.738569
vt 0.481895 0.853812
vt 0.481895 0.621580
vt 0.515645 0.621580
vt 0.515645 0.853812
vt 0.094494 0.814251
vt 0.909703 0.814251
vt 0.909703 0.848001
vt 0.094493 0.848001
vn 0.0207 0.0300 0.9993
vn 0.9986 -0.0499 -0.0192
vn 0.0493 0.9983 -0.0310
vn -0.9986 0.0499 0.0192
vn -0.6486 0.7283 0.2211
vn 0.7260 0.6596 0.1948
vn -0.9408 0.0568 0.3342
vn -0.6712 0.7412 -0.0083
vn -0.0207 -0.0300 -0.9993
vn 0.7410 0.6706 -0.0354
vn 0.9539 -0.0379 0.2978
vn 0.0533 0.9566 0.2866
usemtl Material.002
s off
f 10/1/1 12/2/1 3/3/1 1/4/1
f 14/5/2 16/6/2 13/7/2 9/8/2
f 15/9/3 7/10/3 4/11/3 11/12/3
f 2/13/4 5/14/4 8/15/4 6/16/4
f 3/17/5 4/18/5 5/19/5
f 11/20/6 12/21/6 13/22/6
f 1/23/7 3/24/7 5/25/7 2/26/7
f 4/27/8 7/28/8 8/29/8 5/30/8
f 8/31/9 7/32/9 15/33/9 16/34/9 14/35/9 6/36/9
f 15/37/10 11/38/10 13/39/10 16/40/10
f 12/41/11 10/42/11 9/43/11 13/44/11
f 11/45/12 4/46/12 3/47/12 12/48/12
o Cube.008_Cube.007
v -2.406986 0.539036 11.729981
v -2.413191 0.530045 11.430181
v -2.307130 0.534043 11.728065
v -2.313334 0.525053 11.428264
v -2.389573 0.638242 11.726645
v -2.402672 0.626387 11.727272
v -2.408876 0.617396 11.427471
v -2.395777 0.629251 11.426845
v -2.302815 0.621395 11.725355
v -2.314680 0.634498 11.725208
v -2.320885 0.625507 11.425407
v -2.309019 0.612404 11.425554
vt 0.960410 0.001563
vt 0.960410 0.467716
vt 0.030991 0.467716
vt 0.030991 0.001563
vt 0.976119 0.515625
vt 0.976119 0.953125
vt 0.016069 0.953125
vt 0.016069 0.515625
vt 0.765053 0.871765
vt 0.765053 0.768860
vt 0.777916 0.768860
vt 0.777916 0.871765
vt 0.644762 0.745169
vt 0.644762 0.872018
vt 0.613050 0.872018
vt 0.613050 0.745169
vt 0.979831 0.511719
vt 0.979831 0.949219
vt 0.012357 0.949219
vt 0.012357 0.511719
vt 0.667358 0.827018
vt 0.639722 0.827018
vt 0.630509 0.827018
vt 0.598267 0.827018
vt 0.598267 0.790169
vt 0.630509 0.790169
vt 0.658968 0.795706
vt 0.642336 0.795706
vt 0.642336 0.852732
vt 0.658968 0.852732
vt 0.663720 0.852732
vt 0.677977 0.852732
vn 0.0493 0.9983 -0.0310
vn 0.9986 -0.0499 -0.0192
vn -0.6712 0.7412 -0.0083
vn 0.7410 0.6706 -0.0354
vn -0.9986 0.0499 0.0192
vn -0.0207 -0.0300 -0.9993
vn 0.0207 0.0300 0.9993
usemtl Material.002
s off
f 27/49/13 24/50/13 21/51/13 26/52/13
f 20/53/14 28/54/14 25/55/14 19/56/14
f 21/57/15 24/58/15 23/59/15 22/60/15
f 27/61/16 26/62/16 25/63/16 28/64/16
f 17/65/17 22/66/17 23/67/17 18/68/17
f 24/69/18 27/70/18 28/71/18 20/72/18 18/73/18 23/74/18
f 22/75/19 17/76/19 19/77/19 25/78/19 26/79/19 21/80/19
o Cube.009_Cube.010
v -2.409225 0.538996 11.444907
v -2.649896 0.574429 11.269345
v -2.353440 0.518913 11.364380
v -2.594111 0.554345 11.188818
v -2.380988 0.633734 11.425318
v -2.390619 0.624088 11.436574
v -2.631290 0.659521 11.261012
v -2.621659 0.669167 11.249756
v -2.334834 0.604004 11.356047
v -2.339149 0.618671 11.364923
v -2.579820 0.654104 11.189361
v -2.575505 0.639437 11.180485
vt 0.795081 0.948129
vt 0.826013 0.948129
vt 0.826013 0.989371
vt 0.795081 0.989371
vt 0.979920 0.515625
vt 0.979920 0.953125
vt 0.016174 0.953125
vt 0.016174 0.515625
vt 0.890716 0.874276
vt 0.890716 0.750724
vt 0.906159 0.750724
vt 0.906159 0.874276
vt 0.633235 0.775655
vt 0.633235 0.825908
vt 0.620672 0.825908
vt 0.620672 0.775655
vt 0.984513 0.500000
vt 0.984513 0.937500
vt 0.007674 0.937500
vt 0.007674 0.500000
vt 0.659262 0.830513
vt 0.638102 0.830513
vt 0.631049 0.830513
vt 0.606363 0.830513
vt 0.606363 0.802300
vt 0.631049 0.802300
vt 0.633987 0.754748
vt 0.595741 0.754748
vt 0.595741 0.885877
vt 0.633987 0.885877
vt 0.644914 0.885877
vt 0.677696 0.885877
vn 0.2126 0.9725 -0.0952
vn 0.5579 -0.2008 -0.8053
vn -0.2441 0.8297 0.5021
vn 0.5448 0.5456 -0.6367
vn -0.5579 0.2008 0.8053
vn -0.8022 0.1181 -0.5852
vn 0.8022 -0.1181 0.5852
usemtl Material.002
s off
f 39/81/20 36/82/20 33/83/20 38/84/20
f 32/85/21 40/86/21 37/87/21 31/88/21
f 33/89/22 36/90/22 35/91/22 34/92/22
f 39/93/23 38/94/23 37/95/23 40/96/23
f 29/97/24 34/98/24 35/99/24 30/100/24
f 36/101/25 39/102/25 40/103/25 32/104/25 30/105/25 35/106/25
f 34/107/26 29/108/26 31/109/26 37/110/26 38/111/26 33/112/26
o Cube.011
v -2.656108 0.571467 11.264757
v -2.933462 0.520732 11.162283
v -2.619389 0.555984 11.173040
v -2.896743 0.505248 11.070566
v -2.661741 0.666868 11.232768
v -2.665053 0.656636 11.246799
v -2.942406 0.605901 11.144324
v -2.939094 0.616132 11.130294
v -2.628334 0.641153 11.155082
v -2.634201 0.655255 11.163980
v -2.911555 0.604520 11.061506
v -2.905687 0.590417 11.052608
vt 0.016522 0.443981
vt 0.016522 -0.007317
vt 0.990504 -0.007317
vt 0.990504 0.443981
vt 0.973976 0.503906
vt 0.973976 0.941406
vt 0.026024 0.941406
vt 0.026024 0.503906
vt 0.749896 0.887555
vt 0.749896 0.792133
vt 0.761823 0.792133
vt 0.761823 0.887555
vt 0.638520 0.781858
vt 0.638520 0.890017
vt 0.611480 0.890017
vt 0.611480 0.781858
vt 0.978028 0.507812
vt 0.978028 0.945312
vt 0.018066 0.945312
vt 0.018066 0.507812
vt 0.678337 0.855269
vt 0.643480 0.855269
vt 0.631861 0.855269
vt 0.591194 0.855269
vt 0.591194 0.808793
vt 0.631861 0.808793
vt 0.626242 0.885282
vt 0.643633 0.885282
vt 0.643633 0.825655
vt 0.626242 0.825655
vt 0.621273 0.825655
vt 0.606367 0.825655
vn -0.1022 0.9734 -0.2052
vn 0.3672 -0.1548 -0.9172
vn -0.3319 0.7978 0.5034
vn 0.1874 0.5788 -0.7937
vn -0.3672 0.1548 0.9172
vn -0.9245 -0.1691 -0.3416
vn 0.9245 0.1691 0.3416
usemtl Material.002
s off
f 51/113/27 48/114/27 45/115/27 50/116/27
f 44/117/28 52/118/28 49/119/28 43/120/28
f 45/121/29 48/122/29 47/123/29 46/124/29
f 51/125/30 50/126/30 49/127/30 52/128/30
f 41/129/31 46/130/31 47/131/31 42/132/31
f 48/133/32 51/134/32 52/135/32 44/136/32 42/137/32 47/138/32
f 46/139/33 41/140/33 43/141/33 49/142/33 50/143/33 45/144/33
o Cube.012
v -2.353133 0.534883 11.436793
v -2.351007 0.544607 11.435841
v -2.393245 0.540788 11.407533
v -2.391119 0.550513 11.406581
v -2.341976 0.530866 11.420688
v -2.339850 0.540591 11.419736
v -2.382088 0.536771 11.391428
v -2.379962 0.546496 11.390475
vt 0.490107 0.757301
vt 0.509893 0.757301
vt 0.509893 0.777088
vt 0.490107 0.777088
vt 0.509893 0.796875
vt 0.490107 0.796875
vt 0.509893 0.816662
vt 0.490107 0.816662
vt 0.509893 0.836449
vt 0.490107 0.836449
vt 0.470320 0.796875
vt 0.470320 0.816662
vt 0.529680 0.796875
vt 0.529680 0.816662
vn -0.5579 0.2008 0.8053
vn -0.8023 0.1181 -0.5852
vn 0.5579 -0.2008 -0.8053
vn 0.8023 -0.1181 0.5852
vn -0.2126 -0.9725 0.0952
vn 0.2126 0.9725 -0.0952
usemtl Material.002
s off
f 53/145/34 54/146/34 56/147/34 55/148/34
f 55/148/35 56/147/35 60/149/35 59/150/35
f 59/150/36 60/149/36 58/151/36 57/152/36
f 57/152/37 58/151/37 54/153/37 53/154/37
f 55/155/38 59/150/38 57/152/38 53/156/38
f 60/149/39 56/157/39 54/158/39 58/151/39
o Cube.013
v -2.605766 0.580726 11.241208
v -2.606788 0.590459 11.239155
v -2.651992 0.572270 11.224129
v -2.653014 0.582004 11.222076
v -2.598422 0.577629 11.222864
v -2.599445 0.587363 11.220812
v -2.644648 0.569173 11.205786
v -2.645670 0.578907 11.203732
vt 0.482748 0.759117
vt 0.509440 0.759117
vt 0.509440 0.785808
vt 0.482748 0.785808
vt 0.509440 0.812500
vt 0.482748 0.812500
vt 0.509440 0.839192
vt 0.482748 0.839192
vt 0.509440 0.865883
vt 0.482748 0.865883
vt 0.456056 0.812500
vt 0.456056 0.839192
vt 0.536131 0.812500
vt 0.536131 0.839192
vn -0.3672 0.1549 0.9172
vn -0.9245 -0.1691 -0.3416
vn 0.3672 -0.1549 -0.9172
vn 0.9245 0.1691 0.3416
vn 0.1022 -0.9734 0.2052
vn -0.1022 0.9734 -0.2052
usemtl Material.002
s off
f 61/159/40 62/160/40 64/161/40 63/162/40
f 63/162/41 64/161/41 68/163/41 67/164/41
f 67/164/42 68/163/42 66/165/42 65/166/42
f 65/166/43 66/165/43 62/167/43 61/168/43
f 63/169/44 67/164/44 65/166/44 61/170/44
f 68/163/45 64/171/45 62/172/45 66/165/45
o Cube
v -2.367159 0.546953 11.767740
v -2.366666 0.556937 11.767431
v -2.368193 0.545455 11.717773
v -2.367700 0.555438 11.717464
v -2.347188 0.545955 11.767357
v -2.346694 0.555938 11.767048
v -2.348222 0.544457 11.717390
v -2.347728 0.554440 11.717081
vt 0.487708 0.755521
vt 0.512292 0.755521
vt 0.512292 0.780104
vt 0.487708 0.780104
vt 0.512292 0.804688
vt 0.487708 0.804688
vt 0.512292 0.829271
vt 0.487708 0.829271
vt 0.512292 0.853854
vt 0.487708 0.853854
vt 0.463125 0.804688
vt 0.463125 0.829271
vt 0.536875 0.804688
vt 0.536875 0.829271
vn -0.9986 0.0500 0.0192
vn -0.0207 -0.0299 -0.9993
vn 0.9986 -0.0500 -0.0192
vn 0.0207 0.0299 0.9993
vn -0.0493 -0.9983 0.0310
vn 0.0493 0.9983 -0.0310
usemtl Material.002
s off
f 69/173/46 70/174/46 72/175/46 71/176/46
f 71/176/47 72/175/47 76/177/47 75/178/47
f 75/178/48 76/177/48 74/179/48 73/180/48
f 73/180/49 74/179/49 70/181/49 69/182/49
f 71/183/50 75/178/50 73/180/50 69/184/50
f 76/177/51 72/185/51 70/186/51 74/179/51
