# Blender v2.83.2 OBJ File: 'TrainAnimation.blend'
# www.blender.org
mtllib TrainAnimation_000015.mtl
o Cube.001
v -2.392326 0.492545 12.524343
v -2.405576 0.494889 12.483829
v -2.390402 0.579412 12.528741
v -2.389857 0.594933 12.488976
v -2.403652 0.581756 12.488226
v -2.404004 0.507925 12.225647
v -2.388286 0.607969 12.230794
v -2.402081 0.594792 12.230044
v -2.305602 0.492650 12.484324
v -2.319345 0.490910 12.524705
v -2.316876 0.593299 12.489338
v -2.317421 0.577777 12.529102
v -2.303679 0.579517 12.488722
v -2.304030 0.505686 12.226142
v -2.315305 0.606335 12.231155
v -2.302107 0.592553 12.230540
vt 0.544416 0.648533
vt 0.544416 0.820938
vt 0.455584 0.820938
vt 0.455584 0.648533
vt 0.982074 0.510401
vt 0.982074 0.956148
vt 0.008083 0.956148
vt 0.008083 0.510401
vt 0.658750 0.533750
vt 0.841250 0.533750
vt 0.841250 0.716250
vt 0.658750 0.716250
vt 0.983600 0.513044
vt 0.983600 0.937818
vt 0.006557 0.937818
vt 0.006557 0.513044
vt 0.619549 0.838289
vt 0.653299 0.838289
vt 0.619549 0.872039
vt 0.653828 0.819603
vt 0.653828 0.853353
vt 0.620078 0.819603
vt 0.509668 0.661960
vt 0.509668 0.807212
vt 0.492793 0.807212
vt 0.492793 0.661960
vt 0.901201 0.874855
vt 0.901201 0.812645
vt 0.912705 0.812645
vt 0.912705 0.874855
vt 0.633279 0.788506
vt 0.658761 0.820869
vt 0.640159 0.820869
vt 0.633279 0.820869
vt 0.614676 0.820869
vt 0.614676 0.788506
vt 0.656250 0.738569
vt 0.656250 0.886431
vt 0.601562 0.886431
vt 0.601562 0.738569
vt 0.481895 0.853812
vt 0.481895 0.621580
vt 0.515645 0.621580
vt 0.515645 0.853812
vt 0.094494 0.814251
vt 0.909703 0.814251
vt 0.909703 0.848001
vt 0.094493 0.848001
vn -0.0061 -0.0504 0.9987
vn 0.9997 -0.0224 0.0050
vn 0.0221 0.9985 0.0505
vn -0.9997 0.0224 -0.0050
vn -0.6742 0.6910 0.2605
vn 0.7019 0.6602 0.2673
vn -0.9504 0.0053 0.3111
vn -0.6913 0.7219 0.0322
vn 0.0061 0.0504 -0.9987
vn 0.7226 0.6902 0.0392
vn 0.9465 -0.0372 0.3205
vn 0.0191 0.9313 0.3638
usemtl Material.002
s off
f 10/1/1 12/2/1 3/3/1 1/4/1
f 14/5/2 16/6/2 13/7/2 9/8/2
f 15/9/3 7/10/3 4/11/3 11/12/3
f 2/13/4 5/14/4 8/15/4 6/16/4
f 3/17/5 4/18/5 5/19/5
f 11/20/6 12/21/6 13/22/6
f 1/23/7 3/24/7 5/25/7 2/26/7
f 4/27/8 7/28/8 8/29/8 5/30/8
f 8/31/9 7/32/9 15/33/9 16/34/9 14/35/9 6/36/9
f 15/37/10 11/38/10 13/39/10 16/40/10
f 12/41/11 10/42/11 9/43/11 13/44/11
f 11/45/12 4/46/12 3/47/12 12/48/12
o Cube.008_Cube.007
v -2.403819 0.509871 12.197008
v -2.401995 0.524999 11.897396
v -2.303845 0.507632 12.197504
v -2.302021 0.522760 11.897891
v -2.389111 0.609439 12.202126
v -2.401884 0.597238 12.201431
v -2.400060 0.612366 11.901818
v -2.387287 0.624567 11.902513
v -2.301910 0.594999 12.201927
v -2.314131 0.607760 12.202497
v -2.312307 0.622888 11.902884
v -2.300086 0.610127 11.902314
vt 0.960410 0.001563
vt 0.960410 0.467716
vt 0.030991 0.467716
vt 0.030991 0.001563
vt 0.976119 0.515625
vt 0.976119 0.953125
vt 0.016069 0.953125
vt 0.016069 0.515625
vt 0.765053 0.871765
vt 0.765053 0.768860
vt 0.777916 0.768860
vt 0.777916 0.871765
vt 0.644762 0.745169
vt 0.644762 0.872018
vt 0.613050 0.872018
vt 0.613050 0.745169
vt 0.979831 0.511719
vt 0.979831 0.949219
vt 0.012357 0.949219
vt 0.012357 0.511719
vt 0.667358 0.827018
vt 0.639722 0.827018
vt 0.630509 0.827018
vt 0.598267 0.827018
vt 0.598267 0.790169
vt 0.630509 0.790169
vt 0.658968 0.795706
vt 0.642336 0.795706
vt 0.642336 0.852732
vt 0.658968 0.852732
vt 0.663720 0.852732
vt 0.677977 0.852732
vn 0.0221 0.9985 0.0505
vn 0.9997 -0.0224 0.0050
vn -0.6913 0.7219 0.0322
vn 0.7225 0.6902 0.0392
vn -0.9997 0.0224 -0.0050
vn 0.0061 0.0504 -0.9987
vn -0.0061 -0.0504 0.9987
usemtl Material.002
s off
f 27/49/13 24/50/13 21/51/13 26/52/13
f 20/53/14 28/54/14 25/55/14 19/56/14
f 21/57/15 24/58/15 23/59/15 22/60/15
f 27/61/16 26/62/16 25/63/16 28/64/16
f 17/65/17 22/66/17 23/67/17 18/68/17
f 24/69/18 27/70/18 28/71/18 20/72/18 18/73/18 23/74/18
f 22/75/19 17/76/19 19/77/19 25/78/19 26/79/19 21/80/19
o Cube.009_Cube.010
v -2.408092 0.534297 11.882482
v -2.488650 0.556238 11.594334
v -2.313599 0.516933 11.854741
v -2.394157 0.538874 11.566594
v -2.377574 0.630336 11.881262
v -2.391724 0.620230 11.884449
v -2.472282 0.642171 11.596301
v -2.458132 0.652277 11.593115
v -2.297230 0.602866 11.856709
v -2.306704 0.617313 11.860457
v -2.387262 0.639254 11.572309
v -2.377789 0.624807 11.568561
vt 0.795081 0.948129
vt 0.826013 0.948129
vt 0.826013 0.989371
vt 0.795081 0.989371
vt 0.979920 0.515625
vt 0.979920 0.953125
vt 0.016174 0.953125
vt 0.016174 0.515625
vt 0.890716 0.874276
vt 0.890716 0.750724
vt 0.906159 0.750724
vt 0.906159 0.874276
vt 0.633235 0.775655
vt 0.633235 0.825908
vt 0.620672 0.825908
vt 0.620672 0.775655
vt 0.984513 0.500000
vt 0.984513 0.937500
vt 0.007674 0.937500
vt 0.007674 0.500000
vt 0.659262 0.830513
vt 0.638102 0.830513
vt 0.631049 0.830513
vt 0.606363 0.830513
vt 0.606363 0.802300
vt 0.631049 0.802300
vt 0.633987 0.754748
vt 0.595741 0.754748
vt 0.595741 0.885877
vt 0.633987 0.885877
vt 0.644914 0.885877
vt 0.677696 0.885877
vn 0.1871 0.9821 0.0225
vn 0.9449 -0.1736 -0.2774
vn -0.5359 0.8172 0.2120
vn 0.8004 0.5717 -0.1803
vn -0.9449 0.1736 0.2774
vn -0.2685 0.0731 -0.9605
vn 0.2685 -0.0731 0.9605
usemtl Material.002
s off
f 39/81/20 36/82/20 33/83/20 38/84/20
f 32/85/21 40/86/21 37/87/21 31/88/21
f 33/89/22 36/90/22 35/91/22 34/92/22
f 39/93/23 38/94/23 37/95/23 40/96/23
f 29/97/24 34/98/24 35/99/24 30/100/24
f 36/101/25 39/102/25 40/103/25 32/104/25 30/105/25 35/106/25
f 34/107/26 29/108/26 31/109/26 37/110/26 38/111/26 33/112/26
o Cube.011
v -2.488221 0.549860 11.588225
v -2.665242 0.515597 11.348455
v -2.407516 0.544258 11.529442
v -2.584538 0.509995 11.289672
v -2.480369 0.648347 11.568355
v -2.490178 0.636649 11.577268
v -2.667199 0.602386 11.337498
v -2.657390 0.614084 11.328585
v -2.409473 0.631047 11.518485
v -2.419841 0.644146 11.524267
v -2.596862 0.609883 11.284497
v -2.586494 0.596784 11.278715
vt 0.016522 0.443981
vt 0.016522 -0.007317
vt 0.990504 -0.007317
vt 0.990504 0.443981
vt 0.973976 0.503906
vt 0.973976 0.941406
vt 0.026024 0.941406
vt 0.026024 0.503906
vt 0.749896 0.887555
vt 0.749896 0.792133
vt 0.761823 0.792133
vt 0.761823 0.887555
vt 0.638520 0.781858
vt 0.638520 0.890017
vt 0.611480 0.890017
vt 0.611480 0.781858
vt 0.978028 0.507812
vt 0.978028 0.945312
vt 0.018066 0.945312
vt 0.018066 0.507812
vt 0.678337 0.855269
vt 0.643480 0.855269
vt 0.631861 0.855269
vt 0.591194 0.855269
vt 0.591194 0.808793
vt 0.631861 0.808793
vt 0.626242 0.885282
vt 0.643633 0.885282
vt 0.643633 0.825655
vt 0.626242 0.825655
vt 0.621273 0.825655
vt 0.606367 0.825655
vn -0.0224 0.9919 -0.1252
vn 0.8070 -0.0560 -0.5878
vn -0.5865 0.7410 0.3271
vn 0.5548 0.6618 -0.5042
vn -0.8070 0.0560 0.5878
vn -0.5901 -0.1142 -0.7992
vn 0.5901 0.1142 0.7992
usemtl Material.002
s off
f 51/113/27 48/114/27 45/115/27 50/116/27
f 44/117/28 52/118/28 49/119/28 43/120/28
f 45/121/29 48/122/29 47/123/29 46/124/29
f 51/125/30 50/126/30 49/127/30 52/128/30
f 41/129/31 46/130/31 47/131/31 42/132/31
f 48/133/32 51/134/32 52/135/32 44/136/32 42/137/32 47/138/32
f 46/139/33 41/140/33 43/141/33 49/142/33 50/143/33 45/144/33
o Cube.012
v -2.359003 0.533150 11.911083
v -2.357132 0.542971 11.911307
v -2.372429 0.536807 11.863058
v -2.370559 0.546628 11.863283
v -2.340104 0.529677 11.905535
v -2.338233 0.539498 11.905760
v -2.353531 0.533334 11.857511
v -2.351660 0.543155 11.857735
vt 0.490107 0.757301
vt 0.509893 0.757301
vt 0.509893 0.777088
vt 0.490107 0.777088
vt 0.509893 0.796875
vt 0.490107 0.796875
vt 0.509893 0.816662
vt 0.490107 0.816662
vt 0.509893 0.836449
vt 0.490107 0.836449
vt 0.470320 0.796875
vt 0.470320 0.816662
vt 0.529680 0.796875
vt 0.529680 0.816662
vn -0.9449 0.1736 0.2774
vn -0.2686 0.0731 -0.9605
vn 0.9449 -0.1736 -0.2774
vn 0.2686 -0.0731 0.9605
vn -0.1871 -0.9821 -0.0225
vn 0.1871 0.9821 0.0225
usemtl Material.002
s off
f 53/145/34 54/146/34 56/147/34 55/148/34
f 55/148/35 56/147/35 60/149/35 59/150/35
f 59/150/36 60/149/36 58/151/36 57/152/36
f 57/152/37 58/151/37 54/153/37 53/154/37
f 55/155/38 59/150/38 57/152/38 53/156/38
f 60/149/39 56/157/39 54/158/39 58/151/39
o Cube.013
v -2.433582 0.560899 11.596436
v -2.433806 0.570818 11.595183
v -2.463086 0.555189 11.556474
v -2.463309 0.565108 11.555222
v -2.417441 0.559779 11.584679
v -2.417665 0.569698 11.583426
v -2.446945 0.554068 11.544717
v -2.447169 0.563987 11.543465
vt 0.482748 0.759117
vt 0.509440 0.759117
vt 0.509440 0.785808
vt 0.482748 0.785808
vt 0.509440 0.812500
vt 0.482748 0.812500
vt 0.509440 0.839192
vt 0.482748 0.839192
vt 0.509440 0.865883
vt 0.482748 0.865883
vt 0.456056 0.812500
vt 0.456056 0.839192
vt 0.536131 0.812500
vt 0.536131 0.839192
vn -0.8070 0.0560 0.5878
vn -0.5901 -0.1142 -0.7992
vn 0.8070 -0.0560 -0.5878
vn 0.5901 0.1142 0.7992
vn 0.0224 -0.9919 0.1252
vn -0.0224 0.9919 -0.1252
usemtl Material.002
s off
f 61/159/40 62/160/40 64/161/40 63/162/40
f 63/162/41 64/161/41 68/163/41 67/164/41
f 67/164/42 68/163/42 66/165/42 65/166/42
f 65/166/43 66/165/43 62/167/43 61/168/43
f 63/169/44 67/164/44 65/166/44 61/170/44
f 68/163/45 64/171/45 62/172/45 66/165/45
o Cube
v -2.365221 0.515736 12.236385
v -2.365000 0.525720 12.236891
v -2.364917 0.518257 12.186449
v -2.364696 0.528242 12.186954
v -2.345226 0.515288 12.236485
v -2.345005 0.525273 12.236990
v -2.344922 0.517809 12.186548
v -2.344701 0.527794 12.187054
vt 0.487708 0.755521
vt 0.512292 0.755521
vt 0.512292 0.780104
vt 0.487708 0.780104
vt 0.512292 0.804688
vt 0.487708 0.804688
vt 0.512292 0.829271
vt 0.487708 0.829271
vt 0.512292 0.853854
vt 0.487708 0.853854
vt 0.463125 0.804688
vt 0.463125 0.829271
vt 0.536875 0.804688
vt 0.536875 0.829271
vn -0.9997 0.0224 -0.0050
vn 0.0061 0.0504 -0.9987
vn 0.9997 -0.0224 0.0050
vn -0.0061 -0.0504 0.9987
vn -0.0221 -0.9985 -0.0505
vn 0.0221 0.9985 0.0505
usemtl Material.002
s off
f 69/173/46 70/174/46 72/175/46 71/176/46
f 71/176/47 72/175/47 76/177/47 75/178/47
f 75/178/48 76/177/48 74/179/48 73/180/48
f 73/180/49 74/179/49 70/181/49 69/182/49
f 71/183/50 75/178/50 73/180/50 69/184/50
f 76/177/51 72/185/51 70/186/51 74/179/51
