# Blender v2.83.2 OBJ File: 'TrainAnimation.blend'
# www.blender.org
mtllib TrainAnimation_000018.mtl
o Cube.001
v -2.392937 0.495561 12.665578
v -2.406118 0.497525 12.625021
v -2.391525 0.582468 12.669328
v -2.390989 0.597694 12.629448
v -2.404706 0.584432 12.628770
v -2.404094 0.508635 12.366752
v -2.388965 0.608804 12.371180
v -2.402682 0.595542 12.370502
v -2.306134 0.495870 12.625732
v -2.319949 0.494353 12.666098
v -2.318001 0.596486 12.629968
v -2.318537 0.581260 12.669847
v -2.304722 0.582777 12.629482
v -2.304110 0.506980 12.367464
v -2.315977 0.607596 12.371699
v -2.302698 0.593887 12.371214
vt 0.544416 0.648533
vt 0.544416 0.820938
vt 0.455584 0.820938
vt 0.455584 0.648533
vt 0.982074 0.510401
vt 0.982074 0.956148
vt 0.008083 0.956148
vt 0.008083 0.510401
vt 0.658750 0.533750
vt 0.841250 0.533750
vt 0.841250 0.716250
vt 0.658750 0.716250
vt 0.983600 0.513044
vt 0.983600 0.937818
vt 0.006557 0.937818
vt 0.006557 0.513044
vt 0.619549 0.838289
vt 0.653299 0.838289
vt 0.619549 0.872039
vt 0.653828 0.819603
vt 0.653828 0.853353
vt 0.620078 0.819603
vt 0.509668 0.661960
vt 0.509668 0.807212
vt 0.492793 0.807212
vt 0.492793 0.661960
vt 0.901201 0.874855
vt 0.901201 0.812645
vt 0.912705 0.812645
vt 0.912705 0.874855
vt 0.633279 0.788506
vt 0.658761 0.820869
vt 0.640159 0.820869
vt 0.633279 0.820869
vt 0.614676 0.820869
vt 0.614676 0.788506
vt 0.656250 0.738569
vt 0.656250 0.886431
vt 0.601562 0.886431
vt 0.601562 0.738569
vt 0.481895 0.853812
vt 0.481895 0.621580
vt 0.515645 0.621580
vt 0.515645 0.853812
vt 0.094494 0.814251
vt 0.909703 0.814251
vt 0.909703 0.848001
vt 0.094493 0.848001
vn -0.0078 -0.0430 0.9990
vn 0.9998 -0.0166 0.0071
vn 0.0162 0.9989 0.0431
vn -0.9998 0.0166 -0.0071
vn -0.6788 0.6891 0.2540
vn 0.6975 0.6663 0.2638
vn -0.9510 0.0021 0.3092
vn -0.6955 0.7181 0.0254
vn 0.0078 0.0430 -0.9990
vn 0.7185 0.6947 0.0355
vn 0.9461 -0.0293 0.3227
vn 0.0129 0.9341 0.3568
usemtl Material.002
s off
f 10/1/1 12/2/1 3/3/1 1/4/1
f 14/5/2 16/6/2 13/7/2 9/8/2
f 15/9/3 7/10/3 4/11/3 11/12/3
f 2/13/4 5/14/4 8/15/4 6/16/4
f 3/17/5 4/18/5 5/19/5
f 11/20/6 12/21/6 13/22/6
f 1/23/7 3/24/7 5/25/7 2/26/7
f 4/27/8 7/28/8 8/29/8 5/30/8
f 8/31/9 7/32/9 15/33/9 16/34/9 14/35/9 6/36/9
f 15/37/10 11/38/10 13/39/10 16/40/10
f 12/41/11 10/42/11 9/43/11 13/44/11
f 11/45/12 4/46/12 3/47/12 12/48/12
o Cube.008_Cube.007
v -2.403861 0.510367 12.338099
v -2.401512 0.523260 12.038384
v -2.303877 0.508712 12.338811
v -2.301528 0.521605 12.039097
v -2.389740 0.610054 12.342497
v -2.402441 0.597774 12.341869
v -2.400092 0.610667 12.042155
v -2.387391 0.622947 12.042784
v -2.302457 0.596119 12.342582
v -2.314752 0.608813 12.343031
v -2.312403 0.621706 12.043318
v -2.300108 0.609012 12.042868
vt 0.960410 0.001563
vt 0.960410 0.467716
vt 0.030991 0.467716
vt 0.030991 0.001563
vt 0.976119 0.515625
vt 0.976119 0.953125
vt 0.016069 0.953125
vt 0.016069 0.515625
vt 0.765053 0.871765
vt 0.765053 0.768860
vt 0.777916 0.768860
vt 0.777916 0.871765
vt 0.644762 0.745169
vt 0.644762 0.872018
vt 0.613050 0.872018
vt 0.613050 0.745169
vt 0.979831 0.511719
vt 0.979831 0.949219
vt 0.012357 0.949219
vt 0.012357 0.511719
vt 0.667358 0.827018
vt 0.639722 0.827018
vt 0.630509 0.827018
vt 0.598267 0.827018
vt 0.598267 0.790169
vt 0.630509 0.790169
vt 0.658968 0.795706
vt 0.642336 0.795706
vt 0.642336 0.852732
vt 0.658968 0.852732
vt 0.663720 0.852732
vt 0.677977 0.852732
vn 0.0162 0.9989 0.0431
vn 0.9998 -0.0165 0.0071
vn -0.6955 0.7181 0.0254
vn 0.7185 0.6947 0.0355
vn -0.9998 0.0165 -0.0071
vn 0.0078 0.0430 -0.9990
vn -0.0078 -0.0430 0.9990
usemtl Material.002
s off
f 27/49/13 24/50/13 21/51/13 26/52/13
f 20/53/14 28/54/14 25/55/14 19/56/14
f 21/57/15 24/58/15 23/59/15 22/60/15
f 27/61/16 26/62/16 25/63/16 28/64/16
f 17/65/17 22/66/17 23/67/17 18/68/17
f 24/69/18 27/70/18 28/71/18 20/72/18 18/73/18 23/74/18
f 22/75/19 17/76/19 19/77/19 25/78/19 26/79/19 21/80/19
o Cube.009_Cube.010
v -2.406463 0.530984 12.016680
v -2.447948 0.544874 11.719887
v -2.308612 0.516195 12.002311
v -2.350097 0.530085 11.705518
v -2.378936 0.627927 12.017369
v -2.393079 0.617427 12.018855
v -2.434564 0.631317 11.722062
v -2.420421 0.641817 11.720576
v -2.295228 0.602638 12.004485
v -2.305547 0.616836 12.006592
v -2.347033 0.630726 11.709799
v -2.336713 0.616528 11.707692
vt 0.795081 0.948129
vt 0.826013 0.948129
vt 0.826013 0.989371
vt 0.795081 0.989371
vt 0.979920 0.515625
vt 0.979920 0.953125
vt 0.016174 0.953125
vt 0.016174 0.515625
vt 0.890716 0.874276
vt 0.890716 0.750724
vt 0.906159 0.750724
vt 0.906159 0.874276
vt 0.633235 0.775655
vt 0.633235 0.825908
vt 0.620672 0.825908
vt 0.620672 0.775655
vt 0.984513 0.500000
vt 0.984513 0.937500
vt 0.007674 0.937500
vt 0.007674 0.500000
vt 0.659262 0.830513
vt 0.638102 0.830513
vt 0.631049 0.830513
vt 0.606363 0.830513
vt 0.606363 0.802300
vt 0.631049 0.802300
vt 0.633987 0.754748
vt 0.595741 0.754748
vt 0.595741 0.885877
vt 0.633987 0.885877
vt 0.644914 0.885877
vt 0.677696 0.885877
vn 0.1530 0.9879 0.0249
vn 0.9785 -0.1479 -0.1437
vn -0.5837 0.8031 0.1192
vn 0.8001 0.5940 -0.0840
vn -0.9785 0.1479 0.1437
vn -0.1383 0.0463 -0.9893
vn 0.1383 -0.0463 0.9893
usemtl Material.002
s off
f 39/81/20 36/82/20 33/83/20 38/84/20
f 32/85/21 40/86/21 37/87/21 31/88/21
f 33/89/22 36/90/22 35/91/22 34/92/22
f 39/93/23 38/94/23 37/95/23 40/96/23
f 29/97/24 34/98/24 35/99/24 30/100/24
f 36/101/25 39/102/25 40/103/25 32/104/25 30/105/25 35/106/25
f 34/107/26 29/108/26 31/109/26 37/110/26 38/111/26 33/112/26
o Cube.011
v -2.447905 0.538626 11.708743
v -2.571708 0.514255 11.436569
v -2.356819 0.535638 11.667579
v -2.480623 0.511267 11.395405
v -2.437152 0.637877 11.694965
v -2.448459 0.625797 11.701190
v -2.572262 0.601426 11.429015
v -2.560956 0.613506 11.422791
v -2.357373 0.622809 11.660026
v -2.368838 0.635636 11.664092
v -2.492641 0.611265 11.391917
v -2.481177 0.598438 11.387851
vt 0.016522 0.443981
vt 0.016522 -0.007317
vt 0.990504 -0.007317
vt 0.990504 0.443981
vt 0.973976 0.503906
vt 0.973976 0.941406
vt 0.026024 0.941406
vt 0.026024 0.503906
vt 0.749896 0.887555
vt 0.749896 0.792133
vt 0.761823 0.792133
vt 0.761823 0.887555
vt 0.638520 0.781858
vt 0.638520 0.890017
vt 0.611480 0.890017
vt 0.611480 0.781858
vt 0.978028 0.507812
vt 0.978028 0.945312
vt 0.018066 0.945312
vt 0.018066 0.507812
vt 0.678337 0.855269
vt 0.643480 0.855269
vt 0.631861 0.855269
vt 0.591194 0.855269
vt 0.591194 0.808793
vt 0.631861 0.808793
vt 0.626242 0.885282
vt 0.643633 0.885282
vt 0.643633 0.825655
vt 0.626242 0.825655
vt 0.621273 0.825655
vt 0.606367 0.825655
vn -0.0063 0.9962 -0.0863
vn 0.9109 -0.0299 -0.4116
vn -0.6486 0.7256 0.2300
vn 0.6396 0.6833 -0.3521
vn -0.9109 0.0299 0.4116
vn -0.4127 -0.0812 -0.9072
vn 0.4127 0.0812 0.9073
usemtl Material.002
s off
f 51/113/27 48/114/27 45/115/27 50/116/27
f 44/117/28 52/118/28 49/119/28 43/120/28
f 45/121/29 48/122/29 47/123/29 46/124/29
f 51/125/30 50/126/30 49/127/30 52/128/30
f 41/129/31 46/130/31 47/131/31 42/132/31
f 48/133/32 51/134/32 52/135/32 44/136/32 42/137/32 47/138/32
f 46/139/33 41/140/33 43/141/33 49/142/33 50/143/33 45/144/33
o Cube.012
v -2.361678 0.531977 12.051643
v -2.360149 0.541856 12.051891
v -2.368593 0.534291 12.002177
v -2.367063 0.544171 12.002426
v -2.342108 0.529019 12.048769
v -2.340579 0.538898 12.049018
v -2.349022 0.531334 11.999304
v -2.347493 0.541213 11.999552
vt 0.490107 0.757301
vt 0.509893 0.757301
vt 0.509893 0.777088
vt 0.490107 0.777088
vt 0.509893 0.796875
vt 0.490107 0.796875
vt 0.509893 0.816662
vt 0.490107 0.816662
vt 0.509893 0.836449
vt 0.490107 0.836449
vt 0.470320 0.796875
vt 0.470320 0.816662
vt 0.529680 0.796875
vt 0.529680 0.816662
vn -0.9785 0.1479 0.1437
vn -0.1384 0.0463 -0.9893
vn 0.9785 -0.1479 -0.1437
vn 0.1383 -0.0463 0.9893
vn -0.1530 -0.9879 -0.0249
vn 0.1530 0.9879 0.0249
usemtl Material.002
s off
f 53/145/34 54/146/34 56/147/34 55/148/34
f 55/148/35 56/147/35 60/149/35 59/150/35
f 59/150/36 60/149/36 58/151/36 57/152/36
f 57/152/37 58/151/37 54/153/37 53/154/37
f 55/155/38 59/150/38 57/152/38 53/156/38
f 60/149/39 56/157/39 54/158/39 58/151/39
o Cube.013
v -2.396220 0.549392 11.728430
v -2.396284 0.559355 11.727567
v -2.416854 0.545331 11.683067
v -2.416918 0.555293 11.682204
v -2.378003 0.548795 11.720197
v -2.378067 0.558757 11.719334
v -2.398637 0.544733 11.674834
v -2.398700 0.554695 11.673971
vt 0.482748 0.759117
vt 0.509440 0.759117
vt 0.509440 0.785808
vt 0.482748 0.785808
vt 0.509440 0.812500
vt 0.482748 0.812500
vt 0.509440 0.839192
vt 0.482748 0.839192
vt 0.509440 0.865883
vt 0.482748 0.865883
vt 0.456056 0.812500
vt 0.456056 0.839192
vt 0.536131 0.812500
vt 0.536131 0.839192
vn -0.9109 0.0299 0.4117
vn -0.4127 -0.0812 -0.9072
vn 0.9109 -0.0299 -0.4116
vn 0.4127 0.0812 0.9072
vn 0.0063 -0.9962 0.0863
vn -0.0063 0.9962 -0.0863
usemtl Material.002
s off
f 61/159/40 62/160/40 64/161/40 63/162/40
f 63/162/41 64/161/41 68/163/41 67/164/41
f 67/164/42 68/163/42 66/165/42 65/166/42
f 65/166/43 66/165/43 62/167/43 61/168/43
f 63/169/44 67/164/44 65/166/44 61/170/44
f 68/163/45 64/171/45 62/172/45 66/165/45
o Cube
v -2.365378 0.516751 12.377507
v -2.365216 0.526740 12.377938
v -2.364987 0.518899 12.327555
v -2.364824 0.528889 12.327986
v -2.345381 0.516420 12.377649
v -2.345219 0.526409 12.378080
v -2.344990 0.518568 12.327697
v -2.344827 0.528558 12.328128
vt 0.487708 0.755521
vt 0.512292 0.755521
vt 0.512292 0.780104
vt 0.487708 0.780104
vt 0.512292 0.804688
vt 0.487708 0.804688
vt 0.512292 0.829271
vt 0.487708 0.829271
vt 0.512292 0.853854
vt 0.487708 0.853854
vt 0.463125 0.804688
vt 0.463125 0.829271
vt 0.536875 0.804688
vt 0.536875 0.829271
vn -0.9998 0.0166 -0.0071
vn 0.0078 0.0430 -0.9990
vn 0.9998 -0.0166 0.0071
vn -0.0078 -0.0430 0.9990
vn -0.0162 -0.9989 -0.0431
vn 0.0162 0.9989 0.0431
usemtl Material.002
s off
f 69/173/46 70/174/46 72/175/46 71/176/46
f 71/176/47 72/175/47 76/177/47 75/178/47
f 75/178/48 76/177/48 74/179/48 73/180/48
f 73/180/49 74/179/49 70/181/49 69/182/49
f 71/183/50 75/178/50 73/180/50 69/184/50
f 76/177/51 72/185/51 70/186/51 74/179/51
