# Blender v2.83.2 OBJ File: 'TrainAnimation.blend'
# www.blender.org
mtllib TrainAnimation_000028.mtl
o Cube.001
v -2.387231 0.511801 13.116148
v -2.400724 0.511841 13.075645
v -2.387189 0.598800 13.116220
v -2.387176 0.612334 13.075732
v -2.400682 0.598840 13.075718
v -2.400679 0.512057 12.817130
v -2.387131 0.612550 12.817217
v -2.400637 0.599056 12.817203
v -2.300724 0.511793 13.075663
v -2.314231 0.511766 13.116160
v -2.314176 0.612299 13.075745
v -2.314189 0.598765 13.116234
v -2.300682 0.598792 13.075736
v -2.300679 0.512009 12.817147
v -2.314131 0.612515 12.817229
v -2.300637 0.599009 12.817221
vt 0.544416 0.648533
vt 0.544416 0.820938
vt 0.455584 0.820938
vt 0.455584 0.648533
vt 0.982074 0.510401
vt 0.982074 0.956148
vt 0.008083 0.956148
vt 0.008083 0.510401
vt 0.658750 0.533750
vt 0.841250 0.533750
vt 0.841250 0.716250
vt 0.658750 0.716250
vt 0.983600 0.513044
vt 0.983600 0.937818
vt 0.006557 0.937818
vt 0.006557 0.513044
vt 0.619549 0.838289
vt 0.653299 0.838289
vt 0.619549 0.872039
vt 0.653828 0.819603
vt 0.653828 0.853353
vt 0.620078 0.819603
vt 0.509668 0.661960
vt 0.509668 0.807212
vt 0.492793 0.807212
vt 0.492793 0.661960
vt 0.901201 0.874855
vt 0.901201 0.812645
vt 0.912705 0.812645
vt 0.912705 0.874855
vt 0.633279 0.788506
vt 0.658761 0.820869
vt 0.640159 0.820869
vt 0.633279 0.820869
vt 0.614676 0.820869
vt 0.614676 0.788506
vt 0.656250 0.738569
vt 0.656250 0.886431
vt 0.601562 0.886431
vt 0.601562 0.738569
vt 0.481895 0.853812
vt 0.481895 0.621580
vt 0.515645 0.621580
vt 0.515645 0.853812
vt 0.094494 0.814251
vt 0.909703 0.814251
vt 0.909703 0.848001
vt 0.094493 0.848001
vn -0.0002 -0.0008 1.0000
vn 1.0000 -0.0005 0.0002
vn 0.0005 1.0000 0.0008
vn -1.0000 0.0005 -0.0002
vn -0.6880 0.6884 0.2299
vn 0.6885 0.6877 0.2301
vn -0.9487 0.0002 0.3161
vn -0.7068 0.7074 0.0005
vn 0.0002 0.0008 -1.0000
vn 0.7074 0.7068 0.0007
vn 0.9486 -0.0007 0.3164
vn 0.0004 0.9484 0.3170
usemtl Material.002
s off
f 10/1/1 12/2/1 3/3/1 1/4/1
f 14/5/2 16/6/2 13/7/2 9/8/2
f 15/9/3 7/10/3 4/11/3 11/12/3
f 2/13/4 5/14/4 8/15/4 6/16/4
f 3/17/5 4/18/5 5/19/5
f 11/20/6 12/21/6 13/22/6
f 1/23/7 3/24/7 5/25/7 2/26/7
f 4/27/8 7/28/8 8/29/8 5/30/8
f 8/31/9 7/32/9 15/33/9 16/34/9 14/35/9 6/36/9
f 15/37/10 11/38/10 13/39/10 16/40/10
f 12/41/11 10/42/11 9/43/11 13/44/11
f 11/45/12 4/46/12 3/47/12 12/48/12
o Cube.008_Cube.007
v -2.400674 0.512581 12.788430
v -2.400621 0.512831 12.488430
v -2.300674 0.512533 12.788447
v -2.300622 0.512783 12.488447
v -2.388126 0.612574 12.788516
v -2.400632 0.600080 12.788504
v -2.400579 0.600331 12.488503
v -2.388073 0.612825 12.488516
v -2.300632 0.600033 12.788521
v -2.313126 0.612539 12.788529
v -2.313073 0.612789 12.488529
v -2.300580 0.600283 12.488521
vt 0.960410 0.001563
vt 0.960410 0.467716
vt 0.030991 0.467716
vt 0.030991 0.001563
vt 0.976119 0.515625
vt 0.976119 0.953125
vt 0.016069 0.953125
vt 0.016069 0.515625
vt 0.765053 0.871765
vt 0.765053 0.768860
vt 0.777916 0.768860
vt 0.777916 0.871765
vt 0.644762 0.745169
vt 0.644762 0.872018
vt 0.613050 0.872018
vt 0.613050 0.745169
vt 0.979831 0.511719
vt 0.979831 0.949219
vt 0.012357 0.949219
vt 0.012357 0.511719
vt 0.667358 0.827018
vt 0.639722 0.827018
vt 0.630509 0.827018
vt 0.598267 0.827018
vt 0.598267 0.790169
vt 0.630509 0.790169
vt 0.658968 0.795706
vt 0.642336 0.795706
vt 0.642336 0.852732
vt 0.658968 0.852732
vt 0.663720 0.852732
vt 0.677977 0.852732
vn 0.0005 1.0000 0.0008
vn 1.0000 -0.0005 0.0002
vn -0.7068 0.7074 0.0005
vn 0.7074 0.7068 0.0007
vn -1.0000 0.0005 -0.0002
vn 0.0002 0.0008 -1.0000
vn -0.0002 -0.0008 1.0000
usemtl Material.002
s off
f 27/49/13 24/50/13 21/51/13 26/52/13
f 20/53/14 28/54/14 25/55/14 19/56/14
f 21/57/15 24/58/15 23/59/15 22/60/15
f 27/61/16 26/62/16 25/63/16 28/64/16
f 17/65/17 22/66/17 23/67/17 18/68/17
f 24/69/18 27/70/18 28/71/18 20/72/18 18/73/18 23/74/18
f 22/75/19 17/76/19 19/77/19 25/78/19 26/79/19 21/80/19
o Cube.009_Cube.010
v -2.400687 0.512950 12.459048
v -2.400786 0.513150 12.159048
v -2.300687 0.512694 12.459015
v -2.300787 0.512893 12.159015
v -2.387930 0.612918 12.459110
v -2.400462 0.600450 12.459106
v -2.400562 0.600649 12.159106
v -2.388030 0.613117 12.159111
v -2.300463 0.600194 12.459073
v -2.312931 0.612726 12.459085
v -2.313030 0.612925 12.159085
v -2.300563 0.600393 12.159073
vt 0.795081 0.948129
vt 0.826013 0.948129
vt 0.826013 0.989371
vt 0.795081 0.989371
vt 0.979920 0.515625
vt 0.979920 0.953125
vt 0.016174 0.953125
vt 0.016174 0.515625
vt 0.890716 0.874276
vt 0.890716 0.750724
vt 0.906159 0.750724
vt 0.906159 0.874276
vt 0.633235 0.775655
vt 0.633235 0.825908
vt 0.620672 0.825908
vt 0.620672 0.775655
vt 0.984513 0.500000
vt 0.984513 0.937500
vt 0.007674 0.937500
vt 0.007674 0.500000
vt 0.659262 0.830513
vt 0.638102 0.830513
vt 0.631049 0.830513
vt 0.606363 0.830513
vt 0.606363 0.802300
vt 0.631049 0.802300
vt 0.633987 0.754748
vt 0.595741 0.754748
vt 0.595741 0.885877
vt 0.633987 0.885877
vt 0.644914 0.885877
vt 0.677696 0.885877
vn 0.0026 1.0000 0.0007
vn 1.0000 -0.0026 -0.0003
vn -0.7053 0.7089 0.0007
vn 0.7089 0.7053 0.0002
vn -1.0000 0.0026 0.0003
vn -0.0003 0.0007 -1.0000
vn 0.0004 -0.0007 1.0000
usemtl Material.002
s off
f 39/81/20 36/82/20 33/83/20 38/84/20
f 32/85/21 40/86/21 37/87/21 31/88/21
f 33/89/22 36/90/22 35/91/22 34/92/22
f 39/93/23 38/94/23 37/95/23 40/96/23
f 29/97/24 34/98/24 35/99/24 30/100/24
f 36/101/25 39/102/25 40/103/25 32/104/25 30/105/25 35/106/25
f 34/107/26 29/108/26 31/109/26 37/110/26 38/111/26 33/112/26
o Cube.011
v -2.400781 0.513033 12.130881
v -2.402102 0.512765 11.830885
v -2.300782 0.513020 12.130442
v -2.302103 0.512752 11.830444
v -2.388268 0.613031 12.130737
v -2.400770 0.600533 12.130803
v -2.402091 0.600265 11.830806
v -2.389589 0.612763 11.830740
v -2.300771 0.600520 12.130363
v -2.313269 0.613022 12.130406
v -2.314590 0.612753 11.830410
v -2.302092 0.600252 11.830366
vt 0.016522 0.443981
vt 0.016522 -0.007317
vt 0.990504 -0.007317
vt 0.990504 0.443981
vt 0.973976 0.503906
vt 0.973976 0.941406
vt 0.026024 0.941406
vt 0.026024 0.503906
vt 0.749896 0.887555
vt 0.749896 0.792133
vt 0.761823 0.792133
vt 0.761823 0.887555
vt 0.638520 0.781858
vt 0.638520 0.890017
vt 0.611480 0.890017
vt 0.611480 0.781858
vt 0.978028 0.507812
vt 0.978028 0.945312
vt 0.018066 0.945312
vt 0.018066 0.507812
vt 0.678337 0.855269
vt 0.643480 0.855269
vt 0.631861 0.855269
vt 0.591194 0.855269
vt 0.591194 0.808793
vt 0.631861 0.808793
vt 0.626242 0.885282
vt 0.643633 0.885282
vt 0.643633 0.825655
vt 0.626242 0.825655
vt 0.621273 0.825655
vt 0.606367 0.825655
vn 0.0001 1.0000 -0.0009
vn 1.0000 -0.0001 -0.0044
vn -0.7070 0.7072 0.0025
vn 0.7072 0.7070 -0.0037
vn -1.0000 0.0001 0.0044
vn -0.0044 -0.0009 -1.0000
vn 0.0044 0.0009 1.0000
usemtl Material.002
s off
f 51/113/27 48/114/27 45/115/27 50/116/27
f 44/117/28 52/118/28 49/119/28 43/120/28
f 45/121/29 48/122/29 47/123/29 46/124/29
f 51/125/30 50/126/30 49/127/30 52/128/30
f 41/129/31 46/130/31 47/131/31 42/132/31
f 48/133/32 51/134/32 52/135/32 44/136/32 42/137/32 47/138/32
f 46/139/33 41/140/33 43/141/33 49/142/33 50/143/33 45/144/33
o Cube.012
v -2.362000 0.521523 12.499777
v -2.361974 0.531523 12.499784
v -2.362016 0.521557 12.449778
v -2.361990 0.531557 12.449784
v -2.342000 0.521472 12.499770
v -2.341974 0.531472 12.499777
v -2.342016 0.521505 12.449771
v -2.341990 0.531505 12.449778
vt 0.490107 0.757301
vt 0.509893 0.757301
vt 0.509893 0.777088
vt 0.490107 0.777088
vt 0.509893 0.796875
vt 0.490107 0.796875
vt 0.509893 0.816662
vt 0.490107 0.816662
vt 0.509893 0.836449
vt 0.490107 0.836449
vt 0.470320 0.796875
vt 0.470320 0.816662
vt 0.529680 0.796875
vt 0.529680 0.816662
vn -1.0000 0.0025 0.0003
vn -0.0004 0.0007 -1.0000
vn 1.0000 -0.0026 -0.0003
vn 0.0004 -0.0007 1.0000
vn -0.0026 -1.0000 -0.0007
vn 0.0026 1.0000 0.0007
usemtl Material.002
s off
f 53/145/34 54/146/34 56/147/34 55/148/34
f 55/148/35 56/147/35 60/149/35 59/150/35
f 59/150/36 60/149/36 58/151/36 57/152/36
f 57/152/37 58/151/37 54/153/37 53/154/37
f 55/155/38 59/150/38 57/152/38 53/156/38
f 60/149/39 56/157/39 54/158/39 58/151/39
o Cube.013
v -2.361952 0.521763 12.170768
v -2.361951 0.531763 12.170759
v -2.362172 0.521719 12.120769
v -2.362171 0.531719 12.120759
v -2.341952 0.521761 12.170680
v -2.341951 0.531761 12.170671
v -2.342173 0.521716 12.120680
v -2.342171 0.531716 12.120671
vt 0.482748 0.759117
vt 0.509440 0.759117
vt 0.509440 0.785808
vt 0.482748 0.785808
vt 0.509440 0.812500
vt 0.482748 0.812500
vt 0.509440 0.839192
vt 0.482748 0.839192
vt 0.509440 0.865883
vt 0.482748 0.865883
vt 0.456056 0.812500
vt 0.456056 0.839192
vt 0.536131 0.812500
vt 0.536131 0.839192
vn -1.0000 0.0001 0.0044
vn -0.0044 -0.0009 -1.0000
vn 1.0000 -0.0001 -0.0044
vn 0.0044 0.0009 1.0000
vn -0.0001 -1.0000 0.0009
vn 0.0001 1.0000 -0.0009
usemtl Material.002
s off
f 61/159/40 62/160/40 64/161/40 63/162/40
f 63/162/41 64/161/41 68/163/41 67/164/41
f 67/164/42 68/163/42 66/165/42 65/166/42
f 65/166/43 66/165/43 62/167/43 61/168/43
f 63/169/44 67/164/44 65/166/44 61/170/44
f 68/163/45 64/171/45 62/172/45 66/165/45
o Cube
v -2.362025 0.521229 12.827240
v -2.362020 0.531229 12.827249
v -2.362016 0.521271 12.777240
v -2.362011 0.531271 12.777248
v -2.342025 0.521219 12.827244
v -2.342020 0.531219 12.827252
v -2.342016 0.521261 12.777244
v -2.342011 0.531261 12.777252
vt 0.487708 0.755521
vt 0.512292 0.755521
vt 0.512292 0.780104
vt 0.487708 0.780104
vt 0.512292 0.804688
vt 0.487708 0.804688
vt 0.512292 0.829271
vt 0.487708 0.829271
vt 0.512292 0.853854
vt 0.487708 0.853854
vt 0.463125 0.804688
vt 0.463125 0.829271
vt 0.536875 0.804688
vt 0.536875 0.829271
vn -1.0000 0.0005 -0.0002
vn 0.0001 0.0009 -1.0000
vn 1.0000 -0.0005 0.0002
vn -0.0002 -0.0009 1.0000
vn -0.0005 -1.0000 -0.0008
vn 0.0005 1.0000 0.0008
usemtl Material.002
s off
f 69/173/46 70/174/46 72/175/46 71/176/46
f 71/176/47 72/175/47 76/177/47 75/178/47
f 75/178/48 76/177/48 74/179/48 73/180/48
f 73/180/49 74/179/49 70/181/49 69/182/49
f 71/183/50 75/178/50 73/180/50 69/184/50
f 76/177/51 72/185/51 70/186/51 74/179/51
