# Blender v2.83.2 OBJ File: 'TrainAnimation.blend'
# www.blender.org
mtllib TrainAnimation_000023.mtl
o Cube.001
v -2.383556 0.501938 12.888391
v -2.396862 0.502941 12.847840
v -2.382663 0.588913 12.890250
v -2.382332 0.603272 12.850048
v -2.395970 0.589916 12.849698
v -2.395631 0.508449 12.589386
v -2.381100 0.608781 12.591594
v -2.394738 0.595424 12.591245
v -2.296868 0.501905 12.848294
v -2.310560 0.501182 12.888723
v -2.309337 0.602516 12.850380
v -2.309668 0.588157 12.890581
v -2.295976 0.588880 12.850153
v -2.295637 0.507414 12.589841
v -2.308105 0.608025 12.591926
v -2.294744 0.594389 12.591699
vt 0.544416 0.648533
vt 0.544416 0.820938
vt 0.455584 0.820938
vt 0.455584 0.648533
vt 0.982074 0.510401
vt 0.982074 0.956148
vt 0.008083 0.956148
vt 0.008083 0.510401
vt 0.658750 0.533750
vt 0.841250 0.533750
vt 0.841250 0.716250
vt 0.658750 0.716250
vt 0.983600 0.513044
vt 0.983600 0.937818
vt 0.006557 0.937818
vt 0.006557 0.513044
vt 0.619549 0.838289
vt 0.653299 0.838289
vt 0.619549 0.872039
vt 0.653828 0.819603
vt 0.653828 0.853353
vt 0.620078 0.819603
vt 0.509668 0.661960
vt 0.509668 0.807212
vt 0.492793 0.807212
vt 0.492793 0.661960
vt 0.901201 0.874855
vt 0.901201 0.812645
vt 0.912705 0.812645
vt 0.912705 0.874855
vt 0.633279 0.788506
vt 0.658761 0.820869
vt 0.640159 0.820869
vt 0.633279 0.820869
vt 0.614676 0.820869
vt 0.614676 0.788506
vt 0.656250 0.738569
vt 0.656250 0.886431
vt 0.601562 0.886431
vt 0.601562 0.738569
vt 0.481895 0.853812
vt 0.481895 0.621580
vt 0.515645 0.621580
vt 0.515645 0.853812
vt 0.094494 0.814251
vt 0.909703 0.814251
vt 0.909703 0.848001
vt 0.094493 0.848001
vn -0.0047 -0.0213 0.9998
vn 0.9999 -0.0104 0.0045
vn 0.0103 0.9997 0.0214
vn -0.9999 0.0104 -0.0045
vn -0.6823 0.6903 0.2409
vn 0.6942 0.6760 0.2472
vn -0.9501 0.0031 0.3119
vn -0.6998 0.7142 0.0119
vn 0.0048 0.0213 -0.9998
vn 0.7143 0.6996 0.0183
vn 0.9471 -0.0166 0.3205
vn 0.0082 0.9417 0.3364
usemtl Material.002
s off
f 10/1/1 12/2/1 3/3/1 1/4/1
f 14/5/2 16/6/2 13/7/2 9/8/2
f 15/9/3 7/10/3 4/11/3 11/12/3
f 2/13/4 5/14/4 8/15/4 6/16/4
f 3/17/5 4/18/5 5/19/5
f 11/20/6 12/21/6 13/22/6
f 1/23/7 3/24/7 5/25/7 2/26/7
f 4/27/8 7/28/8 8/29/8 5/30/8
f 8/31/9 7/32/9 15/33/9 16/34/9 14/35/9 6/36/9
f 15/37/10 11/38/10 13/39/10 16/40/10
f 12/41/11 10/42/11 9/43/11 13/44/11
f 11/45/12 4/46/12 3/47/12 12/48/12
o Cube.008_Cube.007
v -2.395489 0.509560 12.560702
v -2.394059 0.515953 12.260774
v -2.295495 0.508524 12.561156
v -2.294066 0.514917 12.261229
v -2.381963 0.609403 12.562895
v -2.394591 0.597036 12.562571
v -2.393162 0.603428 12.262643
v -2.380534 0.615795 12.262966
v -2.294597 0.596000 12.563025
v -2.306968 0.608626 12.563235
v -2.305539 0.615018 12.263307
v -2.293168 0.602392 12.263097
vt 0.960410 0.001563
vt 0.960410 0.467716
vt 0.030991 0.467716
vt 0.030991 0.001563
vt 0.976119 0.515625
vt 0.976119 0.953125
vt 0.016069 0.953125
vt 0.016069 0.515625
vt 0.765053 0.871765
vt 0.765053 0.768860
vt 0.777916 0.768860
vt 0.777916 0.871765
vt 0.644762 0.745169
vt 0.644762 0.872018
vt 0.613050 0.872018
vt 0.613050 0.745169
vt 0.979831 0.511719
vt 0.979831 0.949219
vt 0.012357 0.949219
vt 0.012357 0.511719
vt 0.667358 0.827018
vt 0.639722 0.827018
vt 0.630509 0.827018
vt 0.598267 0.827018
vt 0.598267 0.790169
vt 0.630509 0.790169
vt 0.658968 0.795706
vt 0.642336 0.795706
vt 0.642336 0.852732
vt 0.658968 0.852732
vt 0.663720 0.852732
vt 0.677977 0.852732
vn 0.0103 0.9997 0.0214
vn 0.9999 -0.0104 0.0045
vn -0.6998 0.7142 0.0119
vn 0.7143 0.6996 0.0183
vn -0.9999 0.0104 -0.0045
vn 0.0048 0.0213 -0.9998
vn -0.0048 -0.0213 0.9998
usemtl Material.002
s off
f 27/49/13 24/50/13 21/51/13 26/52/13
f 20/53/14 28/54/14 25/55/14 19/56/14
f 21/57/15 24/58/15 23/59/15 22/60/15
f 27/61/16 26/62/16 25/63/16 28/64/16
f 17/65/17 22/66/17 23/67/17 18/68/17
f 24/69/18 27/70/18 28/71/18 20/72/18 18/73/18 23/74/18
f 22/75/19 17/76/19 19/77/19 25/78/19 26/79/19 21/80/19
o Cube.009_Cube.010
v -2.395979 0.519258 12.233005
v -2.403786 0.524687 11.933155
v -2.296246 0.512482 12.230285
v -2.304053 0.517911 11.930435
v -2.376691 0.618165 12.234293
v -2.390010 0.606543 12.234429
v -2.397817 0.611972 11.934580
v -2.384498 0.623594 11.934443
v -2.290277 0.599767 12.231709
v -2.301891 0.613083 12.232253
v -2.309698 0.618512 11.932404
v -2.298084 0.605195 11.931861
vt 0.795081 0.948129
vt 0.826013 0.948129
vt 0.826013 0.989371
vt 0.795081 0.989371
vt 0.979920 0.515625
vt 0.979920 0.953125
vt 0.016174 0.953125
vt 0.016174 0.515625
vt 0.890716 0.874276
vt 0.890716 0.750724
vt 0.906159 0.750724
vt 0.906159 0.874276
vt 0.633235 0.775655
vt 0.633235 0.825908
vt 0.620672 0.825908
vt 0.620672 0.775655
vt 0.984513 0.500000
vt 0.984513 0.937500
vt 0.007674 0.937500
vt 0.007674 0.500000
vt 0.659262 0.830513
vt 0.638102 0.830513
vt 0.631049 0.830513
vt 0.606363 0.830513
vt 0.606363 0.802300
vt 0.631049 0.802300
vt 0.633987 0.754748
vt 0.595741 0.754748
vt 0.595741 0.885877
vt 0.633987 0.885877
vt 0.644914 0.885877
vt 0.677696 0.885877
vn 0.0682 0.9975 0.0163
vn 0.9973 -0.0678 -0.0272
vn -0.6570 0.7533 0.0307
vn 0.7535 0.6575 -0.0077
vn -0.9973 0.0678 0.0272
vn -0.0260 0.0181 -0.9995
vn 0.0260 -0.0181 0.9995
usemtl Material.002
s off
f 39/81/20 36/82/20 33/83/20 38/84/20
f 32/85/21 40/86/21 37/87/21 31/88/21
f 33/89/22 36/90/22 35/91/22 34/92/22
f 39/93/23 38/94/23 37/95/23 40/96/23
f 29/97/24 34/98/24 35/99/24 30/100/24
f 36/101/25 39/102/25 40/103/25 32/104/25 30/105/25 35/106/25
f 34/107/26 29/108/26 31/109/26 37/110/26 38/111/26 33/112/26
o Cube.011
v -2.403857 0.521609 11.911578
v -2.446388 0.513054 11.614732
v -2.304867 0.520999 11.897413
v -2.347398 0.512444 11.600567
v -2.391283 0.621490 11.906898
v -2.403682 0.609072 11.909033
v -2.446213 0.600517 11.612186
v -2.433815 0.612935 11.610052
v -2.304692 0.608462 11.894867
v -2.317041 0.621033 11.896275
v -2.359572 0.612477 11.599428
v -2.347223 0.599907 11.598021
vt 0.016522 0.443981
vt 0.016522 -0.007317
vt 0.990504 -0.007317
vt 0.990504 0.443981
vt 0.973976 0.503906
vt 0.973976 0.941406
vt 0.026024 0.941406
vt 0.026024 0.503906
vt 0.749896 0.887555
vt 0.749896 0.792133
vt 0.761823 0.792133
vt 0.761823 0.887555
vt 0.638520 0.781858
vt 0.638520 0.890017
vt 0.611480 0.890017
vt 0.611480 0.781858
vt 0.978028 0.507812
vt 0.978028 0.945312
vt 0.018066 0.945312
vt 0.018066 0.507812
vt 0.678337 0.855269
vt 0.643480 0.855269
vt 0.631861 0.855269
vt 0.591194 0.855269
vt 0.591194 0.808793
vt 0.631861 0.808793
vt 0.626242 0.885282
vt 0.643633 0.885282
vt 0.643633 0.825655
vt 0.626242 0.825655
vt 0.621273 0.825655
vt 0.606367 0.825655
vn 0.0020 0.9996 -0.0291
vn 0.9899 -0.0061 -0.1417
vn -0.6986 0.7111 0.0796
vn 0.7014 0.7025 -0.1207
vn -0.9899 0.0061 0.1417
vn -0.1418 -0.0285 -0.9895
vn 0.1418 0.0285 0.9895
usemtl Material.002
s off
f 51/113/27 48/114/27 45/115/27 50/116/27
f 44/117/28 52/118/28 49/119/28 43/120/28
f 45/121/29 48/122/29 47/123/29 46/124/29
f 51/125/30 50/126/30 49/127/30 52/128/30
f 41/129/31 46/130/31 47/131/31 42/132/31
f 48/133/32 51/134/32 52/135/32 44/136/32 42/137/32 47/138/32
f 46/139/33 41/140/33 43/141/33 49/142/33 50/143/33 45/144/33
o Cube.012
v -2.355778 0.524580 12.272809
v -2.355095 0.534556 12.272972
v -2.357079 0.525485 12.222835
v -2.356396 0.535460 12.222997
v -2.335831 0.523225 12.272265
v -2.335149 0.533200 12.272428
v -2.337132 0.524130 12.222290
v -2.336450 0.534105 12.222453
vt 0.490107 0.757301
vt 0.509893 0.757301
vt 0.509893 0.777088
vt 0.490107 0.777088
vt 0.509893 0.796875
vt 0.490107 0.796875
vt 0.509893 0.816662
vt 0.490107 0.816662
vt 0.509893 0.836449
vt 0.490107 0.836449
vt 0.470320 0.796875
vt 0.470320 0.816662
vt 0.529680 0.796875
vt 0.529680 0.816662
vn -0.9973 0.0678 0.0272
vn -0.0260 0.0181 -0.9995
vn 0.9973 -0.0678 -0.0272
vn 0.0260 -0.0181 0.9995
vn -0.0682 -0.9975 -0.0163
vn 0.0682 0.9975 0.0163
usemtl Material.002
s off
f 53/145/34 54/146/34 56/147/34 55/148/34
f 55/148/35 56/147/35 60/149/35 59/150/35
f 59/150/36 60/149/36 58/151/36 57/152/36
f 57/152/37 58/151/37 54/153/37 53/154/37
f 55/155/38 59/150/38 57/152/38 53/156/38
f 60/149/39 56/157/39 54/158/39 58/151/39
o Cube.013
v -2.359898 0.531212 11.945493
v -2.359879 0.541207 11.945202
v -2.366987 0.529786 11.896018
v -2.366967 0.539782 11.895727
v -2.340101 0.531090 11.942659
v -2.340080 0.541085 11.942369
v -2.347189 0.529664 11.893185
v -2.347169 0.539660 11.892894
vt 0.482748 0.759117
vt 0.509440 0.759117
vt 0.509440 0.785808
vt 0.482748 0.785808
vt 0.509440 0.812500
vt 0.482748 0.812500
vt 0.509440 0.839192
vt 0.482748 0.839192
vt 0.509440 0.865883
vt 0.482748 0.865883
vt 0.456056 0.812500
vt 0.456056 0.839192
vt 0.536131 0.812500
vt 0.536131 0.839192
vn -0.9899 0.0061 0.1417
vn -0.1417 -0.0285 -0.9895
vn 0.9899 -0.0061 -0.1417
vn 0.1417 0.0285 0.9895
vn -0.0020 -0.9996 0.0291
vn 0.0020 0.9996 -0.0291
usemtl Material.002
s off
f 61/159/40 62/160/40 64/161/40 63/162/40
f 63/162/41 64/161/41 68/163/41 67/164/41
f 67/164/42 68/163/42 66/165/42 65/166/42
f 65/166/43 66/165/43 62/167/43 61/168/43
f 63/169/44 67/164/44 65/166/44 61/170/44
f 68/163/45 64/171/45 62/172/45 66/165/45
o Cube
v -2.356935 0.517030 12.599851
v -2.356832 0.527027 12.600063
v -2.356697 0.518096 12.549862
v -2.356594 0.528093 12.550076
v -2.336936 0.516823 12.599941
v -2.336833 0.526820 12.600155
v -2.336698 0.517888 12.549953
v -2.336595 0.527886 12.550166
vt 0.487708 0.755521
vt 0.512292 0.755521
vt 0.512292 0.780104
vt 0.487708 0.780104
vt 0.512292 0.804688
vt 0.487708 0.804688
vt 0.512292 0.829271
vt 0.487708 0.829271
vt 0.512292 0.853854
vt 0.487708 0.853854
vt 0.463125 0.804688
vt 0.463125 0.829271
vt 0.536875 0.804688
vt 0.536875 0.829271
vn -0.9999 0.0103 -0.0045
vn 0.0048 0.0213 -0.9998
vn 0.9999 -0.0103 0.0045
vn -0.0048 -0.0213 0.9998
vn -0.0103 -0.9997 -0.0214
vn 0.0103 0.9997 0.0214
usemtl Material.002
s off
f 69/173/46 70/174/46 72/175/46 71/176/46
f 71/176/47 72/175/47 76/177/47 75/178/47
f 75/178/48 76/177/48 74/179/48 73/180/48
f 73/180/49 74/179/49 70/181/49 69/182/49
f 71/183/50 75/178/50 73/180/50 69/184/50
f 76/177/51 72/185/51 70/186/51 74/179/51
