# Blender v2.83.2 OBJ File: 'TrainAnimation.blend'
# www.blender.org
mtllib TrainAnimation_000065.mtl
o Cube.001
v -2.916466 0.512259 14.545335
v -2.879731 0.512259 14.523585
v -2.916466 0.599259 14.545335
v -2.876880 0.612759 14.536781
v -2.879731 0.599259 14.523585
v -2.627048 0.512259 14.468985
v -2.624196 0.612759 14.482180
v -2.627048 0.599259 14.468985
v -2.858610 0.512259 14.621329
v -2.901048 0.512259 14.616689
v -2.861462 0.612759 14.608134
v -2.901048 0.599259 14.616689
v -2.858610 0.599259 14.621329
v -2.605927 0.512259 14.566729
v -2.608778 0.612759 14.553533
v -2.605927 0.599259 14.566729
vt 0.544416 0.648533
vt 0.544416 0.820938
vt 0.455584 0.820938
vt 0.455584 0.648533
vt 0.982074 0.510401
vt 0.982074 0.956148
vt 0.008083 0.956148
vt 0.008083 0.510401
vt 0.658750 0.533750
vt 0.841250 0.533750
vt 0.841250 0.716250
vt 0.658750 0.716250
vt 0.983600 0.513044
vt 0.983600 0.937818
vt 0.006557 0.937818
vt 0.006557 0.513044
vt 0.619549 0.838289
vt 0.653299 0.838289
vt 0.619549 0.872039
vt 0.653828 0.819603
vt 0.653828 0.853353
vt 0.620078 0.819603
vt 0.509668 0.661960
vt 0.509668 0.807212
vt 0.492793 0.807212
vt 0.492793 0.661960
vt 0.901201 0.874855
vt 0.901201 0.812645
vt 0.912705 0.812645
vt 0.912705 0.874855
vt 0.633279 0.788506
vt 0.658761 0.820869
vt 0.640159 0.820869
vt 0.633279 0.820869
vt 0.614676 0.820869
vt 0.614676 0.788506
vt 0.656250 0.738569
vt 0.656250 0.886431
vt 0.601562 0.886431
vt 0.601562 0.738569
vt 0.481895 0.853812
vt 0.481895 0.621580
vt 0.515645 0.621580
vt 0.515645 0.853812
vt 0.094494 0.814251
vt 0.909703 0.814251
vt 0.909703 0.848001
vt 0.094493 0.848001
vn -0.9774 0.0000 0.2112
vn 0.2112 0.0000 0.9774
vn 0.0000 1.0000 0.0000
vn -0.2112 0.0000 -0.9774
vn -0.3696 0.6883 -0.6243
vn -0.0789 0.6882 0.7212
vn -0.5095 0.0000 -0.8605
vn -0.1494 0.7071 -0.6912
vn 0.9774 -0.0000 -0.2112
vn 0.1493 0.7071 0.6912
vn -0.1087 0.0000 0.9941
vn -0.3091 0.9487 0.0668
usemtl Material.002
s off
f 10/1/1 12/2/1 3/3/1 1/4/1
f 14/5/2 16/6/2 13/7/2 9/8/2
f 15/9/3 7/10/3 4/11/3 11/12/3
f 2/13/4 5/14/4 8/15/4 6/16/4
f 3/17/5 4/18/5 5/19/5
f 11/20/6 12/21/6 13/22/6
f 1/23/7 3/24/7 5/25/7 2/26/7
f 4/27/8 7/28/8 8/29/8 5/30/8
f 8/31/9 7/32/9 15/33/9 16/34/9 14/35/9 6/36/9
f 15/37/10 11/38/10 13/39/10 16/40/10
f 12/41/11 10/42/11 9/43/11 13/44/11
f 11/45/12 4/46/12 3/47/12 12/48/12
o Cube.008_Cube.007
v -2.627061 0.512759 14.467398
v -2.417684 0.512759 14.252546
v -2.555444 0.512759 14.537190
v -2.346066 0.512759 14.322339
v -2.618109 0.612759 14.476122
v -2.627061 0.600259 14.467398
v -2.417684 0.600259 14.252546
v -2.408731 0.612759 14.261271
v -2.555444 0.600259 14.537190
v -2.564396 0.612759 14.528466
v -2.355019 0.612759 14.313615
v -2.346066 0.600259 14.322339
vt 0.960410 0.001563
vt 0.960410 0.467716
vt 0.030991 0.467716
vt 0.030991 0.001563
vt 0.976119 0.515625
vt 0.976119 0.953125
vt 0.016069 0.953125
vt 0.016069 0.515625
vt 0.765053 0.871765
vt 0.765053 0.768860
vt 0.777916 0.768860
vt 0.777916 0.871765
vt 0.644762 0.745169
vt 0.644762 0.872018
vt 0.613050 0.872018
vt 0.613050 0.745169
vt 0.979831 0.511719
vt 0.979831 0.949219
vt 0.012357 0.949219
vt 0.012357 0.511719
vt 0.667358 0.827018
vt 0.639722 0.827018
vt 0.630509 0.827018
vt 0.598267 0.827018
vt 0.598267 0.790169
vt 0.630509 0.790169
vt 0.658968 0.795706
vt 0.642336 0.795706
vt 0.642336 0.852732
vt 0.658968 0.852732
vt 0.663720 0.852732
vt 0.677977 0.852732
vn -0.0000 1.0000 0.0000
vn 0.7162 0.0000 0.6979
vn -0.5064 0.7071 -0.4935
vn 0.5064 0.7071 0.4935
vn -0.7162 0.0000 -0.6979
vn 0.6979 0.0000 -0.7162
vn -0.6979 0.0000 0.7162
usemtl Material.002
s off
f 27/49/13 24/50/13 21/51/13 26/52/13
f 20/53/14 28/54/14 25/55/14 19/56/14
f 21/57/15 24/58/15 23/59/15 22/60/15
f 27/61/16 26/62/16 25/63/16 28/64/16
f 17/65/17 22/66/17 23/67/17 18/68/17
f 24/69/18 27/70/18 28/71/18 20/72/18 18/73/18 23/74/18
f 22/75/19 17/76/19 19/77/19 25/78/19 26/79/19 21/80/19
o Cube.009_Cube.010
v -2.419131 0.512759 14.257135
v -2.401419 0.512759 13.957658
v -2.319305 0.512759 14.263039
v -2.301593 0.512759 13.963562
v -2.406652 0.612759 14.257873
v -2.419131 0.600259 14.257135
v -2.401419 0.600259 13.957658
v -2.388941 0.612759 13.958396
v -2.319305 0.600259 14.263039
v -2.331783 0.612759 14.262300
v -2.314072 0.612759 13.962824
v -2.301593 0.600259 13.963562
vt 0.795081 0.948129
vt 0.826013 0.948129
vt 0.826013 0.989371
vt 0.795081 0.989371
vt 0.979920 0.515625
vt 0.979920 0.953125
vt 0.016174 0.953125
vt 0.016174 0.515625
vt 0.890716 0.874276
vt 0.890716 0.750724
vt 0.906159 0.750724
vt 0.906159 0.874276
vt 0.633235 0.775655
vt 0.633235 0.825908
vt 0.620672 0.825908
vt 0.620672 0.775655
vt 0.984513 0.500000
vt 0.984513 0.937500
vt 0.007674 0.937500
vt 0.007674 0.500000
vt 0.659262 0.830513
vt 0.638102 0.830513
vt 0.631049 0.830513
vt 0.606363 0.830513
vt 0.606363 0.802300
vt 0.631049 0.802300
vt 0.633987 0.754748
vt 0.595741 0.754748
vt 0.595741 0.885877
vt 0.633987 0.885877
vt 0.644914 0.885877
vt 0.677696 0.885877
vn 0.0000 1.0000 0.0000
vn 0.9983 0.0000 0.0590
vn -0.7059 0.7071 -0.0417
vn 0.7059 0.7071 0.0417
vn -0.9983 0.0000 -0.0590
vn 0.0590 0.0000 -0.9983
vn -0.0590 0.0000 0.9983
usemtl Material.002
s off
f 39/81/20 36/82/20 33/83/20 38/84/20
f 32/85/21 40/86/21 37/87/21 31/88/21
f 33/89/22 36/90/22 35/91/22 34/92/22
f 39/93/23 38/94/23 37/95/23 40/96/23
f 29/97/24 34/98/24 35/99/24 30/100/24
f 36/101/25 39/102/25 40/103/25 32/104/25 30/105/25 35/106/25
f 34/107/26 29/108/26 31/109/26 37/110/26 38/111/26 33/112/26
o Cube.011
v -2.400250 0.512759 13.930712
v -2.391786 0.512759 13.630832
v -2.300290 0.512759 13.933534
v -2.291826 0.512759 13.633653
v -2.387755 0.612759 13.931065
v -2.400250 0.600259 13.930712
v -2.391786 0.600259 13.630832
v -2.379291 0.612759 13.631185
v -2.300290 0.600259 13.933534
v -2.312785 0.612759 13.933181
v -2.304321 0.612759 13.633301
v -2.291826 0.600259 13.633653
vt 0.016522 0.443981
vt 0.016522 -0.007317
vt 0.990504 -0.007317
vt 0.990504 0.443981
vt 0.973976 0.503906
vt 0.973976 0.941406
vt 0.026024 0.941406
vt 0.026024 0.503906
vt 0.749896 0.887555
vt 0.749896 0.792133
vt 0.761823 0.792133
vt 0.761823 0.887555
vt 0.638520 0.781858
vt 0.638520 0.890017
vt 0.611480 0.890017
vt 0.611480 0.781858
vt 0.978028 0.507812
vt 0.978028 0.945312
vt 0.018066 0.945312
vt 0.018066 0.507812
vt 0.678337 0.855269
vt 0.643480 0.855269
vt 0.631861 0.855269
vt 0.591194 0.855269
vt 0.591194 0.808793
vt 0.631861 0.808793
vt 0.626242 0.885282
vt 0.643633 0.885282
vt 0.643633 0.825655
vt 0.626242 0.825655
vt 0.621273 0.825655
vt 0.606367 0.825655
vn 0.0000 1.0000 0.0000
vn 0.9996 0.0000 0.0282
vn -0.7068 0.7071 -0.0200
vn 0.7068 0.7071 0.0200
vn -0.9996 0.0000 -0.0282
vn 0.0282 0.0000 -0.9996
vn -0.0282 0.0000 0.9996
usemtl Material.002
s off
f 51/113/27 48/114/27 45/115/27 50/116/27
f 44/117/28 52/118/28 49/119/28 43/120/28
f 45/121/29 48/122/29 47/123/29 46/124/29
f 51/125/30 50/126/30 49/127/30 52/128/30
f 41/129/31 46/130/31 47/131/31 42/132/31
f 48/133/32 51/134/32 52/135/32 44/136/32 42/137/32 47/138/32
f 46/139/33 41/140/33 43/141/33 49/142/33 50/143/33 45/144/33
o Cube.012
v -2.382952 0.521458 14.300082
v -2.382952 0.531458 14.300082
v -2.380000 0.521458 14.250169
v -2.380000 0.531458 14.250169
v -2.362987 0.521458 14.301263
v -2.362987 0.531458 14.301263
v -2.360034 0.521458 14.251349
v -2.360034 0.531458 14.251349
vt 0.490107 0.757301
vt 0.509893 0.757301
vt 0.509893 0.777088
vt 0.490107 0.777088
vt 0.509893 0.796875
vt 0.490107 0.796875
vt 0.509893 0.816662
vt 0.490107 0.816662
vt 0.509893 0.836449
vt 0.490107 0.836449
vt 0.470320 0.796875
vt 0.470320 0.816662
vt 0.529680 0.796875
vt 0.529680 0.816662
vn -0.9983 0.0000 -0.0590
vn 0.0591 0.0000 -0.9983
vn 0.9983 0.0000 0.0590
vn -0.0590 0.0000 0.9983
vn 0.0000 -1.0000 0.0000
vn 0.0000 1.0000 0.0000
usemtl Material.002
s off
f 53/145/34 54/146/34 56/147/34 55/148/34
f 55/148/35 56/147/35 60/149/35 59/150/35
f 59/150/36 60/149/36 58/151/36 57/152/36
f 57/152/37 58/151/37 54/153/37 53/154/37
f 55/155/38 59/150/38 57/152/38 53/156/38
f 60/149/39 56/157/39 54/158/39 58/151/39
o Cube.013
v -2.362745 0.521458 13.971850
v -2.362745 0.531458 13.971850
v -2.361334 0.521458 13.921870
v -2.361334 0.531458 13.921870
v -2.342753 0.521458 13.972415
v -2.342753 0.531458 13.972415
v -2.341342 0.521458 13.922435
v -2.341342 0.531458 13.922435
vt 0.482748 0.759117
vt 0.509440 0.759117
vt 0.509440 0.785808
vt 0.482748 0.785808
vt 0.509440 0.812500
vt 0.482748 0.812500
vt 0.509440 0.839192
vt 0.482748 0.839192
vt 0.509440 0.865883
vt 0.482748 0.865883
vt 0.456056 0.812500
vt 0.456056 0.839192
vt 0.536131 0.812500
vt 0.536131 0.839192
vn -0.9996 0.0000 -0.0282
vn 0.0282 0.0000 -0.9996
vn 0.9996 0.0000 0.0282
vn -0.0282 0.0000 0.9996
vn 0.0000 -1.0000 0.0000
vn 0.0000 1.0000 0.0000
usemtl Material.002
s off
f 61/159/40 62/160/40 64/161/40 63/162/40
f 63/162/41 64/161/41 68/163/41 67/164/41
f 67/164/42 68/163/42 66/165/42 65/166/42
f 65/166/43 66/165/43 62/167/43 61/168/43
f 63/169/44 67/164/44 65/166/44 61/170/44
f 68/163/45 64/171/45 62/172/45 66/165/45
o Cube
v -2.626456 0.521458 14.522157
v -2.626456 0.531458 14.522157
v -2.591560 0.521458 14.486348
v -2.591560 0.531458 14.486348
v -2.612133 0.521458 14.536115
v -2.612133 0.531458 14.536115
v -2.577237 0.521458 14.500306
v -2.577237 0.531458 14.500306
vt 0.487708 0.755521
vt 0.512292 0.755521
vt 0.512292 0.780104
vt 0.487708 0.780104
vt 0.512292 0.804688
vt 0.487708 0.804688
vt 0.512292 0.829271
vt 0.487708 0.829271
vt 0.512292 0.853854
vt 0.487708 0.853854
vt 0.463125 0.804688
vt 0.463125 0.829271
vt 0.536875 0.804688
vt 0.536875 0.829271
vn -0.7162 0.0000 -0.6979
vn 0.6979 0.0000 -0.7162
vn 0.7162 0.0000 0.6979
vn -0.6979 0.0000 0.7162
vn 0.0000 -1.0000 0.0000
vn 0.0000 1.0000 0.0000
usemtl Material.002
s off
f 69/173/46 70/174/46 72/175/46 71/176/46
f 71/176/47 72/175/47 76/177/47 75/178/47
f 75/178/48 76/177/48 74/179/48 73/180/48
f 73/180/49 74/179/49 70/181/49 69/182/49
f 71/183/50 75/178/50 73/180/50 69/184/50
f 76/177/51 72/185/51 70/186/51 74/179/51
