# Blender v2.83.2 OBJ File: 'TrainAnimation.blend'
# www.blender.org
mtllib TrainAnimation_000006.mtl
o Cube.001
v -2.391492 0.547866 12.094954
v -2.405387 0.547412 12.054591
v -2.386058 0.634649 12.092109
v -2.385637 0.646814 12.051190
v -2.399953 0.634195 12.051745
v -2.408080 0.539108 11.796223
v -2.388330 0.638510 11.792823
v -2.402646 0.625891 11.793377
v -2.305588 0.541136 12.053753
v -2.318639 0.543284 12.094343
v -2.312783 0.642232 12.050578
v -2.313205 0.630067 12.091496
v -2.300154 0.627919 12.050907
v -2.308281 0.532832 11.795384
v -2.315476 0.633928 11.792211
v -2.302847 0.619615 11.792539
vt 0.544416 0.648533
vt 0.544416 0.820938
vt 0.455584 0.820938
vt 0.455584 0.648533
vt 0.982074 0.510401
vt 0.982074 0.956148
vt 0.008083 0.956148
vt 0.008083 0.510401
vt 0.658750 0.533750
vt 0.841250 0.533750
vt 0.841250 0.716250
vt 0.658750 0.716250
vt 0.983600 0.513044
vt 0.983600 0.937818
vt 0.006557 0.937818
vt 0.006557 0.513044
vt 0.619549 0.838289
vt 0.653299 0.838289
vt 0.619549 0.872039
vt 0.653828 0.819603
vt 0.653828 0.853353
vt 0.620078 0.819603
vt 0.509668 0.661960
vt 0.509668 0.807212
vt 0.492793 0.807212
vt 0.492793 0.661960
vt 0.901201 0.874855
vt 0.901201 0.812645
vt 0.912705 0.812645
vt 0.912705 0.874855
vt 0.633279 0.788506
vt 0.658761 0.820869
vt 0.640159 0.820869
vt 0.633279 0.820869
vt 0.614676 0.820869
vt 0.614676 0.788506
vt 0.656250 0.738569
vt 0.656250 0.886431
vt 0.601562 0.886431
vt 0.601562 0.738569
vt 0.481895 0.853812
vt 0.481895 0.621580
vt 0.515645 0.621580
vt 0.515645 0.853812
vt 0.094494 0.814251
vt 0.909703 0.814251
vt 0.909703 0.848001
vt 0.094493 0.848001
vn 0.0104 0.0321 0.9994
vn 0.9980 -0.0628 -0.0084
vn 0.0625 0.9975 -0.0327
vn -0.9980 0.0628 0.0084
vn -0.6415 0.7371 0.2125
vn 0.7322 0.6507 0.2010
vn -0.9435 0.0697 0.3240
vn -0.6615 0.7497 -0.0172
vn -0.0104 -0.0321 -0.9994
vn 0.7499 0.6610 -0.0291
vn 0.9501 -0.0494 0.3081
vn 0.0625 0.9565 0.2850
usemtl Material.002
s off
f 10/1/1 12/2/1 3/3/1 1/4/1
f 14/5/2 16/6/2 13/7/2 9/8/2
f 15/9/3 7/10/3 4/11/3 11/12/3
f 2/13/4 5/14/4 8/15/4 6/16/4
f 3/17/5 4/18/5 5/19/5
f 11/20/6 12/21/6 13/22/6
f 1/23/7 3/24/7 5/25/7 2/26/7
f 4/27/8 7/28/8 8/29/8 5/30/8
f 8/31/9 7/32/9 15/33/9 16/34/9 14/35/9 6/36/9
f 15/37/10 11/38/10 13/39/10 16/40/10
f 12/41/11 10/42/11 9/43/11 13/44/11
f 11/45/12 4/46/12 3/47/12 12/48/12
o Cube.008_Cube.007
v -2.408348 0.538685 11.767525
v -2.411474 0.529048 11.467695
v -2.308549 0.532408 11.766686
v -2.311674 0.522771 11.466857
v -2.389627 0.637651 11.764149
v -2.402883 0.625967 11.764662
v -2.406008 0.616330 11.464833
v -2.392752 0.628014 11.464319
v -2.303083 0.619690 11.763824
v -2.314778 0.632944 11.763519
v -2.317903 0.623307 11.463691
v -2.306209 0.610053 11.463995
vt 0.960410 0.001563
vt 0.960410 0.467716
vt 0.030991 0.467716
vt 0.030991 0.001563
vt 0.976119 0.515625
vt 0.976119 0.953125
vt 0.016069 0.953125
vt 0.016069 0.515625
vt 0.765053 0.871765
vt 0.765053 0.768860
vt 0.777916 0.768860
vt 0.777916 0.871765
vt 0.644762 0.745169
vt 0.644762 0.872018
vt 0.613050 0.872018
vt 0.613050 0.745169
vt 0.979831 0.511719
vt 0.979831 0.949219
vt 0.012357 0.949219
vt 0.012357 0.511719
vt 0.667358 0.827018
vt 0.639722 0.827018
vt 0.630509 0.827018
vt 0.598267 0.827018
vt 0.598267 0.790169
vt 0.630509 0.790169
vt 0.658968 0.795706
vt 0.642336 0.795706
vt 0.642336 0.852732
vt 0.658968 0.852732
vt 0.663720 0.852732
vt 0.677977 0.852732
vn 0.0625 0.9975 -0.0327
vn 0.9980 -0.0628 -0.0084
vn -0.6615 0.7497 -0.0172
vn 0.7499 0.6610 -0.0291
vn -0.9980 0.0628 0.0084
vn -0.0104 -0.0321 -0.9994
vn 0.0104 0.0321 0.9994
usemtl Material.002
s off
f 27/49/13 24/50/13 21/51/13 26/52/13
f 20/53/14 28/54/14 25/55/14 19/56/14
f 21/57/15 24/58/15 23/59/15 22/60/15
f 27/61/16 26/62/16 25/63/16 28/64/16
f 17/65/17 22/66/17 23/67/17 18/68/17
f 24/69/18 27/70/18 28/71/18 20/72/18 18/73/18 23/74/18
f 22/75/19 17/76/19 19/77/19 25/78/19 26/79/19 21/80/19
o Cube.009_Cube.010
v -2.409150 0.538295 11.480277
v -2.637825 0.574769 11.289548
v -2.348704 0.516534 11.403644
v -2.577379 0.553007 11.212914
v -2.378442 0.632418 11.461458
v -2.388892 0.623033 11.472193
v -2.617567 0.659507 11.281464
v -2.607117 0.668892 11.270730
v -2.328446 0.601272 11.395559
v -2.333107 0.616097 11.403983
v -2.561782 0.652571 11.213255
v -2.557121 0.637745 11.204830
vt 0.795081 0.948129
vt 0.826013 0.948129
vt 0.826013 0.989371
vt 0.795081 0.989371
vt 0.979920 0.515625
vt 0.979920 0.953125
vt 0.016174 0.953125
vt 0.016174 0.515625
vt 0.890716 0.874276
vt 0.890716 0.750724
vt 0.906159 0.750724
vt 0.906159 0.874276
vt 0.633235 0.775655
vt 0.633235 0.825908
vt 0.620672 0.825908
vt 0.620672 0.775655
vt 0.984513 0.500000
vt 0.984513 0.937500
vt 0.007674 0.937500
vt 0.007674 0.500000
vt 0.659262 0.830513
vt 0.638102 0.830513
vt 0.631049 0.830513
vt 0.606363 0.830513
vt 0.606363 0.802300
vt 0.631049 0.802300
vt 0.633987 0.754748
vt 0.595741 0.754748
vt 0.595741 0.885877
vt 0.633987 0.885877
vt 0.644914 0.885877
vt 0.677696 0.885877
vn 0.2315 0.9684 -0.0924
vn 0.6045 -0.2176 -0.7663
vn -0.2637 0.8387 0.4765
vn 0.5911 0.5309 -0.6072
vn -0.6045 0.2176 0.7663
vn -0.7622 0.1216 -0.6358
vn 0.7623 -0.1216 0.6358
usemtl Material.002
s off
f 39/81/20 36/82/20 33/83/20 38/84/20
f 32/85/21 40/86/21 37/87/21 31/88/21
f 33/89/22 36/90/22 35/91/22 34/92/22
f 39/93/23 38/94/23 37/95/23 40/96/23
f 29/97/24 34/98/24 35/99/24 30/100/24
f 36/101/25 39/102/25 40/103/25 32/104/25 30/105/25 35/106/25
f 34/107/26 29/108/26 31/109/26 37/110/26 38/111/26 33/112/26
o Cube.011
v -2.642236 0.570621 11.284988
v -2.915785 0.520374 11.172533
v -2.602320 0.555823 11.194503
v -2.875869 0.505576 11.082047
v -2.646855 0.666242 11.253498
v -2.650644 0.655908 11.267331
v -2.924193 0.605661 11.154876
v -2.920404 0.615995 11.141043
v -2.610727 0.641110 11.176846
v -2.616918 0.655143 11.185634
v -2.890466 0.604896 11.073178
v -2.884276 0.590863 11.064390
vt 0.016522 0.443981
vt 0.016522 -0.007317
vt 0.990504 -0.007317
vt 0.990504 0.443981
vt 0.973976 0.503906
vt 0.973976 0.941406
vt 0.026024 0.941406
vt 0.026024 0.503906
vt 0.749896 0.887555
vt 0.749896 0.792133
vt 0.761823 0.792133
vt 0.761823 0.887555
vt 0.638520 0.781858
vt 0.638520 0.890017
vt 0.611480 0.890017
vt 0.611480 0.781858
vt 0.978028 0.507812
vt 0.978028 0.945312
vt 0.018066 0.945312
vt 0.018066 0.507812
vt 0.678337 0.855269
vt 0.643480 0.855269
vt 0.631861 0.855269
vt 0.591194 0.855269
vt 0.591194 0.808793
vt 0.631861 0.808793
vt 0.626242 0.885282
vt 0.643633 0.885282
vt 0.643633 0.825655
vt 0.626242 0.825655
vt 0.621273 0.825655
vt 0.606367 0.825655
vn -0.0961 0.9747 -0.2018
vn 0.3992 -0.1480 -0.9049
vn -0.3502 0.7939 0.4971
vn 0.2143 0.5846 -0.7825
vn -0.3992 0.1480 0.9049
vn -0.9118 -0.1675 -0.3749
vn 0.9118 0.1675 0.3749
usemtl Material.002
s off
f 51/113/27 48/114/27 45/115/27 50/116/27
f 44/117/28 52/118/28 49/119/28 43/120/28
f 45/121/29 48/122/29 47/123/29 46/124/29
f 51/125/30 50/126/30 49/127/30 52/128/30
f 41/129/31 46/130/31 47/131/31 42/132/31
f 48/133/32 51/134/32 52/135/32 44/136/32 42/137/32 47/138/32
f 46/139/33 41/140/33 43/141/33 49/142/33 50/143/33 45/144/33
o Cube.012
v -2.352721 0.533356 11.475751
v -2.350406 0.543040 11.474827
v -2.390834 0.539435 11.443963
v -2.388519 0.549119 11.443039
v -2.340632 0.529004 11.460424
v -2.338317 0.538688 11.459500
v -2.378745 0.535083 11.428637
v -2.376429 0.544767 11.427712
vt 0.490107 0.757301
vt 0.509893 0.757301
vt 0.509893 0.777088
vt 0.490107 0.777088
vt 0.509893 0.796875
vt 0.490107 0.796875
vt 0.509893 0.816662
vt 0.490107 0.816662
vt 0.509893 0.836449
vt 0.490107 0.836449
vt 0.470320 0.796875
vt 0.470320 0.816662
vt 0.529680 0.796875
vt 0.529680 0.816662
vn -0.6045 0.2176 0.7663
vn -0.7622 0.1216 -0.6358
vn 0.6045 -0.2176 -0.7663
vn 0.7623 -0.1215 0.6358
vn -0.2315 -0.9684 0.0924
vn 0.2315 0.9684 -0.0924
usemtl Material.002
s off
f 53/145/34 54/146/34 56/147/34 55/148/34
f 55/148/35 56/147/35 60/149/35 59/150/35
f 59/150/36 60/149/36 58/151/36 57/152/36
f 57/152/37 58/151/37 54/153/37 53/154/37
f 55/155/38 59/150/38 57/152/38 53/156/38
f 60/149/39 56/157/39 54/158/39 58/151/39
o Cube.013
v -2.591113 0.580091 11.263277
v -2.592074 0.589838 11.261259
v -2.636704 0.571717 11.244534
v -2.637665 0.581464 11.242517
v -2.583129 0.577132 11.245179
v -2.584090 0.586879 11.243161
v -2.628721 0.568757 11.226437
v -2.629682 0.578504 11.224419
vt 0.482748 0.759117
vt 0.509440 0.759117
vt 0.509440 0.785808
vt 0.482748 0.785808
vt 0.509440 0.812500
vt 0.482748 0.812500
vt 0.509440 0.839192
vt 0.482748 0.839192
vt 0.509440 0.865883
vt 0.482748 0.865883
vt 0.456056 0.812500
vt 0.456056 0.839192
vt 0.536131 0.812500
vt 0.536131 0.839192
vn -0.3992 0.1480 0.9049
vn -0.9118 -0.1675 -0.3748
vn 0.3992 -0.1480 -0.9049
vn 0.9118 0.1675 0.3748
vn 0.0961 -0.9747 0.2018
vn -0.0961 0.9747 -0.2018
usemtl Material.002
s off
f 61/159/40 62/160/40 64/161/40 63/162/40
f 63/162/41 64/161/41 68/163/41 67/164/41
f 67/164/42 68/163/42 66/165/42 65/166/42
f 65/166/43 66/165/43 62/167/43 61/168/43
f 63/169/44 67/164/44 65/166/44 61/170/44
f 68/163/45 64/171/45 62/172/45 66/165/45
o Cube
v -2.368827 0.546183 11.805687
v -2.368202 0.556158 11.805360
v -2.369348 0.544577 11.755715
v -2.368723 0.554552 11.755388
v -2.348867 0.544927 11.805519
v -2.348242 0.554902 11.805192
v -2.349388 0.543321 11.755548
v -2.348763 0.553296 11.755220
vt 0.487708 0.755521
vt 0.512292 0.755521
vt 0.512292 0.780104
vt 0.487708 0.780104
vt 0.512292 0.804688
vt 0.487708 0.804688
vt 0.512292 0.829271
vt 0.487708 0.829271
vt 0.512292 0.853854
vt 0.487708 0.853854
vt 0.463125 0.804688
vt 0.463125 0.829271
vt 0.536875 0.804688
vt 0.536875 0.829271
vn -0.9980 0.0628 0.0084
vn -0.0104 -0.0321 -0.9994
vn 0.9980 -0.0628 -0.0084
vn 0.0104 0.0321 0.9994
vn -0.0625 -0.9975 0.0327
vn 0.0625 0.9975 -0.0327
usemtl Material.002
s off
f 69/173/46 70/174/46 72/175/46 71/176/46
f 71/176/47 72/175/47 76/177/47 75/178/47
f 75/178/48 76/177/48 74/179/48 73/180/48
f 73/180/49 74/179/49 70/181/49 69/182/49
f 71/183/50 75/178/50 73/180/50 69/184/50
f 76/177/51 72/185/51 70/186/51 74/179/51
