# Blender v2.83.2 OBJ File: 'TrainAnimation.blend'
# www.blender.org
mtllib TrainAnimation_000012.mtl
o Cube.001
v -2.385237 0.505694 12.376564
v -2.398850 0.507595 12.336146
v -2.381166 0.592556 12.379278
v -2.380662 0.607305 12.339219
v -2.394779 0.594456 12.338861
v -2.399669 0.515706 12.077760
v -2.381481 0.615416 12.080832
v -2.395598 0.602568 12.080474
v -2.298961 0.502927 12.335684
v -2.312317 0.502287 12.376226
v -2.307743 0.603898 12.338881
v -2.308246 0.589148 12.378940
v -2.294889 0.589789 12.338398
v -2.299780 0.511039 12.077296
v -2.308562 0.612009 12.080494
v -2.295708 0.597901 12.080010
vt 0.544416 0.648533
vt 0.544416 0.820938
vt 0.455584 0.820938
vt 0.455584 0.648533
vt 0.982074 0.510401
vt 0.982074 0.956148
vt 0.008083 0.956148
vt 0.008083 0.510401
vt 0.658750 0.533750
vt 0.841250 0.533750
vt 0.841250 0.716250
vt 0.658750 0.716250
vt 0.983600 0.513044
vt 0.983600 0.937818
vt 0.006557 0.937818
vt 0.006557 0.513044
vt 0.619549 0.838289
vt 0.653299 0.838289
vt 0.619549 0.872039
vt 0.653828 0.819603
vt 0.653828 0.853353
vt 0.620078 0.819603
vt 0.509668 0.661960
vt 0.509668 0.807212
vt 0.492793 0.807212
vt 0.492793 0.661960
vt 0.901201 0.874855
vt 0.901201 0.812645
vt 0.912705 0.812645
vt 0.912705 0.874855
vt 0.633279 0.788506
vt 0.658761 0.820869
vt 0.640159 0.820869
vt 0.633279 0.820869
vt 0.614676 0.820869
vt 0.614676 0.788506
vt 0.656250 0.738569
vt 0.656250 0.886431
vt 0.601562 0.886431
vt 0.601562 0.738569
vt 0.481895 0.853812
vt 0.481895 0.621580
vt 0.515645 0.621580
vt 0.515645 0.853812
vt 0.094494 0.814251
vt 0.909703 0.814251
vt 0.909703 0.848001
vt 0.094493 0.848001
vn 0.0032 -0.0314 0.9995
vn 0.9989 -0.0467 -0.0046
vn 0.0468 0.9984 0.0312
vn -0.9989 0.0467 0.0046
vn -0.6546 0.7120 0.2540
vn 0.7204 0.6478 0.2476
vn -0.9466 0.0344 0.3204
vn -0.6732 0.7390 0.0253
vn -0.0032 0.0314 -0.9995
vn 0.7394 0.6730 0.0188
vn 0.9486 -0.0542 0.3117
vn 0.0454 0.9373 0.3457
usemtl Material.002
s off
f 10/1/1 12/2/1 3/3/1 1/4/1
f 14/5/2 16/6/2 13/7/2 9/8/2
f 15/9/3 7/10/3 4/11/3 11/12/3
f 2/13/4 5/14/4 8/15/4 6/16/4
f 3/17/5 4/18/5 5/19/5
f 11/20/6 12/21/6 13/22/6
f 1/23/7 3/24/7 5/25/7 2/26/7
f 4/27/8 7/28/8 8/29/8 5/30/8
f 8/31/9 7/32/9 15/33/9 16/34/9 14/35/9 6/36/9
f 15/37/10 11/38/10 13/39/10 16/40/10
f 12/41/11 10/42/11 9/43/11 13/44/11
f 11/45/12 4/46/12 3/47/12 12/48/12
o Cube.008_Cube.007
v -2.399737 0.517105 12.049091
v -2.400688 0.526518 11.749240
v -2.299847 0.512438 12.048628
v -2.300798 0.521851 11.748777
v -2.382571 0.616364 12.052153
v -2.395643 0.604467 12.051821
v -2.396593 0.613880 11.751969
v -2.383522 0.625777 11.752301
v -2.295753 0.599799 12.051357
v -2.307654 0.612863 12.051805
v -2.308604 0.622276 11.751954
v -2.296703 0.609212 11.751507
vt 0.960410 0.001563
vt 0.960410 0.467716
vt 0.030991 0.467716
vt 0.030991 0.001563
vt 0.976119 0.515625
vt 0.976119 0.953125
vt 0.016069 0.953125
vt 0.016069 0.515625
vt 0.765053 0.871765
vt 0.765053 0.768860
vt 0.777916 0.768860
vt 0.777916 0.871765
vt 0.644762 0.745169
vt 0.644762 0.872018
vt 0.613050 0.872018
vt 0.613050 0.745169
vt 0.979831 0.511719
vt 0.979831 0.949219
vt 0.012357 0.949219
vt 0.012357 0.511719
vt 0.667358 0.827018
vt 0.639722 0.827018
vt 0.630509 0.827018
vt 0.598267 0.827018
vt 0.598267 0.790169
vt 0.630509 0.790169
vt 0.658968 0.795706
vt 0.642336 0.795706
vt 0.642336 0.852732
vt 0.658968 0.852732
vt 0.663720 0.852732
vt 0.677977 0.852732
vn 0.0468 0.9984 0.0312
vn 0.9989 -0.0467 -0.0046
vn -0.6732 0.7390 0.0253
vn 0.7394 0.6730 0.0188
vn -0.9989 0.0467 0.0046
vn -0.0032 0.0314 -0.9995
vn 0.0032 -0.0314 0.9995
usemtl Material.002
s off
f 27/49/13 24/50/13 21/51/13 26/52/13
f 20/53/14 28/54/14 25/55/14 19/56/14
f 21/57/15 24/58/15 23/59/15 22/60/15
f 27/61/16 26/62/16 25/63/16 28/64/16
f 17/65/17 22/66/17 23/67/17 18/68/17
f 24/69/18 27/70/18 28/71/18 20/72/18 18/73/18 23/74/18
f 22/75/19 17/76/19 19/77/19 25/78/19 26/79/19 21/80/19
o Cube.009_Cube.010
v -2.406213 0.536145 11.742962
v -2.538015 0.565681 11.475089
v -2.319171 0.516228 11.697939
v -2.450974 0.545763 11.430066
v -2.373116 0.631156 11.737153
v -2.386773 0.621458 11.742804
v -2.518575 0.650994 11.474931
v -2.504918 0.660692 11.469280
v -2.299731 0.601541 11.697781
v -2.307834 0.616218 11.703385
v -2.439637 0.645754 11.435513
v -2.431534 0.631076 11.429908
vt 0.795081 0.948129
vt 0.826013 0.948129
vt 0.826013 0.989371
vt 0.795081 0.989371
vt 0.979920 0.515625
vt 0.979920 0.953125
vt 0.016174 0.953125
vt 0.016174 0.515625
vt 0.890716 0.874276
vt 0.890716 0.750724
vt 0.906159 0.750724
vt 0.906159 0.874276
vt 0.633235 0.775655
vt 0.633235 0.825908
vt 0.620672 0.825908
vt 0.620672 0.775655
vt 0.984513 0.500000
vt 0.984513 0.937500
vt 0.007674 0.937500
vt 0.007674 0.500000
vt 0.659262 0.830513
vt 0.638102 0.830513
vt 0.631049 0.830513
vt 0.606363 0.830513
vt 0.606363 0.802300
vt 0.631049 0.802300
vt 0.633987 0.754748
vt 0.595741 0.754748
vt 0.595741 0.885877
vt 0.633987 0.885877
vt 0.644914 0.885877
vt 0.677696 0.885877
vn 0.2222 0.9750 -0.0018
vn 0.8704 -0.1992 -0.4502
vn -0.4584 0.8303 0.3171
vn 0.7726 0.5486 -0.3196
vn -0.8704 0.1992 0.4502
vn -0.4393 0.0985 -0.8929
vn 0.4393 -0.0985 0.8929
usemtl Material.002
s off
f 39/81/20 36/82/20 33/83/20 38/84/20
f 32/85/21 40/86/21 37/87/21 31/88/21
f 33/89/22 36/90/22 35/91/22 34/92/22
f 39/93/23 38/94/23 37/95/23 40/96/23
f 29/97/24 34/98/24 35/99/24 30/100/24
f 36/101/25 39/102/25 40/103/25 32/104/25 30/105/25 35/106/25
f 34/107/26 29/108/26 31/109/26 37/110/26 38/111/26 33/112/26
o Cube.011
v -2.537452 0.559542 11.471250
v -2.759930 0.517267 11.274485
v -2.470525 0.550711 11.397474
v -2.693004 0.508437 11.200709
v -2.533690 0.657046 11.446048
v -2.541481 0.645823 11.457268
v -2.763959 0.603549 11.260503
v -2.756169 0.614771 11.249284
v -2.474554 0.636993 11.383492
v -2.483495 0.650423 11.390717
v -2.705974 0.608148 11.193952
v -2.697032 0.594719 11.186728
vt 0.016522 0.443981
vt 0.016522 -0.007317
vt 0.990504 -0.007317
vt 0.990504 0.443981
vt 0.973976 0.503906
vt 0.973976 0.941406
vt 0.026024 0.941406
vt 0.026024 0.503906
vt 0.749896 0.887555
vt 0.749896 0.792133
vt 0.761823 0.792133
vt 0.761823 0.887555
vt 0.638520 0.781858
vt 0.638520 0.890017
vt 0.611480 0.890017
vt 0.611480 0.781858
vt 0.978028 0.507812
vt 0.978028 0.945312
vt 0.018066 0.945312
vt 0.018066 0.507812
vt 0.678337 0.855269
vt 0.643480 0.855269
vt 0.631861 0.855269
vt 0.591194 0.855269
vt 0.591194 0.808793
vt 0.631861 0.808793
vt 0.626242 0.885282
vt 0.643633 0.885282
vt 0.643633 0.825655
vt 0.626242 0.825655
vt 0.621273 0.825655
vt 0.606367 0.825655
vn -0.0460 0.9861 -0.1598
vn 0.6693 -0.0883 -0.7378
vn -0.5058 0.7597 0.4087
vn 0.4407 0.6348 -0.6347
vn -0.6693 0.0883 0.7378
vn -0.7416 -0.1409 -0.6559
vn 0.7416 0.1409 0.6559
usemtl Material.002
s off
f 51/113/27 48/114/27 45/115/27 50/116/27
f 44/117/28 52/118/28 49/119/28 43/120/28
f 45/121/29 48/122/29 47/123/29 46/124/29
f 51/125/30 50/126/30 49/127/30 52/128/30
f 41/129/31 46/130/31 47/131/31 42/132/31
f 48/133/32 51/134/32 52/135/32 44/136/32 42/137/32 47/138/32
f 46/139/33 41/140/33 43/141/33 49/142/33 50/143/33 45/144/33
o Cube.012
v -2.352740 0.532918 11.761917
v -2.350518 0.542668 11.761899
v -2.374707 0.537841 11.717271
v -2.372485 0.547591 11.717253
v -2.335332 0.528935 11.752913
v -2.333110 0.538685 11.752894
v -2.357299 0.533857 11.708266
v -2.355077 0.543608 11.708248
vt 0.490107 0.757301
vt 0.509893 0.757301
vt 0.509893 0.777088
vt 0.490107 0.777088
vt 0.509893 0.796875
vt 0.490107 0.796875
vt 0.509893 0.816662
vt 0.490107 0.816662
vt 0.509893 0.836449
vt 0.490107 0.836449
vt 0.470320 0.796875
vt 0.470320 0.816662
vt 0.529680 0.796875
vt 0.529680 0.816662
vn -0.8704 0.1992 0.4502
vn -0.4393 0.0985 -0.8929
vn 0.8704 -0.1992 -0.4502
vn 0.4394 -0.0985 0.8929
vn -0.2222 -0.9750 0.0018
vn 0.2222 0.9750 -0.0018
usemtl Material.002
s off
f 53/145/34 54/146/34 56/147/34 55/148/34
f 55/148/35 56/147/35 60/149/35 59/150/35
f 59/150/36 60/149/36 58/151/36 57/152/36
f 57/152/37 58/151/37 54/153/37 53/154/37
f 55/155/38 59/150/38 57/152/38 53/156/38
f 60/149/39 56/157/39 54/158/39 58/151/39
o Cube.013
v -2.482275 0.570353 11.467620
v -2.482735 0.580214 11.466022
v -2.519355 0.563307 11.434826
v -2.519815 0.573168 11.433228
v -2.468890 0.568587 11.452865
v -2.469350 0.578448 11.451267
v -2.505969 0.561541 11.420071
v -2.506430 0.571402 11.418473
vt 0.482748 0.759117
vt 0.509440 0.759117
vt 0.509440 0.785808
vt 0.482748 0.785808
vt 0.509440 0.812500
vt 0.482748 0.812500
vt 0.509440 0.839192
vt 0.482748 0.839192
vt 0.509440 0.865883
vt 0.482748 0.865883
vt 0.456056 0.812500
vt 0.456056 0.839192
vt 0.536131 0.812500
vt 0.536131 0.839192
vn -0.6693 0.0883 0.7377
vn -0.7416 -0.1409 -0.6559
vn 0.6693 -0.0883 -0.7378
vn 0.7416 0.1409 0.6559
vn 0.0460 -0.9861 0.1598
vn -0.0460 0.9861 -0.1598
usemtl Material.002
s off
f 61/159/40 62/160/40 64/161/40 63/162/40
f 63/162/41 64/161/41 68/163/41 67/164/41
f 67/164/42 68/163/42 66/165/42 65/166/42
f 65/166/43 66/165/43 62/167/43 61/168/43
f 63/169/44 67/164/44 65/166/44 61/170/44
f 68/163/45 64/171/45 62/172/45 66/165/45
o Cube
v -2.360598 0.522770 12.087959
v -2.360130 0.532754 12.088271
v -2.360757 0.524339 12.037985
v -2.360289 0.534323 12.038297
v -2.340620 0.521836 12.087867
v -2.340153 0.531820 12.088179
v -2.340779 0.523405 12.037892
v -2.340311 0.533389 12.038204
vt 0.487708 0.755521
vt 0.512292 0.755521
vt 0.512292 0.780104
vt 0.487708 0.780104
vt 0.512292 0.804688
vt 0.487708 0.804688
vt 0.512292 0.829271
vt 0.487708 0.829271
vt 0.512292 0.853854
vt 0.487708 0.853854
vt 0.463125 0.804688
vt 0.463125 0.829271
vt 0.536875 0.804688
vt 0.536875 0.829271
vn -0.9989 0.0467 0.0046
vn -0.0032 0.0314 -0.9995
vn 0.9989 -0.0467 -0.0046
vn 0.0032 -0.0314 0.9995
vn -0.0468 -0.9984 -0.0312
vn 0.0468 0.9984 0.0312
usemtl Material.002
s off
f 69/173/46 70/174/46 72/175/46 71/176/46
f 71/176/47 72/175/47 76/177/47 75/178/47
f 75/178/48 76/177/48 74/179/48 73/180/48
f 73/180/49 74/179/49 70/181/49 69/182/49
f 71/183/50 75/178/50 73/180/50 69/184/50
f 76/177/51 72/185/51 70/186/51 74/179/51
