# Blender v2.83.2 OBJ File: 'TrainAnimation.blend'
# www.blender.org
mtllib TrainAnimation_000014.mtl
o Cube.001
v -2.390584 0.494814 12.475673
v -2.403917 0.497128 12.435184
v -2.388030 0.581678 12.479795
v -2.387472 0.597072 12.439981
v -2.401362 0.583992 12.439305
v -2.402888 0.509352 12.176959
v -2.386442 0.609296 12.181756
v -2.400333 0.596216 12.181082
v -2.303961 0.494175 12.435442
v -2.317616 0.492659 12.475862
v -2.314504 0.594917 12.440169
v -2.315062 0.579523 12.479984
v -2.301406 0.581039 12.439565
v -2.302932 0.506399 12.177217
v -2.313474 0.607141 12.181945
v -2.300377 0.593264 12.181340
vt 0.544416 0.648533
vt 0.544416 0.820938
vt 0.455584 0.820938
vt 0.455584 0.648533
vt 0.982074 0.510401
vt 0.982074 0.956148
vt 0.008083 0.956148
vt 0.008083 0.510401
vt 0.658750 0.533750
vt 0.841250 0.533750
vt 0.841250 0.716250
vt 0.658750 0.716250
vt 0.983600 0.513044
vt 0.983600 0.937818
vt 0.006557 0.937818
vt 0.006557 0.513044
vt 0.619549 0.838289
vt 0.653299 0.838289
vt 0.619549 0.872039
vt 0.653828 0.819603
vt 0.653828 0.853353
vt 0.620078 0.819603
vt 0.509668 0.661960
vt 0.509668 0.807212
vt 0.492793 0.807212
vt 0.492793 0.661960
vt 0.901201 0.874855
vt 0.901201 0.812645
vt 0.912705 0.812645
vt 0.912705 0.874855
vt 0.633279 0.788506
vt 0.658761 0.820869
vt 0.640159 0.820869
vt 0.633279 0.820869
vt 0.614676 0.820869
vt 0.614676 0.788506
vt 0.656250 0.738569
vt 0.656250 0.886431
vt 0.601562 0.886431
vt 0.601562 0.738569
vt 0.481895 0.853812
vt 0.481895 0.621580
vt 0.515645 0.621580
vt 0.515645 0.853812
vt 0.094494 0.814251
vt 0.909703 0.814251
vt 0.909703 0.848001
vt 0.094493 0.848001
vn -0.0040 -0.0473 0.9989
vn 0.9996 -0.0295 0.0026
vn 0.0294 0.9984 0.0474
vn -0.9996 0.0295 -0.0026
vn -0.6687 0.6966 0.2600
vn 0.7072 0.6560 0.2635
vn -0.9495 0.0131 0.3134
vn -0.6860 0.7269 0.0317
vn 0.0040 0.0473 -0.9989
vn 0.7276 0.6851 0.0353
vn 0.9470 -0.0430 0.3183
vn 0.0266 0.9323 0.3608
usemtl Material.002
s off
f 10/1/1 12/2/1 3/3/1 1/4/1
f 14/5/2 16/6/2 13/7/2 9/8/2
f 15/9/3 7/10/3 4/11/3 11/12/3
f 2/13/4 5/14/4 8/15/4 6/16/4
f 3/17/5 4/18/5 5/19/5
f 11/20/6 12/21/6 13/22/6
f 1/23/7 3/24/7 5/25/7 2/26/7
f 4/27/8 7/28/8 8/29/8 5/30/8
f 8/31/9 7/32/9 15/33/9 16/34/9 14/35/9 6/36/9
f 15/37/10 11/38/10 13/39/10 16/40/10
f 12/41/11 10/42/11 9/43/11 13/44/11
f 11/45/12 4/46/12 3/47/12 12/48/12
o Cube.008_Cube.007
v -2.402759 0.511207 12.148314
v -2.401564 0.525393 11.848653
v -2.302803 0.508255 12.148573
v -2.301608 0.522441 11.848911
v -2.387328 0.610683 12.153085
v -2.400189 0.598571 12.152460
v -2.398994 0.612757 11.852798
v -2.386133 0.624869 11.853423
v -2.300233 0.595619 12.152719
v -2.312361 0.608469 12.153279
v -2.311166 0.622654 11.853617
v -2.299038 0.609805 11.853057
vt 0.960410 0.001563
vt 0.960410 0.467716
vt 0.030991 0.467716
vt 0.030991 0.001563
vt 0.976119 0.515625
vt 0.976119 0.953125
vt 0.016069 0.953125
vt 0.016069 0.515625
vt 0.765053 0.871765
vt 0.765053 0.768860
vt 0.777916 0.768860
vt 0.777916 0.871765
vt 0.644762 0.745169
vt 0.644762 0.872018
vt 0.613050 0.872018
vt 0.613050 0.745169
vt 0.979831 0.511719
vt 0.979831 0.949219
vt 0.012357 0.949219
vt 0.012357 0.511719
vt 0.667358 0.827018
vt 0.639722 0.827018
vt 0.630509 0.827018
vt 0.598267 0.827018
vt 0.598267 0.790169
vt 0.630509 0.790169
vt 0.658968 0.795706
vt 0.642336 0.795706
vt 0.642336 0.852732
vt 0.658968 0.852732
vt 0.663720 0.852732
vt 0.677977 0.852732
vn 0.0294 0.9984 0.0474
vn 0.9996 -0.0295 0.0026
vn -0.6860 0.7269 0.0317
vn 0.7276 0.6851 0.0353
vn -0.9996 0.0295 -0.0026
vn 0.0040 0.0473 -0.9989
vn -0.0040 -0.0473 0.9989
usemtl Material.002
s off
f 27/49/13 24/50/13 21/51/13 26/52/13
f 20/53/14 28/54/14 25/55/14 19/56/14
f 21/57/15 24/58/15 23/59/15 22/60/15
f 27/61/16 26/62/16 25/63/16 28/64/16
f 17/65/17 22/66/17 23/67/17 18/68/17
f 24/69/18 27/70/18 28/71/18 20/72/18 18/73/18 23/74/18
f 22/75/19 17/76/19 19/77/19 25/78/19 26/79/19 21/80/19
o Cube.009_Cube.010
v -2.407700 0.534916 11.836449
v -2.504318 0.559670 11.553514
v -2.315151 0.516681 11.803248
v -2.411770 0.541436 11.520314
v -2.376195 0.630613 11.834063
v -2.390255 0.620645 11.837992
v -2.486874 0.645399 11.555058
v -2.472814 0.655367 11.551127
v -2.297707 0.602411 11.804792
v -2.306783 0.616937 11.809163
v -2.403402 0.641692 11.526228
v -2.394325 0.627165 11.521857
vt 0.795081 0.948129
vt 0.826013 0.948129
vt 0.826013 0.989371
vt 0.795081 0.989371
vt 0.979920 0.515625
vt 0.979920 0.953125
vt 0.016174 0.953125
vt 0.016174 0.515625
vt 0.890716 0.874276
vt 0.890716 0.750724
vt 0.906159 0.750724
vt 0.906159 0.874276
vt 0.633235 0.775655
vt 0.633235 0.825908
vt 0.620672 0.825908
vt 0.620672 0.775655
vt 0.984513 0.500000
vt 0.984513 0.937500
vt 0.007674 0.937500
vt 0.007674 0.500000
vt 0.659262 0.830513
vt 0.638102 0.830513
vt 0.631049 0.830513
vt 0.606363 0.830513
vt 0.606363 0.802300
vt 0.631049 0.802300
vt 0.633987 0.754748
vt 0.595741 0.754748
vt 0.595741 0.885877
vt 0.633987 0.885877
vt 0.644914 0.885877
vt 0.677696 0.885877
vn 0.1994 0.9798 0.0176
vn 0.9255 -0.1823 -0.3320
vn -0.5135 0.8217 0.2472
vn 0.7954 0.5639 -0.2223
vn -0.9255 0.1823 0.3320
vn -0.3221 0.0825 -0.9431
vn 0.3221 -0.0825 0.9431
usemtl Material.002
s off
f 39/81/20 36/82/20 33/83/20 38/84/20
f 32/85/21 40/86/21 37/87/21 31/88/21
f 33/89/22 36/90/22 35/91/22 34/92/22
f 39/93/23 38/94/23 37/95/23 40/96/23
f 29/97/24 34/98/24 35/99/24 30/100/24
f 36/101/25 39/102/25 40/103/25 32/104/25 30/105/25 35/106/25
f 34/107/26 29/108/26 31/109/26 37/110/26 38/111/26 33/112/26
o Cube.011
v -2.503738 0.553339 11.548502
v -2.697150 0.516130 11.322211
v -2.427352 0.546705 11.484305
v -2.620764 0.509496 11.258015
v -2.497148 0.651516 11.526727
v -2.506326 0.639969 11.536469
v -2.699738 0.602760 11.310179
v -2.690560 0.614306 11.300436
v -2.429941 0.633335 11.472273
v -2.439859 0.646540 11.478579
v -2.633270 0.609331 11.252288
v -2.623352 0.596126 11.245983
vt 0.016522 0.443981
vt 0.016522 -0.007317
vt 0.990504 -0.007317
vt 0.990504 0.443981
vt 0.973976 0.503906
vt 0.973976 0.941406
vt 0.026024 0.941406
vt 0.026024 0.503906
vt 0.749896 0.887555
vt 0.749896 0.792133
vt 0.761823 0.792133
vt 0.761823 0.887555
vt 0.638520 0.781858
vt 0.638520 0.890017
vt 0.611480 0.890017
vt 0.611480 0.781858
vt 0.978028 0.507812
vt 0.978028 0.945312
vt 0.018066 0.945312
vt 0.018066 0.507812
vt 0.678337 0.855269
vt 0.643480 0.855269
vt 0.631861 0.855269
vt 0.591194 0.855269
vt 0.591194 0.808793
vt 0.631861 0.808793
vt 0.626242 0.885282
vt 0.643633 0.885282
vt 0.643633 0.825655
vt 0.626242 0.825655
vt 0.621273 0.825655
vt 0.606367 0.825655
vn -0.0296 0.9901 -0.1375
vn 0.7639 -0.0663 -0.6420
vn -0.5611 0.7470 0.3567
vn 0.5192 0.6531 -0.5512
vn -0.7639 0.0663 0.6420
vn -0.6447 -0.1240 -0.7543
vn 0.6447 0.1240 0.7543
usemtl Material.002
s off
f 51/113/27 48/114/27 45/115/27 50/116/27
f 44/117/28 52/118/28 49/119/28 43/120/28
f 45/121/29 48/122/29 47/123/29 46/124/29
f 51/125/30 50/126/30 49/127/30 52/128/30
f 41/129/31 46/130/31 47/131/31 42/132/31
f 48/133/32 51/134/32 52/135/32 44/136/32 42/137/32 47/138/32
f 46/139/33 41/140/33 43/141/33 49/142/33 50/143/33 45/144/33
o Cube.012
v -2.357075 0.533030 11.862187
v -2.355081 0.542828 11.862364
v -2.373178 0.537156 11.815032
v -2.371184 0.546954 11.815208
v -2.338565 0.529383 11.855547
v -2.336571 0.539181 11.855723
v -2.354668 0.533509 11.808392
v -2.352674 0.543307 11.808568
vt 0.490107 0.757301
vt 0.509893 0.757301
vt 0.509893 0.777088
vt 0.490107 0.777088
vt 0.509893 0.796875
vt 0.490107 0.796875
vt 0.509893 0.816662
vt 0.490107 0.816662
vt 0.509893 0.836449
vt 0.490107 0.836449
vt 0.470320 0.796875
vt 0.470320 0.816662
vt 0.529680 0.796875
vt 0.529680 0.816662
vn -0.9255 0.1823 0.3320
vn -0.3222 0.0825 -0.9431
vn 0.9255 -0.1823 -0.3320
vn 0.3222 -0.0825 0.9431
vn -0.1994 -0.9798 -0.0176
vn 0.1994 0.9798 0.0176
usemtl Material.002
s off
f 53/145/34 54/146/34 56/147/34 55/148/34
f 55/148/35 56/147/35 60/149/35 59/150/35
f 59/150/36 60/149/36 58/151/36 57/152/36
f 57/152/37 58/151/37 54/153/37 53/154/37
f 55/155/38 59/150/38 57/152/38 53/156/38
f 60/149/39 56/157/39 54/158/39 58/151/39
o Cube.013
v -2.448642 0.564357 11.552713
v -2.448938 0.574258 11.551338
v -2.480877 0.558156 11.514998
v -2.481173 0.568056 11.513623
v -2.433365 0.563030 11.539874
v -2.433661 0.572931 11.538499
v -2.465600 0.556829 11.502159
v -2.465896 0.566729 11.500784
vt 0.482748 0.759117
vt 0.509440 0.759117
vt 0.509440 0.785808
vt 0.482748 0.785808
vt 0.509440 0.812500
vt 0.482748 0.812500
vt 0.509440 0.839192
vt 0.482748 0.839192
vt 0.509440 0.865883
vt 0.482748 0.865883
vt 0.456056 0.812500
vt 0.456056 0.839192
vt 0.536131 0.812500
vt 0.536131 0.839192
vn -0.7639 0.0663 0.6420
vn -0.6447 -0.1240 -0.7543
vn 0.7639 -0.0663 -0.6420
vn 0.6447 0.1240 0.7543
vn 0.0296 -0.9901 0.1375
vn -0.0296 0.9901 -0.1375
usemtl Material.002
s off
f 61/159/40 62/160/40 64/161/40 63/162/40
f 63/162/41 64/161/41 68/163/41 67/164/41
f 67/164/42 68/163/42 66/165/42 65/166/42
f 65/166/43 66/165/43 62/167/43 61/168/43
f 63/169/44 67/164/44 65/166/44 61/170/44
f 68/163/45 64/171/45 62/172/45 66/165/45
o Cube
v -2.364023 0.516918 12.187581
v -2.363729 0.526902 12.188055
v -2.363824 0.519282 12.137638
v -2.363530 0.529267 12.138111
v -2.344032 0.516327 12.187634
v -2.343738 0.526312 12.188107
v -2.343833 0.518692 12.137690
v -2.343539 0.528676 12.138164
vt 0.487708 0.755521
vt 0.512292 0.755521
vt 0.512292 0.780104
vt 0.487708 0.780104
vt 0.512292 0.804688
vt 0.487708 0.804688
vt 0.512292 0.829271
vt 0.487708 0.829271
vt 0.512292 0.853854
vt 0.487708 0.853854
vt 0.463125 0.804688
vt 0.463125 0.829271
vt 0.536875 0.804688
vt 0.536875 0.829271
vn -0.9996 0.0295 -0.0026
vn 0.0040 0.0473 -0.9989
vn 0.9996 -0.0295 0.0026
vn -0.0040 -0.0473 0.9989
vn -0.0294 -0.9984 -0.0474
vn 0.0294 0.9984 0.0474
usemtl Material.002
s off
f 69/173/46 70/174/46 72/175/46 71/176/46
f 71/176/47 72/175/47 76/177/47 75/178/47
f 75/178/48 76/177/48 74/179/48 73/180/48
f 73/180/49 74/179/49 70/181/49 69/182/49
f 71/183/50 75/178/50 73/180/50 69/184/50
f 76/177/51 72/185/51 70/186/51 74/179/51
