# Blender v2.83.2 OBJ File: 'TrainAnimation.blend'
# www.blender.org
mtllib TrainAnimation_000026.mtl
o Cube.001
v -2.382082 0.508632 13.023092
v -2.395523 0.508955 12.982574
v -2.381773 0.595629 13.023683
v -2.381666 0.609404 12.983275
v -2.395214 0.595952 12.983165
v -2.395148 0.510709 12.724065
v -2.381292 0.611157 12.724767
v -2.394840 0.597706 12.724655
v -2.295524 0.508600 12.982717
v -2.309082 0.508373 13.023196
v -2.308667 0.609144 12.983379
v -2.308774 0.595370 13.023787
v -2.295215 0.595596 12.983307
v -2.295149 0.510353 12.724207
v -2.308292 0.610898 12.724871
v -2.294840 0.597350 12.724798
vt 0.544416 0.648533
vt 0.544416 0.820938
vt 0.455584 0.820938
vt 0.455584 0.648533
vt 0.982074 0.510401
vt 0.982074 0.956148
vt 0.008083 0.956148
vt 0.008083 0.510401
vt 0.658750 0.533750
vt 0.841250 0.533750
vt 0.841250 0.716250
vt 0.658750 0.716250
vt 0.983600 0.513044
vt 0.983600 0.937818
vt 0.006557 0.937818
vt 0.006557 0.513044
vt 0.619549 0.838289
vt 0.653299 0.838289
vt 0.619549 0.872039
vt 0.653828 0.819603
vt 0.653828 0.853353
vt 0.620078 0.819603
vt 0.509668 0.661960
vt 0.509668 0.807212
vt 0.492793 0.807212
vt 0.492793 0.661960
vt 0.901201 0.874855
vt 0.901201 0.812645
vt 0.912705 0.812645
vt 0.912705 0.874855
vt 0.633279 0.788506
vt 0.658761 0.820869
vt 0.640159 0.820869
vt 0.633279 0.820869
vt 0.614676 0.820869
vt 0.614676 0.788506
vt 0.656250 0.738569
vt 0.656250 0.886431
vt 0.601562 0.886431
vt 0.601562 0.738569
vt 0.481895 0.853812
vt 0.481895 0.621580
vt 0.515645 0.621580
vt 0.515645 0.853812
vt 0.094494 0.814251
vt 0.909703 0.814251
vt 0.909703 0.848001
vt 0.094493 0.848001
vn -0.0014 -0.0068 1.0000
vn 1.0000 -0.0036 0.0014
vn 0.0035 1.0000 0.0068
vn -1.0000 0.0036 -0.0014
vn -0.6861 0.6891 0.2331
vn 0.6904 0.6842 0.2351
vn -0.9491 0.0012 0.3149
vn -0.7046 0.7096 0.0038
vn 0.0014 0.0068 -1.0000
vn 0.7096 0.7046 0.0058
vn 0.9482 -0.0055 0.3176
vn 0.0029 0.9465 0.3227
usemtl Material.002
s off
f 10/1/1 12/2/1 3/3/1 1/4/1
f 14/5/2 16/6/2 13/7/2 9/8/2
f 15/9/3 7/10/3 4/11/3 11/12/3
f 2/13/4 5/14/4 8/15/4 6/16/4
f 3/17/5 4/18/5 5/19/5
f 11/20/6 12/21/6 13/22/6
f 1/23/7 3/24/7 5/25/7 2/26/7
f 4/27/8 7/28/8 8/29/8 5/30/8
f 8/31/9 7/32/9 15/33/9 16/34/9 14/35/9 6/36/9
f 15/37/10 11/38/10 13/39/10 16/40/10
f 12/41/11 10/42/11 9/43/11 13/44/11
f 11/45/12 4/46/12 3/47/12 12/48/12
o Cube.008_Cube.007
v -2.395105 0.511403 12.695369
v -2.394670 0.513438 12.395375
v -2.295105 0.511047 12.695511
v -2.294671 0.513082 12.395518
v -2.382250 0.611355 12.696065
v -2.394794 0.598900 12.695962
v -2.394360 0.600935 12.395969
v -2.381815 0.613391 12.396072
v -2.294795 0.598545 12.696105
v -2.307251 0.611089 12.696172
v -2.306816 0.613124 12.396179
v -2.294360 0.600580 12.396112
vt 0.960410 0.001563
vt 0.960410 0.467716
vt 0.030991 0.467716
vt 0.030991 0.001563
vt 0.976119 0.515625
vt 0.976119 0.953125
vt 0.016069 0.953125
vt 0.016069 0.515625
vt 0.765053 0.871765
vt 0.765053 0.768860
vt 0.777916 0.768860
vt 0.777916 0.871765
vt 0.644762 0.745169
vt 0.644762 0.872018
vt 0.613050 0.872018
vt 0.613050 0.745169
vt 0.979831 0.511719
vt 0.979831 0.949219
vt 0.012357 0.949219
vt 0.012357 0.511719
vt 0.667358 0.827018
vt 0.639722 0.827018
vt 0.630509 0.827018
vt 0.598267 0.827018
vt 0.598267 0.790169
vt 0.630509 0.790169
vt 0.658968 0.795706
vt 0.642336 0.795706
vt 0.642336 0.852732
vt 0.658968 0.852732
vt 0.663720 0.852732
vt 0.677977 0.852732
vn 0.0035 1.0000 0.0068
vn 1.0000 -0.0036 0.0014
vn -0.7046 0.7096 0.0038
vn 0.7096 0.7046 0.0058
vn -1.0000 0.0036 -0.0014
vn 0.0015 0.0068 -1.0000
vn -0.0015 -0.0068 1.0000
usemtl Material.002
s off
f 27/49/13 24/50/13 21/51/13 26/52/13
f 20/53/14 28/54/14 25/55/14 19/56/14
f 21/57/15 24/58/15 23/59/15 22/60/15
f 27/61/16 26/62/16 25/63/16 28/64/16
f 17/65/17 22/66/17 23/67/17 18/68/17
f 24/69/18 27/70/18 28/71/18 20/72/18 18/73/18 23/74/18
f 22/75/19 17/76/19 19/77/19 25/78/19 26/79/19 21/80/19
o Cube.009_Cube.010
v -2.395213 0.514413 12.366283
v -2.396518 0.516058 12.066291
v -2.295235 0.512356 12.365837
v -2.296540 0.514001 12.065845
v -2.380657 0.614133 12.366767
v -2.393411 0.601893 12.366755
v -2.394717 0.603538 12.066762
v -2.381962 0.615778 12.066774
v -2.293433 0.599837 12.366308
v -2.305673 0.612591 12.366432
v -2.306979 0.614236 12.066439
v -2.294739 0.601481 12.066316
vt 0.795081 0.948129
vt 0.826013 0.948129
vt 0.826013 0.989371
vt 0.795081 0.989371
vt 0.979920 0.515625
vt 0.979920 0.953125
vt 0.016174 0.953125
vt 0.016174 0.515625
vt 0.890716 0.874276
vt 0.890716 0.750724
vt 0.906159 0.750724
vt 0.906159 0.874276
vt 0.633235 0.775655
vt 0.633235 0.825908
vt 0.620672 0.825908
vt 0.620672 0.775655
vt 0.984513 0.500000
vt 0.984513 0.937500
vt 0.007674 0.937500
vt 0.007674 0.500000
vt 0.659262 0.830513
vt 0.638102 0.830513
vt 0.631049 0.830513
vt 0.606363 0.830513
vt 0.606363 0.802300
vt 0.631049 0.802300
vt 0.633987 0.754748
vt 0.595741 0.754748
vt 0.595741 0.885877
vt 0.633987 0.885877
vt 0.644914 0.885877
vt 0.677696 0.885877
vn 0.0206 0.9998 0.0054
vn 0.9998 -0.0206 -0.0045
vn -0.6924 0.7215 0.0070
vn 0.7215 0.6924 0.0007
vn -0.9998 0.0206 0.0045
vn -0.0044 0.0055 -1.0000
vn 0.0044 -0.0055 1.0000
usemtl Material.002
s off
f 39/81/20 36/82/20 33/83/20 38/84/20
f 32/85/21 40/86/21 37/87/21 31/88/21
f 33/89/22 36/90/22 35/91/22 34/92/22
f 39/93/23 38/94/23 37/95/23 40/96/23
f 29/97/24 34/98/24 35/99/24 30/100/24
f 36/101/25 39/102/25 40/103/25 32/104/25 30/105/25 35/106/25
f 34/107/26 29/108/26 31/109/26 37/110/26 38/111/26 33/112/26
o Cube.011
v -2.396511 0.515121 12.039841
v -2.407882 0.512816 11.740065
v -2.296583 0.514998 12.036051
v -2.307954 0.512694 11.736276
v -2.383927 0.615103 12.038594
v -2.396429 0.602619 12.039165
v -2.407800 0.600314 11.739388
v -2.395297 0.612798 11.738819
v -2.296501 0.602496 12.035376
v -2.308980 0.615011 12.035752
v -2.320351 0.612706 11.735977
v -2.307872 0.600191 11.735600
vt 0.016522 0.443981
vt 0.016522 -0.007317
vt 0.990504 -0.007317
vt 0.990504 0.443981
vt 0.973976 0.503906
vt 0.973976 0.941406
vt 0.026024 0.941406
vt 0.026024 0.503906
vt 0.749896 0.887555
vt 0.749896 0.792133
vt 0.761823 0.792133
vt 0.761823 0.887555
vt 0.638520 0.781858
vt 0.638520 0.890017
vt 0.611480 0.890017
vt 0.611480 0.781858
vt 0.978028 0.507812
vt 0.978028 0.945312
vt 0.018066 0.945312
vt 0.018066 0.507812
vt 0.678337 0.855269
vt 0.643480 0.855269
vt 0.631861 0.855269
vt 0.591194 0.855269
vt 0.591194 0.808793
vt 0.631861 0.808793
vt 0.626242 0.885282
vt 0.643633 0.885282
vt 0.643633 0.825655
vt 0.626242 0.825655
vt 0.621273 0.825655
vt 0.606367 0.825655
vn 0.0009 1.0000 -0.0077
vn 0.9993 -0.0012 -0.0379
vn -0.7059 0.7080 0.0213
vn 0.7073 0.7062 -0.0323
vn -0.9993 0.0012 0.0379
vn -0.0379 -0.0077 -0.9993
vn 0.0379 0.0077 0.9993
usemtl Material.002
s off
f 51/113/27 48/114/27 45/115/27 50/116/27
f 44/117/28 52/118/28 49/119/28 43/120/28
f 45/121/29 48/122/29 47/123/29 46/124/29
f 51/125/30 50/126/30 49/127/30 52/128/30
f 41/129/31 46/130/31 47/131/31 42/132/31
f 48/133/32 51/134/32 52/135/32 44/136/32 42/137/32 47/138/32
f 46/139/33 41/140/33 43/141/33 49/142/33 50/143/33 45/144/33
o Cube.012
v -2.356214 0.522092 12.406893
v -2.356008 0.532090 12.406947
v -2.356431 0.522366 12.356894
v -2.356225 0.532364 12.356948
v -2.336218 0.521681 12.406804
v -2.336012 0.531679 12.406857
v -2.336436 0.521955 12.356805
v -2.336230 0.531953 12.356859
vt 0.490107 0.757301
vt 0.509893 0.757301
vt 0.509893 0.777088
vt 0.490107 0.777088
vt 0.509893 0.796875
vt 0.490107 0.796875
vt 0.509893 0.816662
vt 0.490107 0.816662
vt 0.509893 0.836449
vt 0.490107 0.836449
vt 0.470320 0.796875
vt 0.470320 0.816662
vt 0.529680 0.796875
vt 0.529680 0.816662
vn -0.9998 0.0205 0.0045
vn -0.0043 0.0055 -1.0000
vn 0.9998 -0.0206 -0.0045
vn 0.0043 -0.0055 1.0000
vn -0.0206 -0.9998 -0.0054
vn 0.0206 0.9998 0.0054
usemtl Material.002
s off
f 53/145/34 54/146/34 56/147/34 55/148/34
f 55/148/35 56/147/35 60/149/35 59/150/35
f 59/150/36 60/149/36 58/151/36 57/152/36
f 57/152/37 58/151/37 54/153/37 53/154/37
f 55/155/38 59/150/38 57/152/38 53/156/38
f 60/149/39 56/157/39 54/158/39 58/151/39
o Cube.013
v -2.356361 0.524081 12.078344
v -2.356352 0.534081 12.078267
v -2.358256 0.523697 12.028381
v -2.358247 0.533696 12.028304
v -2.336375 0.524056 12.077586
v -2.336366 0.534056 12.077509
v -2.338270 0.523672 12.027623
v -2.338261 0.533672 12.027546
vt 0.482748 0.759117
vt 0.509440 0.759117
vt 0.509440 0.785808
vt 0.482748 0.785808
vt 0.509440 0.812500
vt 0.482748 0.812500
vt 0.509440 0.839192
vt 0.482748 0.839192
vt 0.509440 0.865883
vt 0.482748 0.865883
vt 0.456056 0.812500
vt 0.456056 0.839192
vt 0.536131 0.812500
vt 0.536131 0.839192
vn -0.9993 0.0012 0.0379
vn -0.0379 -0.0077 -0.9993
vn 0.9993 -0.0012 -0.0379
vn 0.0380 0.0077 0.9992
vn -0.0009 -1.0000 0.0077
vn 0.0009 1.0000 -0.0077
usemtl Material.002
s off
f 61/159/40 62/160/40 64/161/40 63/162/40
f 63/162/41 64/161/41 68/163/41 67/164/41
f 67/164/42 68/163/42 66/165/42 65/166/42
f 65/166/43 66/165/43 62/167/43 61/168/43
f 63/169/44 67/164/44 65/166/44 61/170/44
f 68/163/45 64/171/45 62/172/45 66/165/45
o Cube
v -2.356479 0.519701 12.734277
v -2.356443 0.529701 12.734344
v -2.356406 0.520041 12.684278
v -2.356371 0.530040 12.684346
v -2.336479 0.519630 12.734305
v -2.336444 0.529630 12.734373
v -2.336407 0.519970 12.684307
v -2.336371 0.529969 12.684375
vt 0.487708 0.755521
vt 0.512292 0.755521
vt 0.512292 0.780104
vt 0.487708 0.780104
vt 0.512292 0.804688
vt 0.487708 0.804688
vt 0.512292 0.829271
vt 0.487708 0.829271
vt 0.512292 0.853854
vt 0.487708 0.853854
vt 0.463125 0.804688
vt 0.463125 0.829271
vt 0.536875 0.804688
vt 0.536875 0.829271
vn -1.0000 0.0036 -0.0014
vn 0.0016 0.0068 -1.0000
vn 1.0000 -0.0036 0.0014
vn -0.0014 -0.0068 1.0000
vn -0.0035 -1.0000 -0.0068
vn 0.0035 1.0000 0.0068
usemtl Material.002
s off
f 69/173/46 70/174/46 72/175/46 71/176/46
f 71/176/47 72/175/47 76/177/47 75/178/47
f 75/178/48 76/177/48 74/179/48 73/180/48
f 73/180/49 74/179/49 70/181/49 69/182/49
f 71/183/50 75/178/50 73/180/50 69/184/50
f 76/177/51 72/185/51 70/186/51 74/179/51
