# Blender v2.83.2 OBJ File: 'TrainAnimation.blend'
# www.blender.org
mtllib TrainAnimation_000008.mtl
o Cube.001
v -2.391447 0.540568 12.182154
v -2.405056 0.540694 12.141690
v -2.385429 0.627342 12.180400
v -2.384637 0.639998 12.139636
v -2.399038 0.627467 12.139936
v -2.405958 0.535533 11.883228
v -2.385540 0.634837 11.881174
v -2.399941 0.622306 11.881474
v -2.305296 0.533772 12.141480
v -2.318622 0.535515 12.182000
v -2.311812 0.634945 12.139482
v -2.312605 0.622289 12.180246
v -2.299278 0.620546 12.139727
v -2.306198 0.528611 11.883018
v -2.312715 0.629784 11.881021
v -2.300181 0.615384 11.881264
vt 0.544416 0.648533
vt 0.544416 0.820938
vt 0.455584 0.820938
vt 0.455584 0.648533
vt 0.982074 0.510401
vt 0.982074 0.956148
vt 0.008083 0.956148
vt 0.008083 0.510401
vt 0.658750 0.533750
vt 0.841250 0.533750
vt 0.841250 0.716250
vt 0.658750 0.716250
vt 0.983600 0.513044
vt 0.983600 0.937818
vt 0.006557 0.937818
vt 0.006557 0.513044
vt 0.619549 0.838289
vt 0.653299 0.838289
vt 0.619549 0.872039
vt 0.653828 0.819603
vt 0.653828 0.853353
vt 0.620078 0.819603
vt 0.509668 0.661960
vt 0.509668 0.807212
vt 0.492793 0.807212
vt 0.492793 0.661960
vt 0.901201 0.874855
vt 0.901201 0.812645
vt 0.912705 0.812645
vt 0.912705 0.874855
vt 0.633279 0.788506
vt 0.658761 0.820869
vt 0.640159 0.820869
vt 0.633279 0.820869
vt 0.614676 0.820869
vt 0.614676 0.788506
vt 0.656250 0.738569
vt 0.656250 0.886431
vt 0.601562 0.886431
vt 0.601562 0.738569
vt 0.481895 0.853812
vt 0.481895 0.621580
vt 0.515645 0.621580
vt 0.515645 0.853812
vt 0.094494 0.814251
vt 0.909703 0.814251
vt 0.909703 0.848001
vt 0.094493 0.848001
vn 0.0035 0.0200 0.9998
vn 0.9976 -0.0692 -0.0021
vn 0.0692 0.9974 -0.0202
vn -0.9976 0.0692 0.0021
vn -0.6382 0.7387 0.2169
vn 0.7350 0.6434 0.2140
vn -0.9453 0.0720 0.3182
vn -0.6565 0.7542 -0.0128
vn -0.0035 -0.0200 -0.9998
vn 0.7543 0.6563 -0.0157
vn 0.9475 -0.0594 0.3142
vn 0.0667 0.9525 0.2970
usemtl Material.002
s off
f 10/1/1 12/2/1 3/3/1 1/4/1
f 14/5/2 16/6/2 13/7/2 9/8/2
f 15/9/3 7/10/3 4/11/3 11/12/3
f 2/13/4 5/14/4 8/15/4 6/16/4
f 3/17/5 4/18/5 5/19/5
f 11/20/6 12/21/6 13/22/6
f 1/23/7 3/24/7 5/25/7 2/26/7
f 4/27/8 7/28/8 8/29/8 5/30/8
f 8/31/9 7/32/9 15/33/9 16/34/9 14/35/9 6/36/9
f 15/37/10 11/38/10 13/39/10 16/40/10
f 12/41/11 10/42/11 9/43/11 13/44/11
f 11/45/12 4/46/12 3/47/12 12/48/12
o Cube.008_Cube.007
v -2.406023 0.535458 11.854524
v -2.407071 0.529468 11.554585
v -2.306263 0.528536 11.854313
v -2.307311 0.522546 11.554375
v -2.386637 0.634333 11.852481
v -2.399972 0.622730 11.852759
v -2.401019 0.616741 11.552821
v -2.387684 0.628343 11.552543
v -2.300212 0.615808 11.852550
v -2.311817 0.629141 11.852324
v -2.312864 0.623152 11.552385
v -2.301259 0.609819 11.552610
vt 0.960410 0.001563
vt 0.960410 0.467716
vt 0.030991 0.467716
vt 0.030991 0.001563
vt 0.976119 0.515625
vt 0.976119 0.953125
vt 0.016069 0.953125
vt 0.016069 0.515625
vt 0.765053 0.871765
vt 0.765053 0.768860
vt 0.777916 0.768860
vt 0.777916 0.871765
vt 0.644762 0.745169
vt 0.644762 0.872018
vt 0.613050 0.872018
vt 0.613050 0.745169
vt 0.979831 0.511719
vt 0.979831 0.949219
vt 0.012357 0.949219
vt 0.012357 0.511719
vt 0.667358 0.827018
vt 0.639722 0.827018
vt 0.630509 0.827018
vt 0.598267 0.827018
vt 0.598267 0.790169
vt 0.630509 0.790169
vt 0.658968 0.795706
vt 0.642336 0.795706
vt 0.642336 0.852732
vt 0.658968 0.852732
vt 0.663720 0.852732
vt 0.677977 0.852732
vn 0.0692 0.9974 -0.0202
vn 0.9976 -0.0692 -0.0021
vn -0.6565 0.7542 -0.0128
vn 0.7543 0.6563 -0.0157
vn -0.9976 0.0692 0.0021
vn -0.0035 -0.0200 -0.9998
vn 0.0035 0.0200 0.9998
usemtl Material.002
s off
f 27/49/13 24/50/13 21/51/13 26/52/13
f 20/53/14 28/54/14 25/55/14 19/56/14
f 21/57/15 24/58/15 23/59/15 22/60/15
f 27/61/16 26/62/16 25/63/16 28/64/16
f 17/65/17 22/66/17 23/67/17 18/68/17
f 24/69/18 27/70/18 28/71/18 20/72/18 18/73/18 23/74/18
f 22/75/19 17/76/19 19/77/19 25/78/19 26/79/19 21/80/19
o Cube.009_Cube.010
v -2.408125 0.538841 11.561334
v -2.607939 0.573530 11.340266
v -2.337600 0.516431 11.494073
v -2.537415 0.551120 11.273005
v -2.375018 0.632808 11.546154
v -2.386870 0.623513 11.555408
v -2.586684 0.658202 11.334341
v -2.574832 0.667497 11.325087
v -2.316345 0.601103 11.488148
v -2.322124 0.616000 11.495708
v -2.521939 0.650689 11.274641
v -2.516160 0.635792 11.267079
vt 0.795081 0.948129
vt 0.826013 0.948129
vt 0.826013 0.989371
vt 0.795081 0.989371
vt 0.979920 0.515625
vt 0.979920 0.953125
vt 0.016174 0.953125
vt 0.016174 0.515625
vt 0.890716 0.874276
vt 0.890716 0.750724
vt 0.906159 0.750724
vt 0.906159 0.874276
vt 0.633235 0.775655
vt 0.633235 0.825908
vt 0.620672 0.825908
vt 0.620672 0.775655
vt 0.984513 0.500000
vt 0.984513 0.937500
vt 0.007674 0.937500
vt 0.007674 0.500000
vt 0.659262 0.830513
vt 0.638102 0.830513
vt 0.631049 0.830513
vt 0.606363 0.830513
vt 0.606363 0.802300
vt 0.631049 0.802300
vt 0.633987 0.754748
vt 0.595741 0.754748
vt 0.595741 0.885877
vt 0.633987 0.885877
vt 0.644914 0.885877
vt 0.677696 0.885877
vn 0.2429 0.9677 -0.0677
vn 0.7052 -0.2241 -0.6726
vn -0.3269 0.8427 0.4277
vn 0.6704 0.5258 -0.5235
vn -0.7052 0.2241 0.6726
vn -0.6660 0.1156 -0.7369
vn 0.6660 -0.1156 0.7369
usemtl Material.002
s off
f 39/81/20 36/82/20 33/83/20 38/84/20
f 32/85/21 40/86/21 37/87/21 31/88/21
f 33/89/22 36/90/22 35/91/22 34/92/22
f 39/93/23 38/94/23 37/95/23 40/96/23
f 29/97/24 34/98/24 35/99/24 30/100/24
f 36/101/25 39/102/25 40/103/25 32/104/25 30/105/25 35/106/25
f 34/107/26 29/108/26 31/109/26 37/110/26 38/111/26 33/112/26
o Cube.011
v -2.609566 0.568161 11.336219
v -2.871936 0.519483 11.199134
v -2.561759 0.555071 11.249369
v -2.824129 0.506392 11.112283
v -2.611701 0.664328 11.306157
v -2.616663 0.653738 11.319414
v -2.879033 0.605060 11.182329
v -2.874071 0.615649 11.169071
v -2.568856 0.640648 11.232563
v -2.575845 0.654510 11.241019
v -2.838216 0.605831 11.103933
v -2.831226 0.591970 11.095478
vt 0.016522 0.443981
vt 0.016522 -0.007317
vt 0.990504 -0.007317
vt 0.990504 0.443981
vt 0.973976 0.503906
vt 0.973976 0.941406
vt 0.026024 0.941406
vt 0.026024 0.503906
vt 0.749896 0.887555
vt 0.749896 0.792133
vt 0.761823 0.792133
vt 0.761823 0.887555
vt 0.638520 0.781858
vt 0.638520 0.890017
vt 0.611480 0.890017
vt 0.611480 0.781858
vt 0.978028 0.507812
vt 0.978028 0.945312
vt 0.018066 0.945312
vt 0.018066 0.507812
vt 0.678337 0.855269
vt 0.643480 0.855269
vt 0.631861 0.855269
vt 0.591194 0.855269
vt 0.591194 0.808793
vt 0.631861 0.808793
vt 0.626242 0.885282
vt 0.643633 0.885282
vt 0.643633 0.825655
vt 0.626242 0.825655
vt 0.621273 0.825655
vt 0.606367 0.825655
vn -0.0811 0.9780 -0.1921
vn 0.4781 -0.1309 -0.8685
vn -0.3954 0.7841 0.4783
vn 0.2807 0.5990 -0.7499
vn -0.4781 0.1309 0.8685
vn -0.8746 -0.1623 -0.4570
vn 0.8746 0.1623 0.4570
usemtl Material.002
s off
f 51/113/27 48/114/27 45/115/27 50/116/27
f 44/117/28 52/118/28 49/119/28 43/120/28
f 45/121/29 48/122/29 47/123/29 46/124/29
f 51/125/30 50/126/30 49/127/30 52/128/30
f 41/129/31 46/130/31 47/131/31 42/132/31
f 48/133/32 51/134/32 52/135/32 44/136/32 42/137/32 47/138/32
f 46/139/33 41/140/33 43/141/33 49/142/33 50/143/33 45/144/33
o Cube.012
v -2.351621 0.533887 11.564765
v -2.349192 0.543564 11.564088
v -2.384924 0.539669 11.527921
v -2.382494 0.549346 11.527244
v -2.337516 0.529405 11.551312
v -2.335087 0.539082 11.550635
v -2.370819 0.535187 11.514468
v -2.368390 0.544864 11.513791
vt 0.490107 0.757301
vt 0.509893 0.757301
vt 0.509893 0.777088
vt 0.490107 0.777088
vt 0.509893 0.796875
vt 0.490107 0.796875
vt 0.509893 0.816662
vt 0.490107 0.816662
vt 0.509893 0.836449
vt 0.490107 0.836449
vt 0.470320 0.796875
vt 0.470320 0.816662
vt 0.529680 0.796875
vt 0.529680 0.816662
vn -0.7052 0.2241 0.6726
vn -0.6661 0.1156 -0.7369
vn 0.7052 -0.2241 -0.6726
vn 0.6660 -0.1156 0.7369
vn -0.2429 -0.9677 0.0677
vn 0.2429 0.9677 -0.0677
usemtl Material.002
s off
f 53/145/34 54/146/34 56/147/34 55/148/34
f 55/148/35 56/147/35 60/149/35 59/150/35
f 59/150/36 60/149/36 58/151/36 57/152/36
f 57/152/37 58/151/37 54/153/37 53/154/37
f 55/155/38 59/150/38 57/152/38 53/156/38
f 60/149/39 56/157/39 54/158/39 58/151/39
o Cube.013
v -2.556756 0.578111 11.319287
v -2.557567 0.587891 11.317367
v -2.600484 0.569998 11.296439
v -2.601295 0.579778 11.294518
v -2.547194 0.575493 11.301917
v -2.548005 0.585273 11.299996
v -2.590922 0.567380 11.279069
v -2.591733 0.577160 11.277148
vt 0.482748 0.759117
vt 0.509440 0.759117
vt 0.509440 0.785808
vt 0.482748 0.785808
vt 0.509440 0.812500
vt 0.482748 0.812500
vt 0.509440 0.839192
vt 0.482748 0.839192
vt 0.509440 0.865883
vt 0.482748 0.865883
vt 0.456056 0.812500
vt 0.456056 0.839192
vt 0.536131 0.812500
vt 0.536131 0.839192
vn -0.4781 0.1309 0.8685
vn -0.8746 -0.1623 -0.4570
vn 0.4781 -0.1309 -0.8685
vn 0.8746 0.1623 0.4569
vn 0.0811 -0.9780 0.1921
vn -0.0811 0.9780 -0.1921
usemtl Material.002
s off
f 61/159/40 62/160/40 64/161/40 63/162/40
f 63/162/41 64/161/41 68/163/41 67/164/41
f 67/164/42 68/163/42 66/165/42 65/166/42
f 65/166/43 66/165/43 62/167/43 61/168/43
f 63/169/44 67/164/44 65/166/44 61/170/44
f 68/163/45 64/171/45 62/172/45 66/165/45
o Cube
v -2.366728 0.542234 11.893054
v -2.366036 0.552208 11.892852
v -2.366902 0.541236 11.843064
v -2.366210 0.551210 11.842862
v -2.346776 0.540849 11.893012
v -2.346084 0.550823 11.892810
v -2.346950 0.539851 11.843022
v -2.346258 0.549825 11.842820
vt 0.487708 0.755521
vt 0.512292 0.755521
vt 0.512292 0.780104
vt 0.487708 0.780104
vt 0.512292 0.804688
vt 0.487708 0.804688
vt 0.512292 0.829271
vt 0.487708 0.829271
vt 0.512292 0.853854
vt 0.487708 0.853854
vt 0.463125 0.804688
vt 0.463125 0.829271
vt 0.536875 0.804688
vt 0.536875 0.829271
vn -0.9976 0.0692 0.0021
vn -0.0035 -0.0200 -0.9998
vn 0.9976 -0.0692 -0.0021
vn 0.0035 0.0200 0.9998
vn -0.0692 -0.9974 0.0202
vn 0.0692 0.9974 -0.0202
usemtl Material.002
s off
f 69/173/46 70/174/46 72/175/46 71/176/46
f 71/176/47 72/175/47 76/177/47 75/178/47
f 75/178/48 76/177/48 74/179/48 73/180/48
f 73/180/49 74/179/49 70/181/49 69/182/49
f 71/183/50 75/178/50 73/180/50 69/184/50
f 76/177/51 72/185/51 70/186/51 74/179/51
