# Blender v2.83.2 OBJ File: 'bench.blend'
# www.blender.org
mtllib bench.mtl
o Cube
v -0.194218 0.279003 -0.999801
v -0.194218 0.297827 -0.999801
v -0.195949 0.276531 1.000199
v -0.195948 0.297013 1.000199
v 0.192782 0.279003 -0.999801
v 0.192782 0.297826 -0.999801
v 0.190844 0.276531 1.000199
v 0.190844 0.297013 1.000199
v 0.189683 0.297786 -0.987698
v 0.070675 0.283280 0.550199
v 0.189507 0.297786 0.992839
v 0.070675 0.283280 -0.549801
v -0.193073 0.297786 0.992861
v -0.068979 0.284009 -0.549801
v -0.189790 0.297786 -0.985785
v -0.069382 0.283280 0.550199
v 0.214282 0.297786 0.843331
v -0.215718 0.279299 0.843331
v 0.214282 0.279299 0.843331
v -0.215718 0.297786 0.843331
v 0.210407 0.297786 0.834897
v 0.070675 0.283280 0.400199
v -0.069382 0.283280 0.400199
v -0.211534 0.297786 0.839636
v 0.214282 0.279299 -0.849801
v -0.215718 0.297786 -0.849801
v 0.214282 0.297786 -0.849801
v -0.215718 0.279299 -0.849801
v 0.208598 0.297786 -0.850804
v 0.070675 0.283280 -0.399801
v -0.068979 0.284008 -0.399801
v -0.210350 0.297786 -0.846979
v -0.058562 0.275318 0.550199
v 0.059856 0.275318 0.550199
v 0.059856 0.275318 0.400199
v 0.059856 0.275318 -0.549801
v -0.059302 0.274590 -0.549801
v -0.058562 0.275318 0.400199
v 0.059856 0.275318 -0.399801
v -0.059302 0.274590 -0.399801
v 0.111142 0.100214 0.400199
v 0.111142 0.100214 0.550199
v -0.114633 0.100215 0.400199
v -0.114633 0.100215 0.550199
v 0.111142 0.100214 -0.549801
v 0.111142 0.100214 -0.399801
v -0.114633 0.100215 -0.549801
v -0.114633 0.100215 -0.399801
v 0.100323 0.100214 0.400199
v 0.100323 0.100214 0.550199
v -0.103814 0.100215 0.400199
v -0.103814 0.100215 0.550199
v 0.100323 0.100214 -0.549801
v 0.100323 0.100214 -0.399801
v -0.103814 0.100215 -0.549801
v -0.103814 0.100215 -0.399801
v 0.109558 0.002156 0.400199
v 0.109558 0.002156 0.550199
v -0.113049 0.002156 0.400199
v -0.113049 0.002156 0.550199
v 0.110545 0.002156 -0.549801
v 0.109558 0.002156 -0.399801
v -0.113049 0.002156 -0.549801
v -0.113049 0.002156 -0.399801
v 0.098947 0.011909 0.400199
v 0.098947 0.011909 0.550199
v -0.102438 0.011909 0.400199
v -0.102438 0.011909 0.550199
v 0.098947 0.011909 -0.549801
v 0.098947 0.011909 -0.399801
v -0.102438 0.011909 -0.549801
v -0.102438 0.011909 -0.399801
vt 0.146470 0.676181
vt 0.218339 0.857544
vt 0.206610 0.921750
vt 0.146470 0.737568
vt 0.512032 0.278450
vt 0.512657 0.712775
vt 0.507381 0.712775
vt 0.506756 0.278450
vt 0.547966 0.250365
vt 0.541685 0.250478
vt 0.544108 0.214387
vt 0.548629 0.214272
vt 0.270013 0.115507
vt 0.268200 0.113838
vt 0.276844 0.043575
vt 0.278088 0.046887
vt 0.512856 0.776953
vt 0.508094 0.776953
vt 0.512856 0.712775
vt 0.514106 0.214272
vt 0.518955 0.214272
vt 0.517705 0.712775
vt 0.076579 0.287391
vt 0.013903 0.103243
vt 0.207579 0.103243
vt 0.146470 0.287393
vt 0.454707 0.115125
vt 0.453022 0.118894
vt 0.444027 0.048042
vt 0.444610 0.044733
vt 0.013036 0.921750
vt 0.076378 0.737568
vt 0.773336 0.784064
vt 0.773737 0.635913
vt 0.795378 0.647358
vt 0.795887 0.772619
vt 0.003143 0.857544
vt 0.076378 0.676181
vt 0.451495 0.874415
vt 0.269783 0.871446
vt 0.003143 0.164630
vt 0.076579 0.348778
vt 0.146470 0.348781
vt 0.453961 0.873982
vt 0.495538 0.751138
vt 0.489189 0.751133
vt 0.489304 0.650849
vt 0.495653 0.650854
vt 0.267454 0.872695
vt 0.509344 0.214272
vt 0.514106 0.214272
vt 0.218339 0.164630
vt 0.278640 0.933720
vt 0.276713 0.939989
vt 0.495653 0.787239
vt 0.489189 0.787233
vt 0.444569 0.941148
vt 0.443230 0.935713
vt 0.860489 0.678677
vt 0.837523 0.649163
vt 0.872599 0.610029
vt 0.879162 0.658268
vt 0.550504 0.671510
vt 0.544222 0.671623
vt 0.781429 0.517706
vt 0.781429 0.734353
vt 0.755470 0.734353
vt 0.755470 0.517706
vt 0.755470 0.517707
vt 0.755470 0.735706
vt 0.729510 0.735705
vt 0.729510 0.517706
vt 0.775500 0.789113
vt 0.773935 0.621428
vt 0.797392 0.657485
vt 0.798681 0.776312
vt 0.773434 0.772089
vt 0.774937 0.623358
vt 0.802803 0.648589
vt 0.800959 0.765856
vt 0.767833 0.800817
vt 0.788338 0.779916
vt 0.805112 0.788198
vt 0.806753 0.830233
vt 0.989221 0.692756
vt 0.963261 0.692711
vt 0.963230 0.580767
vt 0.989190 0.580812
vt 0.762653 0.630609
vt 0.785620 0.660122
vt 0.820207 0.778896
vt 0.820836 0.813250
vt 0.807415 0.658471
vt 0.833375 0.658456
vt 0.833401 0.727652
vt 0.807441 0.727666
vt 0.963261 0.517706
vt 0.989221 0.517751
vt 0.820687 0.779410
vt 0.846195 0.802558
vt 0.911280 0.581089
vt 0.885320 0.581089
vt 0.885320 0.517706
vt 0.911280 0.517706
vt 0.816663 0.794659
vt 0.815843 0.836989
vt 0.859361 0.517706
vt 0.885320 0.517706
vt 0.885320 0.649566
vt 0.859361 0.649566
vt 0.937240 0.706303
vt 0.911280 0.706303
vt 0.911280 0.581089
vt 0.937240 0.581089
vt 0.819578 0.600553
vt 0.818319 0.634275
vt 0.815881 0.593107
vt 0.815881 0.628058
vt 0.963230 0.693076
vt 0.937271 0.693030
vt 0.937240 0.580767
vt 0.963199 0.580812
vt 0.807441 0.517721
vt 0.833401 0.517706
vt 0.815881 0.792278
vt 0.815881 0.831931
vt 0.781456 0.517721
vt 0.807415 0.517706
vt 0.807389 0.658456
vt 0.781429 0.658470
vt 0.815843 0.592022
vt 0.815843 0.633122
vt 0.833401 0.517706
vt 0.859361 0.517706
vt 0.859361 0.650093
vt 0.833401 0.650093
vt 0.911280 0.706303
vt 0.885320 0.706303
vt 0.703558 0.886140
vt 0.677605 0.886140
vt 0.677605 0.517706
vt 0.703558 0.517706
vt 0.729510 0.886140
vt 0.703558 0.886140
vt 0.703558 0.517706
vt 0.729510 0.517706
vt 0.855080 0.789118
vt 0.835589 0.773192
vt 0.832730 0.640092
vt 0.852936 0.625342
vt 0.864737 0.774664
vt 0.834504 0.764077
vt 0.836391 0.646887
vt 0.861592 0.625645
vt 0.804292 0.639713
vt 0.797730 0.591474
vt 0.844554 0.612505
vt 0.821508 0.657115
vt 0.835307 0.777036
vt 0.861607 0.788360
vt 0.885320 0.719916
vt 0.859361 0.719916
vt 0.807415 0.727652
vt 0.781454 0.727929
vt 0.859361 0.720442
vt 0.833401 0.720442
vt 0.911280 0.517706
vt 0.937240 0.517706
vt 0.864068 0.623426
vt 0.836127 0.656897
vt 0.937271 0.517706
vt 0.963230 0.517752
vt 0.751192 0.886396
vt 0.750366 0.855865
vt 0.990674 0.847409
vt 0.989150 0.880054
vt 0.746994 0.916865
vt 0.746994 0.892675
vt 0.994045 0.889504
vt 0.993219 0.912637
vn -0.0081 -0.9999 -0.0096
vn 0.0000 0.0000 1.0000
vn 0.9899 0.0000 -0.1419
vn -0.0882 0.9960 0.0134
vn -0.9922 0.0000 0.1250
vn -0.0000 0.0000 -1.0000
vn -0.0014 -0.9999 0.0103
vn 0.0983 0.9950 0.0163
vn -0.0000 -0.9999 -0.0150
vn 0.0081 -0.9999 -0.0095
vn 0.0000 0.9945 0.1047
vn 0.0000 1.0000 -0.0000
vn 0.0296 -0.9996 -0.0003
vn -0.0026 -1.0000 -0.0005
vn -1.0000 0.0000 -0.0000
vn 0.9890 -0.0000 0.1478
vn -0.0277 -0.9996 0.0000
vn -0.0223 -0.9997 0.0026
vn 0.0031 1.0000 0.0006
vn -0.9899 0.0000 -0.1419
vn -0.0037 1.0000 0.0007
vn 0.0262 -0.9997 0.0029
vn 1.0000 -0.0000 0.0000
vn 0.0000 1.0000 0.0031
vn -0.0000 -1.0000 0.0000
vn 0.0061 -1.0000 0.0000
vn 0.9689 -0.2473 -0.0000
vn 0.9999 -0.0162 -0.0000
vn 0.9999 0.0156 0.0000
vn -0.9999 0.0156 0.0000
vn -0.9708 0.2400 0.0000
vn -0.9743 -0.2252 0.0000
vn 0.9682 -0.2502 0.0000
vn 0.9764 0.2158 0.0000
vn -0.9705 0.2411 0.0000
vn -0.9999 -0.0162 -0.0000
vn 0.9999 -0.0111 0.0033
usemtl Material
s off
f 22/1/1 19/2/1 7/3/1 10/4/1
f 8/5/2 4/6/2 3/7/2 7/8/2
f 27/9/3 25/10/3 5/11/3 6/12/3
f 24/13/4 20/14/4 4/15/4 13/16/4
f 20/17/5 18/18/5 3/7/5 4/6/5
f 2/19/6 6/20/6 5/21/6 1/22/6
f 14/23/7 1/24/7 5/25/7 12/26/7
f 17/27/8 21/28/8 11/29/8 8/30/8
f 10/4/9 7/3/9 3/31/9 16/32/9
f 23/33/6 22/34/6 35/35/6 38/36/6
f 18/37/10 23/38/10 16/32/10 3/31/10
f 13/16/11 4/15/11 8/30/11 11/29/11
f 21/28/12 24/13/12 13/16/12 11/29/12
f 29/39/12 32/40/12 24/13/12 21/28/12
f 28/41/13 31/42/13 23/38/13 18/37/13
f 31/42/14 30/43/14 22/1/14 23/38/14
f 27/44/12 29/39/12 21/28/12 17/27/12
f 26/45/15 28/46/15 18/47/15 20/48/15
f 32/40/12 26/49/12 20/14/12 24/13/12
f 8/5/16 7/8/16 19/50/16 17/51/16
f 30/43/17 25/52/17 19/2/17 22/1/17
f 12/26/18 5/25/18 25/52/18 30/43/18
f 15/53/19 2/54/19 26/49/19 32/40/19
f 2/55/20 1/56/20 28/46/20 26/45/20
f 6/57/21 9/58/21 29/39/21 27/44/21
f 33/59/2 16/60/2 44/61/2 52/62/2
f 1/24/22 14/23/22 31/42/22 28/41/22
f 9/58/12 15/53/12 32/40/12 29/39/12
f 17/63/23 19/64/23 25/10/23 27/9/23
f 9/58/24 6/57/24 2/54/24 15/53/24
f 38/65/25 35/66/25 34/67/25 33/68/25
f 37/69/26 36/70/26 39/71/26 40/72/26
f 30/73/2 31/74/2 40/75/2 39/76/2
f 14/77/6 12/78/6 36/79/6 37/80/6
f 10/81/2 34/82/2 50/83/2 42/84/2
f 37/85/27 40/86/27 56/87/27 55/88/27
f 10/81/2 16/89/2 33/90/2 34/82/2
f 14/77/6 37/80/6 55/91/6 47/92/6
f 41/93/28 42/94/28 58/95/28 57/96/28
f 55/88/29 56/87/29 72/97/29 71/98/29
f 42/84/2 50/83/2 66/99/2 58/100/2
f 54/101/30 53/102/30 69/103/30 70/104/30
f 30/73/2 39/76/2 54/105/2 46/106/2
f 16/107/31 23/108/31 43/109/31 44/110/31
f 34/111/32 35/112/32 49/113/32 50/114/32
f 36/79/6 12/78/6 45/115/6 53/116/6
f 35/35/6 22/34/6 41/117/6 49/118/6
f 38/119/33 33/120/33 52/121/33 51/122/33
f 22/123/34 10/124/34 42/94/34 41/93/34
f 23/33/6 38/36/6 51/125/6 43/126/6
f 12/127/34 30/128/34 46/129/34 45/130/34
f 40/75/2 31/74/2 48/131/2 56/132/2
f 31/133/35 14/134/35 47/135/35 48/136/35
f 39/137/32 36/138/32 53/102/32 54/101/32
f 67/139/12 68/140/12 66/141/12 65/142/12
f 71/143/12 72/144/12 70/145/12 69/146/12
f 59/147/6 67/148/6 65/149/6 57/150/6
f 63/151/6 71/152/6 69/153/6 61/154/6
f 52/155/2 44/156/2 60/157/2 68/158/2
f 46/106/2 54/105/2 70/159/2 62/160/2
f 44/110/36 43/109/36 59/161/36 60/162/36
f 53/116/6 45/115/6 61/154/6 69/153/6
f 45/130/37 46/129/37 62/163/37 61/164/37
f 49/118/6 41/117/6 57/150/6 65/149/6
f 48/136/36 47/135/36 63/165/36 64/166/36
f 43/126/6 51/125/6 67/148/6 59/147/6
f 50/114/30 49/113/30 65/167/30 66/168/30
f 56/132/2 48/131/2 64/169/2 72/170/2
f 51/122/29 52/121/29 68/171/29 67/172/29
f 47/92/6 55/91/6 71/152/6 63/151/6
f 64/173/25 63/174/25 61/175/25 62/176/25
f 72/170/2 64/169/2 62/160/2 70/159/2
f 60/177/25 59/178/25 57/179/25 58/180/25
f 68/158/2 60/157/2 58/100/2 66/99/2
