# Blender v2.83.2 OBJ File: 'bigTable.blend'
# www.blender.org
mtllib bigTable.mtl
o Cube
v -0.450718 0.510701 -1.000000
v -0.450718 0.545043 -1.000000
v -0.400718 0.506192 1.000000
v -0.400718 0.543558 1.000000
v 0.449282 0.510700 -1.000000
v 0.449282 0.545042 -1.000000
v 0.399282 0.506191 1.000000
v 0.399282 0.543558 1.000000
v 0.396173 0.544969 -0.940083
v 0.165313 0.518505 0.550000
v 0.396173 0.544969 0.932744
v 0.165313 0.518505 -0.550000
v -0.394519 0.544969 0.932744
v -0.159465 0.519833 -0.550000
v -0.394519 0.544969 -0.940083
v -0.160402 0.518505 0.550000
v 0.499282 0.544969 0.900000
v -0.500718 0.511241 0.900000
v 0.499282 0.511241 0.900000
v -0.500718 0.544969 0.900000
v 0.396173 0.544969 0.891566
v 0.165313 0.518505 0.400000
v -0.160402 0.518505 0.400000
v -0.394519 0.544969 0.891566
v 0.499282 0.511241 -0.850000
v -0.500718 0.544969 -0.850000
v 0.499282 0.544969 -0.850000
v -0.500718 0.511241 -0.850000
v 0.396173 0.544969 -0.902643
v 0.165313 0.518505 -0.400000
v -0.159465 0.519833 -0.400000
v -0.394519 0.544969 -0.902643
v -0.135240 0.503978 0.550000
v 0.140151 0.503977 0.550000
v 0.140151 0.503977 0.400000
v 0.140151 0.503977 -0.550000
v -0.136959 0.502649 -0.550000
v -0.135240 0.503978 0.400000
v 0.140151 0.503977 -0.400000
v -0.136959 0.502649 -0.400000
v 0.259423 0.184522 0.400000
v 0.259423 0.184522 0.550000
v -0.265637 0.184522 0.400000
v -0.265637 0.184522 0.550000
v 0.259423 0.184522 -0.550000
v 0.259423 0.184522 -0.400000
v -0.265637 0.184522 -0.550000
v -0.265637 0.184522 -0.400000
v 0.234261 0.184522 0.400000
v 0.234261 0.184522 0.550000
v -0.240475 0.184522 0.400000
v -0.240475 0.184522 0.550000
v 0.234261 0.184522 -0.550000
v 0.234261 0.184522 -0.400000
v -0.240475 0.184522 -0.550000
v -0.240475 0.184522 -0.400000
v 0.255738 0.005625 0.400000
v 0.255738 0.005625 0.550000
v -0.261952 0.005625 0.400000
v -0.261952 0.005625 0.550000
v 0.258033 0.005625 -0.550000
v 0.255738 0.005625 -0.400000
v -0.261952 0.005625 -0.550000
v -0.261952 0.005625 -0.400000
v 0.231060 0.023418 0.400000
v 0.231060 0.023418 0.550000
v -0.237275 0.023418 0.400000
v -0.237275 0.023418 0.550000
v 0.231060 0.023418 -0.550000
v 0.231060 0.023418 -0.400000
v -0.237275 0.023418 -0.550000
v -0.237275 0.023418 -0.400000
vt 0.937886 0.794700
vt 0.833800 0.794700
vt 0.845129 0.766978
vt 0.927807 0.768645
vt 0.854788 0.951733
vt 0.842209 0.977395
vt 0.802000 0.923404
vt 0.830948 0.918774
vt 0.932826 0.793484
vt 0.846939 0.793484
vt 0.846160 0.731064
vt 0.932047 0.731064
vt 0.846160 0.793484
vt 0.932583 0.793484
vt 0.933362 0.855904
vt 0.846939 0.855904
vt 0.905071 0.917228
vt 0.901650 0.749072
vt 0.929064 0.782406
vt 0.930862 0.900456
vt 0.761877 0.933197
vt 0.764861 0.767686
vt 0.789621 0.786125
vt 0.788042 0.908196
vt 0.930638 0.973028
vt 0.923515 0.947899
vt 0.937329 0.916129
vt 0.971733 0.914806
vt 0.760027 0.560477
vt 0.759992 0.648837
vt 0.729129 0.648942
vt 0.729164 0.560582
vt 0.814915 0.931512
vt 0.814915 0.976615
vt 0.816778 0.970240
vt 0.816760 0.913610
vt 0.837360 0.913553
vt 0.859332 0.970183
vt 0.711744 0.648837
vt 0.711779 0.560477
vt 0.918864 0.887249
vt 0.934177 0.869363
vt 0.812135 0.800292
vt 0.812135 0.743662
vt 0.831005 0.743662
vt 0.831005 0.800292
vt 0.958656 0.921522
vt 0.959906 0.979959
vt 0.774858 0.856923
vt 0.774858 0.800292
vt 0.814114 0.800292
vt 0.814114 0.856923
vt 0.774858 0.743662
vt 0.774858 0.687032
vt 0.812135 0.687032
vt 0.812135 0.743662
vt 0.814915 0.704956
vt 0.817415 0.750059
vt 0.800501 0.730421
vt 0.825579 0.728754
vt 0.760116 0.648942
vt 0.760080 0.737302
vt 0.729129 0.737408
vt 0.729165 0.649049
vt 0.774876 0.970183
vt 0.774858 0.913553
vt 0.951669 0.737087
vt 0.976747 0.738754
vt 0.846179 0.730980
vt 0.846160 0.666007
vt 0.888062 0.669018
vt 0.888081 0.731064
vt 0.946157 0.709966
vt 0.948656 0.761735
vt 0.774858 0.913553
vt 0.774858 0.856923
vt 0.814270 0.856923
vt 0.814270 0.913553
vt 0.774858 0.800292
vt 0.774858 0.743662
vt 0.880246 0.918245
vt 0.864332 0.855904
vt 0.992406 0.855904
vt 0.992421 0.918245
vt 0.846175 0.980585
vt 0.868875 0.918245
vt 0.992406 0.918245
vt 0.992421 0.980585
vt 0.946157 0.675218
vt 0.932570 0.703552
vt 0.847178 0.700218
vt 0.824842 0.673551
vt 0.865067 0.937495
vt 0.843816 0.911046
vt 0.847566 0.782191
vt 0.868816 0.754212
vt 0.835588 0.864734
vt 0.847429 0.885265
vt 0.978808 0.894391
vt 1.001308 0.927506
vt 0.835057 0.800292
vt 0.835057 0.856923
vt 0.910419 0.666007
vt 0.908759 0.730985
vt 0.835214 0.856923
vt 0.835214 0.913553
vt 0.830713 0.687032
vt 0.831005 0.743662
vt 0.998808 0.727421
vt 0.977558 0.777201
vt 0.711744 0.737302
vt 0.711779 0.648942
vt 0.258341 0.507961
vt 0.250120 0.506647
vt 0.250609 0.163458
vt 0.258341 0.163323
vt 0.258341 0.846283
vt 0.252223 0.841279
vt 0.248632 0.517288
vt 0.258341 0.513311
vt 0.456449 0.297626
vt 0.367208 0.104788
vt 0.390652 0.029514
vt 0.456887 0.231266
vt 0.488681 0.882658
vt 0.194666 0.875572
vt 0.194745 0.772404
vt 0.488760 0.779488
vt 0.675826 0.363278
vt 0.675811 0.437247
vt 0.666092 0.436292
vt 0.666108 0.361844
vt 0.053011 0.072616
vt 0.012843 0.067660
vt 0.051253 0.022959
vt 0.053235 0.053784
vt 0.268817 0.165225
vt 0.273558 0.165355
vt 0.273458 0.232020
vt 0.268205 0.231876
vt 0.178984 0.417383
vt 0.511312 0.422953
vt 0.511239 0.509034
vt 0.178911 0.503463
vt 0.547441 0.721592
vt 0.630216 0.923965
vt 0.370370 0.913746
vt 0.453672 0.717902
vt 0.391504 0.078009
vt 0.352415 0.080799
vt 0.352639 0.061967
vt 0.354182 0.031239
vt 0.621627 0.038598
vt 0.550927 0.234965
vt 0.650206 0.083980
vt 0.550489 0.301324
vt 0.342653 0.901345
vt 0.043249 0.893161
vt 0.645091 0.858174
vt 0.547880 0.655232
vt 0.454111 0.651543
vt 0.381983 0.878337
vt 0.995123 0.236498
vt 0.995122 0.274757
vt 0.665283 0.274059
vt 0.665285 0.235800
vt 0.003322 0.867987
vt 0.750452 0.209146
vt 0.817677 0.209290
vt 0.798231 0.275916
vt 0.737554 0.275786
vt 0.356373 0.846819
vt 0.043045 0.910284
vt 0.021439 0.937104
vt 0.703088 0.355598
vt 0.702999 0.448270
vt 0.669676 0.436618
vt 0.669764 0.345601
vt 0.362234 0.946419
vt 0.342450 0.918467
vt 0.984586 0.360558
vt 0.984571 0.434527
vn 0.0000 0.0000 -1.0000
vn -0.0000 0.0000 1.0000
vn -0.0000 -1.0000 0.0000
vn 0.0048 -1.0000 0.0000
vn 0.9509 -0.3094 0.0000
vn 0.9998 -0.0206 0.0000
vn 0.9998 0.0199 0.0000
vn -0.9998 0.0199 0.0000
vn -0.9538 0.3005 0.0000
vn -0.9592 -0.2826 0.0000
vn 0.9498 -0.3129 0.0000
vn 0.9625 0.2712 0.0000
vn -0.9533 0.3019 0.0000
vn 0.0000 1.0000 0.0000
vn -0.9998 -0.0206 0.0000
vn 0.9999 -0.0142 0.0076
vn -0.0004 -0.9998 -0.0204
vn 0.9487 -0.0000 -0.3162
vn -0.0039 0.9999 0.0128
vn -0.7071 0.0000 0.7071
vn -0.0011 -0.9998 0.0188
vn 0.0041 0.9999 0.0129
vn -0.0000 -0.9996 -0.0274
vn 0.0004 -0.9998 -0.0204
vn 0.0000 0.9998 0.0210
vn 0.0232 -0.9997 -0.0005
vn -0.0020 -1.0000 -0.0008
vn -1.0000 0.0000 0.0000
vn 0.7071 -0.0000 0.7071
vn -0.0217 -0.9998 0.0000
vn -0.0175 -0.9998 0.0047
vn 0.0004 1.0000 0.0005
vn -0.9487 0.0000 -0.3162
vn -0.0004 1.0000 0.0005
vn 0.0206 -0.9998 0.0052
vn 1.0000 0.0000 0.0000
vn 0.0000 1.0000 0.0012
usemtl Material
s off
f 23/1/1 22/2/1 35/3/1 38/4/1
f 33/5/2 16/6/2 44/7/2 52/8/2
f 38/9/3 35/10/3 34/11/3 33/12/3
f 37/13/4 36/14/4 39/15/4 40/16/4
f 30/17/2 31/18/2 40/19/2 39/20/2
f 14/21/1 12/22/1 36/23/1 37/24/1
f 10/25/2 34/26/2 50/27/2 42/28/2
f 37/29/5 40/30/5 56/31/5 55/32/5
f 10/25/2 16/6/2 33/5/2 34/26/2
f 14/21/1 37/24/1 55/33/1 47/34/1
f 41/35/6 42/36/6 58/37/6 57/38/6
f 55/32/7 56/31/7 72/39/7 71/40/7
f 42/28/2 50/27/2 66/41/2 58/42/2
f 54/43/8 53/44/8 69/45/8 70/46/8
f 30/17/2 39/20/2 54/47/2 46/48/2
f 16/49/9 23/50/9 43/51/9 44/52/9
f 34/53/10 35/54/10 49/55/10 50/56/10
f 36/23/1 12/22/1 45/57/1 53/58/1
f 35/3/1 22/2/1 41/59/1 49/60/1
f 38/61/11 33/62/11 52/63/11 51/64/11
f 22/65/12 10/66/12 42/36/12 41/35/12
f 23/1/1 38/4/1 51/67/1 43/68/1
f 12/69/12 30/70/12 46/71/12 45/72/12
f 40/19/2 31/18/2 48/73/2 56/74/2
f 31/75/13 14/76/13 47/77/13 48/78/13
f 39/79/10 36/80/10 53/44/10 54/43/10
f 67/81/14 68/82/14 66/83/14 65/84/14
f 71/85/14 72/86/14 70/87/14 69/88/14
f 59/89/1 67/90/1 65/91/1 57/92/1
f 63/93/1 71/94/1 69/95/1 61/96/1
f 52/8/2 44/7/2 60/97/2 68/98/2
f 46/48/2 54/47/2 70/99/2 62/100/2
f 44/52/15 43/51/15 59/101/15 60/102/15
f 53/58/1 45/57/1 61/96/1 69/95/1
f 45/72/16 46/71/16 62/103/16 61/104/16
f 49/60/1 41/59/1 57/92/1 65/91/1
f 48/78/15 47/77/15 63/105/15 64/106/15
f 43/68/1 51/67/1 67/90/1 59/89/1
f 50/56/8 49/55/8 65/107/8 66/108/8
f 56/74/2 48/73/2 64/109/2 72/110/2
f 51/64/7 52/63/7 68/111/7 67/112/7
f 47/34/1 55/33/1 71/94/1 63/93/1
f 64/113/3 63/114/3 61/115/3 62/116/3
f 72/110/2 64/109/2 62/100/2 70/99/2
f 60/117/3 59/118/3 57/119/3 58/120/3
f 68/98/2 60/97/2 58/42/2 66/41/2
usemtl wood
f 22/121/17 19/122/17 7/123/17 10/124/17
f 8/125/2 4/126/2 3/127/2 7/128/2
f 27/129/18 25/130/18 5/131/18 6/132/18
f 24/133/19 20/134/19 4/135/19 13/136/19
f 20/137/20 18/138/20 3/139/20 4/140/20
f 2/141/1 6/142/1 5/143/1 1/144/1
f 14/145/21 1/146/21 5/147/21 12/148/21
f 17/149/22 21/150/22 11/151/22 8/152/22
f 10/124/23 7/123/23 3/153/23 16/154/23
f 18/155/24 23/156/24 16/154/24 3/153/24
f 13/136/25 4/135/25 8/152/25 11/151/25
f 21/150/14 24/133/14 13/136/14 11/151/14
f 29/157/14 32/158/14 24/133/14 21/150/14
f 28/159/26 31/160/26 23/156/26 18/155/26
f 31/160/27 30/161/27 22/121/27 23/156/27
f 27/162/14 29/157/14 21/150/14 17/149/14
f 26/163/28 28/164/28 18/165/28 20/166/28
f 32/158/14 26/167/14 20/134/14 24/133/14
f 8/168/29 7/169/29 19/170/29 17/171/29
f 30/161/30 25/172/30 19/122/30 22/121/30
f 12/148/31 5/147/31 25/172/31 30/161/31
f 15/173/32 2/174/32 26/167/32 32/158/32
f 2/175/33 1/176/33 28/177/33 26/178/33
f 6/179/34 9/180/34 29/157/34 27/162/34
f 1/146/35 14/145/35 31/160/35 28/159/35
f 9/180/14 15/173/14 32/158/14 29/157/14
f 17/181/36 19/182/36 25/130/36 27/129/36
f 9/180/37 6/179/37 2/174/37 15/173/37
