# Blender v2.83.2 OBJ File: 'umbrella.blend'
# www.blender.org
mtllib umbrella.mtl
o Cube_Cube.001
v -0.032036 0.000144 0.014070
v -0.032036 0.033875 0.014070
v -0.012162 0.000144 -0.031811
v -0.012162 0.033875 -0.031811
v 0.013844 0.000144 0.033944
v 0.013844 0.033875 0.033944
v 0.033718 0.000144 -0.011936
v 0.033718 0.033875 -0.011936
v -0.033028 0.000144 -0.012693
v -0.099710 0.000144 -0.087215
v -0.033028 0.033875 -0.012693
v -0.078844 0.000144 -0.106333
v 0.016243 0.000144 -0.031867
v 0.016243 0.033875 -0.031867
v -0.078844 0.008671 -0.106333
v 0.034603 0.000144 0.014557
v 0.034603 0.033875 0.014557
v -0.099710 0.008671 -0.087215
v -0.014454 0.000144 0.034271
v -0.014454 0.033875 0.034271
v 0.000958 0.000144 0.000958
v 0.101285 0.000144 0.089079
v 0.080526 0.000144 0.108466
v 0.080526 0.008671 0.108466
v 0.101285 0.008671 0.089079
v 0.090765 0.008671 -0.098549
v 0.108240 0.008671 -0.078618
v 0.108240 0.000144 -0.078618
v 0.090765 0.000144 -0.098549
v -0.088976 0.008671 0.100953
v -0.106558 0.008671 0.080752
v -0.106558 0.000144 0.080752
v -0.088976 0.000144 0.100953
v -0.033028 3.033875 -0.012693
v -0.012162 3.033875 -0.031811
v 0.016243 3.033875 -0.031867
v 0.033718 3.033875 -0.011936
v 0.034603 3.033875 0.014557
v 0.013844 3.033875 0.033944
v -0.014454 3.033875 0.034271
v -0.032036 3.033875 0.014070
v -2.094109 2.487370 -0.850068
v -0.803442 2.487370 -2.032555
v 0.953505 2.487370 -2.036059
v 2.034462 2.487370 -0.803216
v 2.089185 2.487370 0.835496
v 0.805124 2.487370 2.034688
v -0.945216 2.487370 2.054898
v -2.032780 2.487370 0.805349
v 0.000894 3.057303 0.001202
v 0.034603 2.165860 0.014557
v 0.033718 2.165860 -0.011936
v -0.032036 2.165860 0.014070
v -0.014454 2.165860 0.034271
v 0.016243 2.165860 -0.031867
v -0.033028 2.165860 -0.012693
v 0.013844 2.165860 0.033944
v -0.012162 2.165860 -0.031811
v 0.033718 2.207881 -0.011936
v -0.014454 2.207881 0.034271
v 0.016243 2.207881 -0.031867
v 0.013844 2.207881 0.033944
v -0.012162 2.207881 -0.031811
v 0.034603 2.207881 0.014557
v -0.032036 2.207881 0.014070
v -0.033028 2.207881 -0.012693
v 0.034603 2.165860 0.014557
v 0.033718 2.165860 -0.011936
v -0.032036 2.165860 0.014070
v -0.014454 2.165860 0.034271
v 0.016243 2.165860 -0.031867
v -0.033028 2.165860 -0.012693
v 0.013844 2.165860 0.033944
v -0.012162 2.165860 -0.031811
v 0.033718 2.207881 -0.011936
v -0.014454 2.207881 0.034271
v 0.016243 2.207881 -0.031867
v 0.013844 2.207881 0.033944
v -0.012162 2.207881 -0.031811
v 0.034603 2.207881 0.014557
v -0.032036 2.207881 0.014070
v -0.033028 2.207881 -0.012693
v 0.034603 2.207881 0.014557
v 0.034603 2.165860 0.014557
v -0.032036 2.207881 0.014070
v -0.032036 2.165860 0.014070
v -0.033028 2.207881 -0.012693
v -0.033028 2.165860 -0.012693
v -0.012162 2.165860 -0.031811
v 0.013844 2.165860 0.033944
v -0.014454 2.165860 0.034271
v 0.016243 2.165860 -0.031867
v 0.033718 2.165860 -0.011936
v 0.033718 2.207881 -0.011936
v -0.014454 2.207881 0.034271
v 0.016243 2.207881 -0.031867
v 0.013844 2.207881 0.033944
v -0.012162 2.207881 -0.031811
v -0.700847 2.748583 -0.759030
v -0.727114 2.733955 -0.788386
v -0.706104 2.734267 -0.807342
v -0.679836 2.748895 -0.777986
v 0.680071 2.755359 0.735914
v 0.705430 2.737486 0.764255
v 0.684439 2.738034 0.783383
v 0.659079 2.755907 0.755042
v -0.813437 2.739419 0.713264
v -0.843413 2.727263 0.740086
v -0.825636 2.727616 0.760113
v -0.795660 2.739771 0.733291
v 0.787473 2.743486 -0.721961
v 0.805067 2.743242 -0.702135
v 0.776498 2.760450 -0.676572
v 0.758905 2.760694 -0.696398
v 1.015068 2.762397 -0.018818
v 1.052540 2.743383 -0.018818
v 1.052140 2.742594 -0.045311
v 1.014667 2.761608 -0.045311
v 0.025389 2.732356 1.060928
v -0.002908 2.732676 1.060993
v -0.002908 2.741005 1.019806
v 0.025389 2.740685 1.019741
v -1.047019 2.741047 0.051092
v -1.085884 2.725071 0.051092
v -1.047396 2.741964 0.024328
v -1.086261 2.725988 0.024328
v -0.014157 2.733159 -1.040908
v 0.014248 2.733209 -1.040934
v 0.014248 2.752854 -1.003788
v -0.014157 2.752804 -1.003762
vt 0.898019 0.947149
vt 0.902357 0.947360
vt 0.902029 0.954779
vt 0.897691 0.954568
vt 0.866952 0.954584
vt 0.867280 0.947164
vt 0.871702 0.947379
vt 0.871375 0.954799
vt 0.897660 0.476656
vt 0.897988 0.469236
vt 0.902263 0.469444
vt 0.901936 0.476864
vt 0.868819 0.476675
vt 0.869147 0.469255
vt 0.873575 0.469471
vt 0.873247 0.476890
vt 0.021658 0.929160
vt 0.024185 0.921624
vt 0.028424 0.925998
vt 0.028754 0.932219
vt 0.956421 0.659796
vt 0.952078 0.659796
vt 0.952078 0.477910
vt 0.956421 0.477910
vt 0.951262 0.292085
vt 0.956821 0.292085
vt 0.956821 0.473971
vt 0.951262 0.473971
vt 0.946982 0.292085
vt 0.946982 0.473971
vt 0.946462 0.659796
vt 0.946462 0.477910
vt 0.019123 0.936772
vt 0.024700 0.936288
vt 0.014939 0.932372
vt 0.014664 0.926125
vt 0.018663 0.922082
vt 0.057512 0.906215
vt 0.064586 0.906215
vt 0.064586 0.928235
vt 0.062798 0.928235
vt 0.077547 0.928476
vt 0.071661 0.928210
vt 0.071661 0.906215
vt 0.077547 0.906482
vt 0.043363 0.906215
vt 0.050438 0.906215
vt 0.050438 0.928235
vt 0.048649 0.928235
vt 0.064586 0.906215
vt 0.071661 0.906215
vt 0.071661 0.928235
vt 0.069872 0.928235
vt 0.004184 0.952181
vt 0.000000 0.947781
vt 0.098213 0.912447
vt 0.096425 0.912447
vt 0.096425 0.906215
vt 0.098213 0.906215
vt 0.923062 0.953923
vt 0.922980 0.955799
vt 0.922969 0.476008
vt 0.922886 0.477883
vt 0.039124 0.906215
vt 0.043363 0.910589
vt 0.096425 0.912470
vt 0.094636 0.912470
vt 0.094636 0.906215
vt 0.096425 0.906215
vt 0.077547 0.906266
vt 0.083461 0.906215
vt 0.083461 0.928281
vt 0.077547 0.928331
vt 0.050438 0.906215
vt 0.057512 0.906215
vt 0.057512 0.928235
vt 0.055724 0.928235
vt 0.101790 0.912052
vt 0.100001 0.912052
vt 0.100001 0.906215
vt 0.101790 0.906215
vt 0.089020 0.928744
vt 0.083461 0.928798
vt 0.083461 0.906269
vt 0.089020 0.906215
vt 0.000055 0.910396
vt 0.004054 0.906353
vt 0.892408 0.953943
vt 0.892325 0.955818
vt 0.100001 0.912112
vt 0.098213 0.912112
vt 0.098213 0.906215
vt 0.100001 0.906215
vt 0.894280 0.476034
vt 0.894197 0.477910
vt 0.094636 0.927405
vt 0.089020 0.927500
vt 0.089020 0.906310
vt 0.094636 0.906215
vt 0.043363 0.947948
vt 0.039309 0.952017
vt 0.923062 0.747654
vt 0.927495 0.747654
vt 0.927495 0.929540
vt 0.923062 0.929540
vt 0.933452 0.747654
vt 0.933452 0.929540
vt 0.936619 0.292085
vt 0.941046 0.292085
vt 0.941046 0.473971
vt 0.936619 0.473971
vt 0.946982 0.292085
vt 0.946982 0.473971
vt 0.417562 0.449301
vt 0.421843 0.452992
vt 0.274952 0.906215
vt 0.010178 0.677897
vt 0.431216 0.442075
vt 0.426878 0.438363
vt 0.586399 0.001328
vt 0.854711 0.230975
vt 0.417398 0.443063
vt 0.000000 0.292078
vt 0.431323 0.448291
vt 0.861351 0.615466
vt 0.421270 0.438341
vt 0.239504 0.000000
vt 0.427394 0.452992
vt 0.618309 0.906215
vt 0.424061 0.445320
vt 0.861351 0.946875
vt 0.883902 0.477910
vt 0.889831 0.478198
vt 0.894254 0.478414
vt 0.863196 0.468966
vt 0.882056 0.000000
vt 0.888006 0.000290
vt 0.892434 0.000505
vt 0.892408 0.946876
vt 0.913114 0.477910
vt 0.918724 0.478183
vt 0.918694 0.000270
vt 0.922969 0.000478
vt 0.894280 0.468966
vt 0.913140 0.000000
vt 0.923062 0.478394
vt 0.000000 0.000000
vt 0.000000 0.000000
vt 0.000000 0.000000
vt 0.000000 0.000000
vt 0.000000 0.000000
vt 0.000000 0.000000
vt 0.000000 0.000000
vt 0.000000 0.000000
vt 0.000000 0.000000
vt 0.000000 0.000000
vt 0.000000 0.000000
vt 0.000000 0.000000
vt 0.000000 0.000000
vt 0.000000 0.000000
vt 0.000000 0.000000
vt 0.000000 0.000000
vt 0.000000 0.000000
vt 0.000000 0.000000
vt 0.000000 0.000000
vt 0.000000 0.000000
vt 0.000000 0.000000
vt 0.000000 0.000000
vt 0.000000 0.000000
vt 0.000000 0.000000
vt 0.000000 0.000000
vt 0.971102 0.478274
vt 0.977022 0.477910
vt 0.976203 0.682613
vt 0.970284 0.682985
vt 0.000000 0.000000
vt 0.000000 0.000000
vt 0.970284 0.689466
vt 0.963166 0.684009
vt 0.965062 0.482308
vt 0.970284 0.477910
vt 0.000000 0.000000
vt 0.000000 0.000000
vt 0.000000 0.000000
vt 0.992336 0.951334
vt 0.986798 0.951054
vt 0.986418 0.747627
vt 0.991970 0.747785
vt 0.000000 0.000000
vt 0.961318 0.954649
vt 0.954084 0.949364
vt 0.955127 0.742205
vt 0.961318 0.739022
vt 0.000000 0.000000
vt 0.000000 0.000000
vt 0.000000 0.000000
vt 0.000000 0.000000
vt 0.000000 0.000000
vt 0.000000 0.000000
vt 0.000000 0.000000
vt 0.000000 0.000000
vt 0.945432 0.261119
vt 0.937697 0.256686
vt 0.938781 0.006071
vt 0.945432 0.000000
vt 0.986418 0.967157
vt 0.980484 0.967501
vt 0.980474 0.739296
vt 0.986418 0.739022
vt 0.982920 0.439745
vt 0.977316 0.439526
vt 0.977311 0.191926
vt 0.982920 0.192094
vt 0.994441 0.192010
vt 1.000000 0.191926
vt 0.999946 0.395122
vt 0.994387 0.395165
vt 0.000000 0.000000
vt 0.000000 0.000000
vt 0.000000 0.000000
vt 0.000000 0.000000
vt 0.000000 0.000000
vt 0.000000 0.000000
vt 0.000000 0.000000
vt 0.000000 0.000000
vt 0.000000 0.000000
vt 0.963166 0.708228
vt 0.957291 0.708572
vt 0.956421 0.699958
vt 0.962296 0.699614
vt 0.938727 0.482345
vt 0.946462 0.477910
vt 0.946462 0.739022
vt 0.939809 0.732953
vt 0.982920 0.191926
vt 0.988839 0.192114
vt 0.988839 0.414335
vt 0.982927 0.414096
vt 0.957281 0.478208
vt 0.963166 0.477910
vt 0.961293 0.000000
vt 0.967204 0.000456
vt 0.966243 0.008808
vt 0.960333 0.008352
vt 0.967204 0.221684
vt 0.961311 0.221151
vt 0.953095 0.254788
vt 0.945432 0.250217
vt 0.945895 0.005337
vt 0.953095 0.000000
vt 0.946424 0.743598
vt 0.954084 0.739022
vt 0.954084 0.993802
vt 0.946881 0.988469
vt 0.974858 0.739042
vt 0.980474 0.739022
vt 0.980434 0.747491
vt 0.974818 0.747511
vt 0.980474 0.990776
vt 0.974857 0.990843
vt 0.923062 0.482151
vt 0.930896 0.477910
vt 0.930896 0.747654
vt 0.924763 0.741008
vt 0.938727 0.747632
vt 0.930896 0.743388
vt 0.932593 0.484553
vt 0.938727 0.477910
vt 1.000000 0.403959
vt 0.994441 0.404002
vt 0.937697 0.260850
vt 0.929870 0.256597
vt 0.922969 0.005755
vt 0.929870 0.000000
vt 0.938727 0.743530
vt 0.946424 0.739022
vt 0.946424 1.000000
vt 0.939355 0.994474
vt 0.997885 0.957936
vt 0.992336 0.958084
vt 0.992340 0.739208
vt 0.997885 0.739022
vt 0.986784 0.739022
vt 0.992336 0.739179
vt 0.994387 0.414291
vt 0.988855 0.414587
vt 0.988839 0.192113
vt 0.994387 0.191926
vt 0.963195 0.237102
vt 0.970261 0.231572
vt 0.970261 0.444374
vt 0.963592 0.441986
vt 0.929718 0.260850
vt 0.936619 0.266605
vt 0.929718 0.471782
vt 0.922969 0.473971
vt 0.968906 0.739022
vt 0.974818 0.739219
vt 0.974349 0.748112
vt 0.968438 0.747915
vt 0.961318 0.744476
vt 0.968438 0.739022
vt 0.968438 0.950771
vt 0.963212 0.946364
vt 0.974818 0.973585
vt 0.968914 0.973336
vt 0.982958 0.713883
vt 0.977023 0.713926
vt 0.977022 0.477910
vt 0.982958 0.477918
vt 0.963195 0.473708
vt 0.957616 0.473971
vt 0.956821 0.465820
vt 0.962399 0.465557
vt 0.957594 0.231721
vt 0.963195 0.231572
vt 0.988549 0.712656
vt 0.982958 0.712412
vt 0.982984 0.477910
vt 0.988549 0.478285
vt 0.953095 0.005280
vt 0.960333 0.000000
vt 0.960333 0.216164
vt 0.954130 0.212957
vt 0.977022 0.691062
vt 0.971103 0.691433
vt 0.994506 0.688653
vt 0.988549 0.688592
vt 0.988550 0.477910
vt 0.994506 0.477978
vt 0.974257 0.208354
vt 0.967204 0.202807
vt 0.967460 0.002310
vt 0.974257 0.000000
vt 0.970261 0.237125
vt 0.977311 0.231572
vt 0.977311 0.439745
vt 0.970517 0.437447
vn -0.9993 0.0000 0.0370
vn -0.0020 0.0000 -1.0000
vn 0.9994 0.0000 -0.0334
vn 0.0115 0.0000 0.9999
vn 0.0000 -1.0000 0.0000
vn 0.7519 0.0000 -0.6593
vn -0.7543 0.0000 0.6565
vn -0.7452 0.0000 0.6668
vn -0.1651 0.9697 -0.1802
vn 0.7452 0.0000 -0.6668
vn 0.6668 0.0000 0.7452
vn -0.6755 0.0000 -0.7373
vn 0.6825 0.0000 0.7308
vn 0.1668 0.9697 0.1787
vn -0.6668 0.0000 -0.7452
vn 0.1838 0.9697 -0.1611
vn -0.1844 0.9697 0.1605
vn -0.2603 -0.9655 0.0087
vn 0.2599 -0.9656 -0.0096
vn -0.1797 -0.9647 -0.1924
vn 0.1773 -0.9650 0.1935
vn -0.0030 -0.9650 -0.2624
vn 0.0005 -0.9647 0.2633
vn 0.1962 -0.9656 -0.1708
vn -0.1958 -0.9655 0.1717
vn 0.5137 -0.8336 -0.2032
vn -0.2066 -0.8325 -0.5140
vn -0.5137 -0.8336 0.2032
vn 0.1998 -0.8346 0.5133
vn 0.0000 0.0000 1.0000
vn -0.0001 0.8723 0.4891
vn 0.9999 -0.0065 -0.0079
vn -0.4920 0.8706 -0.0010
vn 0.0264 -0.0177 0.9995
vn 0.3289 -0.8693 0.3689
vn -0.3405 -0.8887 0.3070
vn -0.3610 0.8745 0.3238
vn -0.2409 0.9374 -0.2516
vn -0.3188 -0.8777 -0.3578
vn 0.3161 0.8799 0.3549
vn 0.2994 0.9048 0.3027
vn -0.3278 0.8703 -0.3677
vn -0.2247 0.9572 0.1826
vn 0.3358 0.8919 -0.3030
vn 0.3119 0.9123 -0.2655
vn 0.3627 -0.8733 -0.3253
vn 0.4522 0.8913 -0.0334
vn 0.4931 -0.8699 0.0010
vn 0.0248 0.0152 0.9996
vn -0.0248 -0.0152 -0.9996
vn 0.0115 0.9801 0.1982
vn -0.9999 0.0065 0.0079
vn 0.0017 0.8796 -0.4757
vn -0.0016 -0.8755 0.4832
vn -0.3799 0.9243 0.0370
vn 0.4656 0.8850 0.0033
vn -0.4692 -0.8831 -0.0031
vn -0.0264 0.0177 -0.9995
vn -0.0020 0.8840 -0.4675
vn 0.0001 -0.8717 -0.4901
vn -1.0000 -0.0009 0.0015
vn 1.0000 0.0009 -0.0015
usemtl Material.001
s off
f 2/1/1 11/2/1 9/3/1 1/4/1
f 3/5/2 4/6/2 14/7/2 13/8/2
f 7/9/3 8/10/3 17/11/3 16/12/3
f 5/13/4 6/14/4 20/15/4 19/16/4
f 21/17/5 16/18/5 5/19/5 19/20/5
f 66/21/1 65/22/1 41/23/1 34/24/1
f 59/25/6 61/26/6 36/27/6 37/28/6
f 64/29/3 59/25/3 37/28/3 38/30/3
f 65/22/7 60/31/7 40/32/7 41/23/7
f 9/33/5 21/17/5 19/20/5 1/34/5
f 3/35/5 13/36/5 21/17/5 9/33/5
f 13/36/5 7/37/5 16/18/5 21/17/5
f 6/38/8 5/39/8 23/40/8 24/41/8
f 11/42/9 4/43/9 15/44/9 18/45/9
f 4/46/10 3/47/10 12/48/10 15/49/10
f 8/50/11 7/51/11 28/52/11 27/53/11
f 3/35/5 9/33/5 10/54/5 12/55/5
f 10/56/12 18/57/12 15/58/12 12/59/12
f 9/3/8 11/2/8 18/60/8 10/61/8
f 16/12/10 17/11/10 25/62/10 22/63/10
f 5/19/5 16/18/5 22/64/5 23/65/5
f 22/66/13 25/67/13 24/68/13 23/69/13
f 17/70/14 6/71/14 24/72/14 25/73/14
f 2/74/15 1/75/15 32/76/15 31/77/15
f 29/78/6 26/79/6 27/80/6 28/81/6
f 14/82/16 8/83/16 27/84/16 26/85/16
f 7/37/5 13/36/5 29/86/5 28/87/5
f 13/8/15 14/7/15 26/88/15 29/89/15
f 33/90/7 30/91/7 31/92/7 32/93/7
f 19/16/11 20/15/11 30/94/11 33/95/11
f 20/96/17 2/97/17 31/98/17 30/99/17
f 1/34/5 19/20/5 33/100/5 32/101/5
f 60/102/4 62/103/4 39/104/4 40/105/4
f 62/103/13 64/106/13 38/107/13 39/104/13
f 61/108/2 63/109/2 35/110/2 36/111/2
f 63/109/12 66/112/12 34/113/12 35/110/12
f 38/114/18 37/115/18 45/116/18 46/117/18
f 34/118/19 41/119/19 49/120/19 42/121/19
f 39/122/20 38/114/20 46/117/20 47/123/20
f 35/124/21 34/118/21 42/121/21 43/125/21
f 40/126/22 39/122/22 47/123/22 48/127/22
f 36/128/23 35/124/23 43/125/23 44/129/23
f 41/119/24 40/126/24 48/127/24 49/120/24
f 37/115/25 36/128/25 44/129/25 45/116/25
f 50/130/26 40/126/26 41/119/26 34/118/26
f 50/130/27 38/114/27 39/122/27 40/126/27
f 50/130/28 36/128/28 37/115/28 38/114/28
f 50/130/29 34/118/29 35/124/29 36/128/29
f 4/6/12 11/131/12 56/132/12 58/133/12
f 14/7/2 4/6/2 58/133/2 55/134/2
f 6/14/13 17/135/13 51/136/13 57/137/13
f 20/15/4 6/14/4 57/137/4 54/138/4
f 2/1/7 20/139/7 54/140/7 53/141/7
f 17/11/3 8/10/3 52/142/3 51/143/3
f 8/10/6 14/144/6 55/145/6 52/142/6
f 11/2/1 2/1/1 53/141/1 56/146/1
f 63/147/30 61/148/30 77/149/30 79/150/30
f 57/151/30 51/152/30 67/153/30 73/154/30
f 66/155/30 63/147/30 79/150/30 82/156/30
f 55/157/30 58/158/30 74/159/30 71/160/30
f 65/161/30 66/155/30 82/156/30 81/162/30
f 58/158/30 56/163/30 72/164/30 74/159/30
f 61/148/30 59/165/30 75/166/30 77/149/30
f 56/163/30 53/167/30 69/168/30 72/164/30
f 78/169/30 73/154/30 90/170/30 97/171/30
f 79/172/31 77/173/31 129/174/31 130/175/31
f 71/160/30 77/149/30 96/176/30 92/177/30
f 73/178/32 78/179/32 122/180/32 119/181/32
f 76/182/30 81/162/30 85/183/30 95/184/30
f 75/185/33 80/186/33 115/187/33 118/188/33
f 73/154/30 67/153/30 84/189/30 90/170/30
f 69/190/34 81/191/34 123/192/34 124/193/34
f 54/194/30 57/151/30 73/154/30 70/195/30
f 64/196/30 62/197/30 78/169/30 80/198/30
f 53/167/30 54/194/30 70/195/30 69/168/30
f 62/197/30 60/199/30 76/182/30 78/169/30
f 51/152/30 52/200/30 68/201/30 67/153/30
f 60/199/30 65/161/30 81/162/30 76/182/30
f 52/200/30 55/157/30 71/160/30 68/201/30
f 59/165/30 64/196/30 80/198/30 75/166/30
f 88/202/8 87/203/8 99/204/8 100/205/8
f 90/206/35 84/207/35 104/208/35 105/209/35
f 86/210/36 91/211/36 109/212/36 108/213/36
f 96/214/37 94/215/37 113/216/37 114/217/37
f 69/168/30 70/195/30 91/218/30 86/219/30
f 77/149/30 75/166/30 94/220/30 96/176/30
f 67/153/30 80/198/30 83/221/30 84/189/30
f 79/150/30 74/159/30 89/222/30 98/223/30
f 81/162/30 69/168/30 86/219/30 85/183/30
f 82/156/30 79/150/30 98/223/30 87/224/30
f 68/201/30 71/160/30 92/177/30 93/225/30
f 72/164/30 82/156/30 87/224/30 88/226/30
f 74/159/30 72/164/30 88/226/30 89/222/30
f 80/198/30 78/169/30 97/171/30 83/221/30
f 75/166/30 68/201/30 93/225/30 94/220/30
f 70/195/30 76/182/30 95/184/30 91/218/30
f 101/227/38 100/228/38 99/229/38 102/230/38
f 98/231/10 89/232/10 101/233/10 102/234/10
f 89/235/39 88/236/39 100/237/39 101/238/39
f 87/239/40 98/240/40 102/230/40 99/229/40
f 105/241/41 104/242/41 103/243/41 106/244/41
f 83/245/42 97/246/42 106/244/42 103/243/42
f 84/247/10 83/248/10 103/249/10 104/250/10
f 97/251/8 90/252/8 105/253/8 106/254/8
f 108/255/43 109/256/43 110/257/43 107/258/43
f 95/259/44 85/260/44 107/258/44 110/257/44
f 85/261/15 86/262/15 108/263/15 107/264/15
f 91/265/11 95/266/11 110/267/11 109/268/11
f 112/269/45 111/270/45 114/217/45 113/216/45
f 92/271/15 96/272/15 114/273/15 111/274/15
f 94/275/11 93/276/11 112/277/11 113/278/11
f 93/279/46 92/280/46 111/281/46 112/282/46
f 116/283/47 117/284/47 118/188/47 115/187/47
f 67/285/48 68/286/48 117/287/48 116/288/48
f 80/289/49 67/290/49 116/291/49 115/292/49
f 68/293/50 75/294/50 118/295/50 117/296/50
f 120/297/51 119/298/51 122/299/51 121/300/51
f 76/301/52 70/302/52 120/303/52 121/304/52
f 78/305/53 76/306/53 121/300/53 122/299/53
f 70/307/54 73/308/54 119/309/54 120/310/54
f 126/311/55 124/312/55 123/313/55 125/314/55
f 81/315/56 82/316/56 125/314/56 123/313/56
f 72/317/57 69/318/57 124/319/57 126/320/57
f 82/321/58 72/322/58 126/323/58 125/324/58
f 128/325/59 127/326/59 130/175/59 129/174/59
f 71/327/60 74/328/60 127/329/60 128/330/60
f 74/331/61 79/332/61 130/333/61 127/334/61
f 77/335/62 71/336/62 128/337/62 129/338/62
