# Blender v2.83.2 OBJ File: 'Cachier1.blend'
# www.blender.org
mtllib Cachier1.mtl
o hand_Cube.015
v -0.063652 -0.067360 0.155715
v -0.066915 0.210230 0.102791
v -0.063652 -0.060457 -0.002057
v -0.066915 0.210230 -0.080292
v 0.050041 -0.067360 0.155715
v 0.053305 0.210230 0.102792
v 0.050041 -0.060457 -0.002057
v 0.053305 0.210230 -0.080292
v -0.113137 0.078108 0.178725
v -0.113136 0.097666 -0.112506
v 0.099526 0.097667 -0.112506
v 0.099526 0.078108 0.178725
v 0.058603 0.001232 0.469204
v 0.028163 -0.025123 0.446194
v -0.041774 -0.025123 0.446194
v -0.072214 0.001232 0.469204
v 0.005374 -0.007520 0.542329
v -0.000294 -0.012428 0.538045
v -0.013317 -0.012428 0.538045
v -0.018985 -0.007520 0.542329
v 0.003331 -0.116663 -0.124556
v 0.003331 -0.145374 -0.053903
v 0.067724 -0.115727 -0.125132
v -0.061062 -0.115727 -0.125132
v 0.079202 -0.146989 -0.059144
v -0.072540 -0.146989 -0.059144
v -0.066801 -0.131358 -0.092138
v -0.006805 -0.060457 -0.002057
v -0.006805 0.210230 -0.080292
v -0.006805 -0.067360 0.155715
v -0.006805 0.210230 0.102791
v -0.006805 0.078108 0.178725
v -0.006805 0.097666 -0.112506
v -0.006805 -0.025123 0.446194
v -0.006805 0.001232 0.469204
v -0.006806 -0.012428 0.538045
v -0.006806 -0.007520 0.542329
vt 0.542969 0.605469
vt 0.667969 0.605469
vt 0.667969 0.855469
vt 0.542969 0.855469
vt 0.605469 0.746094
vt 0.730469 0.746094
vt 0.730469 0.871094
vt 0.605469 0.871094
vt 0.500000 0.500000
vt 0.625000 0.500000
vt 0.625000 0.750000
vt 0.500000 0.750000
vt 0.423579 0.255335
vt 0.423579 0.775915
vt 0.181890 0.740758
vt 0.060796 0.255336
vt 0.681715 0.714003
vt 0.723843 0.714003
vt 0.723843 0.798260
vt 0.681715 0.798260
vt 0.750000 0.500000
vt 0.875000 0.500000
vt 0.875000 0.750000
vt 0.750000 0.750000
vt 0.032344 0.971409
vt 0.042345 0.971409
vt 0.042345 0.971409
vt 0.032344 0.971409
vt 0.375000 0.500000
vt 0.375000 0.750000
vt 0.375000 0.000000
vt 0.500000 0.000000
vt 0.500000 0.250000
vt 0.375000 0.250000
vt 0.061805 0.919822
vt 0.046643 0.919822
vt 0.046643 0.919822
vt 0.061805 0.919822
vt 0.073524 0.959547
vt 0.073524 0.974709
vt 0.073524 0.974709
vt 0.073524 0.959547
vt 0.073524 0.944386
vt 0.073524 0.944386
vt 0.042345 0.911403
vt 0.032344 0.911403
vt 0.032344 0.911403
vt 0.042345 0.911403
vt 0.043200 0.944386
vt 0.058362 0.944386
vt 0.058362 0.944386
vt 0.043200 0.944386
vt 0.028039 0.944386
vt 0.028039 0.944386
vt 0.073524 0.959547
vt 0.073524 0.974709
vt 0.073524 0.944386
vt 0.040709 0.949219
vt 0.040709 0.960325
vt 0.029603 0.960325
vt 0.029603 0.949219
vt 0.029603 0.938113
vt 0.040709 0.938113
vt 0.898437 0.878906
vt 0.773437 0.878906
vt 0.398437 0.378906
vt 0.398437 0.378906
vt 0.234375 0.777344
vt 0.609375 0.527344
vt 0.921875 0.777344
vt 0.921875 0.825177
vt 0.921875 0.873011
vt 0.639586 0.714003
vt 0.871292 0.746246
vt 0.850228 0.746246
vt 0.597458 0.545490
vt 0.610427 0.789163
vt 0.430539 0.609275
vt 0.655399 0.744191
vt 0.655399 0.721705
vt 0.610427 0.699219
vt 0.610427 0.744191
vt 0.639586 0.798260
vt 0.113274 0.265147
vt 0.113274 0.734853
vt 0.391755 0.730947
vt 0.464851 0.265147
vt 0.605469 0.621094
vt 0.730469 0.621094
vt 0.022343 0.971409
vt 0.022343 0.971409
vt 0.012342 0.971409
vt 0.012342 0.971409
vn -0.9345 0.3557 0.0147
vn 0.0000 0.2751 -0.9614
vn 0.9345 0.3557 0.0147
vn -0.0000 0.4983 0.8670
vn 0.0000 -0.9990 -0.0437
vn -0.0000 1.0000 0.0000
vn 0.8970 -0.4363 0.0710
vn 0.9490 -0.3147 -0.0185
vn -0.9490 -0.3147 -0.0185
vn -0.5055 -0.8195 0.2699
vn 0.0000 0.9929 0.1188
vn -0.8970 -0.4363 0.0710
vn -0.0000 -0.9906 0.1369
vn -0.0000 0.9667 0.2558
vn 0.5055 -0.8195 0.2699
vn 0.0000 -0.6577 0.7533
vn 0.9856 -0.0464 0.1625
vn -0.9870 -0.1533 0.0481
vn -0.0000 -0.5341 0.8454
vn 0.0000 0.0580 -0.9983
vn -0.0000 -0.9896 0.1439
usemtl Material
s off
f 9/1/1 2/2/1 4/3/1 10/4/1
f 33/5/2 29/6/2 8/7/2 11/8/2
f 11/9/3 8/10/3 6/11/3 12/12/3
f 32/13/4 31/14/4 2/15/4 9/16/4
f 28/17/5 7/18/5 5/19/5 30/20/5
f 29/21/6 4/22/6 2/23/6 31/24/6
f 5/25/7 12/26/7 13/27/7 14/28/7
f 7/29/8 11/9/8 12/12/8 5/30/8
f 1/31/9 9/32/9 10/33/9 3/34/9
f 16/35/10 15/36/10 19/37/10 20/38/10
f 35/39/11 16/40/11 20/41/11 37/42/11 17/43/11 13/44/11
f 9/45/12 1/46/12 15/47/12 16/48/12
f 34/49/13 14/50/13 18/51/13 36/52/13 19/53/13 15/54/13
f 32/55/14 9/56/14 16/40/14 35/39/14 13/44/14 12/57/14
f 14/50/15 13/44/15 17/43/15 18/51/15
f 37/58/16 20/59/16 19/60/16 36/61/16 18/62/16 17/63/16
f 11/64/17 7/65/17 25/66/17 23/67/17
f 3/68/18 10/69/18 24/70/18 27/71/18 26/72/18
f 7/18/19 28/17/19 3/73/19 26/74/19 22/75/19 25/76/19
f 11/77/20 23/78/20 21/79/20 24/80/20 10/81/20 33/82/20
f 8/10/6 29/21/6 31/24/6 6/11/6
f 3/73/5 28/17/5 30/20/5 1/83/5
f 12/84/4 6/85/4 31/86/4 32/87/4
f 10/88/2 4/89/2 29/6/2 33/5/2
f 30/90/21 5/25/21 14/28/21 34/91/21 15/92/21 1/93/21
