# Blender v2.83.2 OBJ File: 'DisplayShelfMovies.blend'
# www.blender.org
mtllib DisplayShelfMovies.mtl
o Cube
v 0.500000 0.500000 -1.000000
v 0.500000 0.000000 -1.000000
v 0.500000 0.500000 1.000000
v 0.500000 0.000000 1.000000
v -0.500000 0.500000 -1.000000
v -0.500000 0.000000 -1.000000
v -0.500000 0.500000 1.000000
v -0.500000 0.000000 1.000000
v 0.431961 0.500000 0.924572
v -0.431961 0.500000 0.924572
v 0.431961 0.500000 -0.924572
v -0.431961 0.500000 -0.924572
v 0.431961 0.500000 0.924572
v -0.431961 0.500000 0.924572
v 0.431961 0.500000 -0.924572
v -0.431961 0.500000 -0.924572
v 0.431961 0.400146 0.924572
v -0.431961 0.400146 0.924572
v 0.431961 0.400146 -0.924572
v -0.431961 0.400146 -0.924572
v 0.000000 0.400146 0.924572
v 0.431961 0.400146 0.000000
v -0.431961 0.400146 0.000000
v 0.000000 0.400146 -0.924572
v 0.000000 0.400146 0.000000
vt 0.937500 0.320534
vt 0.937500 0.129350
vt 0.937500 0.129350
vt 0.937500 0.320534
vt 0.916616 0.541768
vt 0.966197 0.541768
vt 0.966197 0.591349
vt 0.916616 0.591349
vt 0.916616 0.393026
vt 0.966197 0.393026
vt 0.966197 0.442607
vt 0.916616 0.442607
vt 0.923857 0.564482
vt 0.982393 0.564482
vt 0.982393 0.623018
vt 0.923857 0.623018
vt 0.923455 0.509392
vt 0.990608 0.509392
vt 0.990608 0.576545
vt 0.923455 0.576545
vt 0.960938 0.777344
vt 0.960938 0.527344
vt 0.960938 0.527344
vt 0.960938 0.777344
vt 0.960938 0.277344
vt 0.960938 0.277344
vt 0.937500 0.894088
vt 0.937500 0.702903
vt 0.937500 0.702903
vt 0.937500 0.894088
vt 0.625000 0.750000
vt 0.625000 0.500000
vt 0.625000 0.500000
vt 0.625000 0.750000
vt 0.625000 0.250000
vt 0.625000 0.000000
vt 0.625000 0.000000
vt 0.625000 0.250000
vt 0.625000 1.000000
vt 0.625000 1.000000
vt 0.957031 0.383876
vt 0.957031 0.279471
vt 0.957031 0.279471
vt 0.957031 0.331673
vt 0.957031 0.383876
vt 0.957031 0.697092
vt 0.957031 0.592687
vt 0.957031 0.592687
vt 0.957031 0.644889
vt 0.957031 0.697092
vt 0.957031 0.488281
vt 0.957031 0.436079
vt 0.957031 0.488281
vt 0.957031 0.540484
vt 0.897590 0.526789
vt 0.227507 0.526789
vt 0.227507 0.080056
vt 0.897590 0.080056
vt 0.899606 0.992140
vt 0.233109 0.992140
vt 0.233109 0.544392
vt 0.899606 0.544392
vt 0.902321 0.549790
vt 0.222582 0.549790
vt 0.222582 0.087192
vt 0.902321 0.087192
vt 0.684438 0.993101
vt -0.004654 0.993101
vt -0.004654 0.542318
vt 0.684438 0.542318
vn 0.0000 1.0000 0.0000
vn 0.0000 0.0000 1.0000
vn -1.0000 0.0000 0.0000
vn 1.0000 0.0000 0.0000
vn 0.0000 0.0000 -1.0000
usemtl Material
s off
f 5/1/1 7/2/1 10/3/1 12/4/1
f 4/5/2 3/6/2 7/7/2 8/8/2
f 8/9/3 7/10/3 5/11/3 6/12/3
f 2/13/4 1/14/4 3/15/4 4/16/4
f 6/17/5 5/18/5 1/19/5 2/20/5
f 3/21/1 1/22/1 11/23/1 9/24/1
f 1/22/1 5/25/1 12/26/1 11/23/1
f 7/27/1 3/28/1 9/29/1 10/30/1
f 9/31/2 11/32/2 15/33/2 13/34/2
f 12/35/2 10/36/2 14/37/2 16/38/2
f 10/39/2 9/31/2 13/34/2 14/40/2
f 11/32/2 12/35/2 16/38/2 15/33/2
f 16/41/4 14/42/4 18/43/4 23/44/4 20/45/4
f 14/46/5 13/47/5 17/48/5 21/49/5 18/50/5
f 15/51/2 16/41/2 20/45/2 24/52/2 19/53/2
f 13/47/3 15/51/3 19/53/3 22/54/3 17/48/3
f 25/55/1 24/56/1 20/57/1 23/58/1
f 21/59/1 25/60/1 23/61/1 18/62/1
f 17/63/1 22/64/1 25/65/1 21/66/1
f 22/67/1 19/68/1 24/69/1 25/70/1
