# Blender v2.83.2 OBJ File: 'DisplayShelfBooks.blend'
# www.blender.org
mtllib DisplayShelfBooks.mtl
o Cube
v 0.500000 0.500000 -1.000000
v 0.500000 0.000000 -1.000000
v 0.500000 0.500000 1.000000
v 0.500000 0.000000 1.000000
v -0.500000 0.500000 -1.000000
v -0.500000 0.000000 -1.000000
v -0.500000 0.500000 1.000000
v -0.500000 0.000000 1.000000
v 0.431961 0.500000 0.924572
v -0.431961 0.500000 0.924572
v 0.431961 0.500000 -0.924572
v -0.431961 0.500000 -0.924572
v 0.431961 0.500000 0.924572
v -0.431961 0.500000 0.924572
v 0.431961 0.500000 -0.924572
v -0.431961 0.500000 -0.924572
v 0.431961 0.400146 0.924572
v -0.431961 0.400146 0.924572
v 0.431961 0.400146 -0.924572
v -0.431961 0.400146 -0.924572
v 0.000000 0.400146 0.924572
v 0.431961 0.400146 0.000000
v -0.431961 0.400146 0.000000
v 0.000000 0.400146 -0.924572
v 0.000000 0.400146 0.000000
vt 0.941375 0.320534
vt 0.941375 0.129350
vt 0.941375 0.129350
vt 0.941375 0.320534
vt 0.976991 0.007537
vt 0.992381 0.007537
vt 0.992381 0.022928
vt 0.976991 0.022928
vt 0.986839 0.014342
vt 0.986839 0.036419
vt 0.959957 0.036419
vt 0.959957 0.014342
vt 0.974426 0.005926
vt 0.992597 0.005926
vt 0.992597 0.024097
vt 0.974426 0.024097
vt 0.972877 0.008526
vt 0.993722 0.008526
vt 0.993722 0.029372
vt 0.972877 0.029372
vt 0.933930 0.126669
vt 0.933930 0.317042
vt 0.935805 0.303973
vt 0.935805 0.139738
vt 0.939235 0.352172
vt 0.939235 0.102172
vt 0.939235 0.102172
vt 0.939235 0.352172
vt 0.934400 0.336017
vt 0.934400 0.144832
vt 0.934400 0.144832
vt 0.934400 0.336017
vt 0.625000 0.750000
vt 0.625000 0.500000
vt 0.625000 0.500000
vt 0.625000 0.750000
vt 0.625000 0.250000
vt 0.625000 0.000000
vt 0.625000 0.000000
vt 0.625000 0.250000
vt 0.625000 1.000000
vt 0.625000 1.000000
vt 0.958581 0.251533
vt 0.958581 0.210288
vt 0.958581 0.210288
vt 0.958581 0.230911
vt 0.958581 0.251533
vt 0.980284 0.655237
vt 0.980284 0.550831
vt 0.980284 0.550831
vt 0.980284 0.603034
vt 0.980284 0.655237
vt 0.957031 0.488281
vt 0.957031 0.383876
vt 0.957031 0.383876
vt 0.957031 0.436079
vt 0.957031 0.488281
vt 0.972533 0.518277
vt 0.972533 0.413872
vt 0.972533 0.413872
vt 0.972533 0.466074
vt 0.972533 0.518277
vt 0.977755 0.702265
vt 0.217654 0.702265
vt 0.217654 0.357705
vt 0.977755 0.357705
vt 0.717849 0.976718
vt -0.007009 0.976718
vt -0.007009 0.684814
vt 0.717849 0.684814
vt 0.966960 0.380708
vt 0.243881 0.380708
vt 0.243881 0.076587
vt 0.966960 0.076587
vt 0.960899 0.980564
vt 0.226698 0.980564
vt 0.226698 0.687668
vt 0.960899 0.687668
vn 0.0000 1.0000 0.0000
vn 0.0000 0.0000 1.0000
vn -1.0000 0.0000 0.0000
vn 1.0000 0.0000 0.0000
vn 0.0000 0.0000 -1.0000
usemtl Material
s off
f 5/1/1 7/2/1 10/3/1 12/4/1
f 4/5/2 3/6/2 7/7/2 8/8/2
f 8/9/3 7/10/3 5/11/3 6/12/3
f 2/13/4 1/14/4 3/15/4 4/16/4
f 6/17/5 5/18/5 1/19/5 2/20/5
f 3/21/1 1/22/1 11/23/1 9/24/1
f 1/25/1 5/26/1 12/27/1 11/28/1
f 7/29/1 3/30/1 9/31/1 10/32/1
f 9/33/2 11/34/2 15/35/2 13/36/2
f 12/37/2 10/38/2 14/39/2 16/40/2
f 10/41/2 9/33/2 13/36/2 14/42/2
f 11/34/2 12/37/2 16/40/2 15/35/2
f 16/43/4 14/44/4 18/45/4 23/46/4 20/47/4
f 14/48/5 13/49/5 17/50/5 21/51/5 18/52/5
f 15/53/2 16/54/2 20/55/2 24/56/2 19/57/2
f 13/58/3 15/59/3 19/60/3 22/61/3 17/62/3
f 25/63/1 24/64/1 20/65/1 23/66/1
f 21/67/1 25/68/1 23/69/1 18/70/1
f 17/71/1 22/72/1 25/73/1 21/74/1
f 22/75/1 19/76/1 24/77/1 25/78/1
