# Blender v2.83.2 OBJ File: 'LightPlane.blend'
# www.blender.org
mtllib LightPlane.mtl
o Cube.002
v -0.089777 0.040281 0.054111
v -0.044948 0.053644 0.014376
v -0.089777 0.008255 -0.021396
v -0.044948 0.046110 -0.003385
v 0.042417 0.040281 0.054111
v 0.000089 0.053644 0.014376
v 0.042417 0.008255 -0.021396
v 0.000089 0.046110 -0.003385
v 0.061302 0.081699 -0.023437
v 0.128548 0.056307 -0.005619
v 0.061251 0.091976 0.003673
v 0.128548 0.062553 0.009105
v -0.091141 0.062249 -0.006901
v -0.113623 0.043327 -0.001545
v -0.091141 0.067326 0.005068
v -0.113633 0.050760 0.015538
v -0.113403 0.043146 0.008650
v 0.051022 0.037709 0.000838
v 0.124667 0.070821 -0.012893
v -0.155975 0.057397 0.014793
v 0.124667 0.077869 0.003726
v -0.155975 0.048634 -0.005866
v -0.010684 0.092451 0.003471
v 0.075589 0.089208 -0.010887
v 0.051022 0.044983 0.017988
v -0.091307 0.067790 -0.001803
v -0.010684 0.081139 -0.023199
v 0.128548 0.059430 0.001743
v 0.015471 0.055091 -0.029592
v 0.124667 0.074345 -0.004583
v 0.051022 0.041346 0.009413
v -0.155975 0.053016 0.004464
v 0.015471 0.078942 0.026642
v 0.021713 0.089914 -0.011187
v 0.061539 0.037969 0.032908
v 0.056704 0.049073 0.016213
v 0.061557 0.022530 -0.004128
v 0.056704 0.041665 -0.001252
v 0.074839 0.036496 0.033533
v 0.070879 0.050184 0.015742
v 0.074857 0.021057 -0.003503
v 0.070879 0.042776 -0.001724
v 0.061020 0.031466 0.035396
v 0.074320 0.029992 0.036021
v 0.061020 0.015950 -0.001185
v 0.074320 0.014477 -0.000560
v 0.056186 0.040784 0.016652
v 0.072709 0.042080 0.016103
v 0.056186 0.035131 0.003325
v 0.072709 0.036427 0.002775
v 0.051659 0.031856 0.042793
v 0.061711 0.050100 0.035055
v 0.051659 0.028997 0.036051
v 0.061711 0.047241 0.028313
v 0.070816 0.023830 0.046197
v 0.080277 0.040710 0.039038
v 0.070816 0.020971 0.039455
v 0.080277 0.037851 0.032296
v 0.053797 0.043992 0.037646
v 0.053797 0.041132 0.030904
v 0.057634 0.022940 0.038620
v 0.074893 0.045272 0.029148
v 0.078139 0.025715 0.037443
v 0.078139 0.028575 0.044185
v 0.057634 0.025799 0.045362
v 0.074893 0.048132 0.035890
v 0.051659 0.013660 -0.000108
v 0.061711 0.031904 -0.007847
v 0.051659 0.010800 -0.006851
v 0.061711 0.029044 -0.014589
v 0.070816 0.005634 0.003296
v 0.080277 0.022514 -0.003864
v 0.070816 0.002774 -0.003447
v 0.080277 0.019654 -0.010606
v 0.053797 0.025795 -0.005256
v 0.053797 0.022936 -0.011998
v 0.057634 0.004743 -0.004282
v 0.074893 0.027075 -0.013754
v 0.078139 0.007518 -0.005459
v 0.078139 0.010378 0.001284
v 0.057634 0.007603 0.002461
v 0.074893 0.029935 -0.007012
v -0.153270 0.053723 0.009729
v -0.162144 0.098424 -0.009231
v -0.153270 0.049722 0.000295
v -0.162144 0.094423 -0.018665
v -0.126891 0.058162 0.007846
v -0.134724 0.093515 -0.007149
v -0.126891 0.054161 -0.001588
v -0.134724 0.089514 -0.016583
v -0.156486 0.051217 0.000073
v -0.156150 0.070467 0.045523
v -0.155977 0.057492 -0.002589
v -0.155642 0.076743 0.042861
v -0.129745 0.049309 0.000683
v -0.132630 0.067940 0.044057
v -0.129237 0.055584 -0.001979
v -0.132122 0.074215 0.041396
v -0.156552 0.033705 -0.041227
v -0.156083 0.052946 0.004226
v -0.156044 0.039981 -0.043888
v -0.155575 0.059221 0.001565
v -0.131601 0.034274 -0.035119
v -0.129343 0.051010 0.004770
v -0.131093 0.040549 -0.037781
v -0.128835 0.057285 0.002108
v -0.040413 0.153986 0.097401
v -0.040045 0.147627 0.100098
v -0.040413 0.056379 -0.132726
v -0.040045 0.050020 -0.130029
v 0.066640 0.159230 0.095176
v 0.067007 0.152872 0.097873
v 0.066640 0.061623 -0.134951
v 0.067007 0.055264 -0.132254
v 0.028967 0.082206 0.010876
v 0.032689 0.080784 0.014893
v 0.027329 0.124924 0.032760
v 0.035628 0.082479 0.010874
v 0.031052 0.123502 0.036778
v 0.033990 0.125196 0.032759
v -0.001564 0.080710 0.011510
v 0.002158 0.079288 0.015527
v -0.003202 0.123428 0.033395
v 0.005097 0.080983 0.011508
v 0.000520 0.122006 0.037412
v 0.003459 0.123701 0.033393
v 0.028967 0.068694 -0.020980
v 0.032689 0.064818 -0.022750
v 0.027329 0.082652 -0.066903
v 0.035628 0.068885 -0.021175
v 0.031052 0.078775 -0.068673
v 0.033990 0.082843 -0.067098
v -0.001564 0.067199 -0.020345
v 0.002158 0.063322 -0.022115
v -0.003202 0.081156 -0.066269
v 0.005097 0.067390 -0.020540
v 0.000520 0.077279 -0.068038
v 0.003459 0.081347 -0.066463
v 0.140367 0.068661 -0.007819
v 0.139594 0.059117 -0.003771
v 0.140367 0.072721 0.001752
v 0.139594 0.063177 0.005800
v 0.122364 0.069898 -0.008343
v 0.121591 0.060354 -0.004295
v 0.122364 0.073957 0.001227
v 0.121591 0.064413 0.005276
v -0.089777 -0.013489 -0.012173
v -0.089777 0.018537 0.063334
v 0.042417 -0.013489 -0.012173
v 0.042417 0.018537 0.063334
vt 0.932957 0.016707
vt 0.949543 0.016707
vt 0.949543 0.033293
vt 0.932957 0.033293
vt 0.924873 0.011123
vt 0.952627 0.011123
vt 0.952627 0.038877
vt 0.924873 0.038877
vt 0.921959 0.007666
vt 0.956366 0.007666
vt 0.956366 0.042074
vt 0.921959 0.042074
vt 0.927037 0.009537
vt 0.947963 0.009537
vt 0.947963 0.030463
vt 0.927037 0.030463
vt 0.942054 0.036576
vt 0.942054 0.005173
vt 0.935446 0.003914
vt 0.935446 0.035317
vt 0.625000 0.500000
vt 0.875000 0.500000
vt 0.875000 0.750000
vt 0.625000 0.750000
vt 0.534405 -1.127133
vt -0.372727 -1.182643
vt -0.368755 -1.245294
vt 0.278676 -1.290335
vt -0.112468 -0.560561
vt 0.103020 -0.775372
vt 0.739271 -0.495517
vt 1.257646 -0.324860
vt -1.018357 -0.992294
vt -0.499719 -0.960407
vt -0.500162 -0.890682
vt -1.022166 -0.878057
vt -0.376515 -1.213669
vt -1.009704 -1.251465
vt -1.006982 -1.332884
vt -0.373345 -1.308504
vt 0.670620 0.716892
vt 0.271999 0.694233
vt 0.161852 0.539705
vt 0.673685 0.624996
vt 0.326488 -0.036459
vt 0.130849 -0.279186
vt 0.710775 -0.244730
vt 1.217940 -0.068680
vt 0.321032 0.774070
vt 0.036488 0.483541
vt 0.927940 0.451320
vt 0.953419 0.617479
vt -0.062513 0.565792
vt -0.401850 0.476253
vt 0.976488 0.430207
vt 1.261032 0.720737
vt -1.051849 0.009586
vt -0.522958 -0.087887
vt 1.403678 1.120531
vt 1.409120 0.951726
vt 1.481913 0.956051
vt 1.468171 1.124363
vt 1.339185 1.116699
vt 1.336327 0.947401
vt 1.237556 -0.764545
vt 0.722224 -0.738581
vt 0.841999 -0.879100
vt 1.240620 -0.856441
vt 0.946756 -1.135175
vt 0.949829 -1.230065
vt 0.943494 -1.040394
vt -0.379684 -1.118835
vt -1.012425 -1.170046
vt 1.284763 -1.115242
vt 1.280945 -1.001003
vt 1.288581 -1.229481
vt -1.014548 -1.106531
vt -0.495747 -1.023058
vt -0.416115 -0.311685
vt 0.913289 -0.284546
vt -1.032986 -0.554841
vt -0.994701 -0.716502
vt -0.476845 -0.809825
vt 0.407413 -0.904897
vt 0.151684 -1.068099
vt 0.731852 -1.033628
vt 0.141848 -0.773138
vt 1.393654 1.807117
vt 1.359578 1.936373
vt 1.303568 1.916320
vt 1.337644 1.787065
vt 1.535928 1.798846
vt 1.522627 1.942572
vt 1.338452 1.625876
vt 1.317896 1.491749
vt 1.464821 1.500479
vt 1.463067 1.669337
vt 1.423024 -0.041918
vt 1.257367 -0.054790
vt 1.253348 -0.199600
vt 1.397384 -0.174673
vt 1.452427 -0.187772
vt 1.478067 -0.055018
vt 1.442926 2.319004
vt 1.411966 2.449520
vt 1.284851 2.478379
vt 1.296334 2.310294
vt 1.474358 -0.347054
vt 1.608060 -0.339110
vt 1.603138 -0.191710
vt 1.469436 -0.199654
vt 1.263009 0.840930
vt 1.159756 0.641483
vt 1.042999 0.634546
vt 0.942551 0.821890
vt 0.944009 0.749883
vt 1.032145 0.554530
vt 1.185148 0.563621
vt 1.267519 0.771591
vt 1.334017 0.057333
vt 1.487038 0.066424
vt 1.563035 0.236944
vt 1.559450 0.310421
vt 1.470972 0.145215
vt 1.354203 0.138277
vt 1.238956 0.291378
vt 1.239316 0.220251
vt 0.366307 0.610844
vt 0.361584 0.746462
vt 0.305815 0.815352
vt 0.198132 0.808954
vt 0.146474 0.726341
vt 0.151197 0.590724
vt 0.209206 0.537816
vt 0.316889 0.544214
vt 1.271610 0.649167
vt 1.328494 0.572993
vt 1.436129 0.579389
vt 1.487110 0.654630
vt 1.482864 0.790292
vt 1.429265 0.850809
vt 1.321630 0.844413
vt 1.267364 0.784828
vt 1.529351 1.523802
vt 1.526865 1.598368
vt 1.465568 1.594679
vt 1.468054 1.520114
vt 1.634546 1.530006
vt 1.632060 1.604571
vt 1.437325 2.487352
vt 1.439792 2.412786
vt 1.490770 2.415901
vt 1.488304 2.490467
vt 1.595267 2.496736
vt 1.597734 2.422170
vt 1.478775 1.049959
vt 1.541422 1.054004
vt 1.539018 1.128572
vt 1.476371 1.124528
vt 1.648106 1.060020
vt 1.645703 1.134588
vt 1.588563 0.715368
vt 1.591069 0.640812
vt 1.661416 0.644359
vt 1.658911 0.718915
vt 1.485594 0.708618
vt 1.488099 0.634062
vt 1.485442 -0.678633
vt 1.480719 -0.543015
vt 1.424950 -0.474125
vt 1.317267 -0.480523
vt 1.265610 -0.563136
vt 1.270332 -0.698753
vt 1.328342 -0.751662
vt 1.436024 -0.745263
vt 0.220303 0.568979
vt 0.277187 0.492806
vt 0.384822 0.499201
vt 0.435803 0.574442
vt 0.431557 0.710104
vt 0.377958 0.770621
vt 0.270323 0.764226
vt 0.216057 0.704641
vt 1.526857 1.598414
vt 1.524371 1.672979
vt 1.463075 1.669291
vt 1.465561 1.594725
vt 1.632053 1.604617
vt 1.629567 1.679183
vt 1.439819 2.412701
vt 1.442286 2.338135
vt 1.493266 2.341249
vt 1.490798 2.415816
vt 1.597762 2.422085
vt 1.600229 2.347519
vt 1.481277 0.975073
vt 1.543924 0.979118
vt 1.541521 1.053687
vt 1.478874 1.049642
vt 1.650609 0.985134
vt 1.648206 1.059703
vt 1.586051 0.790556
vt 1.588556 0.716000
vt 1.658903 0.719547
vt 1.656398 0.794103
vt 1.483081 0.783805
vt 1.485587 0.709250
vt 1.248425 -0.052292
vt 1.636686 -0.029223
vt 1.633232 0.075110
vt 1.244971 0.052042
vt 0.923782 1.364214
vt 1.321369 1.387837
vt 1.229919 1.647331
vt 0.914001 1.636714
vt 1.587482 -0.736264
vt 1.272022 -0.755008
vt 1.275590 -0.859323
vt 1.591049 -0.840580
vt 1.404939 2.808940
vt 1.089676 2.782049
vt 1.016007 2.512569
vt 1.413459 2.536184
vt 1.539946 1.504942
vt 1.317896 1.491749
vt 1.321474 1.387424
vt 1.543523 1.400618
vt 1.277842 -0.928885
vt 1.675966 -0.905231
vt 1.673633 -0.835673
vt 1.275509 -0.859328
vt 1.303010 1.933012
vt 0.904894 1.909198
vt 0.930457 1.670291
vt 1.312123 1.660368
vt 1.311088 1.717309
vt 1.691484 1.739910
vt 1.688344 1.807902
vt 1.307947 1.785300
vt 1.321695 1.386903
vt 0.942189 1.331835
vt 0.932557 1.092539
vt 1.330686 1.116194
vt 1.671724 0.865214
vt 1.480994 0.853882
vt 1.483060 0.784437
vt 1.673790 0.795769
vt 1.675951 -0.905232
vt 1.277833 -0.928885
vt 1.280172 -0.998443
vt 1.678289 -0.974788
vt 0.895774 2.182077
vt 1.293896 2.205732
vt 1.284851 2.478379
vt 0.936419 2.438806
vt 1.292755 2.241897
vt 1.641911 2.262642
vt 1.640053 2.330716
vt 1.290897 2.309971
vt 1.282307 1.094583
vt 0.932624 1.092543
vt 0.941605 0.821834
vt 1.339733 0.845489
vt 1.681908 -0.449441
vt 1.478186 -0.461546
vt 1.481181 -0.530945
vt 1.684903 -0.518840
vt -1.005882 -1.365808
vt 1.010114 -1.246027
vt 1.012530 -1.316200
vt -1.003467 -1.435981
vt 0.953750 0.458428
vt 1.817773 0.509764
vt 1.820262 0.439494
vt 0.956239 0.388158
vt -1.003537 -1.435986
vt 1.012686 -1.316191
vt 1.015038 -1.386292
vt -1.001184 -1.506086
vt 1.821953 0.369157
vt 0.958448 0.317852
vt 0.956272 0.388160
vt 1.819778 0.439465
vt 1.013095 0.390465
vt -0.060103 0.326700
vt -0.079519 0.907683
vt 0.993679 0.971448
vt 0.970190 0.458873
vt 0.053341 0.404398
vt 0.036612 0.899352
vt 0.953460 0.953827
vt 1.321695 1.386903
vt 1.326503 1.319369
vt 1.622548 1.336958
vt 1.617740 1.404493
vt 1.289933 -1.133018
vt 1.286723 -1.173886
vt 1.673749 -1.150891
vt 1.676958 -1.110023
vt 1.350582 0.339882
vt 1.357464 0.298419
vt 1.744070 0.321390
vt 1.737187 0.362852
vt 1.637180 0.897457
vt 1.632372 0.964991
vt 1.336327 0.947401
vt 1.341135 0.879867
vt 1.672392 -1.110294
vt 1.675601 -1.069427
vt 1.288576 -1.092422
vt 1.285367 -1.133290
vt 0.958491 0.316586
vt 0.965373 0.275123
vt 1.351978 0.298094
vt 1.345096 0.339556
vt 1.622991 1.268990
vt 1.326225 1.251358
vt 1.324932 1.319275
vt 1.621698 1.336908
vt 1.716676 1.161207
vt 1.330006 1.138232
vt 1.330567 1.183621
vt 1.717237 1.206595
vt 1.280945 -1.001003
vt 1.667491 -0.978037
vt 1.670833 -1.024354
vt 1.284288 -1.047321
vt 1.327200 1.251415
vt 1.623966 1.269048
vt 1.625259 1.201130
vt 1.328493 1.183498
vt 1.670680 -1.069719
vt 1.284010 -1.092692
vt 1.284571 -1.047304
vt 1.671241 -1.024330
vt 1.310221 1.717257
vt 1.696767 1.740224
vt 1.700109 1.693907
vt 1.313563 1.670940
vt 1.560578 0.310481
vt 1.644429 0.315470
vt 1.647965 0.209679
vt 1.564114 0.204690
vt 1.484280 -0.636568
vt 1.629751 -0.627925
vt 1.633036 -0.733558
vt 1.487566 -0.742201
vt 1.480507 -0.530984
vt 1.626052 -0.522337
vt 1.629758 -0.627925
vt 1.484213 -0.636573
vt 1.621898 -0.030102
vt 1.625448 -0.135947
vt 1.481071 -0.144526
vt 1.477521 -0.038680
vt 1.477924 -0.452895
vt 1.474358 -0.347054
vt 1.619770 -0.338414
vt 1.623335 -0.444256
vt 0.976381 0.019715
vt 0.983619 0.019715
vt 0.983619 0.026952
vt 0.976381 0.026952
vt 0.948750 0.050305
vt 0.948750 0.006362
vt 0.936250 0.006362
vt 0.936250 0.050305
vt 0.940064 0.032917
vt 0.940064 0.008546
vt 0.934936 0.006593
vt 0.934936 0.030964
vt 0.954902 0.004002
vt 0.954902 0.049332
vt 0.926349 0.049332
vt 0.926349 0.004002
vn -0.5273 0.7822 -0.3318
vn 0.0000 0.4296 -0.9030
vn 0.5492 0.7693 -0.3263
vn 0.0000 0.9478 0.3187
vn 0.0000 0.3905 0.9206
vn 0.0000 0.9206 -0.3905
vn -0.2367 0.8674 -0.4378
vn -0.1818 0.8892 0.4198
vn -0.2100 0.8213 -0.5305
vn 0.2456 -0.8924 0.3785
vn 0.2536 0.9615 -0.1056
vn 0.0823 0.0879 -0.9927
vn 0.1620 -0.6633 -0.7306
vn -0.0295 -0.8660 -0.4992
vn -0.1791 0.3012 -0.9366
vn 0.9725 0.2145 -0.0910
vn 0.2633 0.7665 -0.5858
vn -0.0244 -0.8085 0.5880
vn -0.0239 -0.9831 0.1813
vn -0.1917 -0.9611 0.1987
vn -0.1893 -0.8068 0.5596
vn -0.2086 0.9540 -0.2152
vn -0.0297 -0.2457 0.9689
vn 0.1620 0.0642 0.9847
vn 0.0835 0.7860 0.6125
vn 0.0099 0.9865 -0.1633
vn 0.0012 0.8324 -0.5542
vn -0.2370 0.9170 -0.3209
vn -0.0023 -0.4081 -0.9129
vn 0.0071 0.1147 -0.9934
vn -0.0036 -0.1879 0.9822
vn 0.0075 0.8128 0.5824
vn -0.0043 0.3576 0.9339
vn -0.0040 -0.8751 -0.4839
vn 0.0849 -0.9173 0.3891
vn 0.9886 0.1397 -0.0571
vn -0.9997 0.0233 -0.0123
vn -0.0000 -0.3905 -0.9206
vn 0.5755 -0.7529 0.3193
vn -0.1601 -0.9087 0.3854
vn -0.7403 -0.6189 0.2625
vn -0.9871 0.1474 -0.0625
vn -0.6425 0.7055 -0.2992
vn 0.1601 0.9087 -0.3854
vn 0.8316 0.5113 -0.2169
vn 0.9871 -0.1474 0.0625
vn -0.9837 -0.1655 0.0702
vn 0.9798 0.1840 -0.0780
vn 0.1909 0.9037 -0.3833
vn -0.9972 0.0712 -0.0228
vn 0.0744 0.9181 -0.3894
vn 0.9954 -0.0445 0.0853
vn -0.0744 -0.9181 0.3894
vn 0.0983 0.3818 0.9190
vn -0.9972 0.0722 -0.0203
vn 0.9959 -0.0888 -0.0191
vn 0.2269 -0.3958 -0.8899
vn -0.9986 -0.0489 0.0207
vn 0.9986 0.0489 -0.0207
vn -0.0531 0.9193 -0.3899
vn 0.0531 -0.9193 0.3899
vn -0.0189 0.4553 -0.8901
vn 0.8292 -0.2293 0.5097
vn -0.7483 -0.3250 0.5783
vn -0.0189 0.9564 0.2914
vn 0.8292 -0.5258 -0.1894
vn -0.7483 -0.6417 -0.1683
vn 0.9972 -0.0685 0.0290
vn 0.0000 -0.9206 0.3905
vn -1.0000 0.0000 0.0000
vn 1.0000 0.0000 0.0000
usemtl Material
s off
f 1/1/1 2/2/1 4/3/1 3/4/1
f 3/5/2 4/6/2 8/7/2 7/8/2
f 7/9/3 8/10/3 6/11/3 5/12/3
f 5/13/4 6/14/4 2/15/4 1/16/4
f 5/17/5 1/18/5 148/19/5 150/20/5
f 8/21/6 4/22/6 2/23/6 6/24/6
f 34/25/7 26/26/7 15/27/7 23/28/7
f 33/29/8 23/30/8 15/31/8 20/32/8
f 32/33/9 26/34/9 13/35/9 22/36/9
f 31/37/10 28/38/10 12/39/10 25/40/10
f 30/41/11 24/42/11 11/43/11 21/44/11
f 29/45/12 27/46/12 9/47/12 19/48/12
f 18/49/13 29/50/13 19/51/13 10/52/13
f 14/53/14 22/54/14 29/55/14 18/56/14
f 22/57/15 13/58/15 27/46/15 29/45/15
f 28/59/16 30/60/16 21/61/16 12/62/16
f 10/63/16 19/64/16 30/60/16 28/59/16
f 19/65/17 9/66/17 24/67/17 30/68/17
f 17/69/18 31/37/18 25/40/18 16/70/18
f 14/71/19 18/72/19 31/37/19 17/69/19
f 18/72/10 10/73/10 28/38/10 31/37/10
f 17/69/20 32/74/20 22/75/20 14/71/20
f 16/70/21 20/76/21 32/74/21 17/69/21
f 20/77/22 15/78/22 26/34/22 32/33/22
f 25/79/23 33/29/23 20/32/23 16/80/23
f 12/81/24 21/82/24 33/29/24 25/79/24
f 21/82/25 11/83/25 23/30/25 33/29/25
f 24/67/26 34/84/26 23/85/26 11/86/26
f 9/66/27 27/87/27 34/84/27 24/67/27
f 27/87/28 13/35/28 26/34/28 34/84/28
f 37/88/29 41/89/29 46/90/29 45/91/29
f 37/88/30 38/92/30 42/93/30 41/89/30
f 45/94/31 46/95/31 50/96/31 49/97/31
f 39/98/32 40/99/32 36/100/32 35/101/32
f 39/98/33 35/101/33 43/102/33 44/103/33
f 44/104/34 43/105/34 47/106/34 48/107/34
f 49/108/35 50/109/35 48/110/35 47/111/35
f 44/112/36 48/113/36 50/114/36 46/115/36 41/116/36 42/117/36 40/118/36 39/119/36
f 36/120/37 38/121/37 37/122/37 45/123/37 49/124/37 47/125/37 43/126/37 35/127/37
f 64/128/5 56/129/5 66/130/5 52/131/5 59/132/5 51/133/5 65/134/5 55/135/5
f 60/136/38 54/137/38 62/138/38 58/139/38 63/140/38 57/141/38 61/142/38 53/143/38
f 55/144/39 57/145/39 63/146/39 64/147/39
f 55/144/40 65/148/40 61/149/40 57/145/40
f 61/150/41 65/151/41 51/152/41 53/153/41
f 60/154/42 53/153/42 51/152/42 59/155/42
f 59/156/43 52/157/43 54/158/43 60/159/43
f 52/157/44 66/160/44 62/161/44 54/158/44
f 56/162/45 58/163/45 62/164/45 66/165/45
f 56/162/46 64/166/46 63/167/46 58/163/46
f 80/168/5 72/169/5 82/170/5 68/171/5 75/172/5 67/173/5 81/174/5 71/175/5
f 76/176/38 70/177/38 78/178/38 74/179/38 79/180/38 73/181/38 77/182/38 69/183/38
f 71/184/39 73/185/39 79/186/39 80/187/39
f 71/184/40 81/188/40 77/189/40 73/185/40
f 77/190/41 81/191/41 67/192/41 69/193/41
f 76/194/42 69/193/42 67/192/42 75/195/42
f 75/196/43 68/197/43 70/198/43 76/199/43
f 68/197/44 82/200/44 78/201/44 70/198/44
f 72/202/45 74/203/45 78/204/45 82/205/45
f 72/202/46 80/206/46 79/207/46 74/203/46
f 83/208/47 84/209/47 86/210/47 85/211/47
f 85/212/38 86/213/38 90/214/38 89/215/38
f 89/216/48 90/217/48 88/218/48 87/219/48
f 87/220/5 88/221/5 84/222/5 83/223/5
f 90/224/49 86/225/49 84/226/49 88/227/49
f 91/228/50 92/229/50 94/230/50 93/231/50
f 93/232/51 94/233/51 98/234/51 97/235/51
f 97/236/52 98/237/52 96/238/52 95/239/52
f 95/240/53 96/241/53 92/242/53 91/243/53
f 98/244/54 94/245/54 92/246/54 96/247/54
f 99/248/55 100/249/55 102/250/55 101/251/55
f 101/252/51 102/253/51 106/254/51 105/255/51
f 105/256/56 106/257/56 104/258/56 103/259/56
f 103/260/53 104/261/53 100/262/53 99/263/53
f 101/264/57 105/265/57 103/266/57 99/267/57
f 107/268/58 109/269/58 110/270/58 108/271/58
f 109/272/38 113/273/38 114/274/38 110/275/38
f 113/276/59 111/277/59 112/278/59 114/279/59
f 111/280/5 107/281/5 108/282/5 112/283/5
f 109/284/60 107/285/60 111/286/60 113/287/60
f 114/288/61 112/289/61 108/290/61 110/291/61
f 118/292/62 115/293/62 117/294/62 120/295/62
f 116/296/63 118/297/63 120/298/63 119/299/63
f 115/300/64 116/301/64 119/302/64 117/303/64
f 124/304/62 121/305/62 123/306/62 126/307/62
f 122/308/63 124/309/63 126/310/63 125/311/63
f 121/312/64 122/313/64 125/314/64 123/315/64
f 130/316/65 132/317/65 129/318/65 127/319/65
f 128/320/66 131/321/66 132/322/66 130/323/66
f 127/324/67 129/325/67 131/326/67 128/327/67
f 136/328/65 138/329/65 135/330/65 133/331/65
f 134/332/66 137/333/66 138/334/66 136/335/66
f 133/336/67 135/337/67 137/338/67 134/339/67
f 139/340/68 141/341/68 142/342/68 140/343/68
f 141/344/5 145/345/5 146/346/5 142/347/5
f 143/348/38 139/349/38 140/350/38 144/351/38
f 141/352/51 139/353/51 143/354/51 145/355/51
f 146/356/53 144/357/53 140/358/53 142/359/53
f 147/360/69 149/361/69 150/362/69 148/363/69
f 3/364/38 7/365/38 149/366/38 147/367/38
f 1/368/70 3/369/70 147/370/70 148/371/70
f 7/372/71 5/373/71 150/374/71 149/375/71
