# Blender v2.93.5 OBJ File: 'robotHead.blend'
# www.blender.org
mtllib robotHead.mtl
o Cube.001_Cube.003
v -0.150000 0.441014 0.150000
v -0.150000 0.741014 0.150000
v -0.150000 0.741014 -0.150000
v -0.150000 0.441014 -0.150000
v 0.150000 0.741014 -0.150000
v 0.150000 0.441014 -0.150000
v 0.150000 0.741014 0.150000
v 0.150000 0.441014 0.150000
vt 0.615091 0.954348
vt 0.497998 0.954348
vt 0.497998 0.835822
vt 0.615091 0.835822
vt 0.434591 0.989308
vt 0.317439 0.989309
vt 0.317439 0.785565
vt 0.434591 0.785564
vt 0.819467 0.927699
vt 0.702344 0.927766
vt 0.702344 0.809265
vt 0.819467 0.809198
vt 0.200286 0.785564
vt 0.317439 0.785565
vt 0.317439 0.989309
vt 0.200286 0.989308
vt 0.847099 0.631512
vt 0.847099 0.428334
vt 0.965995 0.428334
vt 0.965995 0.631512
vt 0.965988 0.632079
vt 0.965988 0.835788
vt 0.847092 0.835788
vt 0.847092 0.632079
vn -1.0000 0.0000 0.0000
vn 0.0000 0.0000 -1.0000
vn 1.0000 -0.0000 0.0000
vn 0.0000 -0.0000 1.0000
vn 0.0000 -1.0000 -0.0000
vn 0.0000 1.0000 0.0000
usemtl Material.002
s 1
f 1/1/1 2/2/1 3/3/1 4/4/1
f 4/5/2 3/6/2 5/7/2 6/8/2
f 6/9/3 5/10/3 7/11/3 8/12/3
f 8/13/4 7/14/4 2/15/4 1/16/4
f 4/17/5 6/18/5 8/19/5 1/20/5
f 5/21/6 3/22/6 2/23/6 7/24/6
