# Blender v2.83.2 OBJ File: 's_Books.blend'
# www.blender.org
mtllib s_Books.mtl
o Cube.002
v -0.838544 1.100000 0.342157
v -0.838544 1.400000 0.342157
v -0.816597 1.100000 0.272786
v -0.816597 1.400000 0.272786
v -0.552517 1.100000 0.432647
v -0.552517 1.400000 0.432647
v -0.530570 1.100000 0.363276
v -0.530570 1.400000 0.363276
vt 0.725185 0.291503
vt 0.762804 0.291503
vt 0.762804 0.329122
vt 0.725185 0.329122
vt 0.762804 0.366741
vt 0.725185 0.366741
vt 0.762804 0.404360
vt 0.725185 0.404360
vt 0.226987 0.112386
vt 0.223538 0.362348
vt 0.024935 0.358007
vt 0.028384 0.108045
vt 0.800423 0.366741
vt 0.800423 0.404360
vn -0.9534 0.0000 -0.3016
vn 0.3016 0.0000 -0.9534
vn 0.9534 0.0000 0.3016
vn -0.3016 0.0000 0.9534
vn 0.0000 1.0000 0.0000
usemtl Material
s off
f 1/1/1 2/2/1 4/3/1 3/4/1
f 3/4/2 4/3/2 8/5/2 7/6/2
f 7/6/3 8/5/3 6/7/3 5/8/3
f 5/9/4 6/10/4 2/11/4 1/12/4
f 8/5/5 4/13/5 2/14/5 6/7/5
o Cube.003
v -0.388066 1.100000 0.418209
v -0.388066 1.400000 0.418209
v -0.402541 1.100000 0.346904
v -0.402541 1.400000 0.346904
v -0.094062 1.100000 0.358528
v -0.094062 1.400000 0.358528
v -0.108537 1.100000 0.287223
v -0.108537 1.400000 0.287223
vt 0.725185 0.291503
vt 0.762804 0.291503
vt 0.762804 0.329122
vt 0.725185 0.329122
vt 0.762804 0.366741
vt 0.725185 0.366741
vt 0.762804 0.404360
vt 0.725185 0.404360
vt 0.444418 0.105589
vt 0.441740 0.355568
vt 0.260288 0.354960
vt 0.262966 0.104982
vt 0.800423 0.366741
vt 0.800423 0.404360
vn -0.9800 0.0000 0.1989
vn -0.1989 0.0000 -0.9800
vn 0.9800 0.0000 -0.1989
vn 0.1989 0.0000 0.9800
vn 0.0000 1.0000 0.0000
usemtl Material
s off
f 9/15/6 10/16/6 12/17/6 11/18/6
f 11/18/7 12/17/7 16/19/7 15/20/7
f 15/20/8 16/19/8 14/21/8 13/22/8
f 13/23/9 14/24/9 10/25/9 9/26/9
f 16/19/10 12/27/10 10/28/10 14/21/10
o Cube.004
v 0.071742 1.100000 0.362360
v 0.071742 1.400000 0.362360
v 0.084440 1.100000 0.290717
v 0.084440 1.400000 0.290717
v 0.367138 1.100000 0.414715
v 0.367138 1.400000 0.414715
v 0.379836 1.100000 0.343072
v 0.379836 1.400000 0.343072
vt 0.725185 0.291503
vt 0.762804 0.291503
vt 0.762804 0.329122
vt 0.725185 0.329122
vt 0.762804 0.366741
vt 0.725185 0.366741
vt 0.762804 0.404360
vt 0.725185 0.404360
vt 0.705746 0.107008
vt 0.706948 0.357004
vt 0.500960 0.358463
vt 0.499757 0.108467
vt 0.800423 0.366741
vt 0.800423 0.404360
vn -0.9847 0.0000 -0.1745
vn 0.1745 0.0000 -0.9847
vn 0.9847 0.0000 0.1745
vn -0.1745 0.0000 0.9847
vn 0.0000 1.0000 0.0000
usemtl Material
s off
f 17/29/11 18/30/11 20/31/11 19/32/11
f 19/32/12 20/31/12 24/33/12 23/34/12
f 23/34/13 24/33/13 22/35/13 21/36/13
f 21/37/14 22/38/14 18/39/14 17/40/14
f 24/33/15 20/41/15 18/42/15 22/35/15
o Cube.005_Cube.019
v 0.502085 1.100000 0.429255
v 0.502085 1.400000 0.429255
v 0.481914 1.100000 0.359347
v 0.481914 1.400000 0.359347
v 0.790326 1.100000 0.346086
v 0.790326 1.400000 0.346086
v 0.770155 1.100000 0.276178
v 0.770155 1.400000 0.276178
vt 0.475087 0.028724
vt 0.534757 0.028724
vt 0.534757 0.088394
vt 0.475087 0.088394
vt 0.725185 0.329122
vt 0.762804 0.329122
vt 0.762804 0.366741
vt 0.725185 0.366741
vt 0.762804 0.404360
vt 0.725185 0.404360
vt 0.926774 0.106800
vt 0.927983 0.356793
vt 0.767166 0.358671
vt 0.765958 0.108678
vt 0.800423 0.366741
vt 0.800423 0.404360
vn -0.9608 0.0000 0.2772
vn -0.2772 0.0000 -0.9608
vn 0.9608 0.0000 -0.2772
vn 0.2772 0.0000 0.9608
vn 0.0000 1.0000 0.0000
usemtl Material
s off
f 25/43/16 26/44/16 28/45/16 27/46/16
f 27/47/17 28/48/17 32/49/17 31/50/17
f 31/50/18 32/49/18 30/51/18 29/52/18
f 29/53/19 30/54/19 26/55/19 25/56/19
f 32/49/20 28/57/20 26/58/20 30/51/20
o Cube.001
v -0.950000 0.600000 0.296880
v -0.950000 1.000000 0.027295
v 0.950000 0.600000 0.296880
v 0.950000 1.000000 0.027295
vt 0.958508 0.412595
vt 0.964680 0.681097
vt 0.011963 0.682836
vt 0.005791 0.414335
vn 0.0000 0.5589 0.8292
usemtl Material
s off
f 35/59/21 36/60/21 34/61/21 33/62/21
o Cube.006_Cube.020
v -0.950000 0.100000 0.296880
v -0.950000 0.500000 0.027295
v 0.950000 0.100000 0.296880
v 0.950000 0.500000 0.027295
vt 0.981283 0.709107
vt 0.982203 0.995255
vt 0.008874 0.996599
vt 0.007954 0.710450
vn 0.0000 0.5589 0.8292
usemtl Material
s off
f 39/63/22 40/64/22 38/65/22 37/66/22
