# Blender v2.83.2 OBJ File: 'car.blend'
# www.blender.org
mtllib s_car.mtl
o Cube
v 0.157683 0.022474 -0.010787
v -0.120464 0.009085 -0.030204
v 0.157683 0.022474 0.010787
v -0.120464 0.009085 0.030204
v -0.015804 0.041445 -0.035346
v -0.069815 0.069752 -0.026168
v -0.015804 0.041445 0.035346
v -0.069815 0.069752 0.026168
v -0.110519 0.064031 -0.030030
v 0.162191 0.008548 -0.018794
v -0.061916 0.044799 0.035346
v 0.162191 0.008548 0.018794
v -0.061916 0.044799 -0.035346
v 0.000000 0.058161 0.025201
v -0.110519 0.064031 0.030030
v 0.000000 0.058161 -0.025201
v 0.140407 0.007943 0.040721
v 0.140407 0.013338 0.036305
v 0.140407 0.007943 -0.040721
v 0.140407 0.013338 -0.036305
v 0.154417 0.007943 0.040721
v 0.150655 0.013338 0.036305
v 0.154417 0.007943 -0.040721
v 0.150655 0.013338 -0.036305
v -0.071488 0.013480 0.032684
v -0.105901 -0.001703 0.032785
v -0.071488 0.013480 0.050345
v -0.105901 -0.001703 0.050257
v -0.087269 0.048493 0.032645
v -0.123099 0.032910 0.032741
v -0.087269 0.048493 0.050385
v -0.123099 0.032910 0.050289
v -0.121271 0.012049 0.032867
v -0.085079 -0.002011 0.032684
v -0.109867 0.048478 0.050385
v -0.085079 -0.002011 0.050345
v -0.109867 0.048478 0.032645
v -0.072892 0.035483 0.050385
v -0.121271 0.012049 0.050205
v -0.072892 0.035483 0.032645
v 0.136144 0.009172 -0.034256
v 0.114899 -0.000548 -0.034194
v 0.136144 0.009172 -0.023286
v 0.114899 -0.000548 -0.023341
v 0.126047 0.030785 -0.034281
v 0.103925 0.020805 -0.034221
v 0.126047 0.030785 -0.023262
v 0.103925 0.020805 -0.023321
v 0.105237 0.007864 -0.034143
v 0.127834 -0.000563 -0.034256
v 0.112012 0.030585 -0.023262
v 0.127834 -0.000563 -0.023286
v 0.112012 0.030585 -0.034281
v 0.135086 0.022826 -0.023262
v 0.105237 0.007864 -0.023374
v 0.135086 0.022826 -0.034281
v 0.136067 0.009651 0.022757
v 0.115301 0.000150 0.022818
v 0.136067 0.009651 0.033480
v 0.115301 0.000150 0.033426
v 0.126198 0.030777 0.022733
v 0.104574 0.021022 0.022791
v 0.126198 0.030777 0.033504
v 0.104574 0.021022 0.033446
v 0.105857 0.008373 0.022868
v 0.127944 0.000135 0.022757
v 0.112479 0.030582 0.033504
v 0.127944 0.000135 0.033480
v 0.112479 0.030582 0.022733
v 0.135033 0.022998 0.033504
v 0.105857 0.008373 0.033395
v 0.135033 0.022998 0.022733
v -0.071488 0.013480 -0.049149
v -0.105901 -0.001703 -0.049048
v -0.071488 0.013480 -0.031488
v -0.105901 -0.001703 -0.031576
v -0.087269 0.048493 -0.049188
v -0.123099 0.032910 -0.049093
v -0.087269 0.048493 -0.031448
v -0.123099 0.032910 -0.031544
v -0.121271 0.012049 -0.048966
v -0.085079 -0.002011 -0.049149
v -0.109867 0.048478 -0.031448
v -0.085079 -0.002011 -0.031488
v -0.109867 0.048478 -0.049188
v -0.072892 0.035483 -0.031448
v -0.121271 0.012049 -0.031628
v -0.072892 0.035483 -0.049188
v -0.130434 0.065060 0.047565
v -0.137144 0.071643 0.054701
v -0.130434 0.065060 -0.047565
v -0.137144 0.071643 -0.054701
v -0.099159 0.064573 0.047565
v -0.102583 0.071080 0.054701
v -0.099159 0.064573 -0.047565
v -0.102583 0.071080 -0.054701
vt -0.544898 2.149308
vt -0.620934 2.480783
vt -1.015260 2.403708
vt -1.110587 1.673929
vt 1.626930 1.673930
vt 1.583813 1.859022
vt 0.055254 2.328572
vt -0.098431 2.105870
vt 1.531580 1.596862
vt 1.137265 1.673929
vt 1.061201 1.342483
vt 0.614731 1.299051
vt 0.461077 1.521725
vt -1.067446 1.052149
vt -1.110587 0.867082
vt 1.626904 0.867082
vt 0.421272 0.197867
vt 0.421272 0.867082
vt -1.110587 0.675701
vt -1.110587 0.389252
vt 1.588938 -0.470529
vt 1.100958 -0.470529
vt 1.002744 -0.685387
vt 1.687152 -0.685388
vt 1.105680 0.142329
vt 0.421272 0.142329
vt 0.421272 -0.470529
vt 1.105679 -0.470529
vt 1.002744 -0.867283
vt 1.687152 -0.867283
vt 1.598295 -0.685388
vt 1.091602 -0.685388
vt 1.002744 -0.470529
vt 0.421272 -0.470529
vt 0.458662 -1.009704
vt 0.965355 -1.009704
vt 0.422958 0.867082
vt 0.421272 0.142329
vt 1.006117 0.142329
vt 1.004431 0.867082
vt 1.002744 -0.967932
vt 1.366657 -0.967932
vt 1.289138 -0.867283
vt 1.080264 -0.867283
vt -0.322093 -1.310412
vt -0.364853 -1.238825
vt -1.067826 -1.238825
vt -1.110587 -1.310412
vt 0.396518 0.054299
vt 0.396108 0.126077
vt 0.296899 0.126077
vt 0.260888 0.054299
vt 1.209766 -1.196815
vt 1.167006 -1.145748
vt 0.464033 -1.145748
vt 0.421272 -1.196815
vt 0.396517 0.126077
vt 0.360520 0.197867
vt 0.261311 0.197867
vt 0.260888 0.126077
vt 1.167006 -1.009704
vt 0.464033 -1.009704
vt 1.006117 0.669070
vt 1.009231 0.397845
vt 1.155737 0.205667
vt 1.355397 0.202970
vt 1.508892 0.382208
vt 1.508892 0.655802
vt 1.358182 0.863115
vt 1.170488 0.867082
vt -0.960965 -0.310574
vt -1.107473 -0.502747
vt -1.110587 -0.773973
vt -0.946216 -0.971987
vt -0.758522 -0.968020
vt -0.607811 -0.760707
vt -0.607812 -0.487113
vt -0.761307 -0.307874
vt 1.860587 0.631543
vt 1.860587 0.867082
vt 1.708395 0.866556
vt 1.708395 0.632069
vt 1.777881 -0.328750
vt 1.777881 -0.093211
vt 1.636732 -0.093211
vt 1.636733 -0.328750
vt 1.417969 -0.093211
vt 1.417969 -0.328750
vt 0.908117 -1.432354
vt 0.908117 -1.196815
vt 0.761728 -1.198086
vt 0.761728 -1.431083
vt 0.559290 -1.199764
vt 0.559290 -1.429965
vt 0.421272 -1.198677
vt 0.421272 -1.430660
vt 1.508892 0.866556
vt 1.508892 0.632069
vt 1.105679 0.019338
vt 1.107614 -0.149129
vt 1.198613 -0.268496
vt 1.322628 -0.270172
vt 1.417969 -0.158841
vt 1.417969 0.011097
vt 1.324358 0.139865
vt 1.207775 0.142329
vt 0.041534 0.196191
vt -0.049467 0.076825
vt -0.051401 -0.091642
vt 0.050695 -0.214634
vt 0.167277 -0.212170
vt 0.260888 -0.083402
vt 0.260888 0.086537
vt 0.165548 0.197867
vt 1.726069 0.338941
vt 1.726069 0.485241
vt 1.632810 0.484915
vt 1.632810 0.339267
vt 1.733439 0.485241
vt 1.733439 0.631542
vt 1.644731 0.631543
vt 1.644731 0.485241
vt 1.508892 0.631543
vt 1.508893 0.485241
vt 1.407858 -0.416473
vt 1.407858 -0.270172
vt 1.315817 -0.270961
vt 1.315817 -0.415683
vt 1.190181 -0.272003
vt 1.190181 -0.414989
vt 1.105680 -0.271328
vt 1.105679 -0.415421
vt 1.508892 0.484915
vt 1.508892 0.339267
vt 0.115683 -1.092209
vt 0.117573 -1.256881
vt 0.206523 -1.373561
vt 0.327745 -1.375199
vt 0.420939 -1.266375
vt 0.420939 -1.100264
vt 0.329437 -0.974395
vt 0.215480 -0.971987
vt -0.098732 -0.973626
vt -0.187684 -1.090303
vt -0.189574 -1.254977
vt -0.089777 -1.375199
vt 0.024180 -1.372791
vt 0.115683 -1.246922
vt 0.115683 -1.080810
vt 0.022489 -0.971987
vt 1.773746 -1.388250
vt 1.773746 -1.245243
vt 1.682587 -1.245562
vt 1.682587 -1.387930
vt 1.728382 0.195934
vt 1.728382 0.338941
vt 1.641672 0.338941
vt 1.641672 0.195934
vt 1.508892 0.338940
vt 1.508893 0.195934
vt 1.203491 -1.339821
vt 1.203491 -1.196815
vt 1.113523 -1.197587
vt 1.113523 -1.339049
vt 0.990716 -1.198605
vt 0.990716 -1.338371
vt 0.908117 -1.197945
vt 0.908117 -1.338793
vt 1.561460 -1.245562
vt 1.561460 -1.387930
vt -0.105036 -0.505886
vt -0.101922 -0.777110
vt 0.044584 -0.969288
vt 0.244244 -0.971985
vt 0.397739 -0.792747
vt 0.397739 -0.519153
vt 0.247029 -0.311841
vt 0.059335 -0.307874
vt -0.458190 -0.310574
vt -0.604698 -0.502747
vt -0.607811 -0.773973
vt -0.443440 -0.971987
vt -0.255746 -0.968020
vt -0.105036 -0.760707
vt -0.105036 -0.487113
vt -0.258532 -0.307874
vt 1.561460 -1.480783
vt 1.561460 -1.245243
vt 1.409269 -1.245769
vt 1.409269 -1.480256
vt 1.777882 -0.093211
vt 1.777881 0.142329
vt 1.636733 0.142329
vt 1.636733 -0.093210
vt 1.417969 0.142329
vt 1.417969 -0.093211
vt 1.696611 -1.245244
vt 1.696611 -1.009704
vt 1.550222 -1.010975
vt 1.550222 -1.243972
vt 1.347784 -1.012652
vt 1.347784 -1.242854
vt 1.209766 -1.011566
vt 1.209766 -1.243549
vt 1.209766 -1.245769
vt 1.209766 -1.480256
vt -0.874417 -1.375199
vt -0.943504 -1.465504
vt 0.115683 -1.465504
vt 0.046596 -1.375199
vt 0.015244 -0.214634
vt -0.051401 -0.300307
vt 0.283226 -0.300307
vt 0.318061 -0.214924
vt -0.120488 -0.307874
vt -0.051401 -0.261059
vt -1.110587 -0.261059
vt -1.041500 -0.307874
vt 1.366657 -0.867573
vt 1.401514 -0.952934
vt 1.736140 -0.952934
vt 1.669473 -0.867283
vt -0.189574 -1.238824
vt -0.189574 -0.971987
vt -1.110587 -0.971986
vt -1.110587 -1.238824
vt -0.051401 0.197867
vt -1.110587 0.197867
vn 0.0585 0.0220 0.9980
vn 0.0585 0.0220 -0.9980
vn 0.2207 0.9753 0.0000
vn -0.7267 0.6870 0.0000
vn 0.0725 0.9974 0.0000
vn 0.9534 0.3018 0.0000
vn -0.1392 0.9903 0.0000
vn -0.9840 0.1781 0.0000
vn 0.9514 0.3080 0.0000
vn -1.0000 -0.0000 0.0000
vn 0.0000 0.6335 -0.7738
vn 0.8203 0.5720 0.0000
vn 0.0000 0.6335 0.7738
vn 0.0000 1.0000 0.0000
vn -0.0022 -0.0020 1.0000
vn -0.0026 -0.0023 -1.0000
vn 0.9980 0.0637 0.0000
vn 0.6710 0.7415 0.0000
vn -0.0006 1.0000 0.0000
vn -0.7620 0.6476 0.0000
vn -0.9962 -0.0873 0.0000
vn -0.6668 -0.7452 0.0000
vn 0.7517 -0.6595 0.0000
vn 0.9970 0.0772 0.0000
vn 0.6608 0.7505 0.0000
vn -0.0142 0.9999 0.0000
vn -0.7707 0.6372 0.0000
vn -0.9949 -0.1009 0.0000
vn -0.6566 -0.7542 0.0000
vn 0.7606 -0.6492 0.0000
vn -0.7003 -0.7138 0.0000
vn -0.0118 -0.7411 -0.6713
vn 0.8849 0.4657 -0.0000
vn -0.0118 -0.7411 0.6713
vn -0.0156 -0.9999 0.0000
vn 0.0163 0.9999 -0.0000
usemtl Material.006
s off
f 11/1/1 8/2/1 15/3/1 4/4/1 12/5/1 3/6/1 14/7/1 7/8/1
f 9/9/2 6/10/2 13/11/2 5/12/2 16/13/2 1/14/2 10/15/2 2/16/2
f 16/17/3 14/18/3 3/19/3 1/20/3
f 14/21/4 16/22/4 5/23/4 7/24/4
f 13/25/5 11/26/5 7/27/5 5/28/5
f 11/29/6 13/30/6 6/31/6 8/32/6
f 9/33/7 15/34/7 8/35/7 6/36/7
f 9/37/8 2/38/8 4/39/8 15/40/8
f 12/41/9 10/42/9 1/43/9 3/44/9
f 17/45/10 18/46/10 20/47/10 19/48/10
f 19/49/11 20/50/11 24/51/11 23/52/11
f 23/53/12 24/54/12 22/55/12 21/56/12
f 21/57/13 22/58/13 18/59/13 17/60/13
f 24/54/14 20/61/14 18/62/14 22/55/14
f 35/63/15 32/64/15 39/65/15 28/66/15 36/67/15 27/68/15 38/69/15 31/70/15
f 33/71/16 30/72/16 37/73/16 29/74/16 40/75/16 25/76/16 34/77/16 26/78/16
f 40/79/17 38/80/17 27/81/17 25/82/17
f 38/83/18 40/84/18 29/85/18 31/86/18
f 37/87/19 35/88/19 31/86/19 29/85/19
f 35/89/20 37/90/20 30/91/20 32/92/20
f 33/93/21 39/94/21 32/92/21 30/91/21
f 33/93/22 26/95/22 28/96/22 39/94/22
f 36/97/23 34/98/23 25/82/23 27/81/23
f 51/99/15 48/100/15 55/101/15 44/102/15 52/103/15 43/104/15 54/105/15 47/106/15
f 49/107/16 46/108/16 53/109/16 45/110/16 56/111/16 41/112/16 50/113/16 42/114/16
f 56/115/24 54/116/24 43/117/24 41/118/24
f 54/119/25 56/120/25 45/121/25 47/122/25
f 53/123/26 51/124/26 47/122/26 45/121/26
f 51/125/27 53/126/27 46/127/27 48/128/27
f 49/129/28 55/130/28 48/128/28 46/127/28
f 49/129/29 42/131/29 44/132/29 55/130/29
f 52/133/30 50/134/30 41/118/30 43/117/30
f 67/135/15 64/136/15 71/137/15 60/138/15 68/139/15 59/140/15 70/141/15 63/142/15
f 65/143/16 62/144/16 69/145/16 61/146/16 72/147/16 57/148/16 66/149/16 58/150/16
f 72/151/24 70/152/24 59/153/24 57/154/24
f 70/155/25 72/156/25 61/157/25 63/158/25
f 69/159/26 67/160/26 63/158/26 61/157/26
f 67/161/27 69/162/27 62/163/27 64/164/27
f 65/165/28 71/166/28 64/164/28 62/163/28
f 65/165/29 58/167/29 60/168/29 71/166/29
f 68/169/30 66/170/30 57/154/30 59/153/30
f 83/171/15 80/172/15 87/173/15 76/174/15 84/175/15 75/176/15 86/177/15 79/178/15
f 81/179/16 78/180/16 85/181/16 77/182/16 88/183/16 73/184/16 82/185/16 74/186/16
f 88/187/17 86/188/17 75/189/17 73/190/17
f 86/191/18 88/192/18 77/193/18 79/194/18
f 85/195/19 83/196/19 79/194/19 77/193/19
f 83/197/20 85/198/20 78/199/20 80/200/20
f 81/201/21 87/202/21 80/200/21 78/199/21
f 81/201/22 74/203/22 76/204/22 87/202/22
f 84/205/23 82/206/23 73/190/23 75/189/23
f 89/207/31 90/208/31 92/209/31 91/210/31
f 91/211/32 92/212/32 96/213/32 95/214/32
f 95/215/33 96/216/33 94/217/33 93/218/33
f 93/219/34 94/220/34 90/221/34 89/222/34
f 91/223/35 95/224/35 93/225/35 89/226/35
f 96/216/36 92/227/36 90/228/36 94/217/36
