# Blender v2.83.2 OBJ File: 's_Movies.blend'
# www.blender.org
mtllib s_Movies.mtl
o Cube.004
v -0.950000 0.100000 0.419841
v -0.950000 0.285000 0.318772
v 0.950000 0.100000 0.419841
v 0.950000 0.285000 0.318772
v -0.950000 0.600000 0.419841
v -0.950000 0.785000 0.318772
v 0.950000 0.600000 0.419841
v 0.950000 0.785000 0.318772
v -0.950000 0.815000 0.419841
v -0.950000 1.000000 0.318772
v 0.950000 0.815000 0.419841
v 0.950000 1.000000 0.318772
v -0.950000 0.815000 0.461393
v 0.950000 0.815000 0.461393
v -0.950000 0.783124 0.461393
v 0.950000 0.783124 0.461393
v -0.950000 0.783124 0.303905
v 0.950000 0.783124 0.303905
v -0.950000 1.098393 0.419841
v -0.950000 1.283393 0.318772
v 0.950000 1.098393 0.419841
v 0.950000 1.283393 0.318772
v -0.950000 1.315000 0.419841
v -0.950000 1.500000 0.318772
v 0.950000 1.315000 0.419841
v 0.950000 1.500000 0.318772
v -0.950000 1.315000 0.461393
v 0.950000 1.315000 0.461393
v -0.950000 1.283124 0.461393
v 0.950000 1.283124 0.461393
v -0.950000 1.283124 0.303905
v 0.950000 1.283124 0.303905
v -0.950000 1.500000 0.099279
v 0.950000 1.500000 0.099279
v -0.950000 0.300000 0.419841
v -0.950000 0.485000 0.318772
v 0.950000 0.300000 0.419841
v 0.950000 0.485000 0.318772
v -0.950000 0.300000 0.461393
v 0.950000 0.300000 0.461393
v -0.950000 0.268124 0.461393
v 0.950000 0.268124 0.461393
v -0.950000 0.268124 0.303905
v 0.950000 0.268124 0.303905
v 0.000000 0.300000 0.419841
v 0.000000 0.485000 0.318772
v 0.000000 0.300000 0.461393
v 0.000000 0.268124 0.461393
v 0.000000 0.268124 0.303905
v 0.000000 0.100000 0.419841
v 0.000000 0.285000 0.318772
v 0.000000 0.815000 0.419841
v 0.000000 1.000000 0.318772
v 0.000000 0.815000 0.461393
v 0.000000 0.783124 0.461393
v 0.000000 0.783124 0.303905
v 0.000000 0.600000 0.419841
v 0.000000 0.785000 0.318772
v 0.000000 1.098393 0.419841
v 0.000000 1.283393 0.318772
v 0.000000 1.315000 0.419841
v 0.000000 1.500000 0.318772
v 0.000000 1.315000 0.461393
v 0.000000 1.283124 0.461393
v 0.000000 1.283124 0.303905
v 0.000000 1.500000 0.099279
vt 0.909975 0.082367
vt 0.908520 0.234869
vt 0.113330 0.236539
vt 0.114786 0.084037
vt 0.910135 0.236317
vt 0.910121 0.389242
vt 0.112428 0.389230
vt 0.112442 0.236305
vt 0.791376 0.542471
vt 0.791621 0.694151
vt 0.003385 0.692867
vt 0.003141 0.541188
vt 0.939884 0.495346
vt 0.939884 0.127214
vt 0.955986 0.127214
vt 0.955986 0.495346
vt 0.968338 0.127214
vt 0.968339 0.495346
vt 0.936154 0.529453
vt 0.936154 0.232879
vt 0.985320 0.232879
vt 0.985320 0.529453
vt 0.908623 0.387835
vt 0.909367 0.540057
vt 0.111357 0.540331
vt 0.110613 0.388110
vt 0.796998 0.539248
vt 0.797470 0.695917
vt 0.001399 0.694362
vt 0.003852 0.538882
vt 0.946059 0.540235
vt 0.946059 0.203244
vt 0.960799 0.203244
vt 0.960799 0.540235
vt 0.937131 0.501549
vt 0.937131 0.304932
vt 0.943728 0.304932
vt 0.943728 0.501549
vt 0.976323 0.304932
vt 0.976323 0.501549
vt 0.971567 0.941561
vt 0.971567 0.965219
vt 0.966101 0.965219
vt 0.966101 0.941561
vt 0.910309 0.844922
vt 0.909739 0.996890
vt 0.114334 0.996381
vt 0.114904 0.844413
vt 0.959340 0.496897
vt 0.959340 0.127402
vt 0.975502 0.127402
vt 0.975501 0.496897
vt 0.959474 0.509306
vt 0.959475 0.834336
vt 0.948569 0.834336
vt 0.948568 0.509306
vt 0.930429 0.504650
vt 0.930429 0.176400
vt 0.984845 0.176400
vt 0.984845 0.504650
vt 0.930428 0.832901
vt 0.984845 0.832901
vt 0.959475 0.184266
vt 0.948568 0.184266
vt 0.959340 0.866397
vt 0.975502 0.866397
vt 0.795734 0.083068
vt 0.795164 0.237602
vt 0.002854 0.238632
vt 0.003424 0.084098
vt 0.909706 0.385166
vt 0.909798 0.543166
vt 0.114608 0.543243
vt 0.114516 0.385243
vt 0.936154 0.826028
vt 0.985320 0.826028
vt 0.955986 0.863485
vt 0.968339 0.863485
vt 0.939883 0.863485
vt 0.908992 0.236590
vt 0.909236 0.388270
vt 0.116358 0.388534
vt 0.116113 0.236854
vt 0.796301 0.386153
vt 0.796287 0.539674
vt 0.006332 0.541211
vt 0.006345 0.387689
vt 0.796271 0.086247
vt 0.797015 0.237732
vt 0.002361 0.234321
vt 0.001616 0.082836
vt 0.971567 0.917903
vt 0.966101 0.917903
vt 0.943728 0.698168
vt 0.976323 0.698168
vt 0.937130 0.698168
vt 0.946059 0.877231
vt 0.960799 0.877231
vt 0.797433 0.843385
vt 0.796142 0.995180
vt 0.004180 0.997739
vt 0.005471 0.845945
vn 0.0000 0.4794 0.8776
vn 0.0000 1.0000 0.0000
vn 0.0000 0.0000 1.0000
vn 0.0000 -1.0000 0.0000
usemtl Material
s off
f 50/1/1 51/2/1 2/3/1 1/4/1
f 57/5/1 58/6/1 6/7/1 5/8/1
f 52/9/1 53/10/1 10/11/1 9/12/1
f 52/13/2 9/14/2 13/15/2 54/16/2
f 54/16/3 13/15/3 15/17/3 55/18/3
f 55/19/4 15/20/4 17/21/4 56/22/4
f 59/23/1 60/24/1 20/25/1 19/26/1
f 61/27/1 62/28/1 24/29/1 23/30/1
f 61/31/2 23/32/2 27/33/2 63/34/2
f 63/35/3 27/36/3 29/37/3 64/38/3
f 64/38/4 29/37/4 31/39/4 65/40/4
f 62/41/2 26/42/2 34/43/2 66/44/2
f 45/45/1 46/46/1 36/47/1 35/48/1
f 45/49/2 35/50/2 39/51/2 47/52/2
f 47/53/3 39/54/3 41/55/3 48/56/3
f 48/57/4 41/58/4 43/59/4 49/60/4
f 42/61/4 48/57/4 49/60/4 44/62/4
f 40/63/3 47/53/3 48/56/3 42/64/3
f 37/65/2 45/49/2 47/52/2 40/66/2
f 37/67/1 38/68/1 46/69/1 45/70/1
f 3/71/1 4/72/1 51/73/1 50/74/1
f 16/75/4 55/19/4 56/22/4 18/76/4
f 14/77/3 54/16/3 55/18/3 16/78/3
f 11/79/2 52/13/2 54/16/2 14/77/2
f 11/80/1 12/81/1 53/82/1 52/83/1
f 7/84/1 8/85/1 58/86/1 57/87/1
f 21/88/1 22/89/1 60/90/1 59/91/1
f 24/92/2 62/41/2 66/44/2 33/93/2
f 30/94/4 64/38/4 65/40/4 32/95/4
f 28/96/3 63/35/3 64/38/3 30/94/3
f 25/97/2 61/31/2 63/34/2 28/98/2
f 25/99/1 26/100/1 62/101/1 61/102/1
