# Blender v2.83.2 OBJ File: 's_Movies.blend'
# www.blender.org
mtllib s_Movies.mtl
o Cube_Cube.007
v -0.950000 0.600000 0.419841
v -0.950000 0.785000 0.318772
v 0.950000 0.600000 0.419841
v 0.950000 0.785000 0.318772
vt 0.375000 0.750000
vt 0.625000 0.750000
vt 0.625000 1.000000
vt 0.375000 1.000000
vn 0.0000 0.4794 0.8776
usemtl None
s off
f 3/1/1 4/2/1 2/3/1 1/4/1
o Cube.001
v -0.950000 0.815000 0.419841
v -0.950000 1.000000 0.318772
v 0.950000 0.815000 0.419841
v 0.950000 1.000000 0.318772
v -0.950000 0.815000 0.461393
v 0.950000 0.815000 0.461393
v -0.950000 0.783124 0.461393
v 0.950000 0.783124 0.461393
v -0.950000 0.783124 0.303905
v 0.950000 0.783124 0.303905
vt 0.375000 0.750000
vt 0.625000 0.750000
vt 0.625000 1.000000
vt 0.375000 1.000000
vt 0.375000 1.000000
vt 0.375000 0.750000
vt 0.375000 1.000000
vt 0.375000 0.750000
vt 0.375000 1.000000
vt 0.375000 0.750000
vn 0.0000 0.4794 0.8776
vn 0.0000 1.0000 0.0000
vn 0.0000 0.0000 1.0000
vn 0.0000 -1.0000 0.0000
usemtl None
s off
f 7/5/2 8/6/2 6/7/2 5/8/2
f 7/5/3 5/8/3 9/9/3 10/10/3
f 10/10/4 9/9/4 11/11/4 12/12/4
f 12/12/5 11/11/5 13/13/5 14/14/5
o Cube.002
v -0.950000 1.098393 0.419841
v -0.950000 1.283393 0.318772
v 0.950000 1.098393 0.419841
v 0.950000 1.283393 0.318772
vt 0.375000 0.750000
vt 0.625000 0.750000
vt 0.625000 1.000000
vt 0.375000 1.000000
vn 0.0000 0.4794 0.8776
usemtl None
s off
f 17/15/6 18/16/6 16/17/6 15/18/6
o Cube.003
v -0.950000 1.315000 0.419841
v -0.950000 1.500000 0.318772
v 0.950000 1.315000 0.419841
v 0.950000 1.500000 0.318772
v -0.950000 1.315000 0.461393
v 0.950000 1.315000 0.461393
v -0.950000 1.283124 0.461393
v 0.950000 1.283124 0.461393
v -0.950000 1.283124 0.303905
v 0.950000 1.283124 0.303905
v -0.950000 1.500000 0.099279
v 0.950000 1.500000 0.099279
vt 0.375000 0.750000
vt 0.625000 0.750000
vt 0.625000 1.000000
vt 0.375000 1.000000
vt 0.375000 1.000000
vt 0.375000 0.750000
vt 0.375000 1.000000
vt 0.375000 0.750000
vt 0.375000 1.000000
vt 0.375000 0.750000
vt 0.625000 0.750000
vt 0.625000 1.000000
vn 0.0000 0.4794 0.8776
vn 0.0000 1.0000 0.0000
vn 0.0000 0.0000 1.0000
vn 0.0000 -1.0000 0.0000
usemtl None
s off
f 21/19/7 22/20/7 20/21/7 19/22/7
f 21/19/8 19/22/8 23/23/8 24/24/8
f 24/24/9 23/23/9 25/25/9 26/26/9
f 26/26/10 25/25/10 27/27/10 28/28/10
f 20/21/8 22/20/8 30/29/8 29/30/8
o Cube.004
v -0.950000 0.100000 0.419841
v -0.950000 0.285000 0.318772
v 0.950000 0.100000 0.419841
v 0.950000 0.285000 0.318772
vt 0.375000 0.750000
vt 0.625000 0.750000
vt 0.625000 1.000000
vt 0.375000 1.000000
vn 0.0000 0.4794 0.8776
usemtl None
s off
f 33/31/11 34/32/11 32/33/11 31/34/11
o Cube.005_Cube.019
v -0.950000 0.300000 0.419841
v -0.950000 0.485000 0.318772
v 0.950000 0.300000 0.419841
v 0.950000 0.485000 0.318772
v -0.950000 0.300000 0.461393
v 0.950000 0.300000 0.461393
v -0.950000 0.268124 0.461393
v 0.950000 0.268124 0.461393
v -0.950000 0.268124 0.303905
v 0.950000 0.268124 0.303905
vt 0.375000 0.750000
vt 0.625000 0.750000
vt 0.625000 1.000000
vt 0.375000 1.000000
vt 0.375000 1.000000
vt 0.375000 0.750000
vt 0.375000 1.000000
vt 0.375000 0.750000
vt 0.375000 1.000000
vt 0.375000 0.750000
vn 0.0000 0.4794 0.8776
vn 0.0000 1.0000 0.0000
vn 0.0000 0.0000 1.0000
vn 0.0000 -1.0000 0.0000
usemtl None
s off
f 37/35/12 38/36/12 36/37/12 35/38/12
f 37/35/13 35/38/13 39/39/13 40/40/13
f 40/40/14 39/39/14 41/41/14 42/42/14
f 42/42/15 41/41/15 43/43/15 44/44/15
