# Blender v2.83.2 OBJ File: 'plane.blend'
# www.blender.org
mtllib s_plane.mtl
o Cube
v 0.059774 0.077851 -0.017348
v 0.131010 0.058676 -0.010859
v 0.059904 0.076732 0.011623
v 0.131010 0.058676 0.005134
v -0.086801 0.029392 -0.009720
v -0.105869 0.006532 -0.012177
v -0.086801 0.029392 0.003282
v -0.105906 0.006702 0.006452
v -0.104987 0.002474 -0.002862
v 0.057630 0.026873 -0.012177
v 0.124585 0.074047 -0.011888
v -0.148726 0.006240 0.008358
v 0.124585 0.074047 0.006163
v -0.148726 0.006240 -0.014083
v -0.011185 0.065723 0.011623
v 0.073554 0.082125 -0.002862
v 0.057630 0.026873 0.006452
v -0.087463 0.032436 -0.002862
v -0.011185 0.065723 -0.017348
v 0.131010 0.058676 -0.002862
v 0.018072 0.048704 -0.033404
v 0.124585 0.074047 -0.002862
v 0.057630 0.026873 -0.002862
v -0.148726 0.006240 -0.002862
v 0.018072 0.048704 0.027679
v 0.020251 0.074255 -0.002862
v 0.069977 0.016432 0.017449
v 0.062524 0.032183 0.006415
v 0.069956 0.016680 -0.022675
v 0.062524 0.032183 -0.012557
v 0.083362 0.016982 0.017449
v 0.076323 0.035644 0.006415
v 0.083340 0.017230 -0.022675
v 0.076323 0.035644 -0.012557
v 0.070579 0.009480 0.017200
v 0.083964 0.010030 0.017200
v 0.070579 0.009480 -0.022535
v 0.083964 0.010030 -0.022535
v 0.063262 0.024399 0.003583
v 0.079347 0.028434 0.003583
v 0.063262 0.024399 -0.010894
v 0.079347 0.028434 -0.010894
v 0.061744 0.005485 0.024162
v 0.068493 0.026656 0.024162
v 0.061744 0.005485 0.016839
v 0.068493 0.026656 0.016839
v 0.082050 -0.000053 0.024162
v 0.088453 0.019561 0.024162
v 0.082050 -0.000053 0.016839
v 0.088453 0.019561 0.016839
v 0.061744 0.018840 0.024162
v 0.061744 0.018840 0.016839
v 0.068695 -0.000053 0.016839
v 0.081848 0.026656 0.016839
v 0.088453 0.006206 0.016839
v 0.088453 0.006206 0.024162
v 0.068695 -0.000053 0.024162
v 0.081848 0.026656 0.024162
v 0.061744 0.005485 -0.022439
v 0.068493 0.026656 -0.022439
v 0.061744 0.005485 -0.029763
v 0.068493 0.026656 -0.029763
v 0.082050 -0.000053 -0.022439
v 0.088453 0.019561 -0.022439
v 0.082050 -0.000053 -0.029763
v 0.088453 0.019561 -0.029763
v 0.061744 0.018840 -0.022439
v 0.061744 0.018840 -0.029763
v 0.068695 -0.000053 -0.029763
v 0.081848 0.026656 -0.029763
v 0.088453 0.006206 -0.029763
v 0.088453 0.006206 -0.022439
v 0.068695 -0.000053 -0.022439
v 0.081848 0.026656 -0.022439
v -0.145831 0.005287 0.002261
v -0.162366 0.051795 0.002261
v -0.145831 0.005287 -0.007986
v -0.162366 0.051795 -0.007986
v -0.120565 0.014269 0.002261
v -0.134446 0.050922 0.002261
v -0.120565 0.014269 -0.007986
v -0.134446 0.050922 -0.007986
v -0.149240 0.006216 -0.007607
v -0.148905 0.006245 0.041752
v -0.149830 0.013026 -0.007607
v -0.149494 0.013055 0.041752
v -0.122525 0.008529 -0.007790
v -0.125407 0.008279 0.039416
v -0.123115 0.015338 -0.007790
v -0.125997 0.015089 0.039416
v -0.149307 0.006210 -0.052466
v -0.148838 0.006251 -0.003108
v -0.149896 0.013020 -0.052466
v -0.149427 0.013060 -0.003108
v -0.124380 0.008368 -0.046621
v -0.122123 0.008563 -0.003364
v -0.124969 0.015178 -0.046621
v -0.122713 0.015373 -0.003364
v -0.043729 0.080678 0.122123
v -0.042260 0.073919 0.122123
v -0.043729 0.080678 -0.127848
v -0.042260 0.073919 -0.127848
v 0.061030 0.103443 0.122123
v 0.062499 0.096684 0.122123
v 0.061030 0.103443 -0.127848
v 0.062499 0.096684 -0.127848
v 0.029927 0.059908 0.014439
v 0.034062 0.057663 0.017582
v 0.023381 0.090030 0.051266
v 0.036462 0.061223 0.014544
v 0.027517 0.087785 0.054409
v 0.029916 0.091345 0.051371
v 0.000050 0.053415 0.014439
v 0.004185 0.051171 0.017582
v -0.006496 0.083537 0.051266
v 0.006585 0.054731 0.014544
v -0.002361 0.081293 0.054409
v 0.000039 0.084852 0.051371
v 0.029927 0.059908 -0.020164
v 0.034062 0.057663 -0.023307
v 0.023381 0.090030 -0.056991
v 0.036462 0.061223 -0.020269
v 0.027517 0.087785 -0.060134
v 0.029916 0.091345 -0.057096
v 0.000050 0.053415 -0.020164
v 0.004185 0.051171 -0.023307
v -0.006496 0.083537 -0.056991
v 0.006585 0.054731 -0.020269
v -0.002361 0.081293 -0.060134
v 0.000039 0.084852 -0.057096
v 0.117599 0.100663 -0.041314
v 0.148053 0.039894 0.041110
v 0.118221 0.093485 -0.046835
v 0.148675 0.032716 0.035589
v 0.140718 0.072643 -0.008060
v 0.141614 0.062286 -0.008060
v 0.140718 0.072643 0.002335
v 0.141614 0.062286 0.002335
v 0.122732 0.071086 -0.008060
v 0.123628 0.060729 -0.008060
v 0.122732 0.071086 0.002335
v 0.123628 0.060729 0.002335
vt 0.407413 -0.904897
vt -0.499719 -0.960407
vt -0.495747 -1.023058
vt 0.151684 -1.068099
vt -0.112468 -0.560561
vt 0.103020 -0.775372
vt 0.739271 -0.495517
vt 1.257646 -0.324860
vt -1.018357 -0.992294
vt -0.500162 -0.890682
vt -1.022166 -0.878057
vt -0.376515 -1.213669
vt -1.009704 -1.251465
vt -1.006982 -1.332884
vt -0.373345 -1.308504
vt 1.240620 -0.856441
vt 0.841999 -0.879100
vt 0.731852 -1.033628
vt 1.243685 -0.948337
vt 0.326488 -0.036459
vt 0.130849 -0.279186
vt 0.710775 -0.244730
vt 1.217940 -0.068680
vt 0.611032 0.254070
vt 1.243419 0.097479
vt -0.712513 0.099125
vt -1.051849 0.009586
vt -0.522958 -0.087887
vt 1.403678 1.120531
vt 1.409120 0.951726
vt 1.481913 0.956051
vt 1.468171 1.124363
vt 1.339185 1.116699
vt 1.336327 0.947401
vt 1.237556 -0.764545
vt 0.722224 -0.738581
vt 0.946756 -1.135175
vt 0.949829 -1.230065
vt 0.943494 -1.040394
vt -0.379684 -1.118835
vt -1.012425 -1.170046
vt 1.284763 -1.115242
vt 1.280945 -1.001003
vt 1.288581 -1.229481
vt -1.014548 -1.106531
vt -0.416115 -0.311685
vt 0.913289 -0.284546
vt -1.032986 -0.554841
vt -0.994701 -0.716502
vt -0.476845 -0.809825
vt 0.141848 -0.773138
vt 1.393654 1.807117
vt 1.359578 1.936373
vt 1.303568 1.916320
vt 1.337644 1.787065
vt 1.535928 1.798846
vt 1.522627 1.942572
vt 1.338452 1.625876
vt 1.317896 1.491749
vt 1.464821 1.500479
vt 1.463067 1.669337
vt 1.423024 -0.041918
vt 1.257367 -0.054790
vt 1.253348 -0.199600
vt 1.397384 -0.174673
vt 1.452427 -0.187772
vt 1.478067 -0.055018
vt 1.442926 2.319004
vt 1.411966 2.449520
vt 1.284851 2.478379
vt 1.296334 2.310294
vt 1.474358 -0.347054
vt 1.608060 -0.339110
vt 1.603138 -0.191710
vt 1.469436 -0.199654
vt 1.263009 0.840930
vt 1.159756 0.641483
vt 1.042999 0.634546
vt 0.942551 0.821890
vt 0.944009 0.749883
vt 1.032145 0.554530
vt 1.185148 0.563621
vt 1.267519 0.771591
vt 1.334017 0.057333
vt 1.487038 0.066424
vt 1.563035 0.236944
vt 1.559450 0.310421
vt 1.470972 0.145215
vt 1.354203 0.138277
vt 1.238956 0.291378
vt 1.239316 0.220251
vt 0.366307 0.610844
vt 0.361584 0.746462
vt 0.305815 0.815352
vt 0.198132 0.808954
vt 0.146474 0.726341
vt 0.151197 0.590724
vt 0.209206 0.537816
vt 0.316889 0.544214
vt 1.271610 0.649167
vt 1.328494 0.572993
vt 1.436129 0.579389
vt 1.487110 0.654630
vt 1.482864 0.790292
vt 1.429265 0.850809
vt 1.321630 0.844413
vt 1.267364 0.784828
vt 1.529351 1.523802
vt 1.526865 1.598368
vt 1.465568 1.594679
vt 1.468054 1.520114
vt 1.634546 1.530006
vt 1.632060 1.604571
vt 1.437325 2.487352
vt 1.439792 2.412786
vt 1.490770 2.415901
vt 1.488304 2.490467
vt 1.595267 2.496736
vt 1.597734 2.422170
vt 1.478775 1.049959
vt 1.541422 1.054004
vt 1.539018 1.128572
vt 1.476371 1.124528
vt 1.648106 1.060020
vt 1.645703 1.134588
vt 1.588563 0.715368
vt 1.591069 0.640812
vt 1.661416 0.644359
vt 1.658911 0.718915
vt 1.485594 0.708618
vt 1.488099 0.634062
vt 1.485442 -0.678633
vt 1.480719 -0.543015
vt 1.424950 -0.474125
vt 1.317267 -0.480523
vt 1.265610 -0.563136
vt 1.270332 -0.698753
vt 1.328342 -0.751662
vt 1.436024 -0.745263
vt 0.220303 0.568979
vt 0.277187 0.492806
vt 0.384822 0.499201
vt 0.435803 0.574442
vt 0.431557 0.710104
vt 0.377958 0.770621
vt 0.270323 0.764226
vt 0.216057 0.704641
vt 1.526857 1.598414
vt 1.524371 1.672979
vt 1.463075 1.669291
vt 1.465561 1.594725
vt 1.632053 1.604617
vt 1.629567 1.679183
vt 1.439819 2.412701
vt 1.442286 2.338135
vt 1.493266 2.341249
vt 1.490798 2.415816
vt 1.597762 2.422085
vt 1.600229 2.347519
vt 1.481277 0.975073
vt 1.543924 0.979118
vt 1.541521 1.053687
vt 1.478874 1.049642
vt 1.650609 0.985134
vt 1.648206 1.059703
vt 1.586051 0.790556
vt 1.588556 0.716000
vt 1.658903 0.719547
vt 1.656398 0.794103
vt 1.483081 0.783805
vt 1.485587 0.709250
vt 1.248425 -0.052292
vt 1.636686 -0.029223
vt 1.633232 0.075110
vt 1.244971 0.052042
vt 0.923782 1.364214
vt 1.321369 1.387837
vt 1.229919 1.647331
vt 0.914001 1.636714
vt 1.587482 -0.736264
vt 1.272022 -0.755008
vt 1.275590 -0.859323
vt 1.591049 -0.840580
vt 1.293821 2.205727
vt 0.978558 2.178837
vt 0.904889 1.909357
vt 1.302341 1.932972
vt 1.539946 1.504942
vt 1.317896 1.491749
vt 1.321474 1.387424
vt 1.543523 1.400618
vt 1.277842 -0.928885
vt 1.675966 -0.905231
vt 1.673633 -0.835673
vt 1.275509 -0.859328
vt 1.303010 1.933012
vt 0.904894 1.909198
vt 0.930457 1.670291
vt 1.312123 1.660368
vt 1.311088 1.717309
vt 1.691484 1.739910
vt 1.688344 1.807902
vt 1.307947 1.785300
vt 1.321695 1.386903
vt 0.942189 1.331835
vt 0.932557 1.092539
vt 1.330686 1.116194
vt 1.671724 0.865214
vt 1.480994 0.853882
vt 1.483060 0.784437
vt 1.673790 0.795769
vt 1.675951 -0.905232
vt 1.277833 -0.928885
vt 1.280172 -0.998443
vt 1.678289 -0.974788
vt 0.895774 2.182077
vt 1.293896 2.205732
vt 1.284851 2.478379
vt 0.936419 2.438806
vt 1.292755 2.241897
vt 1.641911 2.262642
vt 1.640053 2.330716
vt 1.290897 2.309971
vt 1.282307 1.094583
vt 0.932624 1.092543
vt 0.941605 0.821834
vt 1.339733 0.845489
vt 1.681908 -0.449441
vt 1.478186 -0.461546
vt 1.481181 -0.530945
vt 1.684903 -0.518840
vt -1.005882 -1.365808
vt -1.003467 -1.435981
vt 1.012530 -1.316200
vt 1.010114 -1.246027
vt 0.953750 0.458428
vt 0.956239 0.388158
vt 1.820262 0.439494
vt 1.817773 0.509764
vt -1.003537 -1.435986
vt -1.001184 -1.506086
vt 1.015038 -1.386292
vt 1.012686 -1.316191
vt 1.821953 0.369157
vt 1.819778 0.439465
vt 0.956272 0.388160
vt 0.958448 0.317852
vt 0.923139 1.363223
vt 0.886662 2.454720
vt -1.129562 2.334925
vt -1.093086 1.243428
vt 0.959887 0.274798
vt 0.923099 1.363220
vt -1.093086 1.243427
vt -1.056297 0.155005
vt 1.321695 1.386903
vt 1.326503 1.319369
vt 1.622548 1.336958
vt 1.617740 1.404493
vt 1.289933 -1.133018
vt 1.286723 -1.173886
vt 1.673749 -1.150891
vt 1.676958 -1.110023
vt 1.350582 0.339882
vt 1.357464 0.298419
vt 1.744070 0.321390
vt 1.737187 0.362852
vt 1.637180 0.897457
vt 1.632372 0.964991
vt 1.336327 0.947401
vt 1.341135 0.879867
vt 1.672392 -1.110294
vt 1.675601 -1.069427
vt 1.288576 -1.092422
vt 1.285367 -1.133290
vt 0.958491 0.316586
vt 0.965373 0.275123
vt 1.351978 0.298094
vt 1.345096 0.339556
vt 1.622991 1.268990
vt 1.621698 1.336908
vt 1.324932 1.319275
vt 1.326225 1.251358
vt 1.716676 1.161207
vt 1.717237 1.206595
vt 1.330567 1.183621
vt 1.330006 1.138232
vt 1.280945 -1.001003
vt 1.284288 -1.047321
vt 1.670833 -1.024354
vt 1.667491 -0.978037
vt 1.327200 1.251415
vt 1.328493 1.183498
vt 1.625259 1.201130
vt 1.623966 1.269048
vt 1.670680 -1.069719
vt 1.671241 -1.024330
vt 1.284571 -1.047304
vt 1.284010 -1.092692
vt 1.310221 1.717257
vt 1.313563 1.670940
vt 1.700109 1.693907
vt 1.696767 1.740224
vt 0.083750 0.458428
vt 0.941638 0.509400
vt 0.939676 0.600728
vt 0.081788 0.549756
vt 1.560578 0.310481
vt 1.564114 0.204690
vt 1.647965 0.209679
vt 1.644429 0.315470
vt 1.484280 -0.636568
vt 1.487566 -0.742201
vt 1.633036 -0.733558
vt 1.629751 -0.627925
vt 1.480507 -0.530984
vt 1.484213 -0.636573
vt 1.629758 -0.627925
vt 1.626052 -0.522337
vt 1.621898 -0.030102
vt 1.477521 -0.038680
vt 1.481071 -0.144526
vt 1.625448 -0.135947
vt 1.477924 -0.452895
vt 1.623335 -0.444256
vt 1.619770 -0.338414
vt 1.474358 -0.347054
vn -0.3888 0.9190 -0.0644
vn -0.2843 0.6172 0.7337
vn -0.3615 0.9172 -0.1677
vn 0.3977 -0.9175 0.0000
vn 0.1020 0.9551 0.2783
vn 0.0062 0.4757 -0.8796
vn 0.2120 -0.2952 -0.9316
vn 0.0673 -0.5993 -0.7977
vn -0.2798 0.6060 -0.7446
vn 0.9226 0.3857 0.0000
vn 0.1102 0.9645 -0.2399
vn 0.1319 -0.9653 0.2256
vn 0.1327 -0.9671 -0.2170
vn -0.0351 -0.9807 -0.1923
vn -0.0330 -0.9792 0.2001
vn -0.3600 0.9165 0.1744
vn 0.0675 -0.6015 0.7960
vn 0.2120 -0.2952 0.9316
vn 0.0049 0.4916 0.8708
vn -0.1458 0.9610 0.2349
vn -0.1561 0.9702 -0.1852
vn -0.3892 0.9190 0.0627
vn 0.0008 -0.0194 -0.9998
vn -0.0720 0.4882 -0.8697
vn 0.0855 -0.5499 0.8309
vn -0.0760 0.5154 0.8536
vn 0.0015 -0.0357 0.9994
vn 0.0948 -0.6094 -0.7872
vn 0.2433 -0.9699 0.0000
vn 0.9516 0.3072 0.0019
vn -0.9910 -0.1342 -0.0022
vn -0.0000 0.0000 1.0000
vn 0.0000 0.0000 -1.0000
vn 0.6990 -0.7151 0.0000
vn -0.0000 -1.0000 0.0000
vn -0.6231 -0.7821 0.0000
vn -1.0000 -0.0000 0.0000
vn -0.7569 0.6535 0.0000
vn -0.0000 1.0000 0.0000
vn 0.7319 0.6814 0.0000
vn 1.0000 0.0000 0.0000
vn -0.9422 -0.3350 0.0000
vn 0.9352 0.3542 0.0000
vn 0.0312 0.9995 0.0000
vn -0.9963 -0.0862 0.0068
vn -0.0862 0.9963 -0.0000
vn 0.9944 0.0861 0.0612
vn 0.0863 -0.9963 -0.0000
vn 0.0982 0.0085 0.9951
vn -0.9962 -0.0862 0.0095
vn 0.9949 0.0861 -0.0523
vn 0.2266 0.0196 -0.9738
vn 0.9772 0.2124 0.0000
vn -0.9772 -0.2124 0.0000
vn 0.2124 -0.9772 0.0000
vn -0.2124 0.9772 0.0000
vn -0.1414 0.7538 -0.6417
vn 0.8842 -0.2721 0.3797
vn -0.6545 -0.6381 0.4055
vn 0.1414 -0.7538 -0.6417
vn -0.8842 0.2721 0.3797
vn 0.6545 0.6381 0.4055
vn 0.9561 0.2262 -0.1865
vn -0.9963 -0.0863 0.0000
vn 0.0862 -0.9963 0.0000
usemtl Material
s off
f 26/1/1 18/2/1 7/3/1 15/4/1
f 25/5/2 15/6/2 7/7/2 12/8/2
f 24/9/3 18/2/3 5/10/3 14/11/3
f 23/12/4 20/13/4 4/14/4 17/15/4
f 22/16/5 16/17/5 3/18/5 13/19/5
f 21/20/6 19/21/6 1/22/6 11/23/6
f 10/24/7 21/20/7 11/23/7 2/25/7
f 6/26/8 14/27/8 21/20/8 10/24/8
f 14/27/9 5/28/9 19/21/9 21/20/9
f 20/29/10 22/30/10 13/31/10 4/32/10
f 2/33/10 11/34/10 22/30/10 20/29/10
f 11/35/11 1/36/11 16/17/11 22/16/11
f 9/37/12 23/12/12 17/15/12 8/38/12
f 6/39/13 10/40/13 23/12/13 9/37/13
f 10/40/4 2/41/4 20/13/4 23/12/4
f 9/37/14 24/42/14 14/43/14 6/39/14
f 8/38/15 12/44/15 24/42/15 9/37/15
f 12/45/16 7/3/16 18/2/16 24/9/16
f 17/46/17 25/5/17 12/8/17 8/47/17
f 4/48/18 13/49/18 25/5/18 17/46/18
f 13/49/19 3/50/19 15/6/19 25/5/19
f 16/17/20 26/1/20 15/4/20 3/18/20
f 1/36/21 19/51/21 26/1/21 16/17/21
f 19/51/22 5/10/22 18/2/22 26/1/22
f 29/52/23 33/53/23 38/54/23 37/55/23
f 29/52/24 30/56/24 34/57/24 33/53/24
f 37/58/25 38/59/25 42/60/25 41/61/25
f 31/62/26 32/63/26 28/64/26 27/65/26
f 31/62/27 27/65/27 35/66/27 36/67/27
f 36/68/28 35/69/28 39/70/28 40/71/28
f 41/72/29 42/73/29 40/74/29 39/75/29
f 36/76/30 40/77/30 42/78/30 38/79/30 33/80/30 34/81/30 32/82/30 31/83/30
f 28/84/31 30/85/31 29/86/31 37/87/31 41/88/31 39/89/31 35/90/31 27/91/31
f 56/92/32 48/93/32 58/94/32 44/95/32 51/96/32 43/97/32 57/98/32 47/99/32
f 52/100/33 46/101/33 54/102/33 50/103/33 55/104/33 49/105/33 53/106/33 45/107/33
f 47/108/34 49/109/34 55/110/34 56/111/34
f 47/108/35 57/112/35 53/113/35 49/109/35
f 53/114/36 57/115/36 43/116/36 45/117/36
f 52/118/37 45/117/37 43/116/37 51/119/37
f 51/120/38 44/121/38 46/122/38 52/123/38
f 44/121/39 58/124/39 54/125/39 46/122/39
f 48/126/40 50/127/40 54/128/40 58/129/40
f 48/126/41 56/130/41 55/131/41 50/127/41
f 72/132/32 64/133/32 74/134/32 60/135/32 67/136/32 59/137/32 73/138/32 63/139/32
f 68/140/33 62/141/33 70/142/33 66/143/33 71/144/33 65/145/33 69/146/33 61/147/33
f 63/148/34 65/149/34 71/150/34 72/151/34
f 63/148/35 73/152/35 69/153/35 65/149/35
f 69/154/36 73/155/36 59/156/36 61/157/36
f 68/158/37 61/157/37 59/156/37 67/159/37
f 67/160/38 60/161/38 62/162/38 68/163/38
f 60/161/39 74/164/39 70/165/39 62/162/39
f 64/166/40 66/167/40 70/168/40 74/169/40
f 64/166/41 72/170/41 71/171/41 66/167/41
f 75/172/42 76/173/42 78/174/42 77/175/42
f 77/176/33 78/177/33 82/178/33 81/179/33
f 81/180/43 82/181/43 80/182/43 79/183/43
f 79/184/32 80/185/32 76/186/32 75/187/32
f 82/188/44 78/189/44 76/190/44 80/191/44
f 83/192/45 84/193/45 86/194/45 85/195/45
f 85/196/46 86/197/46 90/198/46 89/199/46
f 89/200/47 90/201/47 88/202/47 87/203/47
f 87/204/48 88/205/48 84/206/48 83/207/48
f 90/208/49 86/209/49 84/210/49 88/211/49
f 91/212/50 92/213/50 94/214/50 93/215/50
f 93/216/46 94/217/46 98/218/46 97/219/46
f 97/220/51 98/221/51 96/222/51 95/223/51
f 95/224/48 96/225/48 92/226/48 91/227/48
f 93/228/52 97/229/52 95/230/52 91/231/52
f 99/232/53 100/233/53 102/234/53 101/235/53
f 101/236/32 102/237/32 106/238/32 105/239/32
f 105/240/54 106/241/54 104/242/54 103/243/54
f 103/244/33 104/245/33 100/246/33 99/247/33
f 101/248/55 105/249/55 103/250/55 99/251/55
f 106/252/56 102/253/56 100/254/56 104/255/56
f 110/256/57 107/257/57 109/258/57 112/259/57
f 108/260/58 110/261/58 112/262/58 111/263/58
f 107/264/59 108/265/59 111/266/59 109/267/59
f 116/268/57 113/269/57 115/270/57 118/271/57
f 114/272/58 116/273/58 118/274/58 117/275/58
f 113/276/59 114/277/59 117/278/59 115/279/59
f 122/280/60 119/281/60 121/282/60 124/283/60
f 120/284/61 122/285/61 124/286/61 123/287/61
f 119/288/62 120/289/62 123/290/62 121/291/62
f 128/292/60 125/293/60 127/294/60 130/295/60
f 126/296/61 128/297/61 130/298/61 129/299/61
f 125/300/62 126/301/62 129/302/62 127/303/62
f 131/304/63 132/305/63 134/306/63 133/307/63
f 135/308/64 136/309/64 138/310/64 137/311/64
f 137/312/33 138/313/33 142/314/33 141/315/33
f 139/316/32 140/317/32 136/318/32 135/319/32
f 137/320/65 141/321/65 139/322/65 135/323/65
f 142/324/46 138/325/46 136/326/46 140/327/46
