# Blender v2.83.2 OBJ File: 's_plane1.blend'
# www.blender.org
mtllib s_plane1.mtl
o Cube
v 0.059774 0.077851 -0.017348
v 0.131010 0.058676 -0.010859
v 0.059904 0.076732 0.011623
v 0.131010 0.058676 0.005134
v -0.086801 0.029392 -0.009720
v -0.105869 0.006532 -0.012177
v -0.086801 0.029392 0.003282
v -0.105906 0.006702 0.006452
v 0.057630 0.026873 -0.012177
v 0.124585 0.074047 -0.011888
v -0.148726 0.006240 0.008358
v 0.124585 0.074047 0.006163
v -0.148726 0.006240 -0.014083
v -0.011185 0.065723 0.011623
v 0.057630 0.026873 0.006452
v -0.011185 0.065723 -0.017348
v 0.018072 0.048704 -0.033404
v 0.018072 0.048704 0.027679
v 0.069977 0.016432 0.017449
v 0.062524 0.032183 0.006415
v 0.069956 0.016680 -0.022675
v 0.062524 0.032183 -0.012557
v 0.083362 0.016982 0.017449
v 0.076323 0.035644 0.006415
v 0.083340 0.017230 -0.022675
v 0.076323 0.035644 -0.012557
v 0.070579 0.009480 0.017200
v 0.083964 0.010030 0.017200
v 0.070579 0.009480 -0.022535
v 0.083964 0.010030 -0.022535
v 0.063262 0.024399 -0.003647
v 0.079347 0.028434 -0.003647
v 0.063262 0.024399 -0.003665
v 0.079347 0.028434 -0.003665
v 0.061744 0.005485 0.024162
v 0.068493 0.026656 0.024162
v 0.061744 0.005485 0.016839
v 0.068493 0.026656 0.016839
v 0.082050 -0.000053 0.024162
v 0.088453 0.019561 0.024162
v 0.082050 -0.000053 0.016839
v 0.088453 0.019561 0.016839
v 0.061744 0.018840 0.024162
v 0.061744 0.018840 0.016839
v 0.068695 -0.000053 0.016839
v 0.081848 0.026656 0.016839
v 0.088453 0.006206 0.016839
v 0.088453 0.006206 0.024162
v 0.068695 -0.000053 0.024162
v 0.081848 0.026656 0.024162
v 0.061744 0.005485 -0.022439
v 0.068493 0.026656 -0.022439
v 0.061744 0.005485 -0.029763
v 0.068493 0.026656 -0.029763
v 0.082050 -0.000053 -0.022439
v 0.088453 0.019561 -0.022439
v 0.082050 -0.000053 -0.029763
v 0.088453 0.019561 -0.029763
v 0.061744 0.018840 -0.022439
v 0.061744 0.018840 -0.029763
v 0.068695 -0.000053 -0.029763
v 0.081848 0.026656 -0.029763
v 0.088453 0.006206 -0.029763
v 0.088453 0.006206 -0.022439
v 0.068695 -0.000053 -0.022439
v 0.081848 0.026656 -0.022439
v -0.145831 0.005287 0.002261
v -0.162366 0.051795 0.002261
v -0.145831 0.005287 -0.007986
v -0.162366 0.051795 -0.007986
v -0.120565 0.014269 0.002261
v -0.134446 0.050922 0.002261
v -0.120565 0.014269 -0.007986
v -0.134446 0.050922 -0.007986
v -0.149337 0.006245 0.041752
v -0.149927 0.013055 0.041752
v -0.125407 0.008279 0.039416
v -0.125997 0.015089 0.039416
v -0.149739 0.006210 -0.052466
v -0.150329 0.013020 -0.052466
v -0.124380 0.008368 -0.046621
v -0.124969 0.015178 -0.046621
v -0.043729 0.080678 0.122123
v -0.042260 0.073919 0.122123
v -0.043729 0.080678 -0.127848
v -0.042260 0.073919 -0.127848
v 0.061030 0.103443 0.122123
v 0.062499 0.096684 0.122123
v 0.061030 0.103443 -0.127848
v 0.062499 0.096684 -0.127848
v 0.029927 0.059908 0.014439
v 0.034062 0.057663 0.017582
v 0.023381 0.090030 0.051266
v 0.036462 0.061223 0.014544
v 0.027517 0.087785 0.054409
v 0.029916 0.091345 0.051371
v 0.000050 0.053415 0.014439
v 0.004185 0.051171 0.017582
v -0.006496 0.083537 0.051266
v 0.006585 0.054731 0.014544
v -0.002361 0.081293 0.054409
v 0.000039 0.084852 0.051371
v 0.029927 0.059908 -0.020164
v 0.034062 0.057663 -0.023307
v 0.023381 0.090030 -0.056991
v 0.036462 0.061223 -0.020269
v 0.027517 0.087785 -0.060134
v 0.029916 0.091345 -0.057096
v 0.000050 0.053415 -0.020164
v 0.004185 0.051171 -0.023307
v -0.006496 0.083537 -0.056991
v 0.006585 0.054731 -0.020269
v -0.002361 0.081293 -0.060134
v 0.000039 0.084852 -0.057096
v 0.117599 0.100663 -0.041314
v 0.148053 0.039894 0.041110
v 0.118221 0.093485 -0.046835
v 0.148675 0.032716 0.035589
v 0.116762 0.100663 -0.041314
v 0.147215 0.039894 0.041110
v 0.117383 0.093485 -0.046835
v 0.147837 0.032716 0.035589
v 0.061744 0.005485 0.016960
v 0.068493 0.026656 0.016960
v 0.082050 -0.000053 0.016960
v 0.088453 0.019561 0.016960
v 0.061744 0.018840 0.016960
v 0.088453 0.006206 0.016960
v 0.068695 -0.000053 0.016960
v 0.081848 0.026656 0.016960
v 0.061744 0.005485 -0.022560
v 0.068493 0.026656 -0.022560
v 0.082050 -0.000053 -0.022560
v 0.088453 0.019561 -0.022560
v 0.061744 0.018840 -0.022560
v 0.068695 -0.000053 -0.022560
v 0.081848 0.026656 -0.022560
v 0.088453 0.006206 -0.022560
v 0.061744 0.005485 0.023989
v 0.068493 0.026656 0.023989
v 0.082050 -0.000053 0.023989
v 0.088453 0.019561 0.023989
v 0.061744 0.018840 0.023989
v 0.068695 -0.000053 0.023989
v 0.081848 0.026656 0.023989
v 0.088453 0.006206 0.023989
v 0.061744 0.005485 -0.029589
v 0.068493 0.026656 -0.029589
v 0.082050 -0.000053 -0.029589
v 0.088453 0.019561 -0.029589
v 0.061744 0.018840 -0.029589
v 0.088453 0.006206 -0.029589
v 0.068695 -0.000053 -0.029589
v 0.081848 0.026656 -0.029589
vt -0.112468 -0.560561
vt 0.103020 -0.775372
vt 0.739271 -0.495517
vt 1.257646 -0.324860
vt 0.130849 -0.279186
vt -0.476845 -0.809825
vt 0.710775 -0.244730
vt 0.326488 -0.036459
vt 1.217940 -0.068680
vt 0.611032 0.254070
vt 1.243419 0.097479
vt -0.712513 0.099125
vt -1.051849 0.009586
vt -0.522958 -0.087887
vt -0.994701 -0.716502
vt -1.032986 -0.554841
vt -0.416115 -0.311685
vt 0.913289 -0.284546
vt 1.393654 1.807117
vt 1.359578 1.936373
vt 1.303568 1.916320
vt 1.337644 1.787065
vt 1.535928 1.798846
vt 1.522627 1.942572
vt 1.296334 2.310294
vt 1.284851 2.478379
vt 1.423024 -0.041918
vt 1.257367 -0.054790
vt 1.253348 -0.199600
vt 1.397384 -0.174673
vt 1.452427 -0.187772
vt 1.478067 -0.055018
vt 1.442926 2.319004
vt 1.411966 2.449520
vt 1.263009 0.840930
vt 1.159756 0.641483
vt 1.042999 0.634546
vt 0.942551 0.821890
vt 0.944009 0.749883
vt 1.032145 0.554530
vt 1.185148 0.563621
vt 1.267519 0.771591
vt 1.334017 0.057333
vt 1.487038 0.066424
vt 1.563035 0.236944
vt 1.559450 0.310421
vt 1.470972 0.145215
vt 1.354203 0.138277
vt 1.238956 0.291378
vt 1.239316 0.220251
vt 0.366307 0.610844
vt 0.361584 0.746462
vt 0.305815 0.815352
vt 0.198132 0.808954
vt 0.146474 0.726341
vt 0.151197 0.590724
vt 0.209206 0.537816
vt 0.316889 0.544214
vt 1.271610 0.649167
vt 1.328494 0.572993
vt 1.436129 0.579389
vt 1.487110 0.654630
vt 1.482864 0.790292
vt 1.429265 0.850809
vt 1.321630 0.844413
vt 1.267364 0.784828
vt 1.485442 -0.678633
vt 1.480719 -0.543015
vt 1.424950 -0.474125
vt 1.317267 -0.480523
vt 1.265610 -0.563136
vt 1.270332 -0.698753
vt 1.328342 -0.751662
vt 1.436024 -0.745263
vt 0.220303 0.568979
vt 0.277187 0.492806
vt 0.384822 0.499201
vt 0.435803 0.574442
vt 0.431557 0.710104
vt 0.377958 0.770621
vt 0.270323 0.764226
vt 0.216057 0.704641
vt 1.248425 -0.052292
vt 1.636686 -0.029223
vt 1.633232 0.075110
vt 1.244971 0.052042
vt 0.923782 1.364214
vt 1.321369 1.387837
vt 1.229919 1.647331
vt 0.914001 1.636714
vt 1.587482 -0.736264
vt 1.272022 -0.755008
vt 1.275590 -0.859323
vt 1.591049 -0.840580
vt 1.293821 2.205727
vt 0.978558 2.178837
vt 0.904889 1.909357
vt 1.302341 1.932972
vt 1.539946 1.504942
vt 1.317896 1.491749
vt 1.321474 1.387424
vt 1.543523 1.400618
vt 1.671724 0.865214
vt 1.480994 0.853882
vt 1.483060 0.784437
vt 1.673790 0.795769
vt 1.681908 -0.449441
vt 1.684903 -0.518840
vt 1.478186 -0.461546
vt 1.481181 -0.530945
vt -1.005882 -1.365808
vt 1.010114 -1.246027
vt 1.012530 -1.316200
vt -1.003467 -1.435981
vt 0.953750 0.458428
vt 1.817773 0.509764
vt 1.820262 0.439494
vt 0.956239 0.388158
vt -1.003537 -1.435986
vt 1.012686 -1.316191
vt 1.015038 -1.386292
vt -1.001184 -1.506086
vt 1.821953 0.369157
vt 0.958448 0.317852
vt 0.956272 0.388160
vt 1.819778 0.439465
vt 0.923139 1.363223
vt -1.093086 1.243428
vt -1.129562 2.334925
vt 0.886662 2.454720
vt 0.959887 0.274798
vt -1.056297 0.155005
vt -1.093086 1.243427
vt 0.923099 1.363220
vt 1.321695 1.386903
vt 1.326503 1.319369
vt 1.622548 1.336958
vt 1.617740 1.404493
vt 1.289933 -1.133018
vt 1.286723 -1.173886
vt 1.673749 -1.150891
vt 1.676958 -1.110023
vt 1.350582 0.339882
vt 1.357464 0.298419
vt 1.744070 0.321390
vt 1.737187 0.362852
vt 1.637180 0.897457
vt 1.632372 0.964991
vt 1.336327 0.947401
vt 1.341135 0.879867
vt 1.672392 -1.110294
vt 1.675601 -1.069427
vt 1.288576 -1.092422
vt 1.285367 -1.133290
vt 0.958491 0.316586
vt 0.965373 0.275123
vt 1.351978 0.298094
vt 1.345096 0.339556
vt 1.622991 1.268990
vt 1.326225 1.251358
vt 1.324932 1.319275
vt 1.621698 1.336908
vt 1.716676 1.161207
vt 1.330006 1.138232
vt 1.330567 1.183621
vt 1.717237 1.206595
vt 1.280945 -1.001003
vt 1.667491 -0.978037
vt 1.670833 -1.024354
vt 1.284288 -1.047321
vt 1.327200 1.251415
vt 1.623966 1.269048
vt 1.625259 1.201130
vt 1.328493 1.183498
vt 1.670680 -1.069719
vt 1.284010 -1.092692
vt 1.284571 -1.047304
vt 1.671241 -1.024330
vt 1.310221 1.717257
vt 1.696767 1.740224
vt 1.700109 1.693907
vt 1.313563 1.670940
vt 0.083750 0.458428
vt 0.941638 0.509400
vt 0.939676 0.600728
vt 0.081788 0.549756
vt 0.083750 0.458428
vt 0.081788 0.549756
vt 0.939676 0.600728
vt 0.941638 0.509400
vt 0.366307 0.610844
vt 0.361584 0.746462
vt 0.305815 0.815352
vt 0.198132 0.808954
vt 0.146474 0.726341
vt 0.151197 0.590724
vt 0.209206 0.537816
vt 0.316889 0.544214
vt 0.220303 0.568979
vt 0.277187 0.492806
vt 0.384822 0.499201
vt 0.435803 0.574442
vt 0.431557 0.710104
vt 0.377958 0.770621
vt 0.270323 0.764226
vt 0.216057 0.704641
vt 1.271610 0.649167
vt 1.328494 0.572993
vt 1.436129 0.579389
vt 1.487110 0.654630
vt 1.482864 0.790292
vt 1.429265 0.850809
vt 1.321630 0.844413
vt 1.267364 0.784828
vt 1.485442 -0.678633
vt 1.480719 -0.543015
vt 1.424950 -0.474125
vt 1.317267 -0.480523
vt 1.265610 -0.563136
vt 1.270332 -0.698753
vt 1.328342 -0.751662
vt 1.436024 -0.745263
vn -0.2843 0.6172 0.7337
vn -0.1607 0.9868 0.0194
vn 0.0062 0.4757 -0.8796
vn 0.2120 -0.2952 -0.9316
vn 0.0673 -0.5993 -0.7977
vn -0.2798 0.6060 -0.7446
vn 0.9226 0.3857 0.0000
vn 0.0500 0.9985 0.0236
vn 0.1229 -0.9924 0.0046
vn 0.3977 -0.9175 0.0000
vn 0.0088 -1.0000 0.0041
vn 0.0675 -0.6015 0.7960
vn 0.2120 -0.2952 0.9316
vn 0.0049 0.4916 0.8708
vn -0.4331 0.9014 0.0000
vn 0.0008 -0.0194 -0.9998
vn -0.0720 0.4882 -0.8697
vn 0.1131 -0.7271 0.6771
vn -0.0760 0.5154 0.8536
vn 0.0015 -0.0357 0.9994
vn 0.1181 -0.7589 -0.6404
vn 0.9572 0.2893 0.0014
vn -0.9765 -0.2157 -0.0016
vn -0.0000 0.0000 1.0000
vn 0.0000 0.0000 -1.0000
vn -0.9422 -0.3350 0.0000
vn 0.9352 0.3542 0.0000
vn 0.0312 0.9995 0.0000
vn -0.3502 0.9367 0.0000
vn 0.0965 0.0083 0.9953
vn -0.9963 -0.0862 0.0043
vn -0.0847 0.9964 0.0000
vn 0.9962 0.0862 0.0120
vn 0.0847 -0.9964 -0.0000
vn 0.2230 0.0193 -0.9746
vn -0.9772 -0.2124 0.0000
vn 0.9772 0.2124 0.0000
vn -0.2124 0.9772 0.0000
vn 0.2124 -0.9772 0.0000
vn -0.1414 0.7538 -0.6417
vn 0.8842 -0.2721 0.3797
vn -0.6545 -0.6381 0.4055
vn -0.1414 0.7538 0.6417
vn 0.8842 -0.2721 -0.3797
vn -0.6545 -0.6381 -0.4055
vn 0.9561 0.2262 -0.1865
vn -0.9561 -0.2262 0.1865
usemtl Material
s off
f 18/1/1 14/2/1 7/3/1 11/4/1
f 16/5/2 14/2/2 3/6/2 1/7/2
f 17/8/3 16/5/3 1/7/3 10/9/3
f 9/10/4 17/8/4 10/9/4 2/11/4
f 6/12/5 13/13/5 17/8/5 9/10/5
f 13/13/6 5/14/6 16/5/6 17/8/6
f 2/11/7 10/9/7 12/15/7 4/16/7
f 10/9/8 1/7/8 3/6/8 12/15/8
f 9/10/9 15/17/9 8/18/9 6/12/9
f 15/17/10 9/10/10 2/11/10 4/16/10
f 13/13/11 6/12/11 8/18/11 11/4/11
f 15/17/12 18/1/12 11/4/12 8/18/12
f 4/16/13 12/15/13 18/1/13 15/17/13
f 12/15/14 3/6/14 14/2/14 18/1/14
f 14/2/15 16/5/15 5/14/15 7/3/15
f 21/19/16 25/20/16 30/21/16 29/22/16
f 21/19/17 22/23/17 26/24/17 25/20/17
f 30/21/18 32/25/18 31/26/18 29/22/18
f 23/27/19 24/28/19 20/29/19 19/30/19
f 23/27/20 19/30/20 27/31/20 28/32/20
f 28/33/21 27/34/21 31/26/21 32/25/21
f 28/35/22 32/36/22 34/37/22 30/38/22 25/39/22 26/40/22 24/41/22 23/42/22
f 20/43/23 22/44/23 21/45/23 29/46/23 33/47/23 31/48/23 27/49/23 19/50/23
f 48/51/24 40/52/24 50/53/24 36/54/24 43/55/24 35/56/24 49/57/24 39/58/24
f 44/59/25 38/60/25 46/61/25 42/62/25 47/63/25 41/64/25 45/65/25 37/66/25
f 64/67/24 56/68/24 66/69/24 52/70/24 59/71/24 51/72/24 65/73/24 55/74/24
f 60/75/25 54/76/25 62/77/25 58/78/25 63/79/25 57/80/25 61/81/25 53/82/25
f 67/83/26 68/84/26 70/85/26 69/86/26
f 69/87/25 70/88/25 74/89/25 73/90/25
f 73/91/27 74/92/27 72/93/27 71/94/27
f 71/95/24 72/96/24 68/97/24 67/98/24
f 74/99/28 70/100/28 68/101/28 72/102/28
f 11/4/29 7/3/29 5/14/29 13/13/29
f 78/103/30 76/104/30 75/105/30 77/106/30
f 80/107/31 79/108/31 75/105/31 76/104/31
f 80/107/32 76/104/32 78/103/32 82/109/32
f 78/103/33 77/106/33 81/110/33 82/109/33
f 77/106/34 75/105/34 79/108/34 81/110/34
f 80/107/35 82/109/35 81/110/35 79/108/35
f 83/111/36 85/112/36 86/113/36 84/114/36
f 85/115/25 89/116/25 90/117/25 86/118/25
f 89/119/37 87/120/37 88/121/37 90/122/37
f 87/123/24 83/124/24 84/125/24 88/126/24
f 85/127/38 83/128/38 87/129/38 89/130/38
f 90/131/39 88/132/39 84/133/39 86/134/39
f 94/135/40 91/136/40 93/137/40 96/138/40
f 92/139/41 94/140/41 96/141/41 95/142/41
f 91/143/42 92/144/42 95/145/42 93/146/42
f 100/147/40 97/148/40 99/149/40 102/150/40
f 98/151/41 100/152/41 102/153/41 101/154/41
f 97/155/42 98/156/42 101/157/42 99/158/42
f 106/159/43 108/160/43 105/161/43 103/162/43
f 104/163/44 107/164/44 108/165/44 106/166/44
f 103/167/45 105/168/45 107/169/45 104/170/45
f 112/171/43 114/172/43 111/173/43 109/174/43
f 110/175/44 113/176/44 114/177/44 112/178/44
f 109/179/45 111/180/45 113/181/45 110/182/45
f 115/183/46 116/184/46 118/185/46 117/186/46
f 119/187/47 121/188/47 122/189/47 120/190/47
f 128/191/24 126/192/24 130/193/24 124/194/24 127/195/24 123/196/24 129/197/24 125/198/24
f 135/199/25 132/200/25 137/201/25 134/202/25 138/203/25 133/204/25 136/205/25 131/206/25
f 143/207/25 140/208/25 145/209/25 142/210/25 146/211/25 141/212/25 144/213/25 139/214/25
f 152/215/24 150/216/24 154/217/24 148/218/24 151/219/24 147/220/24 153/221/24 149/222/24
