# Blender v2.83.2 OBJ File: 's_StorageContainerBox.blend'
# www.blender.org
mtllib s_StorageContainerBox.mtl
o Cube.002_Cube.006
v -0.200619 0.000000 0.204108
v -0.200619 0.050000 0.204108
v -0.200619 0.000000 -0.195892
v -0.200619 0.050000 -0.195892
v -0.200619 0.050000 -0.140537
v -0.200619 0.135720 -0.160537
v -0.200619 0.135720 -0.195892
v 0.200155 0.000000 0.204108
v 0.200155 0.050000 0.204108
v 0.200155 0.000000 -0.195892
v 0.200155 0.050000 -0.195892
v 0.200155 0.050000 -0.140537
v 0.200155 0.135720 -0.195892
v 0.200155 0.135720 -0.160537
vt 0.092478 0.810742
vt 0.074191 0.085557
vt 0.897678 0.086856
vt 0.908583 0.812041
vt -0.006614 0.842510
vt 0.101046 0.842510
vt 0.101046 0.092510
vt -0.006614 0.092510
vt 0.000000 0.000000
vt 0.000000 0.000000
vt 0.000000 0.000000
vt 0.000000 0.000000
vt 0.007821 0.008480
vt 1.007850 0.009026
vt 1.002022 0.102638
vt 0.001993 0.102092
vt 0.752945 0.005803
vt 0.709682 0.005803
vt 0.709682 0.003895
vt 0.752945 0.003895
vt 1.007055 0.825995
vt 0.909026 0.827460
vt 0.902984 0.095231
vt 1.001014 0.093765
vt 0.659615 0.903885
vt 0.659715 0.855894
vt 0.807934 0.856203
vt 0.807834 0.904194
vt 0.000000 0.000000
vt 0.000000 0.000000
vt 0.000000 0.000000
vt 0.000000 0.000000
vt 0.002294 0.994564
vt -0.001956 0.824580
vt 0.998056 0.821896
vt 1.004016 0.999485
vn 0.0000 1.0000 0.0000
vn -1.0000 0.0000 0.0000
vn 0.0000 0.0000 1.0000
vn 1.0000 0.0000 0.0000
vn 0.0000 0.2272 0.9738
usemtl Material
s off
f 5/1/1 2/2/1 9/3/1 12/4/1
f 1/5/2 2/6/2 4/7/2 3/8/2
f 4/9/2 5/10/2 6/11/2 7/12/2
f 1/13/3 8/14/3 9/15/3 2/16/3
f 6/17/1 14/18/1 13/19/1 7/20/1
f 10/21/4 11/22/4 9/23/4 8/24/4
f 7/25/3 3/26/3 10/27/3 13/28/3
f 12/29/4 11/30/4 13/31/4 14/32/4
f 6/33/5 5/34/5 12/35/5 14/36/5
