# Blender v2.83.2 OBJ File: 's_ToyBuildings.blend'
# www.blender.org
mtllib s_ToyBuildings.mtl
o Cube.003_Cube.008
v -0.057869 0.000000 0.037415
v -0.057869 0.200000 0.037415
v -0.057869 0.000000 0.137415
v -0.057869 0.200000 0.137415
v -0.157869 0.000000 0.037415
v -0.157869 0.200000 0.037415
v -0.157869 0.000000 0.137415
v -0.157869 0.200000 0.137415
v -0.057869 0.200000 0.087415
v -0.107869 0.200000 0.137415
v -0.157869 0.200000 0.087415
v -0.107869 0.200000 0.037415
v -0.107869 0.200000 0.087415
v -0.157869 0.300000 0.087415
v -0.157869 0.300000 0.037415
v -0.107869 0.300000 0.037415
v -0.107869 0.300000 0.087415
v -0.157869 0.300000 0.062415
v -0.132869 0.300000 0.037415
v -0.107869 0.300000 0.062415
v -0.132869 0.300000 0.087415
v -0.132869 0.300000 0.062415
v -0.107869 0.400000 0.087415
v -0.107869 0.400000 0.062415
v -0.132869 0.400000 0.087415
v -0.132869 0.400000 0.062415
v -0.107869 0.250000 0.137415
v -0.157869 0.250000 0.137415
v -0.107869 0.250000 0.037415
v -0.057869 0.250000 0.037415
v -0.057869 0.250000 0.087415
v -0.157869 0.250000 0.087415
v -0.107869 0.250000 0.087415
vt 0.021420 0.965237
vt 0.021420 -0.002442
vt 0.299642 -0.002442
vt 0.577863 -0.002442
vt 0.577863 0.965237
vt 0.018863 0.957524
vt 0.018863 0.002171
vt 0.296541 0.002171
vt 0.574220 0.002171
vt 0.574220 0.957524
vt 0.028766 0.979011
vt 0.028766 -0.003814
vt 0.302742 -0.003814
vt 0.576718 -0.003814
vt 0.576718 0.979011
vt 0.011309 0.972801
vt 0.011309 0.402346
vt 0.153923 0.402346
vt 0.296537 0.402346
vt 0.296537 0.972801
vt 0.299606 0.271703
vt 0.718996 0.271703
vt 0.718996 0.691092
vt 0.299607 0.691092
vt 0.789810 0.465297
vt 0.847648 0.482502
vt 0.814854 0.580578
vt 0.788581 0.587609
vt 0.755734 0.590211
vt 0.747034 0.793540
vt 0.950554 0.793540
vt 0.950554 0.997060
vt 0.747034 0.997060
vt 0.431462 0.946563
vt 0.028304 0.946563
vt 0.028304 0.140247
vt 0.229883 0.140247
vt 0.431462 0.140247
vt 0.711821 -0.001494
vt 0.711821 0.396152
vt 0.018445 0.396152
vt 0.018445 0.197329
vt 0.018445 -0.001494
vt 0.969574 0.543549
vt 0.970385 0.666611
vt 0.971196 0.789672
vt 0.725072 0.791294
vt 0.724261 0.668232
vt 0.847323 0.667421
vt 0.846512 0.544359
vt 0.751949 0.480247
vt 0.848441 0.472603
vt 0.826501 0.518534
vt 0.825896 0.519494
vt 0.075400 0.815205
vt 0.074051 0.814031
vt 0.074656 0.813071
vt 0.075912 0.813460
vt 0.079544 0.711333
vt 0.124828 0.790226
vt 0.058860 0.757653
vt 0.057603 0.757264
vt 0.143842 0.747628
vt 0.047866 0.790077
vt 0.084519 0.720119
vt 0.084975 0.718562
vt 0.968869 0.007682
vt 0.973431 0.126320
vt 0.722888 0.127309
vt 0.718326 0.008671
vt 0.732529 0.585260
vt 0.958858 0.585260
vt 0.958858 0.811590
vt 0.732529 0.811590
vt 0.763751 0.416577
vt 0.785550 0.359377
vt 0.945070 0.291961
vt 0.909879 0.557315
vt 0.715860 0.689506
vt 0.305843 0.689506
vt 0.305843 0.279490
vt 0.715860 0.279490
vt 0.306200 0.286047
vt 0.712402 0.286047
vt 0.712402 0.692250
vt 0.306200 0.692250
vt 0.307086 0.269881
vt 0.714617 0.269882
vt 0.714616 0.677412
vt 0.307086 0.677412
vt 0.309299 0.275194
vt 0.709304 0.275194
vt 0.709304 0.675199
vt 0.309299 0.675199
vt 0.729782 0.267117
vt 0.729782 0.692578
vt 0.304322 0.692578
vt 0.304322 0.267117
vt 0.637360 0.838208
vt 0.602170 0.601807
vt 0.838570 0.566617
vt 0.873761 0.803017
vt 0.781718 0.365247
vt 0.781718 0.193089
vt 0.953876 0.193089
vt 0.953876 0.365247
vn 1.0000 0.0000 -0.0000
vn 0.0000 0.0000 1.0000
vn -1.0000 0.0000 0.0000
vn -0.0000 0.0000 -1.0000
vn 0.0000 1.0000 0.0000
usemtl Material
s off
f 1/1/1 2/2/1 9/3/1 4/4/1 3/5/1
f 3/6/2 4/7/2 10/8/2 8/9/2 7/10/2
f 7/11/3 8/12/3 11/13/3 6/14/3 5/15/3
f 5/16/4 6/17/4 12/18/4 2/19/4 1/20/4
f 8/21/2 10/22/2 27/23/2 28/24/2
f 13/25/1 12/26/1 16/27/1 20/28/1 17/29/1
f 10/30/5 4/31/5 9/32/5 13/33/5
f 6/34/3 11/35/3 14/36/3 18/37/3 15/38/3
f 12/39/4 6/40/4 15/41/4 19/42/4 16/43/4
f 16/44/5 19/45/5 15/46/5 14/47/5 21/48/5 22/49/5 20/50/5
f 17/51/1 20/52/1 24/53/1 23/54/1
f 25/55/5 23/56/5 24/57/5 26/58/5
f 20/59/4 22/60/4 26/61/4 24/62/4
f 22/63/3 21/64/3 25/65/3 26/66/3
f 21/67/2 17/68/2 23/69/2 25/70/2
f 33/71/5 31/72/5 30/73/5 29/74/5
f 28/75/5 27/76/5 33/77/5 32/78/5
f 11/79/3 8/80/3 28/81/3 32/82/3
f 9/83/1 2/84/1 30/85/1 31/86/1
f 13/87/2 9/88/2 31/89/2 33/90/2
f 10/91/1 13/92/1 33/93/1 27/94/1
f 2/95/4 12/96/4 29/97/4 30/98/4
f 13/99/4 11/100/4 32/101/4 33/102/4
f 14/103/2 32/104/2 33/105/2 17/106/2
o Cube.004_Cube.009
v -0.104141 0.000000 -0.019136
v -0.104141 0.400000 -0.019136
v -0.104141 0.000000 -0.119136
v -0.104141 0.400000 -0.119136
v -0.004141 0.000000 -0.019136
v -0.004141 0.400000 -0.019136
v -0.004141 0.000000 -0.119136
v -0.004141 0.400000 -0.119136
vt 0.021722 0.984767
vt 0.027077 -0.004095
vt 0.435880 -0.003074
vt 0.430525 0.985788
vt 0.011089 0.967205
vt 0.017417 0.119245
vt 0.451078 0.120737
vt 0.444751 0.968698
vt 0.017032 0.987669
vt 0.006965 -0.002226
vt 0.449700 -0.004303
vt 0.459768 0.985592
vt 0.451544 -0.003329
vt 0.451555 0.991584
vt 0.025660 0.991610
vt 0.025648 -0.003303
vt 0.722947 0.634331
vt 0.991897 0.634331
vt 0.991897 0.967232
vt 0.722947 0.967232
vn -1.0000 0.0000 0.0000
vn 0.0000 0.0000 -1.0000
vn 1.0000 0.0000 0.0000
vn 0.0000 0.0000 1.0000
vn 0.0000 1.0000 0.0000
usemtl Material
s off
f 34/107/6 35/108/6 37/109/6 36/110/6
f 36/111/7 37/112/7 41/113/7 40/114/7
f 40/115/8 41/116/8 39/117/8 38/118/8
f 38/119/9 39/120/9 35/121/9 34/122/9
f 41/123/10 37/124/10 35/125/10 39/126/10
o Cube.005_Cube.010
v 0.057743 0.000000 -0.019136
v 0.057743 0.200000 -0.019136
v 0.057743 0.000000 -0.119136
v 0.057743 0.200000 -0.119136
v 0.157743 0.000000 -0.019136
v 0.157743 0.200000 -0.019136
v 0.157743 0.000000 -0.119136
v 0.157743 0.200000 -0.119136
v 0.057743 0.200000 -0.069136
v 0.107743 0.200000 -0.119136
v 0.157743 0.200000 -0.069136
v 0.107743 0.200000 -0.019136
v 0.057743 0.302675 -0.019136
v 0.057743 0.302675 -0.119136
v 0.107743 0.302675 -0.119136
v 0.107743 0.302675 -0.019136
vt 0.023532 0.822791
vt 0.023532 0.251618
vt 0.166325 0.251618
vt 0.309118 0.251618
vt 0.309118 0.822791
vt 0.020582 0.983711
vt 0.020581 0.115502
vt 0.237634 0.115502
vt 0.454686 0.115502
vt 0.454686 0.983711
vt 0.005926 0.949969
vt 0.005926 0.136842
vt 0.228333 0.136842
vt 0.450740 0.136842
vt 0.450740 0.949969
vt 0.726281 0.649698
vt 0.726281 0.161178
vt 0.848411 0.161178
vt 0.970541 0.161178
vt 0.970541 0.649698
vt 0.559740 0.226424
vt 0.461963 0.226424
vt 0.461963 0.177535
vt 0.559740 0.177535
vt 0.124298 0.663733
vt 0.091517 0.622671
vt 0.098627 0.588156
vt 0.110830 0.604720
vt 0.307013 0.008215
vt 0.718282 0.009774
vt 0.716548 0.399611
vt 0.305279 0.398051
vt 0.306587 0.985708
vt 0.019239 0.985708
vt 0.019239 0.395641
vt 0.306587 0.395641
vt 0.715022 0.148771
vt 0.714790 0.011498
vt 0.996680 0.011023
vt 0.996911 0.148296
vt 0.579839 0.691151
vt 0.301104 0.691151
vt 0.301104 0.404961
vt 0.579839 0.404961
vn -1.0000 0.0000 0.0000
vn 0.0000 0.0000 -1.0000
vn 1.0000 -0.0000 0.0000
vn 0.0000 0.0000 1.0000
vn 0.0000 1.0000 0.0000
usemtl Material
s off
f 42/127/11 43/128/11 50/129/11 45/130/11 44/131/11
f 44/132/12 45/133/12 51/134/12 49/135/12 48/136/12
f 48/137/13 49/138/13 52/139/13 47/140/13 46/141/13
f 46/142/14 47/143/14 53/144/14 43/145/14 42/146/14
f 57/147/15 56/148/15 55/149/15 54/150/15
f 51/151/15 53/152/15 47/153/15 49/154/15
f 53/155/13 51/156/13 56/157/13 57/158/13
f 51/159/12 45/160/12 55/161/12 56/162/12
f 43/163/14 53/164/14 57/165/14 54/166/14
f 45/167/11 43/168/11 54/169/11 55/170/11
o Cube.006_Cube.011
v 0.029742 0.000000 0.122998
v 0.029742 0.200000 0.122998
v 0.076212 0.000000 0.034451
v 0.076212 0.200000 0.034451
v 0.118289 0.000000 0.169468
v 0.118289 0.200000 0.169468
v 0.164758 0.000000 0.080921
v 0.164758 0.200000 0.080921
vt 0.041564 0.959945
vt 0.041565 0.266383
vt 0.427502 0.266383
vt 0.427502 0.959945
vt 0.007829 0.950242
vt 0.007829 0.127268
vt 0.448837 0.127268
vt 0.448837 0.950242
vt 0.723956 0.536452
vt 0.012510 0.536452
vt 0.012510 0.003924
vt 0.723956 0.003924
vt 0.714600 0.400015
vt 0.021867 0.400015
vt 0.021867 0.000843
vt 0.714600 0.000843
vt 0.707896 0.677087
vt 0.887247 0.545422
vt 1.038123 0.707361
vt 0.858772 0.839027
vn -0.8855 0.0000 -0.4647
vn 0.4647 0.0000 -0.8855
vn 0.8855 0.0000 0.4647
vn -0.4647 0.0000 0.8855
vn 0.0000 1.0000 0.0000
usemtl Material
s off
f 58/171/16 59/172/16 61/173/16 60/174/16
f 60/175/17 61/176/17 65/177/17 64/178/17
f 64/179/18 65/180/18 63/181/18 62/182/18
f 62/183/19 63/184/19 59/185/19 58/186/19
f 65/187/20 61/188/20 59/189/20 63/190/20
