# Blender v2.83.2 OBJ File: 's_ToyBuildings.blend'
# www.blender.org
mtllib s_ToyBuildings.mtl
o Cube.003_Cube.008
v -0.057869 0.000000 0.037415
v -0.057869 0.200000 0.037415
v -0.057869 0.000000 0.137415
v -0.057869 0.200000 0.137415
v -0.157869 0.000000 0.037415
v -0.157869 0.200000 0.037415
v -0.157869 0.000000 0.137415
v -0.157869 0.200000 0.137415
v -0.057869 0.200000 0.087415
v -0.107869 0.200000 0.137415
v -0.157869 0.200000 0.087415
v -0.107869 0.200000 0.037415
v -0.107869 0.200000 0.087415
v -0.157869 0.300000 0.087415
v -0.157869 0.300000 0.037415
v -0.107869 0.300000 0.037415
v -0.107869 0.300000 0.087415
v -0.157869 0.300000 0.062415
v -0.132869 0.300000 0.037415
v -0.107869 0.300000 0.062415
v -0.132869 0.300000 0.087415
v -0.132869 0.300000 0.062415
v -0.107869 0.400000 0.087415
v -0.107869 0.400000 0.062415
v -0.132869 0.400000 0.087415
v -0.132869 0.400000 0.062415
v -0.107869 0.250000 0.137415
v -0.157869 0.250000 0.137415
v -0.107869 0.250000 0.037415
v -0.057869 0.250000 0.037415
v -0.057869 0.250000 0.087415
v -0.157869 0.250000 0.087415
v -0.107869 0.250000 0.087415
vt 0.375000 0.000000
vt 0.625000 0.000000
vt 0.625000 0.125000
vt 0.625000 0.250000
vt 0.375000 0.250000
vt 0.625000 0.375000
vt 0.625000 0.500000
vt 0.375000 0.500000
vt 0.625000 0.625000
vt 0.625000 0.750000
vt 0.375000 0.750000
vt 0.625000 0.875000
vt 0.625000 1.000000
vt 0.375000 1.000000
vt 0.625000 0.375000
vt 0.625000 0.500000
vt 0.750000 0.625000
vt 0.750000 0.750000
vt 0.750000 0.750000
vt 0.750000 0.687500
vt 0.750000 0.625000
vt 0.750000 0.500000
vt 0.875000 0.500000
vt 0.875000 0.625000
vt 0.625000 0.625000
vt 0.625000 0.687500
vt 0.625000 0.750000
vt 0.625000 0.812500
vt 0.625000 0.875000
vt 0.687500 0.625000
vt 0.687500 0.687500
vt 0.750000 0.687500
vt 0.750000 0.625000
vt 0.687500 0.625000
vt 0.687500 0.687500
vt 0.750000 0.625000
vt 0.875000 0.625000
vt 0.875000 0.750000
vt 0.750000 0.750000
vt 0.750000 0.500000
vt 0.625000 0.625000
vt 0.625000 0.000000
vt 0.625000 0.125000
vt 0.625000 0.875000
vt 0.625000 1.000000
vt 0.000000 0.000000
vt 0.000000 0.000000
vn 1.0000 0.0000 -0.0000
vn 0.0000 0.0000 1.0000
vn -1.0000 0.0000 0.0000
vn -0.0000 0.0000 -1.0000
vn 0.0000 1.0000 0.0000
usemtl None
s off
f 1/1/1 2/2/1 9/3/1 4/4/1 3/5/1
f 3/5/2 4/4/2 10/6/2 8/7/2 7/8/2
f 7/8/3 8/7/3 11/9/3 6/10/3 5/11/3
f 5/11/4 6/10/4 12/12/4 2/13/4 1/14/4
f 8/7/2 10/6/2 27/15/2 28/16/2
f 13/17/1 12/18/1 16/19/1 20/20/1 17/21/1
f 10/22/5 4/23/5 9/24/5 13/17/5
f 6/10/3 11/9/3 14/25/3 18/26/3 15/27/3
f 12/12/4 6/10/4 15/27/4 19/28/4 16/29/4
f 16/19/5 19/28/5 15/27/5 14/25/5 21/30/5 22/31/5 20/20/5
f 17/21/1 20/20/1 24/32/1 23/33/1
f 25/34/5 23/33/5 24/32/5 26/35/5
f 20/20/4 22/31/4 26/35/4 24/32/4
f 22/31/3 21/30/3 25/34/3 26/35/3
f 21/30/2 17/21/2 23/33/2 25/34/2
f 33/36/5 31/37/5 30/38/5 29/39/5
f 28/16/5 27/40/5 33/36/5 32/41/5
f 11/9/3 8/7/3 28/16/3 32/41/3
f 9/3/1 2/2/1 30/42/1 31/43/1
f 13/17/2 9/24/2 31/37/2 33/36/2
f 10/22/1 13/17/1 33/36/1 27/40/1
f 2/13/4 12/12/4 29/44/4 30/45/4
f 13/17/4 11/9/4 32/41/4 33/36/4
f 14/46/2 32/41/2 33/36/2 17/47/2
o Cube.004_Cube.009
v -0.104141 0.000000 -0.019136
v -0.104141 0.400000 -0.019136
v -0.104141 0.000000 -0.119136
v -0.104141 0.400000 -0.119136
v -0.004141 0.000000 -0.019136
v -0.004141 0.400000 -0.019136
v -0.004141 0.000000 -0.119136
v -0.004141 0.400000 -0.119136
vt 0.375000 0.000000
vt 0.625000 0.000000
vt 0.625000 0.250000
vt 0.375000 0.250000
vt 0.625000 0.500000
vt 0.375000 0.500000
vt 0.625000 0.750000
vt 0.375000 0.750000
vt 0.625000 1.000000
vt 0.375000 1.000000
vt 0.875000 0.500000
vt 0.875000 0.750000
vn -1.0000 0.0000 0.0000
vn 0.0000 0.0000 -1.0000
vn 1.0000 0.0000 0.0000
vn 0.0000 0.0000 1.0000
vn 0.0000 1.0000 0.0000
usemtl None
s off
f 34/48/6 35/49/6 37/50/6 36/51/6
f 36/51/7 37/50/7 41/52/7 40/53/7
f 40/53/8 41/52/8 39/54/8 38/55/8
f 38/55/9 39/54/9 35/56/9 34/57/9
f 41/52/10 37/58/10 35/59/10 39/54/10
o Cube.005_Cube.010
v 0.057743 0.000000 -0.019136
v 0.057743 0.200000 -0.019136
v 0.057743 0.000000 -0.119136
v 0.057743 0.200000 -0.119136
v 0.157743 0.000000 -0.019136
v 0.157743 0.200000 -0.019136
v 0.157743 0.000000 -0.119136
v 0.157743 0.200000 -0.119136
v 0.057743 0.200000 -0.069136
v 0.107743 0.200000 -0.119136
v 0.157743 0.200000 -0.069136
v 0.107743 0.200000 -0.019136
v 0.057743 0.302675 -0.019136
v 0.057743 0.302675 -0.119136
v 0.107743 0.302675 -0.119136
v 0.107743 0.302675 -0.019136
vt 0.375000 0.000000
vt 0.625000 0.000000
vt 0.625000 0.125000
vt 0.625000 0.250000
vt 0.375000 0.250000
vt 0.625000 0.375000
vt 0.625000 0.500000
vt 0.375000 0.500000
vt 0.625000 0.625000
vt 0.625000 0.750000
vt 0.375000 0.750000
vt 0.625000 0.875000
vt 0.625000 1.000000
vt 0.375000 1.000000
vt 0.625000 0.875000
vt 0.625000 0.375000
vt 0.625000 0.250000
vt 0.625000 1.000000
vt 0.000000 0.000000
vt 0.000000 0.000000
vt 0.000000 0.000000
vt 0.000000 0.000000
vt 0.000000 0.000000
vt 0.000000 0.000000
vt 0.000000 0.000000
vt 0.000000 0.000000
vn -1.0000 0.0000 0.0000
vn 0.0000 0.0000 -1.0000
vn 1.0000 -0.0000 0.0000
vn 0.0000 0.0000 1.0000
vn 0.0000 1.0000 0.0000
usemtl None
s off
f 42/60/11 43/61/11 50/62/11 45/63/11 44/64/11
f 44/64/12 45/63/12 51/65/12 49/66/12 48/67/12
f 48/67/13 49/66/13 52/68/13 47/69/13 46/70/13
f 46/70/14 47/69/14 53/71/14 43/72/14 42/73/14
f 57/74/15 56/75/15 55/76/15 54/77/15
f 51/78/15 53/79/15 47/69/15 49/66/15
f 53/79/13 51/78/13 56/80/13 57/81/13
f 51/65/12 45/63/12 55/76/12 56/75/12
f 43/72/14 53/71/14 57/74/14 54/77/14
f 45/82/11 43/83/11 54/84/11 55/85/11
o Cube.006_Cube.011
v 0.029742 0.000000 0.122998
v 0.029742 0.200000 0.122998
v 0.076212 0.000000 0.034451
v 0.076212 0.200000 0.034451
v 0.118289 0.000000 0.169468
v 0.118289 0.200000 0.169468
v 0.164758 0.000000 0.080921
v 0.164758 0.200000 0.080921
vt 0.375000 0.000000
vt 0.625000 0.000000
vt 0.625000 0.250000
vt 0.375000 0.250000
vt 0.625000 0.500000
vt 0.375000 0.500000
vt 0.625000 0.750000
vt 0.375000 0.750000
vt 0.625000 1.000000
vt 0.375000 1.000000
vt 0.875000 0.500000
vt 0.875000 0.750000
vn -0.8855 0.0000 -0.4647
vn 0.4647 0.0000 -0.8855
vn 0.8855 0.0000 0.4647
vn -0.4647 0.0000 0.8855
vn 0.0000 1.0000 0.0000
usemtl None
s off
f 58/86/16 59/87/16 61/88/16 60/89/16
f 60/89/17 61/88/17 65/90/17 64/91/17
f 64/91/18 65/90/18 63/92/18 62/93/18
f 62/93/19 63/92/19 59/94/19 58/95/19
f 65/90/20 61/96/20 59/97/20 63/92/20
