# Blender v2.83.2 OBJ File: 's_truck1.blend'
# www.blender.org
mtllib s_truck1.mtl
o Cube
v 0.180234 0.065208 -0.064856
v 0.180234 0.029841 -0.064856
v 0.180234 0.065208 0.064856
v 0.180234 0.029841 0.064856
v -0.204945 0.065208 -0.064856
v -0.204945 0.029841 -0.064856
v -0.204945 0.065208 0.064856
v -0.204945 0.029841 0.064856
v 0.103695 -0.000965 0.065429
v 0.160713 0.020460 0.065429
v 0.081796 0.054733 0.065429
v 0.138359 0.077012 0.065429
v 0.081224 0.022285 0.065429
v 0.139127 -0.000631 0.065429
v 0.160230 0.052874 0.065429
v 0.102698 0.077248 0.065429
v -0.153246 -0.000965 0.065429
v -0.096227 0.020460 0.065429
v -0.175144 0.054733 0.065429
v -0.118581 0.077012 0.065429
v -0.175716 0.022285 0.065429
v -0.117813 -0.000631 0.065429
v -0.096710 0.052874 0.065429
v -0.154242 0.077248 0.065429
v 0.103695 -0.000965 -0.065394
v 0.160713 0.020460 -0.065394
v 0.081796 0.054733 -0.065394
v 0.138359 0.077012 -0.065394
v 0.081224 0.022285 -0.065394
v 0.139127 -0.000631 -0.065394
v 0.160230 0.052874 -0.065394
v 0.102698 0.077248 -0.065394
v -0.153246 -0.000965 -0.065394
v -0.096227 0.020460 -0.065394
v -0.175144 0.054733 -0.065394
v -0.118581 0.077012 -0.065394
v -0.175716 0.022285 -0.065394
v -0.117813 -0.000631 -0.065394
v -0.096710 0.052874 -0.065394
v -0.154242 0.077248 -0.065394
v -0.172114 0.142960 0.013010
v 0.023868 0.065434 0.013010
v -0.180101 0.167378 0.013010
v -0.147553 0.162767 0.013010
v -0.182280 0.152989 0.013010
v -0.004616 0.066183 0.013010
v 0.023868 0.085866 0.013010
v -0.165713 0.169556 0.013010
v -0.172114 0.142960 -0.013010
v 0.023868 0.065434 -0.013010
v -0.180101 0.167378 -0.013010
v -0.147553 0.162767 -0.013010
v -0.182280 0.152989 -0.013010
v -0.004616 0.066183 -0.013010
v 0.023868 0.085866 -0.013010
v -0.165713 0.169556 -0.013010
v 0.022400 0.060631 0.064097
v 0.022400 0.166450 0.064097
v 0.022400 0.060631 -0.064097
v 0.022400 0.166450 -0.064097
v 0.127967 0.060631 0.064097
v 0.116046 0.155157 0.064097
v 0.127967 0.060631 -0.064097
v 0.116046 0.155157 -0.064097
v 0.127987 0.057977 0.064097
v 0.119831 0.109560 0.064097
v 0.127987 0.057977 -0.064097
v 0.119831 0.109560 -0.064097
v 0.180138 0.057977 0.064097
v 0.180138 0.097012 0.064097
v 0.180138 0.057977 -0.064097
v 0.180138 0.097012 -0.064097
v 0.103695 -0.000965 0.066513
v 0.160713 0.020460 0.066513
v 0.081796 0.054733 0.066513
v 0.138359 0.077012 0.066513
v 0.081224 0.022285 0.066513
v 0.139127 -0.000631 0.066513
v 0.160230 0.052874 0.066513
v 0.102698 0.077248 0.066513
v -0.153246 -0.000965 0.066513
v -0.096227 0.020460 0.066513
v -0.175144 0.054733 0.066513
v -0.118581 0.077012 0.066513
v -0.175716 0.022285 0.066513
v -0.117813 -0.000631 0.066513
v -0.096710 0.052874 0.066513
v -0.154242 0.077248 0.066513
v 0.103695 -0.000965 -0.066477
v 0.160713 0.020460 -0.066477
v 0.081796 0.054733 -0.066477
v 0.138359 0.077012 -0.066477
v 0.081224 0.022285 -0.066477
v 0.139127 -0.000631 -0.066477
v 0.160230 0.052874 -0.066477
v 0.102698 0.077248 -0.066477
v -0.153246 -0.000965 -0.066477
v -0.096227 0.020460 -0.066477
v -0.175144 0.054733 -0.066477
v -0.118581 0.077012 -0.066477
v -0.175716 0.022285 -0.066477
v -0.117813 -0.000631 -0.066477
v -0.096710 0.052874 -0.066477
v -0.154242 0.077248 -0.066477
v 0.103695 -0.000965 0.099159
v 0.160713 0.020460 0.099159
v 0.081796 0.054733 0.099159
v 0.138359 0.077012 0.099159
v 0.081224 0.022285 0.099159
v 0.139127 -0.000631 0.099159
v 0.160230 0.052874 0.099159
v 0.102698 0.077248 0.099159
v -0.153246 -0.000965 0.099159
v -0.096227 0.020460 0.099159
v -0.175144 0.054733 0.099159
v -0.118581 0.077012 0.099159
v -0.175716 0.022285 0.099159
v -0.117813 -0.000631 0.099159
v -0.096710 0.052874 0.099159
v -0.154242 0.077248 0.099159
v 0.103695 -0.000965 -0.099123
v 0.160713 0.020460 -0.099123
v 0.081796 0.054733 -0.099123
v 0.138359 0.077012 -0.099123
v 0.081224 0.022285 -0.099123
v 0.139127 -0.000631 -0.099123
v 0.160230 0.052874 -0.099123
v 0.102698 0.077248 -0.099123
v -0.153246 -0.000965 -0.099123
v -0.096227 0.020460 -0.099123
v -0.175144 0.054733 -0.099123
v -0.118581 0.077012 -0.099123
v -0.175716 0.022285 -0.099123
v -0.117813 -0.000631 -0.099123
v -0.096710 0.052874 -0.099123
v -0.154242 0.077248 -0.099123
v 0.103695 -0.000965 0.098183
v 0.160713 0.020460 0.098183
v 0.081796 0.054733 0.098183
v 0.138359 0.077012 0.098183
v 0.081224 0.022285 0.098183
v 0.139127 -0.000631 0.098183
v 0.160230 0.052874 0.098183
v 0.102698 0.077248 0.098183
v -0.153246 -0.000965 0.098183
v -0.096227 0.020460 0.098183
v -0.175144 0.054733 0.098183
v -0.118581 0.077012 0.098183
v -0.175716 0.022285 0.098183
v -0.117813 -0.000631 0.098183
v -0.096710 0.052874 0.098183
v -0.154242 0.077248 0.098183
v 0.103695 -0.000965 -0.098147
v 0.160713 0.020460 -0.098147
v 0.081796 0.054733 -0.098147
v 0.138359 0.077012 -0.098147
v 0.081224 0.022285 -0.098147
v 0.139127 -0.000631 -0.098147
v 0.160230 0.052874 -0.098147
v 0.102698 0.077248 -0.098147
v -0.153246 -0.000965 -0.098147
v -0.096227 0.020460 -0.098147
v -0.175144 0.054733 -0.098147
v -0.118581 0.077012 -0.098147
v -0.175716 0.022285 -0.098147
v -0.117813 -0.000631 -0.098147
v -0.096710 0.052874 -0.098147
v -0.154242 0.077248 -0.098147
vt -0.129697 -0.101788
vt 0.177720 0.495317
vt -0.318696 0.949678
vt -0.626114 0.352572
vt -0.542376 1.165490
vt -1.038793 1.619851
vt -1.347247 1.020730
vt -0.850831 0.566369
vt 0.674192 0.041064
vt 1.007889 0.689214
vt 0.511473 1.143575
vt 0.177775 0.495425
vt 0.000000 0.000000
vt 0.000000 0.000000
vt 1.330860 -0.085449
vt 0.840248 0.363599
vt 0.674192 0.041064
vt 0.177776 0.495425
vt -0.130679 -0.103696
vt 0.365737 -0.558057
vt 0.917132 1.162254
vt 0.940871 1.221622
vt 1.284956 0.957317
vt 1.739559 0.538814
vt 2.038542 0.216561
vt 2.006619 0.164180
vt 1.650569 0.440839
vt 1.195587 0.857275
vt 1.140030 1.594491
vt 1.163768 1.653859
vt 1.507853 1.389554
vt 1.962456 0.971051
vt 2.261439 0.648798
vt 2.229517 0.596417
vt 1.873466 0.873076
vt 1.418485 1.289512
vt 2.355822 0.845379
vt 2.042292 1.082232
vt 1.587311 1.498667
vt 1.265713 1.842246
vt 1.290901 1.900792
vt 1.623898 1.644606
vt 2.080190 1.229383
vt 2.388840 0.896253
vt 2.419455 0.968976
vt 2.105925 1.205829
vt 1.650944 1.622265
vt 1.329347 1.965843
vt 1.354534 2.024389
vt 1.687531 1.768203
vt 2.143824 1.352980
vt 2.452474 1.019850
vt -1.650250 0.036190
vt -1.647193 0.087563
vt -1.330105 -0.102365
vt -0.232861 -1.108618
vt -0.137868 -1.203101
vt -0.179887 -1.207712
vt -0.404429 -1.077727
vt -0.554283 -0.966928
vt -0.402884 -0.720369
vt -0.335930 -0.590323
vt -0.133957 -0.775184
vt -0.200911 -0.905230
vt -0.258552 -1.392074
vt -1.354518 -0.388956
vt -1.485923 -0.242324
vt -1.657601 -0.009657
vt -1.669476 0.044282
vt -1.569206 -0.039955
vt -0.470587 -1.043534
vt -0.223695 -1.369806
vt 0.006663 -0.903892
vt -0.060290 -1.033938
vt 0.000000 0.000000
vt 0.000000 0.000000
vt -0.366712 -0.562149
vt -0.433665 -0.692195
vt 1.081835 -1.887976
vt 1.014882 -2.018022
vt 1.105899 1.542160
vt -0.379044 2.901300
vt -0.708919 2.260576
vt 0.776024 0.901436
vt 1.354618 -1.463161
vt -0.130679 -0.103696
vt -0.215219 -0.267899
vt 1.270079 -1.627364
vt -0.379044 2.901301
vt 1.106145 1.541935
vt 1.436019 2.182660
vt -0.049170 3.542025
vt 1.270079 -1.627365
vt -0.215219 -0.267900
vt -0.299758 -0.432103
vt 1.185540 -1.791568
vt 1.414247 0.076514
vt 1.498502 0.240166
vt 1.007890 0.689214
vt 0.923635 0.525563
vt 1.555349 0.346152
vt 0.831322 1.008841
vt 0.789558 0.927723
vt 1.513586 0.265034
vt 1.647662 -0.137126
vt 0.923635 0.525563
vt 0.881871 0.444445
vt 1.605899 -0.218244
vt 1.372484 -0.004604
vt 0.917132 1.162254
vt 1.195587 0.857275
vt 1.650569 0.440839
vt 2.006619 0.164180
vt 2.038542 0.216561
vt 1.739559 0.538814
vt 1.284956 0.957317
vt 0.940871 1.221622
vt 1.140030 1.594491
vt 1.418485 1.289512
vt 1.873466 0.873076
vt 2.229517 0.596417
vt 2.261439 0.648798
vt 1.962456 0.971051
vt 1.507853 1.389554
vt 1.163768 1.653859
vt 2.355822 0.845379
vt 2.388840 0.896253
vt 2.080190 1.229383
vt 1.623898 1.644606
vt 1.290901 1.900792
vt 1.265713 1.842246
vt 1.587311 1.498667
vt 2.042292 1.082232
vt 2.419455 0.968976
vt 2.452474 1.019850
vt 2.143824 1.352980
vt 1.687531 1.768203
vt 1.354534 2.024389
vt 1.329347 1.965843
vt 1.650944 1.622265
vt 2.105925 1.205829
vt 0.917132 1.162254
vt 1.195587 0.857275
vt 1.650569 0.440839
vt 2.006619 0.164180
vt 2.038542 0.216561
vt 1.739559 0.538814
vt 1.284956 0.957317
vt 0.940871 1.221622
vt 1.140030 1.594491
vt 1.418485 1.289512
vt 1.873466 0.873076
vt 2.229517 0.596417
vt 2.261439 0.648798
vt 1.962456 0.971051
vt 1.507853 1.389554
vt 1.163768 1.653859
vt 2.355822 0.845379
vt 2.388840 0.896253
vt 2.080190 1.229383
vt 1.623898 1.644606
vt 1.290901 1.900792
vt 1.265713 1.842246
vt 1.587311 1.498667
vt 2.042292 1.082232
vt 2.419455 0.968976
vt 2.452474 1.019850
vt 2.143824 1.352980
vt 1.687531 1.768203
vt 1.354534 2.024389
vt 1.329347 1.965843
vt 1.650944 1.622265
vt 2.105925 1.205829
vt 0.917132 1.162254
vt 0.940871 1.221622
vt 1.284956 0.957317
vt 1.739559 0.538814
vt 2.038542 0.216561
vt 2.006619 0.164180
vt 1.650569 0.440839
vt 1.195587 0.857275
vt 1.140030 1.594491
vt 1.163768 1.653859
vt 1.507853 1.389554
vt 1.962456 0.971051
vt 2.261439 0.648798
vt 2.229517 0.596417
vt 1.873466 0.873076
vt 1.418485 1.289512
vt 2.355822 0.845379
vt 2.042292 1.082232
vt 1.587311 1.498667
vt 1.265713 1.842246
vt 1.290901 1.900792
vt 1.623898 1.644606
vt 2.080190 1.229383
vt 2.388840 0.896253
vt 2.419455 0.968976
vt 2.105925 1.205829
vt 1.650944 1.622265
vt 1.329347 1.965843
vt 1.354534 2.024389
vt 1.687531 1.768203
vt 2.143824 1.352980
vt 2.452474 1.019850
vn 0.0000 1.0000 0.0000
vn 0.0000 0.0000 1.0000
vn -1.0000 0.0000 0.0000
vn 1.0000 0.0014 0.0000
vn 0.0000 0.0000 -1.0000
vn -0.9887 0.1497 0.0000
vn -0.7023 -0.7119 0.0000
vn 0.4038 0.9148 0.0000
vn -0.4167 -0.9090 0.0000
vn -0.1497 0.9887 0.0000
vn 0.9921 0.1251 0.0000
vn 0.1197 0.9928 0.0000
vn 0.2037 0.9790 0.0000
usemtl Material.001
s off
f 1/1/1 5/2/1 7/3/1 3/4/1
f 4/5/2 3/6/2 7/7/2 8/8/2
f 8/9/3 7/10/3 5/11/3 6/12/3
f 4/13/4 2/14/4 72/15/4 70/16/4
f 6/17/5 5/18/5 1/19/5 2/20/5
f 14/21/5 9/22/5 13/23/5 11/24/5 16/25/5 12/26/5 15/27/5 10/28/5
f 22/29/5 17/30/5 21/31/5 19/32/5 24/33/5 20/34/5 23/35/5 18/36/5
f 30/37/2 26/38/2 31/39/2 28/40/2 32/41/2 27/42/2 29/43/2 25/44/2
f 38/45/2 34/46/2 39/47/2 36/48/2 40/49/2 35/50/2 37/51/2 33/52/2
f 46/53/2 42/54/2 47/55/2 44/56/2 48/57/2 43/58/2 45/59/2 41/60/2
f 43/61/6 51/62/6 53/63/6 45/64/6
f 54/65/5 49/66/5 53/67/5 51/68/5 56/69/5 52/70/5 55/71/5 50/72/5
f 45/64/7 53/63/7 49/73/7 41/74/7
f 47/75/8 55/76/8 56/77/8 48/78/8
f 41/74/9 49/73/9 54/79/9 46/80/9
f 48/78/10 56/77/10 51/62/10 43/61/10
f 57/81/3 58/82/3 60/83/3 59/84/3
f 59/85/5 60/86/5 64/87/5 63/88/5
f 63/89/11 64/90/11 62/91/11 61/92/11
f 61/93/2 62/94/2 58/95/2 57/96/2
f 64/97/12 60/98/12 58/99/12 62/100/12
f 67/101/5 68/102/5 72/103/5 71/104/5
f 69/105/2 70/106/2 66/107/2 65/108/2
f 72/15/13 68/109/13 66/107/13 70/16/13
f 78/110/2 74/111/2 79/112/2 76/113/2 80/114/2 75/115/2 77/116/2 73/117/2
f 86/118/2 82/119/2 87/120/2 84/121/2 88/122/2 83/123/2 85/124/2 81/125/2
f 94/126/5 89/127/5 93/128/5 91/129/5 96/130/5 92/131/5 95/132/5 90/133/5
f 102/134/5 97/135/5 101/136/5 99/137/5 104/138/5 100/139/5 103/140/5 98/141/5
f 110/142/2 106/143/2 111/144/2 108/145/2 112/146/2 107/147/2 109/148/2 105/149/2
f 118/150/2 114/151/2 119/152/2 116/153/2 120/154/2 115/155/2 117/156/2 113/157/2
f 126/158/5 121/159/5 125/160/5 123/161/5 128/162/5 124/163/5 127/164/5 122/165/5
f 134/166/5 129/167/5 133/168/5 131/169/5 136/170/5 132/171/5 135/172/5 130/173/5
f 142/174/5 137/175/5 141/176/5 139/177/5 144/178/5 140/179/5 143/180/5 138/181/5
f 150/182/5 145/183/5 149/184/5 147/185/5 152/186/5 148/187/5 151/188/5 146/189/5
f 158/190/2 154/191/2 159/192/2 156/193/2 160/194/2 155/195/2 157/196/2 153/197/2
f 166/198/2 162/199/2 167/200/2 164/201/2 168/202/2 163/203/2 165/204/2 161/205/2
