# Blender v2.83.2 OBJ File: 's_truck2.blend'
# www.blender.org
mtllib s_truck2.mtl
o Cube
v 0.180234 0.065208 -0.064856
v 0.180234 0.029841 -0.064856
v 0.180234 0.065208 0.064856
v 0.180234 0.029841 0.064856
v -0.204945 0.065208 -0.064856
v -0.204945 0.029841 -0.064856
v -0.204945 0.065208 0.064856
v -0.204945 0.029841 0.064856
v 0.103695 -0.000965 0.065429
v 0.160713 0.020460 0.065429
v 0.081796 0.054733 0.065429
v 0.138359 0.077012 0.065429
v 0.081224 0.022285 0.065429
v 0.139127 -0.000631 0.065429
v 0.160230 0.052874 0.065429
v 0.102698 0.077248 0.065429
v -0.153246 -0.000965 0.065429
v -0.096227 0.020460 0.065429
v -0.175144 0.054733 0.065429
v -0.118581 0.077012 0.065429
v -0.175716 0.022285 0.065429
v -0.117813 -0.000631 0.065429
v -0.096710 0.052874 0.065429
v -0.154242 0.077248 0.065429
v 0.103695 -0.000965 -0.065394
v 0.160713 0.020460 -0.065394
v 0.081796 0.054733 -0.065394
v 0.138359 0.077012 -0.065394
v 0.081224 0.022285 -0.065394
v 0.139127 -0.000631 -0.065394
v 0.160230 0.052874 -0.065394
v 0.102698 0.077248 -0.065394
v -0.153246 -0.000965 -0.065394
v -0.096227 0.020460 -0.065394
v -0.175144 0.054733 -0.065394
v -0.118581 0.077012 -0.065394
v -0.175716 0.022285 -0.065394
v -0.117813 -0.000631 -0.065394
v -0.096710 0.052874 -0.065394
v -0.154242 0.077248 -0.065394
v -0.172114 0.142960 0.013010
v -0.004616 0.066183 0.013010
v 0.023868 0.085866 0.013010
v -0.165713 0.169556 0.013010
v -0.172114 0.142960 -0.013010
v -0.004616 0.066183 -0.013010
v 0.023868 0.085866 -0.013010
v -0.165713 0.169556 -0.013010
v 0.022400 0.060631 0.064097
v 0.022400 0.166450 0.064097
v 0.022400 0.060631 -0.064097
v 0.022400 0.166450 -0.064097
v 0.116046 0.155157 0.064097
v 0.116046 0.155157 -0.064097
v 0.119831 0.109560 0.064097
v 0.119831 0.109560 -0.064097
v 0.180138 0.097012 0.064097
v 0.180138 0.097012 -0.064097
vt -0.129697 -0.101788
vt 0.177720 0.495317
vt -0.318696 0.949678
vt -0.626114 0.352572
vt -0.542376 1.165490
vt -1.038793 1.619851
vt -1.347247 1.020730
vt -0.850831 0.566369
vt 0.674192 0.041064
vt 1.007889 0.689214
vt 0.511473 1.143575
vt 0.177775 0.495425
vt 0.000000 0.000000
vt 0.000000 0.000000
vt 1.330860 -0.085449
vt 0.840248 0.363599
vt 0.674192 0.041064
vt 0.177776 0.495425
vt -0.130679 -0.103696
vt 0.365737 -0.558057
vt 0.917132 1.162254
vt 1.195587 0.857275
vt 1.650569 0.440839
vt 2.006619 0.164180
vt 2.038542 0.216561
vt 1.739559 0.538814
vt 1.284956 0.957317
vt 0.940871 1.221622
vt 1.140030 1.594491
vt 1.418485 1.289512
vt 1.873466 0.873076
vt 2.229517 0.596417
vt 2.261439 0.648798
vt 1.962456 0.971051
vt 1.507853 1.389554
vt 1.163768 1.653859
vt 2.355822 0.845379
vt 2.388840 0.896253
vt 2.080190 1.229383
vt 1.623898 1.644606
vt 1.290901 1.900792
vt 1.265713 1.842246
vt 1.587311 1.498667
vt 2.042292 1.082232
vt 2.419455 0.968976
vt 2.452474 1.019850
vt 2.143824 1.352980
vt 1.687531 1.768203
vt 1.354534 2.024389
vt 1.329347 1.965843
vt 1.650944 1.622265
vt 2.105925 1.205829
vt -0.060290 -1.033938
vt 1.014882 -2.018022
vt 0.000000 0.000000
vt -0.433665 -0.692195
vt -0.366712 -0.562149
vt 0.006663 -0.903892
vt 0.000000 0.000000
vt 1.081835 -1.887976
vt 1.105899 1.542160
vt -0.379044 2.901300
vt -0.708919 2.260576
vt 0.776024 0.901436
vt 0.881871 0.444444
vt 1.372484 -0.004604
vt 1.414247 0.076514
vt 0.923635 0.525563
vt 1.498502 0.240166
vt 1.007890 0.689214
vt 0.000000 0.000000
vt 0.000000 0.000000
vn 0.0000 1.0000 0.0000
vn 0.0000 0.0000 1.0000
vn -1.0000 0.0000 0.0000
vn 1.0000 0.0014 0.0000
vn 0.0000 0.0000 -1.0000
vn -0.9722 0.2340 0.0000
vn 0.4038 0.9148 0.0000
vn -0.4167 -0.9090 0.0000
vn 0.9966 0.0827 0.0000
vn 0.1197 0.9928 0.0000
vn -0.0012 0.0050 1.0000
vn -0.0012 0.0050 -1.0000
vn 0.2037 0.9790 0.0000
usemtl Material.001
s off
f 1/1/1 5/2/1 7/3/1 3/4/1
f 4/5/2 3/6/2 7/7/2 8/8/2
f 8/9/3 7/10/3 5/11/3 6/12/3
f 4/13/4 2/14/4 58/15/4 57/16/4
f 6/17/5 5/18/5 1/19/5 2/20/5
f 14/21/2 10/22/2 15/23/2 12/24/2 16/25/2 11/26/2 13/27/2 9/28/2
f 22/29/2 18/30/2 23/31/2 20/32/2 24/33/2 19/34/2 21/35/2 17/36/2
f 30/37/5 25/38/5 29/39/5 27/40/5 32/41/5 28/42/5 31/43/5 26/44/5
f 38/45/5 33/46/5 37/47/5 35/48/5 40/49/5 36/50/5 39/51/5 34/52/5
f 41/53/2 42/54/2 43/55/2 44/56/2
f 48/57/6 45/58/6 41/53/6 44/56/6
f 43/55/7 47/59/7 48/57/7 44/56/7
f 41/53/8 45/58/8 46/60/8 42/54/8
f 47/59/5 46/60/5 45/58/5 48/57/5
f 49/61/3 50/62/3 52/63/3 51/64/3
f 55/65/9 56/66/9 54/67/9 53/68/9
f 54/67/10 52/69/10 50/70/10 53/68/10
f 50/70/11 49/61/11 3/71/11 57/16/11 55/65/11 53/68/11
f 51/64/12 52/69/12 54/67/12 56/66/12 58/15/12 1/72/12
f 58/15/13 56/66/13 55/65/13 57/16/13
