# Blender v2.83.2 OBJ File: 'truck.blend'
# www.blender.org
mtllib s_truck.mtl
o Cube
v 0.180234 0.065208 -0.064856
v 0.180234 0.029841 -0.064856
v 0.180234 0.065208 0.064856
v 0.180234 0.029841 0.064856
v -0.204945 0.065208 -0.064856
v -0.204945 0.029841 -0.064856
v -0.204945 0.065208 0.064856
v -0.204945 0.029841 0.064856
v 0.103695 -0.000965 0.092369
v 0.160713 0.020460 0.092369
v 0.081796 0.054733 0.092369
v 0.138359 0.077012 0.092369
v 0.081224 0.022285 0.092369
v 0.139127 -0.000631 0.092369
v 0.160230 0.052874 0.092369
v 0.102698 0.077248 0.092369
v 0.103695 -0.000965 0.063746
v 0.160713 0.020460 0.063746
v 0.081796 0.054733 0.063746
v 0.138359 0.077012 0.063746
v 0.081224 0.022285 0.063746
v 0.139127 -0.000631 0.063746
v 0.160230 0.052874 0.063746
v 0.102698 0.077248 0.063746
v -0.153246 -0.000965 0.092369
v -0.096227 0.020460 0.092369
v -0.175144 0.054733 0.092369
v -0.118581 0.077012 0.092369
v -0.175716 0.022285 0.092369
v -0.117813 -0.000631 0.092369
v -0.096710 0.052874 0.092369
v -0.154242 0.077248 0.092369
v -0.153246 -0.000965 0.063746
v -0.096227 0.020460 0.063746
v -0.175144 0.054733 0.063746
v -0.118581 0.077012 0.063746
v -0.175716 0.022285 0.063746
v -0.117813 -0.000631 0.063746
v -0.096710 0.052874 0.063746
v -0.154242 0.077248 0.063746
v 0.103695 -0.000965 -0.063669
v 0.160713 0.020460 -0.063669
v 0.081796 0.054733 -0.063669
v 0.138359 0.077012 -0.063669
v 0.081224 0.022285 -0.063669
v 0.139127 -0.000631 -0.063669
v 0.160230 0.052874 -0.063669
v 0.102698 0.077248 -0.063669
v 0.103695 -0.000965 -0.092881
v 0.160713 0.020460 -0.092881
v 0.081796 0.054733 -0.092881
v 0.138359 0.077012 -0.092881
v 0.081224 0.022285 -0.092881
v 0.139127 -0.000631 -0.092881
v 0.160230 0.052874 -0.092881
v 0.102698 0.077248 -0.092881
v -0.153246 -0.000965 -0.063669
v -0.096227 0.020460 -0.063669
v -0.175144 0.054733 -0.063669
v -0.118581 0.077012 -0.063669
v -0.175716 0.022285 -0.063669
v -0.117813 -0.000631 -0.063669
v -0.096710 0.052874 -0.063669
v -0.154242 0.077248 -0.063669
v -0.153246 -0.000965 -0.092881
v -0.096227 0.020460 -0.092881
v -0.175144 0.054733 -0.092881
v -0.118581 0.077012 -0.092881
v -0.175716 0.022285 -0.092881
v -0.117813 -0.000631 -0.092881
v -0.096710 0.052874 -0.092881
v -0.154242 0.077248 -0.092881
v -0.172114 0.142960 0.013010
v 0.023868 0.065434 0.013010
v -0.180101 0.167378 0.013010
v -0.147553 0.162767 0.013010
v -0.182280 0.152989 0.013010
v -0.004616 0.066183 0.013010
v 0.023868 0.085866 0.013010
v -0.165713 0.169556 0.013010
v -0.172114 0.142960 -0.013010
v 0.023868 0.065434 -0.013010
v -0.180101 0.167378 -0.013010
v -0.147553 0.162767 -0.013010
v -0.182280 0.152989 -0.013010
v -0.004616 0.066183 -0.013010
v 0.023868 0.085866 -0.013010
v -0.165713 0.169556 -0.013010
v 0.022400 0.060631 0.064097
v 0.022400 0.166450 0.064097
v 0.022400 0.060631 -0.064097
v 0.022400 0.166450 -0.064097
v 0.127967 0.060631 0.064097
v 0.116046 0.155157 0.064097
v 0.127967 0.060631 -0.064097
v 0.116046 0.155157 -0.064097
v 0.127987 0.057977 0.064097
v 0.119831 0.109560 0.064097
v 0.127987 0.057977 -0.064097
v 0.119831 0.109560 -0.064097
v 0.180138 0.057977 0.064097
v 0.180138 0.097012 0.064097
v 0.180138 0.057977 -0.064097
v 0.180138 0.097012 -0.064097
vt -0.129697 -0.101788
vt 0.177720 0.495317
vt -0.318696 0.949678
vt -0.626114 0.352572
vt -0.542376 1.165490
vt -1.038793 1.619851
vt -1.347247 1.020730
vt -0.850831 0.566369
vt 0.674192 0.041064
vt 1.007889 0.689214
vt 0.511473 1.143575
vt 0.177775 0.495425
vt 0.177720 0.495318
vt 0.511472 1.143574
vt 0.015056 1.597936
vt -0.318696 0.949678
vt 0.674192 0.041064
vt 0.177776 0.495425
vt -0.130679 -0.103696
vt 0.365737 -0.558057
vt 1.371523 1.088562
vt 1.032243 1.399098
vt 0.958588 1.256035
vt 1.297868 0.945499
vt 1.826408 0.672214
vt 1.752753 0.529152
vt 2.483088 1.092573
vt 2.516107 1.143447
vt 2.207457 1.476577
vt 1.751164 1.891800
vt 1.418168 2.147986
vt 1.392980 2.089440
vt 1.714577 1.745862
vt 2.169559 1.329426
vt 0.347746 -1.407406
vt -0.107678 -0.990564
vt -0.181333 -1.133627
vt 0.274091 -1.550469
vt 0.917132 1.162254
vt 1.195587 0.857275
vt 1.650569 0.440839
vt 2.006619 0.164180
vt 2.038542 0.216561
vt 1.739559 0.538814
vt 1.284956 0.957317
vt 0.940871 1.221622
vt -0.433665 -0.692195
vt -0.507320 -0.835258
vt -0.490121 0.953950
vt -0.461476 1.009587
vt -0.571021 1.109852
vt -0.599666 1.054214
vt 0.664045 -1.696908
vt 0.590390 -1.839971
vt 2.121801 0.401847
vt 2.048146 0.258784
vt 1.445178 1.231625
vt 1.105899 1.542160
vt 1.032244 1.399098
vt 1.371523 1.088562
vt 1.900063 0.815277
vt 1.826408 0.672214
vt -0.673135 -1.144338
vt -0.640116 -1.093463
vt -0.948767 -0.760333
vt -1.405059 -0.345111
vt -1.738056 -0.088924
vt -1.763244 -0.147470
vt -1.441646 -0.491049
vt -0.986665 -0.907485
vt -1.295795 -0.133767
vt -0.840371 -0.550608
vt -0.766716 -0.407546
vt -1.222140 0.009295
vt 1.140030 1.594491
vt 1.418485 1.289512
vt 1.873466 0.873076
vt 2.229517 0.596417
vt 2.261439 0.648798
vt 1.962456 0.971051
vt 1.507853 1.389554
vt 1.163768 1.653859
vt -0.514384 -0.848978
vt -0.440729 -0.705915
vt -0.380575 0.853685
vt -0.351930 0.909323
vt -0.461476 1.009588
vt -0.490121 0.953950
vt -1.612094 0.155735
vt -1.538439 0.298797
vt 2.195456 0.544909
vt 2.121801 0.401847
vt -0.712991 -0.241912
vt -0.373712 -0.552448
vt -0.298542 -0.406442
vt -0.637821 -0.095907
vt -1.167876 0.174436
vt -1.092706 0.320441
vt 2.355822 0.845379
vt 2.388840 0.896253
vt 2.080190 1.229383
vt 1.623898 1.644606
vt 1.290901 1.900792
vt 1.265713 1.842246
vt 1.587311 1.498667
vt 2.042292 1.082232
vt -1.071800 0.301306
vt -0.616376 -0.115535
vt -0.541206 0.030470
vt -0.996630 0.447311
vt 0.853499 1.038658
vt 1.131954 0.733678
vt 1.586935 0.317242
vt 1.942986 0.040583
vt 1.974909 0.092964
vt 1.675926 0.415217
vt 1.221323 0.833720
vt 0.877238 1.098025
vt -0.290389 -0.413905
vt -0.215219 -0.267900
vt -0.542376 1.165490
vt -0.571021 1.109852
vt -0.459223 1.007525
vt -0.430578 1.063163
vt -1.388099 0.590809
vt -1.312929 0.736813
vt -1.463269 0.444803
vt -1.388099 0.590808
vt -0.788162 -0.387917
vt -0.448882 -0.698453
vt -0.373712 -0.552448
vt -0.712991 -0.241912
vt -1.243046 0.028431
vt -1.167876 0.174436
vt 2.419455 0.968976
vt 2.452474 1.019850
vt 2.143824 1.352980
vt 1.687531 1.768203
vt 1.354534 2.024389
vt 1.329347 1.965843
vt 1.650944 1.622265
vt 2.105925 1.205829
vt -0.446978 0.185806
vt -0.902403 0.602647
vt -0.977572 0.456642
vt -0.522148 0.039801
vt 1.203663 1.718089
vt 1.482118 1.413109
vt 1.937099 0.996673
vt 2.293150 0.720014
vt 2.325073 0.772395
vt 2.026090 1.094648
vt 1.571486 1.513151
vt 1.227402 1.777456
vt -1.228390 0.901017
vt -1.303559 0.755012
vt -0.430578 1.063163
vt -0.459222 1.007525
vt -0.347424 0.905199
vt -0.318780 0.960836
vt -0.130679 -0.103696
vt -0.205849 -0.249702
vt -1.538439 0.298798
vt -1.463269 0.444803
vt -0.079999 -0.824571
vt 1.003534 -1.816309
vt 1.070487 -1.686263
vt -0.013046 -0.694525
vt -1.650250 0.036190
vt -0.554283 -0.966928
vt -0.404429 -1.077727
vt -0.179887 -1.207712
vt -0.137868 -1.203101
vt -0.232861 -1.108618
vt -1.330105 -0.102365
vt -1.647193 0.087563
vt -0.402884 -0.720369
vt -0.200911 -0.905230
vt -0.133957 -0.775184
vt -0.335930 -0.590323
vt -0.258552 -1.392074
vt -0.223695 -1.369806
vt -0.470587 -1.043534
vt -1.569206 -0.039955
vt -1.669476 0.044282
vt -1.657601 -0.009657
vt -1.485923 -0.242324
vt -1.354518 -0.388956
vt -0.060290 -1.033938
vt 0.006663 -0.903892
vt 1.099269 -1.903934
vt 1.166223 -1.773888
vt 1.014882 -2.018022
vt 1.081835 -1.887976
vt -0.433665 -0.692195
vt -0.366712 -0.562149
vt 1.105899 1.542160
vt -0.379044 2.901300
vt -0.708919 2.260576
vt 0.776024 0.901436
vt 1.354618 -1.463161
vt -0.130679 -0.103696
vt -0.215219 -0.267899
vt 1.270079 -1.627364
vt -0.379044 2.901301
vt 1.106145 1.541935
vt 1.436019 2.182660
vt -0.049170 3.542025
vt 1.270079 -1.627365
vt -0.215219 -0.267900
vt -0.299758 -0.432103
vt 1.185540 -1.791568
vt 1.414247 0.076514
vt 1.498502 0.240166
vt 1.007890 0.689214
vt 0.923635 0.525563
vt 1.555349 0.346152
vt 0.831322 1.008841
vt 0.789558 0.927723
vt 1.513586 0.265034
vt -1.038793 1.619851
vt -0.314818 0.957211
vt 0.015056 1.597935
vt -0.708918 2.260576
vt 1.647662 -0.137126
vt 0.923635 0.525563
vt 0.881871 0.444445
vt 1.605899 -0.218244
vt 1.330860 -0.085449
vt 1.372484 -0.004604
vt 0.840248 0.363599
vn 0.0000 1.0000 0.0000
vn 0.0000 0.0000 1.0000
vn -1.0000 0.0000 0.0000
vn 1.0000 0.0000 0.0000
vn 0.0000 0.0000 -1.0000
vn -0.7410 -0.6715 0.0000
vn -0.9999 -0.0149 0.0000
vn 0.9998 -0.0176 -0.0000
vn 0.7191 0.6950 0.0000
vn -0.0066 -1.0000 0.0000
vn 0.7329 -0.6804 0.0000
vn -0.6989 0.7153 0.0000
vn -0.4093 -0.9124 0.0000
vn 0.9887 -0.1497 0.0000
vn 0.7023 0.7119 0.0000
vn -0.3502 -0.9367 0.0000
vn 0.4167 0.9090 0.0000
vn 0.1497 -0.9887 0.0000
vn 0.9921 0.1251 0.0000
vn 0.1197 0.9928 0.0000
vn 0.2037 0.9790 0.0000
usemtl Material.001
s off
f 1/1/1 5/2/1 7/3/1 3/4/1
f 4/5/2 3/6/2 7/7/2 8/8/2
f 8/9/3 7/10/3 5/11/3 6/12/3
f 2/13/4 1/14/4 3/15/4 4/16/4
f 6/17/5 5/18/5 1/19/5 2/20/5
f 15/21/6 12/22/6 20/23/6 23/24/6
f 10/25/7 15/21/7 23/24/7 18/26/7
f 14/27/5 9/28/5 13/29/5 11/30/5 16/31/5 12/32/5 15/33/5 10/34/5
f 11/35/8 13/36/8 21/37/8 19/38/8
f 22/39/2 18/40/2 23/41/2 20/42/2 24/43/2 19/44/2 21/45/2 17/46/2
f 13/36/9 9/47/9 17/48/9 21/37/9
f 12/49/10 16/50/10 24/51/10 20/52/10
f 16/53/11 11/35/11 19/38/11 24/54/11
f 14/55/12 10/25/12 18/26/12 22/56/12
f 31/57/6 28/58/6 36/59/6 39/60/6
f 26/61/7 31/57/7 39/60/7 34/62/7
f 30/63/5 25/64/5 29/65/5 27/66/5 32/67/5 28/68/5 31/69/5 26/70/5
f 27/71/8 29/72/8 37/73/8 35/74/8
f 38/75/2 34/76/2 39/77/2 36/78/2 40/79/2 35/80/2 37/81/2 33/82/2
f 29/72/9 25/83/9 33/84/9 37/73/9
f 28/85/10 32/86/10 40/87/10 36/88/10
f 32/89/11 27/71/11 35/74/11 40/90/11
f 30/91/12 26/61/12 34/62/12 38/92/12
f 47/93/6 44/94/6 52/95/6 55/96/6
f 42/97/7 47/93/7 55/96/7 50/98/7
f 46/99/5 41/100/5 45/101/5 43/102/5 48/103/5 44/104/5 47/105/5 42/106/5
f 43/107/8 45/108/8 53/109/8 51/110/8
f 54/111/2 50/112/2 55/113/2 52/114/2 56/115/2 51/116/2 53/117/2 49/118/2
f 45/108/9 41/119/9 49/120/9 53/109/9
f 44/121/10 48/122/10 56/123/10 52/124/10
f 48/125/11 43/107/11 51/110/11 56/126/11
f 46/127/12 42/97/12 50/98/12 54/128/12
f 63/129/6 60/130/6 68/131/6 71/132/6
f 58/133/7 63/129/7 71/132/7 66/134/7
f 62/135/5 57/136/5 61/137/5 59/138/5 64/139/5 60/140/5 63/141/5 58/142/5
f 59/143/8 61/144/8 69/145/8 67/146/8
f 70/147/2 66/148/2 71/149/2 68/150/2 72/151/2 67/152/2 69/153/2 65/154/2
f 61/144/9 57/155/9 65/156/9 69/145/9
f 60/157/10 64/158/10 72/159/10 68/160/10
f 64/161/11 59/143/11 67/146/11 72/162/11
f 62/163/12 58/133/12 66/134/12 70/164/12
f 79/165/13 76/166/13 84/167/13 87/168/13
f 78/169/5 73/170/5 77/171/5 75/172/5 80/173/5 76/174/5 79/175/5 74/176/5
f 75/177/14 77/178/14 85/179/14 83/180/14
f 86/181/2 82/182/2 87/183/2 84/184/2 88/185/2 83/186/2 85/187/2 81/188/2
f 77/178/15 73/189/15 81/190/15 85/179/15
f 76/166/16 80/191/16 88/192/16 84/167/16
f 73/189/17 78/193/17 86/194/17 81/190/17
f 80/195/18 75/177/18 83/180/18 88/196/18
f 89/197/3 90/198/3 92/199/3 91/200/3
f 91/201/5 92/202/5 96/203/5 95/204/5
f 95/205/19 96/206/19 94/207/19 93/208/19
f 93/209/2 94/210/2 90/211/2 89/212/2
f 96/213/20 92/214/20 90/215/20 94/216/20
f 99/217/5 100/218/5 104/219/5 103/220/5
f 103/221/4 104/222/4 102/223/4 101/224/4
f 101/225/2 102/226/2 98/227/2 97/228/2
f 104/229/21 100/230/21 98/227/21 102/231/21
