# Blender v2.83.2 OBJ File: 'ShelfEnd.blend'
# www.blender.org
mtllib ShelfEnd.mtl
o Cube
v 0.500000 1.500000 0.500000
v 0.500000 0.000000 0.500000
v -0.500000 1.500000 0.500000
v -0.500000 0.000000 0.500000
v 0.500000 1.500000 -0.500000
v 0.500000 0.000000 -0.500000
v -0.500000 1.500000 -0.500000
v -0.500000 0.000000 -0.500000
v -0.500000 1.500000 0.000000
v 0.000000 1.500000 0.500000
v -0.000000 1.500000 -0.500000
v 0.500000 1.500000 -0.000000
v 0.000000 1.920557 0.000000
vt 0.076210 0.067422
vt 0.183738 0.036103
vt 0.186014 0.489339
vt 0.009606 0.984976
vt 0.009606 -0.003900
vt 0.165572 -0.003900
vt 0.321538 -0.003900
vt 0.321538 0.984976
vt 0.989306 -0.010548
vt 0.989306 0.968974
vt 0.835595 0.968974
vt 0.681883 0.968974
vt 0.681883 -0.010548
vt 0.658375 0.009575
vt 0.658375 0.982444
vt 0.502082 0.982444
vt 0.345789 0.982444
vt 0.345789 0.009575
vt 0.315615 0.010869
vt 0.315615 0.978019
vt 0.162265 0.978019
vt 0.008915 0.978019
vt 0.008915 0.010869
vt 0.295817 0.911257
vt 0.188290 0.942576
vt 0.299323 0.480236
vt 0.072705 0.498443
vt 0.291493 0.050126
vt 0.080534 0.928552
vn 0.0000 0.7653 -0.6437
vn -1.0000 0.0000 0.0000
vn 0.0000 0.0000 -1.0000
vn 0.0000 0.0000 1.0000
vn 1.0000 0.0000 0.0000
vn 0.0000 0.7653 0.6437
vn -0.6437 0.7653 0.0000
vn 0.6437 0.7653 0.0000
usemtl Material
s off
f 5/1/1 11/2/1 13/3/1
f 4/4/2 3/5/2 9/6/2 7/7/2 8/8/2
f 8/9/3 7/10/3 11/11/3 5/12/3 6/13/3
f 2/14/4 1/15/4 10/16/4 3/17/4 4/18/4
f 6/19/5 5/20/5 12/21/5 1/22/5 2/23/5
f 3/24/6 10/25/6 13/3/6
f 9/26/7 3/24/7 13/3/7
f 12/27/8 5/1/8 13/3/8
f 9/26/7 13/3/7 7/28/7
f 11/2/1 7/28/1 13/3/1
f 1/29/8 12/27/8 13/3/8
f 10/25/6 1/29/6 13/3/6
