# Blender v2.83.2 OBJ File: 'Shelf_1.blend'
# www.blender.org
mtllib Shelf_1.mtl
o shelf.101_Cube.018
v -1.000000 0.000000 0.500000
v -1.000000 1.500000 0.500000
v -1.000000 0.000000 -0.500000
v -1.000000 1.500000 -0.500000
v 1.000000 0.000000 0.500000
v 1.000000 1.500000 0.500000
v 1.000000 0.000000 -0.500000
v 1.000000 1.500000 -0.500000
v -0.950029 0.000000 0.500000
v -0.950029 1.500000 0.500000
v -0.950029 0.000000 -0.400004
v -0.950029 1.500000 -0.400004
v 0.949970 0.000000 -0.400004
v 0.949970 1.500000 -0.400004
v 0.949970 0.000000 0.499996
v 0.949970 1.500000 0.499996
v -0.950029 0.100000 0.500000
v 0.949970 0.100000 0.499996
v -0.950029 0.100000 -0.400002
v 0.949970 0.100000 -0.400006
v -0.950029 0.500000 0.499998
v 0.949970 0.500000 0.499994
v 0.949970 0.500000 -0.400006
v -0.950029 0.500000 -0.400002
v -0.950029 0.600000 0.499998
v 0.949970 0.600000 0.499994
v -0.950029 0.600000 -0.400002
v 0.949970 0.600000 -0.400006
v -0.950029 1.000000 -0.400002
v 0.949970 1.000000 -0.400006
v -0.950029 1.000000 0.499998
v 0.949970 1.000000 0.499994
v -0.950029 1.100000 0.499998
v 0.949970 1.100000 0.499994
v -0.950029 1.100000 -0.400002
v 0.949970 1.100000 -0.400006
v -0.950029 1.400000 -0.400002
v 0.949970 1.400000 -0.400006
v -0.950029 1.400000 0.099998
v 0.949970 1.400000 0.099994
v -0.950029 1.500000 0.099998
v 0.949970 1.500000 0.099994
v -0.950029 1.500000 0.500000
v -0.950029 1.500000 -0.500000
v 0.949970 1.500000 0.500000
v 0.949970 1.500000 -0.500000
v -0.950029 1.500000 -0.500002
v 0.949970 1.500000 -0.500006
v 0.000000 0.000000 -0.500000
v 0.000000 1.500000 -0.500000
vt 0.492306 0.005115
vt 0.493558 0.995260
vt 0.996941 0.997107
vt 0.997239 -0.000788
vt 0.497457 0.002493
vt 0.497322 0.988325
vt 0.990238 0.988393
vt 0.990373 0.002561
vt 0.988100 0.992999
vt 0.989968 0.074818
vt 0.490294 0.071385
vt 0.488425 0.989566
vt 0.914157 0.988435
vt 0.762663 0.988435
vt 0.762663 0.992220
vt 0.914157 0.992220
vt 0.987569 0.993052
vt 0.988237 0.000297
vt 0.503227 -0.000810
vt 0.502560 0.991945
vt 0.491629 -0.002709
vt 0.484446 0.997941
vt 0.992965 0.999556
vt 1.003249 -0.002645
vt 0.773088 0.992813
vt 0.773088 0.989024
vt 0.621595 0.989024
vt 0.621595 0.992813
vt 0.145541 -0.003028
vt 0.001623 -0.003029
vt 0.001623 0.007071
vt 0.145541 0.007071
vt 0.486831 0.986421
vt 0.487257 0.001949
vt 0.001375 0.001171
vt 0.000949 0.985643
vt 0.059289 0.005931
vt 0.058998 0.965553
vt 0.444419 0.966200
vt 0.444710 0.006577
vt 0.096552 0.144819
vt 0.028908 0.144819
vt 0.028908 0.163807
vt 0.096552 0.163807
vt 0.209062 0.416787
vt 0.209074 0.577763
vt 0.217137 0.577772
vt 0.217126 0.416795
vt 0.000936 -0.001718
vt 0.002392 0.998039
vt 0.487270 1.000102
vt 0.478063 -0.002756
vt 0.120161 0.491784
vt 0.067307 0.491784
vt 0.067307 0.506620
vt 0.120161 0.506620
vt -0.000564 0.003834
vt 0.003633 0.994159
vt 0.488770 1.000790
vt 0.481473 -0.000387
vt 0.209291 0.423525
vt 0.210065 0.557076
vt 0.216908 0.557021
vt 0.216134 0.423470
vt 0.488074 0.998431
vt 0.484754 -0.002067
vt -0.010719 0.002993
vt 0.006553 0.995740
vt 0.182568 0.793088
vt 0.128916 0.793088
vt 0.128916 0.804383
vt 0.182568 0.804383
vt 0.451749 0.993511
vt 0.454613 0.240251
vt 0.058160 0.238745
vt 0.055296 0.992005
vt 0.151742 0.905133
vt 0.007823 0.905133
vt 0.007823 0.915233
vt 0.151742 0.915233
vt 0.991666 0.435441
vt 0.991667 0.586934
vt 0.995452 0.586934
vt 0.995452 0.435441
vt 0.492503 0.211514
vt 0.492503 0.363007
vt 0.496292 0.363007
vt 0.496292 0.211514
vt 0.039945 0.111246
vt 0.047810 0.989968
vt 0.445161 0.986961
vt 0.454350 0.108239
vt 0.985739 0.945335
vt 0.985853 -0.001326
vt 0.495756 -0.001381
vt 0.495642 0.945280
vn -1.0000 0.0000 0.0000
vn 0.0000 0.0000 -1.0000
vn 1.0000 0.0000 0.0000
vn 0.0000 0.0000 1.0000
vn -0.0001 0.0000 1.0000
vn 0.0000 1.0000 0.0000
vn 0.0000 -1.0000 0.0000
usemtl Material
s off
f 1/1/1 2/2/1 4/3/1 3/4/1
f 49/5/2 50/6/2 8/7/2 7/8/2
f 7/9/3 8/10/3 6/11/3 5/12/3
f 2/13/4 1/14/4 9/15/4 10/16/4
f 10/17/3 9/18/3 11/19/3 12/20/3
f 14/21/1 13/22/1 15/23/1 16/24/1
f 6/25/5 16/26/5 15/27/5 5/28/5
f 9/29/4 15/30/4 18/31/4 17/32/4
f 17/33/6 18/34/6 20/35/6 19/36/6
f 24/37/7 23/38/7 22/39/7 21/40/7
f 19/41/4 20/42/4 23/43/4 24/44/4
f 21/45/4 22/46/4 26/47/4 25/48/4
f 25/49/6 26/50/6 28/51/6 27/52/6
f 27/53/4 28/54/4 30/55/4 29/56/4
f 29/57/7 30/58/7 32/59/7 31/60/7
f 31/61/4 32/62/4 34/63/4 33/64/4
f 33/65/6 34/66/6 36/67/6 35/68/6
f 35/69/4 36/70/4 38/71/4 37/72/4
f 37/73/7 38/74/7 40/75/7 39/76/7
f 39/77/4 40/78/4 42/79/4 41/80/4
f 4/81/6 2/82/6 43/83/6 44/84/6
f 6/85/6 8/86/6 46/87/6 45/88/6
f 41/89/6 42/90/6 48/91/6 47/92/6
f 3/93/2 4/94/2 50/95/2 49/96/2
