# Blender v2.83.2 OBJ File: 'Sky.blend'
# www.blender.org
mtllib Sky.mtl
o Sphere
v -9.998370 200.488586 -70.042526
v -9.998370 180.434967 -107.560226
v -9.998370 153.447327 -140.444748
v -9.998370 120.562782 -167.432404
v -9.998370 83.045097 -187.486008
v -9.998370 42.336029 -199.834976
v -9.998370 0.000016 -204.004715
v 6.202941 200.488586 -68.446838
v 13.522281 180.434967 -105.243645
v 19.937733 153.447327 -137.496292
v 25.202763 120.562782 -163.965393
v 29.115025 83.045097 -183.633667
v 31.524189 42.336029 -195.745346
v 32.337666 0.000016 -199.834976
v 21.781639 200.488586 -63.721100
v 36.139042 180.434967 -98.382912
v 48.723408 153.447327 -128.764252
v 59.051128 120.562782 -153.697586
v 66.725319 83.045097 -172.224716
v 71.451065 42.336029 -183.633667
v 73.046753 0.000016 -187.485992
v 36.139053 200.488586 -56.046898
v 56.982761 180.434967 -87.241714
v 75.252441 153.447327 -114.584198
v 90.245964 120.562782 -137.023605
v 101.387154 83.045097 -153.697571
v 108.247871 42.336029 -163.965347
v 110.564468 0.000016 -167.432358
v 48.723431 200.488586 -45.719162
v 75.252449 180.434967 -72.248169
v 98.505318 153.447327 -95.501053
v 117.588470 120.562782 -114.584190
v 131.768509 83.045097 -128.764236
v 140.500549 42.336029 -137.496262
v 143.449005 0.000016 -140.444702
v 59.051159 200.488586 -33.134785
v 90.245979 180.434967 -53.978493
v 117.588470 153.447327 -72.248161
v 140.027878 120.562782 -87.241684
v 156.701843 83.045097 -98.382889
v 166.969620 42.336029 -105.243576
v 170.436646 0.000016 -107.560173
v 66.725357 200.488586 -18.777370
v 101.387184 180.434967 -33.134769
v 131.768524 153.447327 -45.719128
v 156.701859 120.562782 -56.046844
v 175.228973 83.045097 -63.721046
v 186.637909 42.336029 -68.446754
v 190.490280 0.000016 -70.042465
v 71.451103 200.488586 -3.198667
v 108.247902 180.434967 -10.518004
v 140.500565 153.447327 -16.933460
v 166.969635 120.562782 -22.198479
v 186.637924 83.045097 -26.110760
v 198.749588 42.336029 -28.519894
v 202.839233 0.000016 -29.333382
v 73.046783 200.488586 13.002642
v 110.564476 180.434967 13.002640
v 143.449005 153.447327 13.002642
v 170.436646 120.562782 13.002645
v 190.490265 83.045097 13.002631
v 202.839188 42.336029 13.002658
v 207.008972 0.000016 13.002654
v 71.451096 200.488586 29.203949
v 108.247902 180.434967 36.523285
v 140.500549 153.447327 42.938736
v 166.969620 120.562782 48.203766
v 186.637924 83.045097 52.116020
v 198.749557 42.336029 54.525204
v 202.839233 0.000016 55.338684
v 66.725349 200.488586 44.782642
v 101.387169 180.434967 59.140041
v 131.768509 153.447327 71.724403
v 156.701813 120.562782 82.052132
v 175.228973 83.045097 89.726303
v 186.637878 42.336029 94.452057
v 190.490265 0.000016 96.047760
v 59.051151 200.488586 59.140045
v 90.245964 180.434967 79.983757
v 117.588455 153.447327 98.253418
v 140.027832 120.562782 113.246956
v 156.701828 83.045097 124.388130
v 166.969574 42.336029 131.248856
v 170.436630 0.000016 133.565460
v 48.723419 200.488586 71.724419
v 75.252426 180.434967 98.253433
v 98.505295 153.447327 121.506294
v 117.588417 120.562782 140.589447
v 131.768509 83.045097 154.769501
v 140.500488 42.336029 163.501511
v 143.448975 0.000016 166.450012
v 36.139042 200.488586 82.052147
v 56.982746 180.434967 113.246956
v 75.252411 153.447327 140.589447
v 90.245918 120.562782 163.028854
v 101.387154 83.045097 179.702835
v 108.247818 42.336029 189.970596
v 110.564430 0.000016 193.437653
v 21.781631 200.488586 89.726334
v 36.139027 180.434967 124.388161
v 48.723373 153.447327 154.769501
v 59.051083 120.562782 179.702820
v 66.725319 83.045097 198.229965
v 71.451012 42.336029 209.638885
v 73.046722 0.000016 213.491272
v 6.202939 200.488586 94.452072
v 13.522275 180.434967 131.248886
v 19.937714 153.447327 163.501526
v 25.202721 120.562782 189.970581
v 29.115028 83.045097 209.638916
v 31.524155 42.336029 221.750565
v 32.337635 0.000016 225.840240
v -9.998362 200.488586 96.047760
v -9.998364 180.434967 133.565460
v -9.998376 153.447327 166.449966
v -9.998388 120.562782 193.437576
v -9.998357 83.045097 213.491241
v -9.998388 42.336029 225.840164
v -9.998392 0.000016 230.009949
vt 0.035412 0.573075
vt 0.084190 0.489736
vt 0.125311 0.588124
vt 0.081043 0.671039
vt -0.007319 0.472003
vt 0.043625 0.387517
vt 0.244629 0.922015
vt 0.266155 0.858774
vt 0.321406 0.941209
vt 0.307185 0.986763
vt 0.185490 0.847614
vt 0.215327 0.773042
vt 0.130889 0.763338
vt 0.168632 0.682701
vt 0.170662 0.515402
vt 0.208135 0.613629
vt 0.134105 0.413885
vt 0.096846 0.307337
vt 0.291064 0.804544
vt 0.338772 0.900779
vt 0.247877 0.709659
vt 0.318651 0.758817
vt 0.358672 0.865921
vt 0.282731 0.656403
vt 0.249516 0.555028
vt 0.217741 0.452477
vt 0.186106 0.346558
vt 0.153172 0.234406
vt 0.266820 0.399669
vt 0.292783 0.506602
vt 0.240570 0.289028
vt 0.212840 0.171046
vt 0.348386 0.721366
vt 0.380593 0.836946
vt 0.319584 0.612805
vt 0.379814 0.692133
vt 0.404084 0.814087
vt 0.358119 0.578732
vt 0.337785 0.468440
vt 0.317862 0.357534
vt 0.297462 0.242495
vt 0.275681 0.119165
vt 0.356472 0.208011
vt 0.370608 0.326678
vt 0.341240 0.080294
vt 0.412508 0.671150
vt 0.428727 0.797523
vt 0.397977 0.554240
vt 0.384236 0.440797
vt 0.446044 0.658495
vt 0.454123 0.787386
vt 0.438760 0.539460
vt 0.431751 0.423968
vt 0.424645 0.307647
vt 0.417106 0.186420
vt 0.408868 0.055595
vt 0.478747 0.178338
vt 0.479457 0.300869
vt 0.477797 0.045874
vt 0.479991 0.654250
vt 0.479874 0.783765
vt 0.480028 0.534534
vt 0.479870 0.418221
vt 0.521313 0.539579
vt 0.513907 0.658478
vt 0.528086 0.423746
vt 0.534470 0.306624
vt 0.540712 0.184134
vt 0.547192 0.051586
vt 0.505585 0.786699
vt 0.616204 0.072850
vt 0.602299 0.203933
vt 0.547334 0.671212
vt 0.530850 0.796173
vt 0.562130 0.554670
vt 0.575870 0.440647
vt 0.589086 0.325033
vt 0.622699 0.468951
vt 0.601983 0.579843
vt 0.642722 0.356069
vt 0.662826 0.237626
vt 0.684007 0.109457
vt 0.579804 0.692453
vt 0.555251 0.812121
vt 0.610826 0.722175
vt 0.578353 0.834417
vt 0.640380 0.615121
vt 0.668074 0.508639
vt 0.694846 0.399588
vt 0.721682 0.284890
vt 0.749854 0.160876
vt 0.711547 0.559714
vt 0.676824 0.660560
vt 0.745029 0.455392
vt 0.778383 0.345215
vt 0.813123 0.226251
vt 0.639881 0.760349
vt 0.599694 0.862874
vt 0.666395 0.806949
vt 0.618775 0.897221
vt 0.710803 0.716331
vt 0.752739 0.622324
vt 0.793002 0.523345
vt 0.832663 0.417961
vt 0.873396 0.304354
vt 0.838758 0.603603
vt 0.791342 0.696982
vt 0.884642 0.502462
vt 0.930579 0.393465
vt 0.689692 0.861962
vt 0.635041 0.937076
vt 0.741741 0.782824
vt 0.708929 0.925246
vt 0.647840 0.981786
vt 0.768913 0.860659
vt 0.827106 0.784785
vt 0.882733 0.696979
vt 0.935335 0.598208
vt 0.985117 0.490981
vn -0.0938 -0.2890 0.9527
vn -0.0975 -0.0975 0.9904
vn -0.0464 -0.8810 0.4709
vn -0.0624 -0.7715 0.6332
vn -0.0759 -0.6326 0.7708
vn -0.0865 -0.4696 0.8786
vn -0.2563 -0.4696 0.8448
vn -0.2779 -0.2890 0.9161
vn -0.2889 -0.0975 0.9524
vn -0.1374 -0.8810 0.4528
vn -0.1847 -0.7715 0.6088
vn -0.2248 -0.6326 0.7412
vn -0.2230 -0.8810 0.4173
vn -0.2999 -0.7715 0.5611
vn -0.3651 -0.6326 0.6831
vn -0.4162 -0.4696 0.7786
vn -0.4513 -0.2890 0.8443
vn -0.4691 -0.0975 0.8777
vn -0.5601 -0.4696 0.6825
vn -0.6073 -0.2890 0.7400
vn -0.6314 -0.0975 0.7693
vn -0.3002 -0.8810 0.3658
vn -0.4036 -0.7715 0.4918
vn -0.4913 -0.6326 0.5987
vn -0.3658 -0.8810 0.3002
vn -0.4918 -0.7715 0.4036
vn -0.5987 -0.6326 0.4913
vn -0.6825 -0.4696 0.5601
vn -0.7400 -0.2890 0.6073
vn -0.7693 -0.0976 0.6314
vn -0.8443 -0.2890 0.4513
vn -0.8777 -0.0976 0.4691
vn -0.4173 -0.8810 0.2230
vn -0.5611 -0.7715 0.2999
vn -0.6831 -0.6326 0.3651
vn -0.7786 -0.4696 0.4162
vn -0.4528 -0.8810 0.1374
vn -0.6088 -0.7715 0.1847
vn -0.7412 -0.6326 0.2248
vn -0.8448 -0.4696 0.2563
vn -0.9161 -0.2890 0.2779
vn -0.9524 -0.0976 0.2889
vn -0.9527 -0.2890 0.0938
vn -0.9904 -0.0976 0.0975
vn -0.4709 -0.8810 0.0464
vn -0.6332 -0.7715 0.0624
vn -0.7708 -0.6326 0.0759
vn -0.8786 -0.4696 0.0865
vn -0.6332 -0.7715 -0.0624
vn -0.7708 -0.6326 -0.0759
vn -0.8786 -0.4696 -0.0865
vn -0.9527 -0.2890 -0.0938
vn -0.9904 -0.0976 -0.0975
vn -0.4709 -0.8810 -0.0464
vn -0.9524 -0.0976 -0.2889
vn -0.4528 -0.8810 -0.1374
vn -0.6088 -0.7715 -0.1847
vn -0.7412 -0.6326 -0.2248
vn -0.8448 -0.4696 -0.2563
vn -0.9161 -0.2890 -0.2779
vn -0.6831 -0.6326 -0.3651
vn -0.7786 -0.4696 -0.4162
vn -0.8443 -0.2890 -0.4513
vn -0.8777 -0.0976 -0.4691
vn -0.4173 -0.8810 -0.2231
vn -0.5611 -0.7715 -0.2999
vn -0.3658 -0.8810 -0.3002
vn -0.4918 -0.7715 -0.4036
vn -0.5987 -0.6326 -0.4913
vn -0.6825 -0.4696 -0.5601
vn -0.7400 -0.2890 -0.6073
vn -0.7693 -0.0976 -0.6314
vn -0.4913 -0.6326 -0.5987
vn -0.5601 -0.4696 -0.6825
vn -0.6073 -0.2890 -0.7400
vn -0.6314 -0.0976 -0.7693
vn -0.3002 -0.8810 -0.3658
vn -0.4036 -0.7715 -0.4918
vn -0.2230 -0.8810 -0.4173
vn -0.2999 -0.7715 -0.5611
vn -0.3651 -0.6326 -0.6831
vn -0.4162 -0.4696 -0.7786
vn -0.4513 -0.2890 -0.8443
vn -0.4691 -0.0976 -0.8777
vn -0.2563 -0.4696 -0.8448
vn -0.2779 -0.2890 -0.9161
vn -0.2889 -0.0976 -0.9524
vn -0.1374 -0.8810 -0.4528
vn -0.1847 -0.7715 -0.6088
vn -0.2248 -0.6326 -0.7412
vn -0.0464 -0.8810 -0.4709
vn -0.0624 -0.7715 -0.6332
vn -0.0759 -0.6326 -0.7708
vn -0.0865 -0.4696 -0.8786
vn -0.0938 -0.2890 -0.9527
vn -0.0975 -0.0976 -0.9904
usemtl Material.001
s off
f 6/1/1 13/2/1 12/3/1 5/4/1
f 7/5/2 14/6/2 13/2/2 6/1/2
f 2/7/3 9/8/3 8/9/3 1/10/3
f 3/11/4 10/12/4 9/8/4 2/7/4
f 4/13/5 11/14/5 10/12/5 3/11/5
f 5/4/6 12/3/6 11/14/6 4/13/6
f 12/3/7 19/15/7 18/16/7 11/14/7
f 13/2/8 20/17/8 19/15/8 12/3/8
f 14/6/9 21/18/9 20/17/9 13/2/9
f 9/8/10 16/19/10 15/20/10 8/9/10
f 10/12/11 17/21/11 16/19/11 9/8/11
f 11/14/12 18/16/12 17/21/12 10/12/12
f 16/19/13 23/22/13 22/23/13 15/20/13
f 17/21/14 24/24/14 23/22/14 16/19/14
f 18/16/15 25/25/15 24/24/15 17/21/15
f 19/15/16 26/26/16 25/25/16 18/16/16
f 20/17/17 27/27/17 26/26/17 19/15/17
f 21/18/18 28/28/18 27/27/18 20/17/18
f 26/26/19 33/29/19 32/30/19 25/25/19
f 27/27/20 34/31/20 33/29/20 26/26/20
f 28/28/21 35/32/21 34/31/21 27/27/21
f 23/22/22 30/33/22 29/34/22 22/23/22
f 24/24/23 31/35/23 30/33/23 23/22/23
f 25/25/24 32/30/24 31/35/24 24/24/24
f 30/33/25 37/36/25 36/37/25 29/34/25
f 31/35/26 38/38/26 37/36/26 30/33/26
f 32/30/27 39/39/27 38/38/27 31/35/27
f 33/29/28 40/40/28 39/39/28 32/30/28
f 34/31/29 41/41/29 40/40/29 33/29/29
f 35/32/30 42/42/30 41/41/30 34/31/30
f 41/41/31 48/43/31 47/44/31 40/40/31
f 42/42/32 49/45/32 48/43/32 41/41/32
f 37/36/33 44/46/33 43/47/33 36/37/33
f 38/38/34 45/48/34 44/46/34 37/36/34
f 39/39/35 46/49/35 45/48/35 38/38/35
f 40/40/36 47/44/36 46/49/36 39/39/36
f 44/46/37 51/50/37 50/51/37 43/47/37
f 45/48/38 52/52/38 51/50/38 44/46/38
f 46/49/39 53/53/39 52/52/39 45/48/39
f 47/44/40 54/54/40 53/53/40 46/49/40
f 48/43/41 55/55/41 54/54/41 47/44/41
f 49/45/42 56/56/42 55/55/42 48/43/42
f 55/55/43 62/57/43 61/58/43 54/54/43
f 56/56/44 63/59/44 62/57/44 55/55/44
f 51/50/45 58/60/45 57/61/45 50/51/45
f 52/52/46 59/62/46 58/60/46 51/50/46
f 53/53/47 60/63/47 59/62/47 52/52/47
f 54/54/48 61/58/48 60/63/48 53/53/48
f 59/62/49 66/64/49 65/65/49 58/60/49
f 60/63/50 67/66/50 66/64/50 59/62/50
f 61/58/51 68/67/51 67/66/51 60/63/51
f 62/57/52 69/68/52 68/67/52 61/58/52
f 63/59/53 70/69/53 69/68/53 62/57/53
f 58/60/54 65/65/54 64/70/54 57/61/54
f 70/69/55 77/71/55 76/72/55 69/68/55
f 65/65/56 72/73/56 71/74/56 64/70/56
f 66/64/57 73/75/57 72/73/57 65/65/57
f 67/66/58 74/76/58 73/75/58 66/64/58
f 68/67/59 75/77/59 74/76/59 67/66/59
f 69/68/60 76/72/60 75/77/60 68/67/60
f 74/76/61 81/78/61 80/79/61 73/75/61
f 75/77/62 82/80/62 81/78/62 74/76/62
f 76/72/63 83/81/63 82/80/63 75/77/63
f 77/71/64 84/82/64 83/81/64 76/72/64
f 72/73/65 79/83/65 78/84/65 71/74/65
f 73/75/66 80/79/66 79/83/66 72/73/66
f 79/83/67 86/85/67 85/86/67 78/84/67
f 80/79/68 87/87/68 86/85/68 79/83/68
f 81/78/69 88/88/69 87/87/69 80/79/69
f 82/80/70 89/89/70 88/88/70 81/78/70
f 83/81/71 90/90/71 89/89/71 82/80/71
f 84/82/72 91/91/72 90/90/72 83/81/72
f 88/88/73 95/92/73 94/93/73 87/87/73
f 89/89/74 96/94/74 95/92/74 88/88/74
f 90/90/75 97/95/75 96/94/75 89/89/75
f 91/91/76 98/96/76 97/95/76 90/90/76
f 86/85/77 93/97/77 92/98/77 85/86/77
f 87/87/78 94/93/78 93/97/78 86/85/78
f 93/97/79 100/99/79 99/100/79 92/98/79
f 94/93/80 101/101/80 100/99/80 93/97/80
f 95/92/81 102/102/81 101/101/81 94/93/81
f 96/94/82 103/103/82 102/102/82 95/92/82
f 97/95/83 104/104/83 103/103/83 96/94/83
f 98/96/84 105/105/84 104/104/84 97/95/84
f 103/103/85 110/106/85 109/107/85 102/102/85
f 104/104/86 111/108/86 110/106/86 103/103/86
f 105/105/87 112/109/87 111/108/87 104/104/87
f 100/99/88 107/110/88 106/111/88 99/100/88
f 101/101/89 108/112/89 107/110/89 100/99/89
f 102/102/90 109/107/90 108/112/90 101/101/90
f 107/110/91 114/113/91 113/114/91 106/111/91
f 108/112/92 115/115/92 114/113/92 107/110/92
f 109/107/93 116/116/93 115/115/93 108/112/93
f 110/106/94 117/117/94 116/116/94 109/107/94
f 111/108/95 118/118/95 117/117/95 110/106/95
f 112/109/96 119/119/96 118/118/96 111/108/96
