# Blender v2.83.2 OBJ File: 'Sky.blend'
# www.blender.org
mtllib Sky.mtl
o Sphere
v -9.998370 200.488586 -70.042526
v -9.998370 180.434967 -107.560226
v -9.998370 153.447327 -140.444748
v -9.998370 120.562782 -167.432404
v -9.998370 83.045097 -187.486008
v -9.998370 42.336029 -199.834976
v -9.998370 0.000016 -204.004715
v 6.202941 200.488586 -68.446838
v 13.522281 180.434967 -105.243645
v 19.937733 153.447327 -137.496292
v 25.202763 120.562782 -163.965393
v 29.115025 83.045097 -183.633667
v 31.524189 42.336029 -195.745346
v 32.337666 0.000016 -199.834976
v 21.781639 200.488586 -63.721100
v 36.139042 180.434967 -98.382912
v 48.723408 153.447327 -128.764252
v 59.051128 120.562782 -153.697586
v 66.725319 83.045097 -172.224716
v 71.451065 42.336029 -183.633667
v 73.046753 0.000016 -187.485992
v 36.139053 200.488586 -56.046898
v 56.982761 180.434967 -87.241714
v 75.252441 153.447327 -114.584198
v 90.245964 120.562782 -137.023605
v 101.387154 83.045097 -153.697571
v 108.247871 42.336029 -163.965347
v 110.564468 0.000016 -167.432358
v 48.723431 200.488586 -45.719162
v 75.252449 180.434967 -72.248169
v 98.505318 153.447327 -95.501053
v 117.588470 120.562782 -114.584190
v 131.768509 83.045097 -128.764236
v 140.500549 42.336029 -137.496262
v 143.449005 0.000016 -140.444702
v 59.051159 200.488586 -33.134785
v 90.245979 180.434967 -53.978493
v 117.588470 153.447327 -72.248161
v 140.027878 120.562782 -87.241684
v 156.701843 83.045097 -98.382889
v 166.969620 42.336029 -105.243576
v 170.436646 0.000016 -107.560173
v 66.725357 200.488586 -18.777370
v 101.387184 180.434967 -33.134769
v 131.768524 153.447327 -45.719128
v 156.701859 120.562782 -56.046844
v 175.228973 83.045097 -63.721046
v 186.637909 42.336029 -68.446754
v 190.490280 0.000016 -70.042465
v 71.451103 200.488586 -3.198667
v 108.247902 180.434967 -10.518004
v 140.500565 153.447327 -16.933460
v 166.969635 120.562782 -22.198479
v 186.637924 83.045097 -26.110760
v 198.749588 42.336029 -28.519894
v 202.839233 0.000016 -29.333382
v 73.046783 200.488586 13.002642
v 110.564476 180.434967 13.002640
v 143.449005 153.447327 13.002642
v 170.436646 120.562782 13.002645
v 190.490265 83.045097 13.002631
v 202.839188 42.336029 13.002658
v 207.008972 0.000016 13.002654
v 71.451096 200.488586 29.203949
v 108.247902 180.434967 36.523285
v 140.500549 153.447327 42.938736
v 166.969620 120.562782 48.203766
v 186.637924 83.045097 52.116020
v 198.749557 42.336029 54.525204
v 202.839233 0.000016 55.338684
v 66.725349 200.488586 44.782642
v 101.387169 180.434967 59.140041
v 131.768509 153.447327 71.724403
v 156.701813 120.562782 82.052132
v 175.228973 83.045097 89.726303
v 186.637878 42.336029 94.452057
v 190.490265 0.000016 96.047760
v 59.051151 200.488586 59.140045
v 90.245964 180.434967 79.983757
v 117.588455 153.447327 98.253418
v 140.027832 120.562782 113.246956
v 156.701828 83.045097 124.388130
v 166.969574 42.336029 131.248856
v 170.436630 0.000016 133.565460
v 48.723419 200.488586 71.724419
v 75.252426 180.434967 98.253433
v 98.505295 153.447327 121.506294
v 117.588417 120.562782 140.589447
v 131.768509 83.045097 154.769501
v 140.500488 42.336029 163.501511
v 143.448975 0.000016 166.450012
v 36.139042 200.488586 82.052147
v 56.982746 180.434967 113.246956
v 75.252411 153.447327 140.589447
v 90.245918 120.562782 163.028854
v 101.387154 83.045097 179.702835
v 108.247818 42.336029 189.970596
v 110.564430 0.000016 193.437653
v 21.781631 200.488586 89.726334
v 36.139027 180.434967 124.388161
v 48.723373 153.447327 154.769501
v 59.051083 120.562782 179.702820
v 66.725319 83.045097 198.229965
v 71.451012 42.336029 209.638885
v 73.046722 0.000016 213.491272
v 6.202939 200.488586 94.452072
v 13.522275 180.434967 131.248886
v 19.937714 153.447327 163.501526
v 25.202721 120.562782 189.970581
v 29.115028 83.045097 209.638916
v 31.524155 42.336029 221.750565
v 32.337635 0.000016 225.840240
v -9.998362 200.488586 96.047760
v -9.998364 180.434967 133.565460
v -9.998376 153.447327 166.449966
v -9.998388 120.562782 193.437576
v -9.998357 83.045097 213.491241
v -9.998388 42.336029 225.840164
v -9.998392 0.000016 230.009949
v -9.998370 -41.761791 -204.004715
v 32.337666 -41.761791 -199.834976
v 73.046753 -41.761791 -187.485992
v 110.564468 -41.761791 -167.432358
v 143.449005 -41.761791 -140.444702
v 170.436646 -41.761791 -107.560173
v 190.490280 -41.761791 -70.042465
v 202.839233 -41.761791 -29.333382
v 207.008972 -41.761791 13.002654
v 202.839233 -41.761791 55.338684
v 190.490265 -41.761791 96.047760
v 170.436630 -41.761791 133.565460
v 143.448975 -41.761791 166.450012
v 110.564430 -41.761791 193.437653
v 73.046722 -41.761791 213.491272
v 32.337635 -41.761791 225.840240
v -9.998392 -41.761791 230.009949
vt 0.109611 0.560799
vt 0.157696 0.494012
vt 0.191021 0.589157
vt 0.147509 0.658565
vt 0.075842 0.459347
vt 0.126344 0.395189
vt 0.292273 0.907667
vt 0.313275 0.850662
vt 0.363143 0.930161
vt 0.349285 0.971520
vt 0.238907 0.834057
vt 0.268102 0.767916
vt 0.190508 0.750411
vt 0.227531 0.680608
vt 0.234239 0.529623
vt 0.265229 0.622025
vt 0.205164 0.434536
vt 0.176817 0.335406
vt 0.337065 0.802378
vt 0.379771 0.893690
vt 0.299183 0.712638
vt 0.362966 0.762068
vt 0.398573 0.862396
vt 0.331779 0.666822
vt 0.303764 0.573112
vt 0.277847 0.478954
vt 0.253003 0.382503
vt 0.228164 0.281515
vt 0.322234 0.436883
vt 0.343235 0.533140
vt 0.301752 0.338396
vt 0.280887 0.234829
vt 0.390501 0.729279
vt 0.419068 0.836444
vt 0.365655 0.629678
vt 0.419290 0.703749
vt 0.440852 0.815940
vt 0.400598 0.600791
vt 0.383629 0.501814
vt 0.367544 0.403467
vt 0.351622 0.302782
vt 0.335156 0.196483
vt 0.402599 0.276226
vt 0.413748 0.378918
vt 0.390902 0.167443
vt 0.449000 0.685349
vt 0.463568 0.800959
vt 0.436383 0.579980
vt 0.424837 0.479079
vt 0.479319 0.674033
vt 0.486885 0.791558
vt 0.472765 0.567205
vt 0.466675 0.465008
vt 0.460691 0.363500
vt 0.454516 0.259239
vt 0.447889 0.148494
vt 0.507100 0.252244
vt 0.508136 0.357475
vt 0.505768 0.140232
vt 0.509936 0.669810
vt 0.510486 0.787781
vt 0.509472 0.562505
vt 0.508904 0.459727
vt 0.546211 0.565964
vt 0.540534 0.672720
vt 0.551243 0.463386
vt 0.555793 0.361067
vt 0.560019 0.255548
vt 0.564124 0.143054
vt 0.534054 0.789654
vt 0.622520 0.157162
vt 0.612915 0.269345
vt 0.570785 0.682826
vt 0.557266 0.797190
vt 0.582671 0.577692
vt 0.593393 0.476135
vt 0.603351 0.374454
vt 0.635050 0.498136
vt 0.618527 0.597835
vt 0.650502 0.397773
vt 0.665446 0.293716
vt 0.680535 0.182562
vt 0.600339 0.700209
vt 0.579782 0.810377
vt 0.628821 0.724975
vt 0.601239 0.829180
vt 0.653440 0.626589
vt 0.675919 0.529593
vt 0.696977 0.431152
vt 0.717326 0.328650
vt 0.737810 0.219072
vt 0.715731 0.570818
vt 0.687047 0.664247
vt 0.742581 0.474775
vt 0.768377 0.374086
vt 0.794107 0.266321
vt 0.655806 0.757262
vt 0.621240 0.853528
vt 0.680800 0.797250
vt 0.639337 0.883290
vt 0.718940 0.711264
vt 0.754244 0.622346
vt 0.787240 0.529005
vt 0.818614 0.429987
vt 0.849392 0.323746
vt 0.831064 0.594609
vt 0.791230 0.685123
vt 0.868385 0.496495
vt 0.903996 0.390561
vt 0.703184 0.845148
vt 0.655016 0.918244
vt 0.748609 0.768339
vt 0.722146 0.901050
vt 0.667658 0.957910
vt 0.775352 0.836412
vt 0.826436 0.760694
vt 0.874456 0.673067
vt 0.918710 0.574131
vt 0.958999 0.465604
vt 0.880180 0.211284
vt 0.938585 0.279524
vt 0.317777 0.083889
vt 0.378397 0.051661
vt 0.632346 0.036936
vt 0.696053 0.063538
vt 0.995880 0.353698
vt 0.096003 0.294716
vt 0.148474 0.233132
vt 0.044585 0.358396
vt 0.758820 0.101969
vt 0.202742 0.176156
vt 0.440662 0.030224
vt 0.504102 0.020348
vt 0.820269 0.151566
vt 0.259162 0.125844
vt 0.568183 0.022516
vn -0.0938 -0.2890 0.9527
vn -0.0975 -0.0975 0.9904
vn -0.0464 -0.8810 0.4709
vn -0.0624 -0.7715 0.6332
vn -0.0759 -0.6326 0.7708
vn -0.0865 -0.4696 0.8786
vn -0.2563 -0.4696 0.8448
vn -0.2779 -0.2890 0.9161
vn -0.2889 -0.0975 0.9524
vn -0.1374 -0.8810 0.4528
vn -0.1847 -0.7715 0.6088
vn -0.2248 -0.6326 0.7412
vn -0.2230 -0.8810 0.4173
vn -0.2999 -0.7715 0.5611
vn -0.3651 -0.6326 0.6831
vn -0.4162 -0.4696 0.7786
vn -0.4513 -0.2890 0.8443
vn -0.4691 -0.0975 0.8777
vn -0.5601 -0.4696 0.6825
vn -0.6073 -0.2890 0.7400
vn -0.6314 -0.0975 0.7693
vn -0.3002 -0.8810 0.3658
vn -0.4036 -0.7715 0.4918
vn -0.4913 -0.6326 0.5987
vn -0.3658 -0.8810 0.3002
vn -0.4918 -0.7715 0.4036
vn -0.5987 -0.6326 0.4913
vn -0.6825 -0.4696 0.5601
vn -0.7400 -0.2890 0.6073
vn -0.7693 -0.0976 0.6314
vn -0.8443 -0.2890 0.4513
vn -0.8777 -0.0976 0.4691
vn -0.4173 -0.8810 0.2230
vn -0.5611 -0.7715 0.2999
vn -0.6831 -0.6326 0.3651
vn -0.7786 -0.4696 0.4162
vn -0.4528 -0.8810 0.1374
vn -0.6088 -0.7715 0.1847
vn -0.7412 -0.6326 0.2248
vn -0.8448 -0.4696 0.2563
vn -0.9161 -0.2890 0.2779
vn -0.9524 -0.0976 0.2889
vn -0.9527 -0.2890 0.0938
vn -0.9904 -0.0976 0.0975
vn -0.4709 -0.8810 0.0464
vn -0.6332 -0.7715 0.0624
vn -0.7708 -0.6326 0.0759
vn -0.8786 -0.4696 0.0865
vn -0.6332 -0.7715 -0.0624
vn -0.7708 -0.6326 -0.0759
vn -0.8786 -0.4696 -0.0865
vn -0.9527 -0.2890 -0.0938
vn -0.9904 -0.0976 -0.0975
vn -0.4709 -0.8810 -0.0464
vn -0.9524 -0.0976 -0.2889
vn -0.4528 -0.8810 -0.1374
vn -0.6088 -0.7715 -0.1847
vn -0.7412 -0.6326 -0.2248
vn -0.8448 -0.4696 -0.2563
vn -0.9161 -0.2890 -0.2779
vn -0.6831 -0.6326 -0.3651
vn -0.7786 -0.4696 -0.4162
vn -0.8443 -0.2890 -0.4513
vn -0.8777 -0.0976 -0.4691
vn -0.4173 -0.8810 -0.2231
vn -0.5611 -0.7715 -0.2999
vn -0.3658 -0.8810 -0.3002
vn -0.4918 -0.7715 -0.4036
vn -0.5987 -0.6326 -0.4913
vn -0.6825 -0.4696 -0.5601
vn -0.7400 -0.2890 -0.6073
vn -0.7693 -0.0976 -0.6314
vn -0.4913 -0.6326 -0.5987
vn -0.5601 -0.4696 -0.6825
vn -0.6073 -0.2890 -0.7400
vn -0.6314 -0.0976 -0.7693
vn -0.3002 -0.8810 -0.3658
vn -0.4036 -0.7715 -0.4918
vn -0.2230 -0.8810 -0.4173
vn -0.2999 -0.7715 -0.5611
vn -0.3651 -0.6326 -0.6831
vn -0.4162 -0.4696 -0.7786
vn -0.4513 -0.2890 -0.8443
vn -0.4691 -0.0976 -0.8777
vn -0.2563 -0.4696 -0.8448
vn -0.2779 -0.2890 -0.9161
vn -0.2889 -0.0976 -0.9524
vn -0.1374 -0.8810 -0.4528
vn -0.1847 -0.7715 -0.6088
vn -0.2248 -0.6326 -0.7412
vn -0.0464 -0.8810 -0.4709
vn -0.0624 -0.7715 -0.6332
vn -0.0759 -0.6326 -0.7708
vn -0.0865 -0.4696 -0.8786
vn -0.0938 -0.2890 -0.9527
vn -0.0975 -0.0976 -0.9904
vn -0.2903 0.0000 -0.9569
vn -0.8819 0.0000 0.4714
vn -0.8819 0.0000 -0.4714
vn -0.0980 0.0000 -0.9952
vn -0.2903 0.0000 0.9569
vn -0.0980 0.0000 0.9952
vn -0.7730 0.0000 -0.6344
vn -0.4714 0.0000 0.8819
vn -0.9569 0.0000 0.2903
vn -0.9952 0.0000 0.0980
vn -0.6344 0.0000 -0.7730
vn -0.6344 0.0000 0.7730
vn -0.9952 0.0000 -0.0980
vn -0.9569 0.0000 -0.2903
vn -0.4714 0.0000 -0.8819
vn -0.7730 0.0000 0.6344
usemtl Material.001
s off
f 6/1/1 13/2/1 12/3/1 5/4/1
f 7/5/2 14/6/2 13/2/2 6/1/2
f 2/7/3 9/8/3 8/9/3 1/10/3
f 3/11/4 10/12/4 9/8/4 2/7/4
f 4/13/5 11/14/5 10/12/5 3/11/5
f 5/4/6 12/3/6 11/14/6 4/13/6
f 12/3/7 19/15/7 18/16/7 11/14/7
f 13/2/8 20/17/8 19/15/8 12/3/8
f 14/6/9 21/18/9 20/17/9 13/2/9
f 9/8/10 16/19/10 15/20/10 8/9/10
f 10/12/11 17/21/11 16/19/11 9/8/11
f 11/14/12 18/16/12 17/21/12 10/12/12
f 16/19/13 23/22/13 22/23/13 15/20/13
f 17/21/14 24/24/14 23/22/14 16/19/14
f 18/16/15 25/25/15 24/24/15 17/21/15
f 19/15/16 26/26/16 25/25/16 18/16/16
f 20/17/17 27/27/17 26/26/17 19/15/17
f 21/18/18 28/28/18 27/27/18 20/17/18
f 26/26/19 33/29/19 32/30/19 25/25/19
f 27/27/20 34/31/20 33/29/20 26/26/20
f 28/28/21 35/32/21 34/31/21 27/27/21
f 23/22/22 30/33/22 29/34/22 22/23/22
f 24/24/23 31/35/23 30/33/23 23/22/23
f 25/25/24 32/30/24 31/35/24 24/24/24
f 30/33/25 37/36/25 36/37/25 29/34/25
f 31/35/26 38/38/26 37/36/26 30/33/26
f 32/30/27 39/39/27 38/38/27 31/35/27
f 33/29/28 40/40/28 39/39/28 32/30/28
f 34/31/29 41/41/29 40/40/29 33/29/29
f 35/32/30 42/42/30 41/41/30 34/31/30
f 41/41/31 48/43/31 47/44/31 40/40/31
f 42/42/32 49/45/32 48/43/32 41/41/32
f 37/36/33 44/46/33 43/47/33 36/37/33
f 38/38/34 45/48/34 44/46/34 37/36/34
f 39/39/35 46/49/35 45/48/35 38/38/35
f 40/40/36 47/44/36 46/49/36 39/39/36
f 44/46/37 51/50/37 50/51/37 43/47/37
f 45/48/38 52/52/38 51/50/38 44/46/38
f 46/49/39 53/53/39 52/52/39 45/48/39
f 47/44/40 54/54/40 53/53/40 46/49/40
f 48/43/41 55/55/41 54/54/41 47/44/41
f 49/45/42 56/56/42 55/55/42 48/43/42
f 55/55/43 62/57/43 61/58/43 54/54/43
f 56/56/44 63/59/44 62/57/44 55/55/44
f 51/50/45 58/60/45 57/61/45 50/51/45
f 52/52/46 59/62/46 58/60/46 51/50/46
f 53/53/47 60/63/47 59/62/47 52/52/47
f 54/54/48 61/58/48 60/63/48 53/53/48
f 59/62/49 66/64/49 65/65/49 58/60/49
f 60/63/50 67/66/50 66/64/50 59/62/50
f 61/58/51 68/67/51 67/66/51 60/63/51
f 62/57/52 69/68/52 68/67/52 61/58/52
f 63/59/53 70/69/53 69/68/53 62/57/53
f 58/60/54 65/65/54 64/70/54 57/61/54
f 70/69/55 77/71/55 76/72/55 69/68/55
f 65/65/56 72/73/56 71/74/56 64/70/56
f 66/64/57 73/75/57 72/73/57 65/65/57
f 67/66/58 74/76/58 73/75/58 66/64/58
f 68/67/59 75/77/59 74/76/59 67/66/59
f 69/68/60 76/72/60 75/77/60 68/67/60
f 74/76/61 81/78/61 80/79/61 73/75/61
f 75/77/62 82/80/62 81/78/62 74/76/62
f 76/72/63 83/81/63 82/80/63 75/77/63
f 77/71/64 84/82/64 83/81/64 76/72/64
f 72/73/65 79/83/65 78/84/65 71/74/65
f 73/75/66 80/79/66 79/83/66 72/73/66
f 79/83/67 86/85/67 85/86/67 78/84/67
f 80/79/68 87/87/68 86/85/68 79/83/68
f 81/78/69 88/88/69 87/87/69 80/79/69
f 82/80/70 89/89/70 88/88/70 81/78/70
f 83/81/71 90/90/71 89/89/71 82/80/71
f 84/82/72 91/91/72 90/90/72 83/81/72
f 88/88/73 95/92/73 94/93/73 87/87/73
f 89/89/74 96/94/74 95/92/74 88/88/74
f 90/90/75 97/95/75 96/94/75 89/89/75
f 91/91/76 98/96/76 97/95/76 90/90/76
f 86/85/77 93/97/77 92/98/77 85/86/77
f 87/87/78 94/93/78 93/97/78 86/85/78
f 93/97/79 100/99/79 99/100/79 92/98/79
f 94/93/80 101/101/80 100/99/80 93/97/80
f 95/92/81 102/102/81 101/101/81 94/93/81
f 96/94/82 103/103/82 102/102/82 95/92/82
f 97/95/83 104/104/83 103/103/83 96/94/83
f 98/96/84 105/105/84 104/104/84 97/95/84
f 103/103/85 110/106/85 109/107/85 102/102/85
f 104/104/86 111/108/86 110/106/86 103/103/86
f 105/105/87 112/109/87 111/108/87 104/104/87
f 100/99/88 107/110/88 106/111/88 99/100/88
f 101/101/89 108/112/89 107/110/89 100/99/89
f 102/102/90 109/107/90 108/112/90 101/101/90
f 107/110/91 114/113/91 113/114/91 106/111/91
f 108/112/92 115/115/92 114/113/92 107/110/92
f 109/107/93 116/116/93 115/115/93 108/112/93
f 110/106/94 117/117/94 116/116/94 109/107/94
f 111/108/95 118/118/95 117/117/95 110/106/95
f 112/109/96 119/119/96 118/118/96 111/108/96
f 112/109/97 105/105/97 134/120/97 135/121/97
f 49/45/98 42/42/98 125/122/98 126/123/98
f 84/82/99 77/71/99 130/124/99 131/125/99
f 119/119/100 112/109/100 135/121/100 136/126/100
f 21/18/101 14/6/101 121/127/101 122/128/101
f 14/6/102 7/5/102 120/129/102 121/127/102
f 91/91/103 84/82/103 131/125/103 132/130/103
f 28/28/104 21/18/104 122/128/104 123/131/104
f 56/56/105 49/45/105 126/123/105 127/132/105
f 63/59/106 56/56/106 127/132/106 128/133/106
f 98/96/107 91/91/107 132/130/107 133/134/107
f 35/32/108 28/28/108 123/131/108 124/135/108
f 70/69/109 63/59/109 128/133/109 129/136/109
f 77/71/110 70/69/110 129/136/110 130/124/110
f 105/105/111 98/96/111 133/134/111 134/120/111
f 42/42/112 35/32/112 124/135/112 125/122/112
