# Blender v2.83.2 OBJ File: 'Speaker.blend'
# www.blender.org
mtllib Speaker.mtl
o Cube
v 0.535037 0.180657 -0.100000
v 0.468733 -0.213809 -0.100000
v 0.535037 0.180657 0.100000
v 0.468733 -0.213809 0.100000
v 0.337804 0.213809 -0.100000
v 0.271500 -0.180657 -0.100000
v 0.337804 0.213809 0.100000
v 0.271500 -0.180657 0.100000
v 0.180883 -0.025000 0.025000
v 0.180883 0.025000 0.025000
v 0.180883 -0.025000 -0.025000
v 0.180883 0.025000 -0.025000
v 0.307273 -0.025000 0.025000
v 0.307273 0.025000 0.025000
v 0.307273 -0.025000 -0.025000
v 0.307273 0.025000 -0.025000
v 0.070594 0.055445 -0.025000
v 0.070594 0.055445 0.025000
v 0.100670 0.095388 0.025000
v 0.100670 0.095388 -0.025000
v -0.003474 -0.074438 -0.154143
v -0.003474 -0.074438 0.164988
v -0.001306 0.244686 0.164988
v -0.001306 0.244686 -0.154143
vt 0.570312 0.492188
vt 0.820312 0.492188
vt 0.820312 0.742188
vt 0.570312 0.742188
vt 0.582031 0.437500
vt 0.832031 0.437500
vt 0.832031 0.687500
vt 0.582031 0.687500
vt 0.375000 0.000000
vt 0.625000 0.000000
vt 0.625000 0.250000
vt 0.375000 0.250000
vt 0.585937 0.417969
vt 0.835937 0.417969
vt 0.835937 0.667969
vt 0.585937 0.667969
vt 0.557835 0.005287
vt 0.557835 0.947838
vt 0.051540 0.947838
vt 0.051540 0.005287
vt 0.966895 0.006456
vt 0.966895 0.962294
vt 0.611230 0.962294
vt 0.611230 0.006456
vt 0.527357 0.665369
vt 0.527357 0.662756
vt 0.527357 0.662756
vt 0.527357 0.665369
vt 0.522131 0.660143
vt 0.524744 0.660143
vt 0.524744 0.662756
vt 0.522131 0.662756
vt 0.522131 0.665369
vt 0.524744 0.665369
vt 0.524744 0.667982
vt 0.522131 0.667982
vt 0.519518 0.662756
vt 0.519518 0.665369
vt 0.524744 0.660143
vt 0.522131 0.660143
vt 0.522131 0.660143
vt 0.524744 0.660143
vt 0.519518 0.665369
vt 0.519518 0.662756
vt 0.524744 0.667982
vt 0.522131 0.667982
vt 0.524744 0.667982
vt 0.522131 0.667982
vt 0.527357 0.665173
vt 0.527357 0.662952
vt 0.527357 0.662952
vt 0.527357 0.665173
vt 0.519518 0.665369
vt 0.519518 0.662756
vn 0.1658 0.9862 0.0000
vn 0.0000 0.0000 1.0000
vn -0.9862 0.1658 0.0000
vn -0.1658 -0.9862 0.0000
vn 0.9862 -0.1658 0.0000
vn 0.0000 0.0000 -1.0000
vn 0.6596 0.7516 0.0000
vn 0.0000 -1.0000 0.0000
vn 0.0000 1.0000 0.0000
vn 0.8215 -0.0738 -0.5654
vn -0.5893 -0.8079 0.0000
vn 0.8418 -0.0756 0.5345
vn 0.8258 0.5640 0.0000
vn 0.8687 -0.4954 0.0000
usemtl Material
s off
f 1/1/1 5/2/1 7/3/1 3/4/1
f 4/5/2 3/6/2 7/7/2 8/8/2
f 8/9/3 7/10/3 5/11/3 6/12/3
f 6/13/4 2/14/4 4/15/4 8/16/4
f 2/17/5 1/18/5 3/19/5 4/20/5
f 6/21/6 5/22/6 1/23/6 2/24/6
f 10/25/7 12/26/7 20/27/7 19/28/7
f 11/29/6 12/30/6 16/31/6 15/32/6
f 13/33/2 14/34/2 10/35/2 9/36/2
f 11/37/8 15/32/8 13/33/8 9/38/8
f 16/31/9 12/26/9 10/25/9 14/34/9
f 20/39/10 17/40/10 21/41/10 24/42/10
f 11/37/11 9/38/11 18/43/11 17/44/11
f 12/30/6 11/29/6 17/40/6 20/39/6
f 9/36/2 10/35/2 19/45/2 18/46/2
f 18/46/12 19/45/12 23/47/12 22/48/12
f 19/49/13 20/50/13 24/51/13 23/52/13
f 17/44/14 18/43/14 22/53/14 21/54/14
