# Blender v2.83.2 OBJ File: 'Table.blend'
# www.blender.org
mtllib Table.mtl
o Cube.001
v -0.160402 0.473621 0.400000
v 0.165313 0.473621 0.400000
v 0.140151 0.459093 0.400000
v -0.135240 0.459094 0.400000
v -0.135240 0.459094 0.550000
v -0.160402 0.473621 0.550000
v -0.265637 0.139638 0.550000
v -0.240475 0.139638 0.550000
v 0.140151 0.459093 0.550000
v -0.136959 0.457766 -0.550000
v 0.140151 0.459094 -0.550000
v 0.140151 0.459093 -0.400000
v -0.136959 0.457765 -0.400000
v 0.165313 0.473621 -0.400000
v -0.159465 0.474949 -0.400000
v -0.159465 0.474950 -0.550000
v 0.165313 0.473621 -0.550000
v 0.165313 0.473621 0.550000
v 0.234261 0.139638 0.550000
v 0.259423 0.139638 0.550000
v -0.240475 0.139638 -0.400000
v -0.240475 0.139638 -0.550000
v -0.265637 0.139638 -0.550000
v 0.259423 0.139638 0.400000
v 0.255738 0.000971 0.550000
v 0.255738 0.000971 0.400000
v -0.237275 0.018764 -0.400000
v -0.237275 0.018764 -0.550000
v 0.231060 0.018764 0.550000
v 0.234261 0.139638 -0.400000
v 0.234261 0.139638 -0.550000
v 0.231060 0.018764 -0.550000
v 0.231060 0.018764 -0.400000
v 0.259423 0.139638 -0.400000
v -0.265637 0.139638 0.400000
v 0.234261 0.139638 0.400000
v 0.259423 0.139638 -0.550000
v -0.240475 0.139638 0.400000
v -0.265637 0.139638 -0.400000
v -0.237275 0.018764 0.400000
v -0.237275 0.018764 0.550000
v 0.231060 0.018764 0.400000
v -0.261952 0.000971 0.400000
v -0.261952 0.000971 -0.550000
v 0.258033 0.000971 -0.550000
v -0.261952 0.000971 0.550000
v 0.255738 0.000971 -0.400000
v -0.261952 0.000971 -0.400000
v 0.499282 0.466357 0.900000
v 0.399282 0.461307 1.000000
v 0.399282 0.498674 1.000000
v -0.400718 0.498674 1.000000
v -0.400718 0.461308 1.000000
v 0.499282 0.500086 -0.850000
v 0.499282 0.466358 -0.850000
v 0.449282 0.465817 -1.000000
v 0.449282 0.500159 -1.000000
v -0.394519 0.500085 0.891566
v -0.500718 0.500085 0.900000
v -0.394519 0.500085 0.932744
v -0.500718 0.466357 0.900000
v -0.450718 0.500160 -1.000000
v -0.450718 0.465818 -1.000000
v 0.499282 0.500085 0.900000
v 0.396173 0.500085 0.891566
v 0.396173 0.500085 0.932744
v 0.396173 0.500086 -0.902643
v -0.394519 0.500086 -0.902643
v -0.500718 0.466358 -0.850000
v -0.500718 0.500086 -0.850000
v -0.394519 0.500086 -0.940083
v 0.396173 0.500086 -0.940083
vt 0.937886 0.794700
vt 0.833800 0.794700
vt 0.845129 0.766978
vt 0.927807 0.768645
vt 0.794194 0.537690
vt 0.791848 0.542476
vt 0.784349 0.532407
vt 0.789748 0.531544
vt 0.932826 0.793484
vt 0.846939 0.793484
vt 0.846160 0.731064
vt 0.932047 0.731064
vt 0.846160 0.793484
vt 0.932583 0.793484
vt 0.933362 0.855904
vt 0.846939 0.855904
vt 0.905071 0.917228
vt 0.901650 0.749072
vt 0.929064 0.782406
vt 0.930862 0.900456
vt 0.761877 0.933197
vt 0.764861 0.767686
vt 0.789621 0.786125
vt 0.788042 0.908196
vt 0.808340 0.541662
vt 0.807011 0.536975
vt 0.809587 0.531050
vt 0.816003 0.530804
vt 0.776522 0.464724
vt 0.776515 0.481202
vt 0.770759 0.481222
vt 0.770766 0.464743
vt 0.930638 0.973028
vt 0.842209 0.977395
vt 0.854788 0.951733
vt 0.923515 0.947899
vt 0.776867 0.534233
vt 0.781746 0.529571
vt 0.786758 0.533919
vt 0.786758 0.542331
vt 0.787105 0.541142
vt 0.787102 0.530581
vt 0.790944 0.530570
vt 0.795041 0.541131
vt 0.767517 0.481202
vt 0.767524 0.464724
vt 0.806144 0.525664
vt 0.808999 0.522329
vt 0.786240 0.509447
vt 0.786240 0.498886
vt 0.789759 0.498886
vt 0.789759 0.509447
vt 0.803571 0.531255
vt 0.808381 0.528127
vt 0.813565 0.532056
vt 0.813798 0.542954
vt 0.779288 0.520009
vt 0.779288 0.509447
vt 0.786609 0.509447
vt 0.786609 0.520009
vt 0.779288 0.498886
vt 0.779288 0.488325
vt 0.786240 0.488325
vt 0.786240 0.498886
vt 0.782041 0.506805
vt 0.777423 0.503367
vt 0.786758 0.491668
vt 0.787224 0.500079
vt 0.792393 0.503235
vt 0.790280 0.508405
vt 0.784070 0.496417
vt 0.788747 0.496106
vt 0.776538 0.481222
vt 0.776532 0.497700
vt 0.770759 0.497720
vt 0.770766 0.481242
vt 0.779291 0.541131
vt 0.779288 0.530570
vt 0.809691 0.508405
vt 0.807812 0.503546
vt 0.812262 0.497660
vt 0.816939 0.497971
vt 0.792588 0.496521
vt 0.792585 0.484404
vt 0.800399 0.484966
vt 0.800403 0.496537
vt 0.808046 0.506112
vt 0.802933 0.499895
vt 0.811234 0.492602
vt 0.811700 0.502257
vt 0.779288 0.530570
vt 0.779288 0.520009
vt 0.786638 0.520009
vt 0.786638 0.530570
vt 0.779288 0.509447
vt 0.779288 0.498886
vt 0.798942 0.531445
vt 0.795974 0.519819
vt 0.819859 0.519819
vt 0.819862 0.531445
vt 0.792588 0.543071
vt 0.796821 0.531445
vt 0.819859 0.531445
vt 0.819862 0.543071
vt 0.811234 0.486122
vt 0.808700 0.491406
vt 0.792775 0.490784
vt 0.788609 0.485811
vt 0.796111 0.535035
vt 0.792148 0.530102
vt 0.792847 0.506072
vt 0.796810 0.500854
vt 0.790613 0.521465
vt 0.792822 0.525294
vt 0.817323 0.526996
vt 0.821519 0.533172
vt 0.790514 0.509447
vt 0.790514 0.520009
vt 0.804569 0.484404
vt 0.804259 0.496522
vt 0.790544 0.520009
vt 0.790544 0.530570
vt 0.789704 0.488325
vt 0.789759 0.498886
vt 0.821053 0.495858
vt 0.817090 0.505141
vt 0.767517 0.497700
vt 0.767524 0.481222
vt 0.277598 0.504524
vt 0.272904 0.494382
vt 0.274137 0.490423
vt 0.277621 0.501034
vt 0.208346 0.622225
vt 0.282876 0.615139
vt 0.282856 0.511971
vt 0.208326 0.519055
vt 0.288277 0.543101
vt 0.288262 0.617070
vt 0.278543 0.616115
vt 0.278559 0.541667
vt 0.285540 0.581080
vt 0.245372 0.576124
vt 0.283782 0.531423
vt 0.285764 0.562248
vt 0.222311 0.500067
vt 0.227052 0.500197
vt 0.226952 0.566862
vt 0.221699 0.566718
vt 0.227453 0.491792
vt 0.264353 0.497362
vt 0.264345 0.583443
vt 0.227445 0.577872
vt 0.282383 0.526822
vt 0.286737 0.537466
vt 0.273070 0.536928
vt 0.277452 0.526628
vt 0.248886 0.611277
vt 0.209797 0.614066
vt 0.210021 0.595235
vt 0.211564 0.564506
vt 0.286285 0.490900
vt 0.282567 0.501228
vt 0.287788 0.493287
vt 0.282544 0.504718
vt 0.229114 0.500241
vt 0.228888 0.469415
vt 0.263358 0.477695
vt 0.263182 0.508424
vt 0.241982 0.452846
vt 0.219459 0.444663
vt 0.219475 0.425831
vt 0.241999 0.434014
vt 0.287519 0.534006
vt 0.282407 0.523332
vt 0.277475 0.523138
vt 0.267269 0.548690
vt 0.227939 0.550715
vt 0.237700 0.478491
vt 0.276789 0.478245
vt 0.279187 0.472128
vt 0.279187 0.510387
vt 0.234074 0.509689
vt 0.234074 0.471430
vt 0.288180 0.583383
vt 0.248253 0.579372
vt 0.257774 0.451848
vt 0.297942 0.452637
vt 0.210984 0.438575
vt 0.278209 0.438719
vt 0.258763 0.505345
vt 0.198086 0.505215
vt 0.272334 0.533408
vt 0.250771 0.532036
vt 0.229165 0.558856
vt 0.211048 0.489739
vt 0.250975 0.514913
vt 0.241130 0.485814
vt 0.241041 0.578486
vt 0.207718 0.566834
vt 0.207806 0.475817
vt 0.362234 0.946419
vt 0.342450 0.918467
vt 0.342653 0.901345
vt 0.381983 0.878337
vt 0.236321 0.521617
vt 0.248598 0.513434
vt 0.248590 0.496311
vt 0.236312 0.504495
vt 0.241187 0.416365
vt 0.241187 0.490334
vt 0.228659 0.493054
vt 0.228660 0.419085
vt 0.268353 0.503014
vt 0.271073 0.530966
vt 0.224214 0.521651
vt 0.227185 0.494831
vt 0.260737 0.421633
vt 0.191195 0.416483
vt 0.192907 0.541700
vt 0.250975 0.552379
vn -0.0000 0.0000 -1.0000
vn 0.0000 0.0000 1.0000
vn -0.0000 -1.0000 -0.0000
vn 0.0048 -1.0000 -0.0000
vn 0.9509 -0.3094 -0.0000
vn 0.9996 -0.0266 -0.0000
vn 0.9996 0.0265 0.0000
vn -0.9996 0.0265 0.0000
vn -0.9538 0.3005 0.0000
vn -0.9592 -0.2826 -0.0000
vn 0.9498 -0.3129 -0.0000
vn 0.9625 0.2712 0.0000
vn -0.9534 0.3019 0.0000
vn 0.0000 1.0000 0.0000
vn -0.9996 -0.0266 -0.0000
vn 0.9998 -0.0183 0.0076
vn -0.0004 -0.9998 -0.0204
vn 0.0000 -0.9996 -0.0271
vn -0.0000 -0.9996 -0.0269
vn 0.9487 0.0000 -0.3162
vn -0.0052 1.0000 0.0023
vn -0.0034 0.9999 0.0113
vn -0.0034 0.9999 0.0137
vn -0.0004 0.9998 0.0200
vn -0.7071 0.0000 0.7071
vn -0.0011 -0.9998 0.0188
vn 0.0036 0.9999 0.0114
vn 0.0063 1.0000 0.0054
vn 0.0006 1.0000 0.0018
vn 0.0041 0.9999 0.0129
vn 0.0000 -0.9996 -0.0270
vn 0.0004 -0.9998 -0.0204
vn 0.0000 0.9998 0.0210
vn 0.0227 -0.9997 0.0006
vn 0.0212 -0.9998 0.0039
vn 0.0232 -0.9997 -0.0005
vn -0.0020 -1.0000 -0.0008
vn -0.0001 1.0000 0.0001
vn 0.0000 1.0000 0.0019
vn -1.0000 0.0000 0.0000
vn 0.0001 1.0000 0.0002
vn 0.0001 1.0000 0.0001
vn 0.7071 0.0000 0.7071
vn -0.0184 -0.9998 0.0037
vn -0.0208 -0.9998 0.0009
vn -0.0217 -0.9998 -0.0000
vn -0.0175 -0.9998 0.0047
vn 0.0002 1.0000 0.0006
vn 0.0002 1.0000 0.0008
vn -0.9487 0.0000 -0.3162
vn -0.0002 1.0000 0.0008
vn -0.0002 1.0000 0.0006
vn 0.0206 -0.9998 0.0052
vn 1.0000 0.0000 0.0000
usemtl Material.001
s 1
f 1/1/1 2/2/1 3/3/1 4/4/1
f 5/5/2 6/6/2 7/7/2 8/8/2
f 4/9/3 3/10/3 9/11/3 5/12/3
f 10/13/4 11/14/4 12/15/4 13/16/4
f 14/17/2 15/18/2 13/19/2 12/20/2
f 16/21/1 17/22/1 11/23/1 10/24/1
f 18/25/2 9/26/2 19/27/2 20/28/2
f 10/29/5 13/30/5 21/31/5 22/32/5
f 18/33/2 6/34/2 5/35/2 9/36/2
f 16/37/1 10/38/1 22/39/1 23/40/1
f 24/41/6 20/42/6 25/43/6 26/44/6
f 22/32/7 21/31/7 27/45/7 28/46/7
f 20/28/2 19/27/2 29/47/2 25/48/2
f 30/49/8 31/50/8 32/51/8 33/52/8
f 14/53/2 12/54/2 30/55/2 34/56/2
f 6/57/9 1/58/9 35/59/9 7/60/9
f 9/61/10 3/62/10 36/63/10 19/64/10
f 11/65/1 17/66/1 37/67/1 31/68/1
f 3/69/1 2/70/1 24/71/1 36/72/1
f 4/73/11 5/74/11 8/75/11 38/76/11
f 2/77/12 18/78/12 20/42/12 24/41/12
f 1/79/1 4/80/1 38/81/1 35/82/1
f 17/83/12 14/84/12 34/85/12 37/86/12
f 13/87/2 15/88/2 39/89/2 21/90/2
f 15/91/13 16/92/13 23/93/13 39/94/13
f 12/95/10 11/96/10 31/50/10 30/49/10
f 40/97/14 41/98/14 29/99/14 42/100/14
f 28/101/14 27/102/14 33/103/14 32/104/14
f 43/105/1 40/106/1 42/107/1 26/108/1
f 44/109/1 28/110/1 32/111/1 45/112/1
f 8/8/2 7/7/2 46/113/2 41/114/2
f 34/56/2 30/55/2 33/115/2 47/116/2
f 7/60/15 35/59/15 43/117/15 46/118/15
f 31/68/1 37/67/1 45/112/1 32/111/1
f 37/86/16 34/85/16 47/119/16 45/120/16
f 36/72/1 24/71/1 26/108/1 42/107/1
f 39/94/15 23/93/15 44/121/15 48/122/15
f 35/82/1 38/81/1 40/106/1 43/105/1
f 19/64/8 36/63/8 42/123/8 29/124/8
f 21/90/2 39/89/2 48/125/2 27/126/2
f 38/76/7 8/75/7 41/127/7 40/128/7
f 23/40/1 22/39/1 28/110/1 44/109/1
f 27/126/2 48/125/2 47/116/2 33/115/2
f 41/114/2 46/113/2 25/48/2 29/47/2
f 2/129/17 49/130/17 50/131/18 18/132/19
f 51/133/2 52/134/2 53/135/2 50/136/2
f 54/137/20 55/138/20 56/139/20 57/140/20
f 58/141/21 59/142/22 52/143/23 60/144/24
f 59/145/25 61/146/25 53/147/25 52/148/25
f 62/149/1 57/150/1 56/151/1 63/152/1
f 16/153/26 63/154/26 56/155/26 17/156/26
f 64/157/27 65/158/28 66/159/29 51/160/30
f 18/132/19 50/131/18 53/161/18 6/162/31
f 61/163/32 1/164/32 6/162/31 53/161/18
f 60/165/24 52/166/23 51/167/33 66/168/33
f 65/169/28 58/170/21 60/171/14 66/172/29
f 69/173/34 15/174/35 1/164/36 61/163/36
f 15/174/37 14/175/37 2/129/37 1/164/37
f 54/176/38 67/177/39 65/178/28 64/179/27
f 70/180/40 69/181/40 61/182/40 59/183/40
f 68/184/41 70/185/42 59/186/22 58/187/21
f 51/188/43 50/189/43 49/190/43 64/191/43
f 14/175/44 55/192/45 49/130/46 2/129/46
f 17/156/47 56/155/47 55/192/45 14/175/44
f 71/193/48 62/194/49 70/195/42 68/196/41
f 62/197/50 63/198/50 69/199/50 70/200/50
f 57/201/51 72/202/52 67/203/39 54/204/38
f 63/154/53 16/153/53 15/174/35 69/173/34
f 72/205/52 71/206/48 68/207/41 67/208/39
f 64/209/54 49/210/54 55/211/54 54/212/54
f 72/213/52 57/214/51 62/215/49 71/216/48
f 58/217/21 65/218/28 67/219/39 68/220/41
