# Blender v2.93.5 OBJ File: 'ToyShopSign.blend'
# www.blender.org
mtllib ToyShopSign.mtl
o shelf.064_Cube.080
v -0.123370 2.500000 16.002571
v -0.123370 6.500000 16.002571
v -0.123370 2.500000 10.002572
v -0.123370 6.500000 10.002572
v 0.126630 2.500000 16.002571
v 0.126630 6.500000 16.002571
v 0.126630 2.500000 10.002572
v 0.126630 6.500000 10.002572
vt 0.006623 -0.001370
vt 0.006623 1.001408
vt 0.993383 1.001408
vt 0.993383 -0.001370
vt 0.047098 0.977539
vt 0.011069 0.977539
vt 0.011069 0.775104
vt 0.047098 0.775104
vt 0.083127 0.977539
vt 0.047098 0.977539
vt 0.047098 0.775104
vt 0.083127 0.775104
vt 0.119156 0.775104
vt 0.119156 0.977539
vt 0.155185 0.775104
vt 0.155185 0.977539
vt 0.119156 0.977539
vt 0.119156 0.775104
vn -1.0000 0.0000 0.0000
vn 0.0000 0.0000 -1.0000
vn 0.0000 0.0000 1.0000
vn 0.0000 -1.0000 0.0000
vn 0.0000 1.0000 0.0000
usemtl Material.002
s off
f 1/1/1 2/2/1 4/3/1 3/4/1
f 3/5/2 4/6/2 8/7/2 7/8/2
f 5/9/3 6/10/3 2/11/3 1/12/3
f 3/13/4 7/14/4 5/9/4 1/12/4
f 8/15/5 4/16/5 2/17/5 6/18/5
