# Blender v2.83.2 OBJ File: 'Train.blend'
# www.blender.org
mtllib TrainArea.mtl
o Plane
v -2.399761 0.504429 14.172657
v -2.299762 0.504429 14.172657
v -2.399761 0.504429 11.964847
v -2.299762 0.504429 11.964847
v -2.530173 0.504429 14.421842
v -2.460587 0.504429 14.478318
v -2.735464 0.504429 14.506614
v -2.709598 0.504429 14.597463
v -2.902220 0.504429 14.534548
v -2.904242 0.504429 14.634412
v -3.708953 0.504429 14.172657
v -3.608953 0.504429 14.172657
v -3.608953 0.504429 11.964847
v -3.708953 0.504429 11.964847
v -3.478542 0.504429 14.421842
v -3.548128 0.504429 14.478318
v -3.273251 0.504429 14.506614
v -3.299118 0.504429 14.597463
v -3.106495 0.504429 14.534548
v -3.104473 0.504429 14.634412
vt 0.000000 0.000000
vt 1.000000 0.000000
vt 1.000000 1.000000
vt 0.000000 1.000000
vt 0.000000 0.000000
vt 1.000000 0.000000
vt 0.000000 0.000000
vt 1.000000 0.000000
vt 0.000000 0.000000
vt 1.000000 0.000000
vt 0.000000 0.000000
vt 1.000000 0.000000
vt 1.000000 1.000000
vt 0.000000 1.000000
vt 0.000000 0.000000
vt 1.000000 0.000000
vt 0.000000 0.000000
vt 1.000000 0.000000
vt 0.000000 0.000000
vt 1.000000 0.000000
vn 0.0000 1.0000 0.0000
vn 0.0000 -1.0000 0.0000
usemtl Material.001
s off
f 1/1/1 2/2/1 4/3/1 3/4/1
f 2/2/1 1/1/1 5/5/1 6/6/1
f 6/6/1 5/5/1 7/7/1 8/8/1
f 8/8/1 7/7/1 9/9/1 10/10/1
f 12/11/2 11/12/2 14/13/2 13/14/2
f 11/12/2 12/11/2 15/15/2 16/16/2
f 16/16/2 15/15/2 17/17/2 18/18/2
f 18/18/2 17/17/2 19/19/2 20/20/2
f 9/9/1 19/19/1 20/20/1 10/10/1
o shelf.030_Cube.034
v -1.998370 0.000000 15.002572
v -1.998370 0.500000 15.002572
v -3.998370 0.000000 15.002572
v -3.998370 0.500000 15.002572
v -1.998370 0.000000 11.002572
v -1.998370 0.500000 11.002572
v -3.998370 0.000000 11.002572
v -3.998370 0.500000 11.002572
vt 0.375000 0.000000
vt 0.625000 0.000000
vt 0.625000 0.250000
vt 0.375000 0.250000
vt 0.625000 0.500000
vt 0.375000 0.500000
vt 0.625000 0.750000
vt 0.375000 0.750000
vt 0.625000 1.000000
vt 0.375000 1.000000
vt 0.125000 0.500000
vt 0.125000 0.750000
vt 0.875000 0.500000
vt 0.875000 0.750000
vn 0.0000 0.0000 1.0000
vn -1.0000 0.0000 0.0000
vn 0.0000 0.0000 -1.0000
vn 1.0000 0.0000 -0.0000
vn 0.0000 -1.0000 0.0000
vn 0.0000 1.0000 0.0000
usemtl None
s off
f 21/21/3 22/22/3 24/23/3 23/24/3
f 23/24/4 24/23/4 28/25/4 27/26/4
f 27/26/5 28/25/5 26/27/5 25/28/5
f 25/28/6 26/27/6 22/29/6 21/30/6
f 23/31/7 27/26/7 25/28/7 21/32/7
f 28/25/8 24/33/8 22/34/8 26/27/8
o shelf.059_Cube.075
v -1.998370 0.500000 12.002572
v -1.998370 1.000000 12.002572
v -3.998370 0.500000 12.002572
v -3.998370 1.000000 12.002572
v -1.998370 0.500000 11.002572
v -1.998370 1.000000 11.002572
v -3.998370 0.500000 11.002572
v -3.998370 1.000000 11.002572
vt 0.375000 0.000000
vt 0.625000 0.000000
vt 0.625000 0.250000
vt 0.375000 0.250000
vt 0.625000 0.500000
vt 0.375000 0.500000
vt 0.625000 0.750000
vt 0.375000 0.750000
vt 0.625000 1.000000
vt 0.375000 1.000000
vt 0.125000 0.500000
vt 0.125000 0.750000
vt 0.875000 0.500000
vt 0.875000 0.750000
vn 0.0000 0.0000 1.0000
vn -1.0000 0.0000 0.0000
vn 0.0000 0.0000 -1.0000
vn 1.0000 0.0000 0.0000
vn 0.0000 -1.0000 0.0000
vn 0.0000 1.0000 0.0000
usemtl None
s off
f 29/35/9 30/36/9 32/37/9 31/38/9
f 31/38/10 32/37/10 36/39/10 35/40/10
f 35/40/11 36/39/11 34/41/11 33/42/11
f 33/42/12 34/41/12 30/43/12 29/44/12
f 31/45/13 35/40/13 33/42/13 29/46/13
f 36/39/14 32/47/14 30/48/14 34/41/14
o Cube.002_Cube.016
v -3.988666 0.308589 13.071638
v -3.988666 0.896803 13.071638
v -3.988666 0.308589 12.933506
v -3.988666 0.896803 12.933506
v -3.850533 0.308589 13.071638
v -3.850533 0.896803 13.071638
v -3.850533 0.308589 12.933506
v -3.850533 0.896803 12.933506
vt 0.375000 0.000000
vt 0.625000 0.000000
vt 0.625000 0.250000
vt 0.375000 0.250000
vt 0.625000 0.500000
vt 0.375000 0.500000
vt 0.625000 0.750000
vt 0.375000 0.750000
vt 0.625000 1.000000
vt 0.375000 1.000000
vt 0.125000 0.500000
vt 0.125000 0.750000
vt 0.875000 0.500000
vt 0.875000 0.750000
vn -1.0000 0.0000 0.0000
vn 0.0000 0.0000 -1.0000
vn 1.0000 0.0000 0.0000
vn 0.0000 0.0000 1.0000
vn 0.0000 -1.0000 0.0000
vn 0.0000 1.0000 0.0000
usemtl None
s off
f 37/49/15 38/50/15 40/51/15 39/52/15
f 39/52/16 40/51/16 44/53/16 43/54/16
f 43/54/17 44/53/17 42/55/17 41/56/17
f 41/56/18 42/55/18 38/57/18 37/58/18
f 39/59/19 43/54/19 41/56/19 37/60/19
f 44/53/20 40/61/20 38/62/20 42/55/20
o Cube.003_Cube.017
v -3.988666 0.308589 14.987920
v -3.988666 0.896803 14.987920
v -3.988666 0.308589 14.849788
v -3.988666 0.896803 14.849788
v -3.850533 0.308589 14.987920
v -3.850533 0.896803 14.987920
v -3.850533 0.308589 14.849788
v -3.850533 0.896803 14.849788
vt 0.375000 0.000000
vt 0.625000 0.000000
vt 0.625000 0.250000
vt 0.375000 0.250000
vt 0.625000 0.500000
vt 0.375000 0.500000
vt 0.625000 0.750000
vt 0.375000 0.750000
vt 0.625000 1.000000
vt 0.375000 1.000000
vt 0.125000 0.500000
vt 0.125000 0.750000
vt 0.875000 0.500000
vt 0.875000 0.750000
vn -1.0000 0.0000 0.0000
vn 0.0000 0.0000 -1.0000
vn 1.0000 0.0000 0.0000
vn 0.0000 0.0000 1.0000
vn 0.0000 -1.0000 0.0000
vn 0.0000 1.0000 0.0000
usemtl None
s off
f 45/63/21 46/64/21 48/65/21 47/66/21
f 47/66/22 48/65/22 52/67/22 51/68/22
f 51/68/23 52/67/23 50/69/23 49/70/23
f 49/70/24 50/69/24 46/71/24 45/72/24
f 47/73/25 51/68/25 49/70/25 45/74/25
f 52/67/26 48/75/26 46/76/26 50/69/26
o Cube.004_Cube.049
v -3.988666 0.308589 14.085322
v -3.988666 0.896803 14.085322
v -3.988666 0.308589 13.947190
v -3.988666 0.896803 13.947190
v -3.850533 0.308589 14.085322
v -3.850533 0.896803 14.085322
v -3.850533 0.308589 13.947190
v -3.850533 0.896803 13.947190
vt 0.375000 0.000000
vt 0.625000 0.000000
vt 0.625000 0.250000
vt 0.375000 0.250000
vt 0.625000 0.500000
vt 0.375000 0.500000
vt 0.625000 0.750000
vt 0.375000 0.750000
vt 0.625000 1.000000
vt 0.375000 1.000000
vt 0.125000 0.500000
vt 0.125000 0.750000
vt 0.875000 0.500000
vt 0.875000 0.750000
vn -1.0000 0.0000 0.0000
vn 0.0000 0.0000 -1.0000
vn 1.0000 0.0000 0.0000
vn 0.0000 0.0000 1.0000
vn 0.0000 -1.0000 0.0000
vn 0.0000 1.0000 0.0000
usemtl None
s off
f 53/77/27 54/78/27 56/79/27 55/80/27
f 55/80/28 56/79/28 60/81/28 59/82/28
f 59/82/29 60/81/29 58/83/29 57/84/29
f 57/84/30 58/83/30 54/85/30 53/86/30
f 55/87/31 59/82/31 57/84/31 53/88/31
f 60/81/32 56/89/32 54/90/32 58/83/32
o Cube.005_Cube.054
v -2.145359 0.308589 14.085322
v -2.145359 0.896803 14.085322
v -2.145359 0.308589 13.947190
v -2.145359 0.896803 13.947190
v -2.007226 0.308589 14.085322
v -2.007226 0.896803 14.085322
v -2.007226 0.308589 13.947190
v -2.007226 0.896803 13.947190
vt 0.375000 0.000000
vt 0.625000 0.000000
vt 0.625000 0.250000
vt 0.375000 0.250000
vt 0.625000 0.500000
vt 0.375000 0.500000
vt 0.625000 0.750000
vt 0.375000 0.750000
vt 0.625000 1.000000
vt 0.375000 1.000000
vt 0.125000 0.500000
vt 0.125000 0.750000
vt 0.875000 0.500000
vt 0.875000 0.750000
vn -1.0000 0.0000 0.0000
vn 0.0000 0.0000 -1.0000
vn 1.0000 0.0000 0.0000
vn 0.0000 0.0000 1.0000
vn 0.0000 -1.0000 0.0000
vn 0.0000 1.0000 0.0000
usemtl None
s off
f 61/91/33 62/92/33 64/93/33 63/94/33
f 63/94/34 64/93/34 68/95/34 67/96/34
f 67/96/35 68/95/35 66/97/35 65/98/35
f 65/98/36 66/97/36 62/99/36 61/100/36
f 63/101/37 67/96/37 65/98/37 61/102/37
f 68/95/38 64/103/38 62/104/38 66/97/38
o Cube.006_Cube.055
v -2.147753 0.308589 13.071638
v -2.147753 0.896803 13.071638
v -2.147753 0.308589 12.933506
v -2.147753 0.896803 12.933506
v -2.009620 0.308589 13.071638
v -2.009620 0.896803 13.071638
v -2.009620 0.308589 12.933506
v -2.009620 0.896803 12.933506
vt 0.375000 0.000000
vt 0.625000 0.000000
vt 0.625000 0.250000
vt 0.375000 0.250000
vt 0.625000 0.500000
vt 0.375000 0.500000
vt 0.625000 0.750000
vt 0.375000 0.750000
vt 0.625000 1.000000
vt 0.375000 1.000000
vt 0.125000 0.500000
vt 0.125000 0.750000
vt 0.875000 0.500000
vt 0.875000 0.750000
vn -1.0000 0.0000 0.0000
vn 0.0000 0.0000 -1.0000
vn 1.0000 0.0000 0.0000
vn 0.0000 0.0000 1.0000
vn 0.0000 -1.0000 0.0000
vn 0.0000 1.0000 0.0000
usemtl None
s off
f 69/105/39 70/106/39 72/107/39 71/108/39
f 71/108/40 72/107/40 76/109/40 75/110/40
f 75/110/41 76/109/41 74/111/41 73/112/41
f 73/112/42 74/111/42 70/113/42 69/114/42
f 71/115/43 75/110/43 73/112/43 69/116/43
f 76/109/44 72/117/44 70/118/44 74/111/44
o Cube.007_Cube.056
v -2.143661 0.308589 14.995158
v -2.143661 0.896803 14.995158
v -2.143661 0.308589 14.857026
v -2.143661 0.896803 14.857026
v -2.005528 0.308589 14.995158
v -2.005528 0.896803 14.995158
v -2.005528 0.308589 14.857026
v -2.005528 0.896803 14.857026
vt 0.375000 0.000000
vt 0.625000 0.000000
vt 0.625000 0.250000
vt 0.375000 0.250000
vt 0.625000 0.500000
vt 0.375000 0.500000
vt 0.625000 0.750000
vt 0.375000 0.750000
vt 0.625000 1.000000
vt 0.375000 1.000000
vt 0.125000 0.500000
vt 0.125000 0.750000
vt 0.875000 0.500000
vt 0.875000 0.750000
vn -1.0000 0.0000 0.0000
vn 0.0000 0.0000 -1.0000
vn 1.0000 0.0000 0.0000
vn 0.0000 0.0000 1.0000
vn 0.0000 -1.0000 0.0000
vn 0.0000 1.0000 0.0000
usemtl None
s off
f 77/119/45 78/120/45 80/121/45 79/122/45
f 79/122/46 80/121/46 84/123/46 83/124/46
f 83/124/47 84/123/47 82/125/47 81/126/47
f 81/126/48 82/125/48 78/127/48 77/128/48
f 79/129/49 83/124/49 81/126/49 77/130/49
f 84/123/50 80/131/50 78/132/50 82/125/50
o Cube.010_Cube.059
v -3.858427 0.915245 14.850477
v -3.858427 0.915245 11.892740
v -3.996559 0.915245 14.850477
v -3.996559 0.915245 11.892740
v -3.858427 0.891843 14.850477
v -3.858427 0.891843 11.892740
v -3.996559 0.891843 14.850477
v -3.996559 0.891843 11.892740
v -3.995988 0.915245 14.987920
v -2.002337 0.915245 14.987920
v -3.995988 0.915245 14.849787
v -2.002337 0.915245 14.849787
v -3.995988 0.891843 14.987920
v -2.002337 0.891843 14.987920
v -3.995988 0.891843 14.849787
v -2.002337 0.891843 14.849787
v -2.002028 0.915245 14.850153
v -2.002028 0.915245 11.892740
v -2.140161 0.915245 14.850153
v -2.140161 0.915245 11.892740
v -2.002028 0.891843 14.850153
v -2.002028 0.891843 11.892740
v -2.140161 0.891843 14.850153
v -2.140161 0.891843 11.892740
vt 0.375000 0.000000
vt 0.625000 0.000000
vt 0.625000 0.250000
vt 0.375000 0.250000
vt 0.625000 0.500000
vt 0.375000 0.500000
vt 0.625000 0.750000
vt 0.375000 0.750000
vt 0.625000 1.000000
vt 0.375000 1.000000
vt 0.875000 0.500000
vt 0.875000 0.750000
vt 0.375000 0.000000
vt 0.625000 0.000000
vt 0.625000 0.250000
vt 0.375000 0.250000
vt 0.625000 0.500000
vt 0.375000 0.500000
vt 0.625000 0.750000
vt 0.375000 0.750000
vt 0.625000 1.000000
vt 0.375000 1.000000
vt 0.125000 0.500000
vt 0.125000 0.750000
vt 0.875000 0.500000
vt 0.875000 0.750000
vt 0.375000 0.000000
vt 0.625000 0.000000
vt 0.625000 0.250000
vt 0.375000 0.250000
vt 0.625000 0.500000
vt 0.375000 0.500000
vt 0.625000 0.750000
vt 0.375000 0.750000
vt 0.625000 1.000000
vt 0.375000 1.000000
vt 0.875000 0.500000
vt 0.875000 0.750000
vn 0.0000 1.0000 0.0000
vn -1.0000 0.0000 0.0000
vn 0.0000 -1.0000 0.0000
vn 1.0000 0.0000 0.0000
vn 0.0000 0.0000 -1.0000
vn -0.0000 0.0000 1.0000
usemtl None
s off
f 85/133/51 86/134/51 88/135/51 87/136/51
f 87/136/52 88/135/52 92/137/52 91/138/52
f 91/138/53 92/137/53 90/139/53 89/140/53
f 89/140/54 90/139/54 86/141/54 85/142/54
f 92/137/55 88/143/55 86/144/55 90/139/55
f 93/145/51 94/146/51 96/147/51 95/148/51
f 95/148/55 96/147/55 100/149/55 99/150/55
f 99/150/53 100/149/53 98/151/53 97/152/53
f 97/152/56 98/151/56 94/153/56 93/154/56
f 95/155/52 99/150/52 97/152/52 93/156/52
f 100/149/54 96/157/54 94/158/54 98/151/54
f 101/159/51 102/160/51 104/161/51 103/162/51
f 103/162/52 104/161/52 108/163/52 107/164/52
f 107/164/53 108/163/53 106/165/53 105/166/53
f 105/166/54 106/165/54 102/167/54 101/168/54
f 108/163/55 104/169/55 102/170/55 106/165/55
